<?xml version="1.0" encoding="UTF-8"?>
<svg version="1.1" xmlns="http://www.w3.org/2000/svg" width="737" height="300">
<rect width="100%" height="100%" fill="#ffffff" /><rect width="100%" height="100%" fill="#ffffff" />
<path d="M0 0 C2.83886719 1.34423828 2.83886719 1.34423828 5.796875 3.0703125 C6.90861084 3.71299072 8.02034668 4.35566895 9.16577148 5.01782227 C10.04227859 5.53326096 10.04227859 5.53326096 10.93649292 6.05911255 C12.77283861 7.13842337 14.61597836 8.20519971 16.46118164 9.26928711 C22.20556372 12.58853797 27.92517232 15.94813262 33.62319946 19.34631348 C35.41650334 20.41411377 37.21305105 21.4762267 39.01074219 22.53662109 C41.26002241 23.86638223 43.50188389 25.20878936 45.73535156 26.56494141 C46.74952148 27.1635498 47.76369141 27.7621582 48.80859375 28.37890625 C49.69345459 28.9107251 50.57831543 29.44254395 51.48999023 29.99047852 C54.52901453 31.21276871 55.91645278 30.99710145 59 30 C60.85276674 29.2209164 60.85276674 29.2209164 62.58203125 28.20703125 C63.25476074 27.83102783 63.92749023 27.45502441 64.62060547 27.06762695 C65.34393066 26.65343506 66.06725586 26.23924316 66.8125 25.8125 C67.58223145 25.37832764 68.35196289 24.94415527 69.14501953 24.49682617 C77.88143874 19.54630347 86.5482439 14.47261147 95.2109375 9.39453125 C96.62584473 8.57009521 96.62584473 8.57009521 98.06933594 7.72900391 C100.13173096 6.51225269 102.18080806 5.27278412 104.21972656 4.01708984 C105.80092285 3.05536865 105.80092285 3.05536865 107.4140625 2.07421875 C108.36490723 1.48600342 109.31575195 0.89778809 110.29541016 0.29174805 C113.24460183 -1.11682509 114.78317239 -1.45780523 118 -1 C120.32641602 0.03125 120.32641602 0.03125 122.75390625 1.5 C123.67792236 2.05010742 124.60193848 2.60021484 125.55395508 3.16699219 C126.5467749 3.77188477 127.53959473 4.37677734 128.5625 5 C130.70223071 6.27754069 132.84289705 7.55351529 134.984375 8.828125 C136.68110352 9.84229492 136.68110352 9.84229492 138.41210938 10.87695312 C144.66018391 14.59097619 150.9925238 18.16028563 157.3125 21.75 C159.68433135 23.09767295 162.05529073 24.44684124 164.42578125 25.796875 C165.43036377 26.36760742 166.43494629 26.93833984 167.4699707 27.52636719 C169.3509888 28.621979 171.18876691 29.79251127 173 31 C177.23614233 30.6876858 180.24001256 29.57812161 183.8515625 27.40234375 C185.23299438 26.58189575 185.23299438 26.58189575 186.64233398 25.74487305 C187.62661377 25.14843994 188.61089355 24.55200684 189.625 23.9375 C191.75303549 22.67041144 193.88198246 21.40485275 196.01171875 20.140625 C197.13626465 19.47095703 198.26081055 18.80128906 199.41943359 18.11132812 C206.33273015 14.0170062 213.33854491 10.0802794 220.32672119 6.11569214 C222.09225161 5.1135862 223.85669883 4.10957259 225.62109375 3.10546875 C226.6361499 2.52949951 227.65120605 1.95353027 228.69702148 1.36010742 C230.88774381 0.19534713 230.88774381 0.19534713 232 -1 C239.00212313 -0.86734814 243.96125564 2.55416445 249.8125 6.125 C251.93693217 7.39418011 254.06195455 8.66237272 256.1875 9.9296875 C257.84652344 10.92500488 257.84652344 10.92500488 259.5390625 11.94042969 C265.41885509 15.45348435 271.37123305 18.84240247 277.3125 22.25 C279.49673087 23.50409934 281.68037344 24.75922414 283.86328125 26.015625 C284.78407471 26.54446289 285.70486816 27.07330078 286.65356445 27.61816406 C288.47062767 28.68824811 290.24541946 29.83027964 292 31 C296.44193849 30.69358076 299.55889692 29.39592137 303.359375 27.1484375 C304.38063477 26.55111816 305.40189453 25.95379883 306.45410156 25.33837891 C307.54174805 24.69046387 308.62939453 24.04254883 309.75 23.375 C311.47877901 22.36338608 313.20756416 21.35178248 314.93670654 20.34078979 C317.96241485 18.5683405 320.98098454 16.78381742 324 15 C327.60345987 12.87085738 331.20807967 10.74391415 334.82128906 8.63134766 C337.06789099 7.316724 339.30964215 5.99376725 341.54589844 4.66162109 C342.5671582 4.06430176 343.58841797 3.46698242 344.640625 2.8515625 C345.53297852 2.32385254 346.42533203 1.79614258 347.34472656 1.25244141 C350.37160622 -0.1752795 352.64973042 -0.84275348 356 -1 C358.83886719 0.1171875 358.83886719 0.1171875 361.796875 1.875 C362.90869141 2.52388184 364.02050781 3.17276367 365.16601562 3.84130859 C366.36081165 4.56064894 367.55546996 5.28021805 368.75 6 C369.98534491 6.7277458 371.22168837 7.45379902 372.45898438 8.17822266 C375.02229642 9.68162748 377.58035663 11.19343391 380.13476562 12.71191406 C385.08465111 15.64960281 390.07105773 18.52310731 395.05957031 21.39453125 C397.31597047 22.69341843 399.57059434 23.99539731 401.82324219 25.30078125 C402.84063477 25.88988281 403.85802734 26.47898437 404.90625 27.0859375 C405.79634766 27.6020459 406.68644531 28.1181543 407.60351562 28.64990234 C408.39435547 29.09543457 409.18519531 29.5409668 410 30 C410.98782471 30.6643103 410.98782471 30.6643103 411.99560547 31.34204102 C414.08157609 32.25843604 414.08157609 32.25843604 416.42822266 31.08813477 C417.3310498 30.54471436 418.23387695 30.00129395 419.1640625 29.44140625 C420.70574097 28.53116699 420.70574097 28.53116699 422.27856445 27.60253906 C423.38288818 26.92932617 424.48721191 26.25611328 425.625 25.5625 C426.77528836 24.87690445 427.92659058 24.19300731 429.07885742 23.51074219 C431.49091676 22.08086079 433.89835567 20.64360182 436.30322266 19.20166016 C442.26117662 15.64012024 448.29189029 12.20409074 454.3125 8.75 C456.45495301 7.51653805 458.59691679 6.28222577 460.73828125 5.046875 C461.63587158 4.52963867 462.53346191 4.01240234 463.45825195 3.47949219 C465.21421514 2.45738702 466.95449424 1.40802584 468.68115234 0.3371582 C471.52222358 -1.30113903 472.76419404 -1.54169789 476 -1 C478.51275911 0.26681212 480.81245949 1.57398876 483.1875 3.0625 C484.71258388 3.98855835 486.23869354 4.91292872 487.765625 5.8359375 C488.60029297 6.34350586 489.43496094 6.85107422 490.29492188 7.37402344 C495.30099187 10.38308717 500.37319594 13.27791363 505.4375 16.1875 C507.68629847 17.48289837 509.93499505 18.77847365 512.18359375 20.07421875 C513.87718018 21.0494751 513.87718018 21.0494751 515.60498047 22.04443359 C521.0716998 25.19332054 526.53574887 28.34683264 532 31.5 C534.16665311 32.7500235 536.33331979 34.00002347 538.5 35.25 C542.83333333 37.75 547.16666667 40.25 551.5 42.75 C552.57411133 43.36963623 553.64822266 43.98927246 554.75488281 44.62768555 C556.90542543 45.86847033 559.05581792 47.10951535 561.20605469 48.35083008 C566.26377813 51.27019474 571.32294493 54.18696209 576.38757324 57.09432983 C578.76923502 58.46174766 581.1500302 59.83067039 583.53076172 61.19970703 C585.20326021 62.16064553 586.87700336 63.11941672 588.55078125 64.078125 C589.57042969 64.66464844 590.59007812 65.25117187 591.640625 65.85546875 C592.97915527 66.62346802 592.97915527 66.62346802 594.34472656 67.40698242 C595.2209668 67.93267822 596.09720703 68.45837402 597 69 C598.02988352 69.56313526 599.05976704 70.12627052 600.12085915 70.70647049 C603 73 603 73 603.73828697 75.88164902 C603.73275621 77.00623646 603.72722546 78.1308239 603.7215271 79.28948975 C603.73389908 81.22878609 603.73389908 81.22878609 603.746521 83.20726013 C603.72528726 84.63785626 603.70347842 86.06844394 603.68115234 87.49902344 C603.67945972 89.00698275 603.68041025 90.51494701 603.68380737 92.02290344 C603.68552997 96.1159441 603.65023865 100.20793125 603.60836363 104.30072689 C603.57087284 108.57813625 603.5673326 112.85556937 603.56021118 117.13311768 C603.54155737 125.23284931 603.49231342 133.33209544 603.43211424 141.43161321 C603.3650655 150.6527436 603.33206427 159.8738971 603.30194163 169.09521055 C603.2392146 188.06374903 603.13366947 207.03183549 603 226 C602.48663841 226.28453946 601.97327682 226.56907892 601.44435883 226.86224079 C599.08956911 228.16781096 596.73521154 229.47415855 594.38085938 230.78051758 C593.57340271 231.22804634 592.76594604 231.6755751 591.934021 232.13666534 C585.74148782 235.57378095 579.60335161 239.09428245 573.5 242.6875 C571.44562799 243.89116363 569.39092877 245.09426893 567.3359375 246.296875 C566.2953418 246.90595703 565.25474609 247.51503906 564.18261719 248.14257812 C558.8410891 251.25997193 553.48351626 254.34942542 548.125 257.4375 C547.04541016 258.05971436 545.96582031 258.68192871 544.85351562 259.32299805 C542.6631748 260.58511517 540.47274498 261.84707785 538.28222656 263.10888672 C532.85340057 266.23680149 527.42681365 269.36859566 522 272.5 C519.85808102 273.73569114 517.71615391 274.97136817 515.57421875 276.20703125 C511.59537568 278.50249458 507.61669227 280.79823414 503.63821411 283.09432983 C501.84933082 284.12673478 500.06041283 285.15907956 498.27148438 286.19140625 C496.02662364 287.48685948 493.7818281 288.7824257 491.53710938 290.078125 C489.55107352 291.2241571 487.56309394 292.36683056 485.57275391 293.50537109 C484.00758627 294.41464764 482.45395558 295.34472826 480.92333984 296.31103516 C477.03058849 298.7398822 474.55556506 299.37602624 470 299 C467.52832031 297.95288086 467.52832031 297.95288086 465.078125 296.46484375 C463.68170776 295.63206909 463.68170776 295.63206909 462.25708008 294.7824707 C461.26474365 294.17363037 460.27240723 293.56479004 459.25 292.9375 C457.11386583 291.65787779 454.97712435 290.37926898 452.83984375 289.1015625 C451.72722168 288.43157227 450.61459961 287.76158203 449.46826172 287.07128906 C443.63051596 283.57033929 437.71609785 280.20069168 431.8125 276.8125 C429.65197718 275.56964742 427.49179643 274.32619994 425.33203125 273.08203125 C424.42171143 272.55843018 423.5113916 272.0348291 422.57348633 271.49536133 C420.81664006 270.47452048 419.09743041 269.38677131 417.41674805 268.24487305 C415.15491571 266.81408095 415.15491571 266.81408095 413.00097656 267.14575195 C410.56634747 268.18513302 408.29197435 269.36797572 405.984375 270.66796875 C404.49502441 271.5036438 404.49502441 271.5036438 402.97558594 272.35620117 C401.91114258 272.96052979 400.84669922 273.5648584 399.75 274.1875 C398.65204102 274.80665283 397.55408203 275.42580566 396.42285156 276.0637207 C377.65784959 286.33153994 377.65784959 286.33153994 359.57128906 297.67895508 C356.38567644 299.31561952 354.546088 299.4359619 351 299 C348.12939453 297.75341797 348.12939453 297.75341797 345.1328125 295.9921875 C344.01060303 295.34137207 342.88839355 294.69055664 341.73217773 294.02001953 C340.52962135 293.30528855 339.32723237 292.59027585 338.125 291.875 C336.88488264 291.14970355 335.64406955 290.42559544 334.40258789 289.70263672 C331.85588023 288.21689806 329.31365108 286.72390598 326.77490234 285.22460938 C323.16850366 283.0959393 319.54930211 280.98998282 315.92578125 278.890625 C311.80031821 276.49740729 307.67597757 274.1024094 303.55859375 271.6953125 C302.74704834 271.22109863 301.93550293 270.74688477 301.09936523 270.25830078 C299.36919416 269.22128465 297.67837031 268.11891354 296 267 C291.99220955 267.33124639 289.10049668 268.87289207 285.66796875 270.88671875 C284.63293213 271.48911377 283.59789551 272.09150879 282.53149414 272.7121582 C281.42797607 273.364021 280.32445801 274.01588379 279.1875 274.6875 C277.45004837 275.70253947 275.71259507 276.71757613 273.97502136 277.73240662 C272.18011457 278.78232745 270.38719855 279.83557695 268.59472656 280.88964844 C265.08787306 282.95072933 261.57222561 284.99626552 258.0546875 287.0390625 C251.83959971 290.65052288 251.83959971 290.65052288 245.62890625 294.26953125 C244.3924939 294.99039917 244.3924939 294.99039917 243.13110352 295.72583008 C241.38970715 296.76699718 239.68815812 297.87456125 238 299 C231.63369499 300.19490648 226.88152985 296.49353657 221.625 293.375 C220.62710449 292.79685547 219.62920898 292.21871094 218.60107422 291.62304688 C215.39340059 289.76094608 212.19662739 287.88098908 209 286 C206.8235777 284.73063676 204.64649735 283.46240111 202.46875 282.1953125 C199.36284629 280.38758132 196.25810739 278.57811158 193.15869141 276.75927734 C191.30921686 275.67402744 189.45602206 274.59508512 187.59863281 273.5234375 C185.88588332 272.51934535 184.19144808 271.48323954 182.51855469 270.4140625 C178.1343874 267.6098858 178.1343874 267.6098858 173.109375 267.30078125 C168.43904647 269.85303365 163.8209533 272.46029569 159.25 275.1875 C157.11758815 276.44599162 154.98475988 277.70377786 152.8515625 278.9609375 C151.73942383 279.61803711 150.62728516 280.27513672 149.48144531 280.95214844 C144.12949684 284.10679379 138.74692409 287.20858335 133.36413574 290.31021118 C131.6435719 291.30179675 129.92383203 292.29481159 128.20410156 293.2878418 C117.40854085 299.51419226 117.40854085 299.51419226 112 299 C109.43143616 297.74235065 107.14999503 296.4609853 104.75 294.9375 C103.25241157 294.02162087 101.75363033 293.10769038 100.25390625 292.1953125 C99.42777832 291.6890332 98.60165039 291.18275391 97.75048828 290.66113281 C92.44694777 287.45810692 87.06080437 284.39650643 81.6875 281.3125 C79.54528056 280.07993506 77.40334679 278.84687348 75.26171875 277.61328125 C74.23095215 277.02369629 73.20018555 276.43411133 72.13818359 275.82666016 C69.967891 274.56338575 67.81541212 273.26918781 65.67822266 271.95068359 C64.61522949 271.3005127 63.55223633 270.6503418 62.45703125 269.98046875 C61.50417236 269.38516357 60.55131348 268.7898584 59.56958008 268.17651367 C57.16172417 266.82489669 57.16172417 266.82489669 54.97241211 267.14697266 C52.55297812 268.1933277 50.28220215 269.37348092 47.984375 270.66796875 C46.99147461 271.22508545 45.99857422 271.78220215 44.97558594 272.35620117 C43.91114258 272.96052979 42.84669922 273.5648584 41.75 274.1875 C40.65204102 274.80665283 39.55408203 275.42580566 38.42285156 276.0637207 C19.65784959 286.33153994 19.65784959 286.33153994 1.57128906 297.67895508 C-1.59982309 299.30816965 -3.47157812 299.4198195 -7 299 C-9.65527344 297.86108398 -9.65527344 297.86108398 -12.359375 296.24609375 C-13.88884766 295.34697266 -13.88884766 295.34697266 -15.44921875 294.4296875 C-16.53847656 293.77226562 -17.62773438 293.11484375 -18.75 292.4375 C-19.90673576 291.75252583 -21.06430424 291.06895615 -22.22265625 290.38671875 C-24.62761083 288.96879658 -27.02887559 287.54490821 -29.42773438 286.11669922 C-34.91885488 282.85423366 -40.46197752 279.68193767 -46 276.5 C-48.16429578 275.25170646 -50.32835753 274.00300707 -52.4921875 272.75390625 C-56.85065388 270.23930564 -61.21012191 267.72645339 -65.5703125 265.21484375 C-78.06149319 258.017686 -90.53421037 250.79020729 -102.98046875 243.515625 C-107.25038607 241.01995265 -111.52440348 238.53146081 -115.80078125 236.046875 C-116.91114746 235.40113525 -118.02151367 234.75539551 -119.16552734 234.09008789 C-121.30969496 232.8432965 -123.45452812 231.59764881 -125.60009766 230.35327148 C-126.55577637 229.79712158 -127.51145508 229.24097168 -128.49609375 228.66796875 C-129.34357178 228.17578857 -130.1910498 227.6836084 -131.06420898 227.17651367 C-133 226 -133 226 -134 225 C-134.14916808 223.07129376 -134.22866266 221.13718281 -134.28175354 219.20344543 C-134.31781204 217.94335159 -134.35387054 216.68325775 -134.39102173 215.38497925 C-134.42576541 213.97516579 -134.46020957 212.56534493 -134.49438477 211.15551758 C-134.53336797 209.68056465 -134.57245842 208.20561456 -134.61164856 206.73066711 C-134.95854419 193.21850206 -135.16217571 179.70372055 -135.32562351 166.18822193 C-135.43813386 157.10352086 -135.59550857 148.02413319 -135.86547852 138.94262695 C-136.10100138 131.01817375 -136.2506309 123.09746571 -136.29879421 115.16957778 C-136.32709959 110.97504237 -136.39623367 106.79074939 -136.56808662 102.59943581 C-137.56892402 77.17898472 -137.56892402 77.17898472 -131.64295197 70.24004555 C-125.91750167 65.60884607 -119.64236496 62.67652844 -112.78759193 60.08877945 C-109.21006912 58.69146829 -106.14017076 56.90311828 -102.8828125 54.87890625 C-100.96389348 53.77282692 -99.04463128 52.66734273 -97.125 51.5625 C-94.94009462 50.30340198 -92.75519908 49.04428689 -90.5703125 47.78515625 C-89.48524414 47.16012207 -88.40017578 46.53508789 -87.28222656 45.89111328 C-81.85340058 42.76319852 -76.42680719 39.63141552 -71 36.5 C-68.83334417 35.24998121 -66.6666775 33.99998122 -64.5 32.75 C-63.4275 32.13125 -62.355 31.5125 -61.25 30.875 C-58 29 -54.75 27.125 -51.5 25.25 C-50.42588867 24.62996094 -49.35177734 24.00992187 -48.24511719 23.37109375 C-46.09598426 22.13193074 -43.9456082 20.89492106 -41.79394531 19.66015625 C-36.70898524 16.73858186 -31.63959655 13.79655101 -26.61242676 10.7767334 C-24.23637058 9.35122749 -21.85313376 7.93798164 -19.46923828 6.52563477 C-17.78875017 5.52311693 -16.11882645 4.50295724 -14.44921875 3.48242188 C-13.42957031 2.87978516 -12.40992187 2.27714844 -11.359375 1.65625 C-10.46702148 1.11806641 -9.57466797 0.57988281 -8.65527344 0.02539062 C-5.25377158 -1.28817206 -3.48946311 -0.98886882 0 0 Z M-9.8203125 27.5703125 C-11.31679321 28.40937134 -11.31679321 28.40937134 -12.84350586 29.26538086 C-13.92639893 29.87905518 -15.00929199 30.49272949 -16.125 31.125 C-17.80831421 32.07354858 -17.80831421 32.07354858 -19.52563477 33.04125977 C-29.0415647 38.41329751 -38.48290165 43.91168082 -47.91015625 49.4375 C-54.21570576 53.13213402 -60.5430512 56.78833913 -66.875 60.4375 C-67.94065186 61.05206055 -69.00630371 61.66662109 -70.10424805 62.29980469 C-75.19927402 65.23707701 -80.29620106 68.17099561 -85.39663696 71.09886169 C-87.77597172 72.46506514 -90.15442282 73.83280256 -92.53277588 75.20071411 C-94.2044039 76.16129865 -95.87733079 77.11962178 -97.55029297 78.07788086 C-98.57010254 78.66448486 -99.58991211 79.25108887 -100.640625 79.85546875 C-101.97915527 80.62346802 -101.97915527 80.62346802 -103.34472656 81.40698242 C-104.65908691 82.19552612 -104.65908691 82.19552612 -106 83 C-107.54607437 83.67023949 -107.54607437 83.67023949 -109.12338257 84.35401917 C-112.42048564 87.38677265 -112.45578862 87.95750056 -112.7215271 92.22650146 C-112.73895537 94.46054385 -112.72289047 96.69499049 -112.68115234 98.92871094 C-112.6820285 100.14849136 -112.68290466 101.36827179 -112.68380737 102.62501526 C-112.68034391 105.96645447 -112.65026834 109.30566726 -112.60836363 112.6467123 C-112.57084498 116.13934704 -112.56733045 119.63201174 -112.56021118 123.12481689 C-112.54156538 129.73713067 -112.49233294 136.34884895 -112.43211424 142.96090055 C-112.36504003 150.48918176 -112.33205798 158.01749149 -112.30194163 165.54599714 C-112.23923285 181.03100959 -112.13370413 196.515428 -112 212 C-111.48663841 212.28453946 -110.97327682 212.56907892 -110.44435883 212.86224079 C-108.08956911 214.16781096 -105.73521154 215.47415855 -103.38085938 216.78051758 C-102.57340271 217.22804634 -101.76594604 217.6755751 -100.934021 218.13666534 C-94.74148782 221.57378095 -88.60335161 225.09428245 -82.5 228.6875 C-80.44562799 229.89116363 -78.39092877 231.09426893 -76.3359375 232.296875 C-75.2953418 232.90595703 -74.25474609 233.51503906 -73.18261719 234.14257812 C-67.84108898 237.25997201 -62.48350448 240.34940475 -57.125 243.4375 C-56.05556152 244.05391357 -54.98612305 244.67032715 -53.88427734 245.30541992 C-51.70420235 246.56169835 -49.52402588 247.81780071 -47.34375 249.07373047 C-42.73222575 251.73034016 -38.1214786 254.38829557 -33.51123047 257.04711914 C-31.33335118 258.30312898 -29.15530494 259.55884939 -26.97705078 260.81420898 C-25.47634033 261.67961304 -25.47634033 261.67961304 -23.9453125 262.5625 C-22.48013184 263.39974609 -22.48013184 263.39974609 -20.98535156 264.25390625 C-18.89766292 265.4749685 -16.8333069 266.73641072 -14.78808594 268.02734375 C-13.74168945 268.67832031 -12.69529297 269.32929688 -11.6171875 270 C-10.68245605 270.598125 -9.74772461 271.19625 -8.78466797 271.8125 C-5.27444261 273.30940831 -3.63776656 273.06993134 0 272 C3.02059088 270.59276011 3.02059088 270.59276011 6.02734375 268.76171875 C7.14947266 268.10623047 8.27160156 267.45074219 9.42773438 266.77539062 C10.59780896 266.07968385 11.76772979 265.38371843 12.9375 264.6875 C14.10300904 264.00239268 15.26902104 263.31814023 16.43554688 262.63476562 C18.65290258 261.3333572 20.86833787 260.02866943 23.08154297 258.72021484 C26.37039878 256.78167728 29.67800261 254.88101453 33 253 C29.67799975 250.14888522 26.30788811 247.92932266 22.47209167 245.86874199 C20.96598824 245.0488125 19.46965125 244.21064542 17.98448181 243.3533802 C13.3656756 240.7094852 8.82375768 238.49470755 3.84521484 236.60519409 C-2.97692065 233.76309649 -9.15879222 230.72388281 -14 225 C-18.03804244 214.98350174 -17.00813417 203.48387681 -16.63538361 192.88726282 C-16.51250698 188.66493598 -16.52735065 184.44300247 -16.52685547 180.21920776 C-16.50536126 172.24082407 -16.36214458 164.26957967 -16.17383957 156.29357898 C-15.96530837 147.20565718 -15.89447638 138.11823763 -15.83452415 129.02831101 C-15.70827329 110.3487231 -15.41132203 91.67537819 -15 73 C-14.23513779 72.70235748 -13.47027557 72.40471497 -12.68223572 72.09805298 C-9.58002122 70.8280692 -6.78420621 69.25843785 -3.87890625 67.5859375 C-3.29769516 67.25260406 -2.71648407 66.91927063 -2.11766052 66.57583618 C-0.26417098 65.51193495 1.58671132 64.4435914 3.4375 63.375 C4.64500825 62.68068681 5.8526893 61.98667405 7.06054688 61.29296875 C9.47463122 59.9060687 11.8877716 58.51754655 14.30029297 57.12792969 C20.19146264 53.73670723 26.0962309 50.36922287 32 47 C32 46.34 32 45.68 32 45 C28.46255395 42.95435472 24.92452372 40.90972373 21.38598633 38.8659668 C20.18628732 38.17287519 18.98673882 37.479523 17.78735352 36.78588867 C13.86261414 34.51625859 9.93315003 32.25503831 6 30 C4.62110596 29.20601807 4.62110596 29.20601807 3.21435547 28.39599609 C2.00803467 27.71077881 2.00803467 27.71077881 0.77734375 27.01171875 C0.08761475 26.61815186 -0.60211426 26.22458496 -1.31274414 25.8190918 C-4.77681216 24.13743238 -6.67753984 25.8021807 -9.8203125 27.5703125 Z M108.3359375 28.10546875 C107.21316406 28.75966797 106.09039062 29.41386719 104.93359375 30.08789062 C103.74725153 30.78751578 102.56105447 31.48738714 101.375 32.1875 C99.07138654 33.53699772 96.76599737 34.88344118 94.4609375 36.23046875 C92.81303223 37.19605713 92.81303223 37.19605713 91.13183594 38.18115234 C87.11906803 40.51161078 83.07171878 42.77441894 79 45 C81.80861394 48.02632646 84.53101395 50.06756778 88.140625 52.05859375 C89.12933594 52.60966797 90.11804688 53.16074219 91.13671875 53.72851562 C92.16410156 54.29248047 93.19148437 54.85644531 94.25 55.4375 C96.27700734 56.55945502 98.30306714 57.68312385 100.328125 58.80859375 C101.29943359 59.34210449 102.27074219 59.87561523 103.27148438 60.42529297 C106.35439053 62.20452925 109.2375037 64.18801267 112.07714844 66.33227539 C115.15304967 67.40040514 117.06806035 66.23978125 120 65 C122.05988599 63.92723036 124.09182883 62.79964164 126.09765625 61.62890625 C127.22880859 60.97212891 128.35996094 60.31535156 129.52539062 59.63867188 C130.70448445 58.94671233 131.88352043 58.25465419 133.0625 57.5625 C134.24515168 56.87384891 135.42809212 56.18569349 136.61132812 55.49804688 C141.42524536 52.69427648 146.22760559 49.87395311 151 47 C149.69484497 43.0845349 148.29270907 42.76584765 144.71484375 40.8203125 C143.62623047 40.22089844 142.53761719 39.62148438 141.41601562 39.00390625 C140.26810547 38.38386719 139.12019531 37.76382813 137.9375 37.125 C135.69560953 35.90027548 133.45470225 34.67374928 131.21484375 33.4453125 C130.1460498 32.86168945 129.07725586 32.27806641 127.97607422 31.67675781 C125.37994722 30.21406707 122.87672091 28.67720936 120.37890625 27.0546875 C115.15481944 23.87795956 113.30573968 25.18796557 108.3359375 28.10546875 Z M227.80859375 27.8515625 C226.26655273 28.75841797 226.26655273 28.75841797 224.69335938 29.68359375 C223.61892578 30.32425781 222.54449219 30.96492188 221.4375 31.625 C220.39013672 32.24246094 219.34277344 32.85992187 218.26367188 33.49609375 C216.18155859 34.72543348 214.10256604 35.96007535 212.02685547 37.20019531 C210.02400544 38.39111404 208.01263398 39.56782764 205.99267578 40.72949219 C205.07856934 41.25961914 204.16446289 41.78974609 203.22265625 42.3359375 C201.99881226 43.03662354 201.99881226 43.03662354 200.75024414 43.75146484 C200.17266357 44.16348145 199.59508301 44.57549805 199 45 C199 45.66 199 46.32 199 47 C199.81154541 47.46374023 200.62309082 47.92748047 201.45922852 48.40527344 C204.49894206 50.1422526 207.5386556 51.87923177 210.57836914 53.61621094 C211.23313232 53.99036133 211.88789551 54.36451172 212.5625 54.75 C215.45030975 56.400177 215.45030975 56.400177 218.33811951 58.050354 C218.94970413 58.39983093 219.56128876 58.74930786 220.19140625 59.109375 C227 63 227 63 228.80514526 64.20227051 C232.39244465 66.58237217 232.39244465 66.58237217 236.53295898 66.47216797 C237.34708252 65.98635254 238.16120605 65.50053711 239 65 C240.01457275 64.46133301 241.02914551 63.92266602 242.07446289 63.36767578 C246.60119117 60.80693889 246.60119117 60.80693889 251.12036133 58.23291016 C253.05612243 57.12863814 254.99755665 56.0348441 256.93945312 54.94140625 C258.18004882 54.23500919 259.42029522 53.52799824 260.66015625 52.8203125 C261.78043213 52.18367676 262.90070801 51.54704102 264.05493164 50.89111328 C266.77597933 49.14385013 268.83124011 47.38170709 271 45 C269.89785156 44.39414062 268.79570312 43.78828125 267.66015625 43.1640625 C266.12730688 42.31824687 264.59477948 41.47184759 263.0625 40.625 C261.85678345 39.95911865 261.85678345 39.95911865 260.62670898 39.27978516 C254.13300554 35.67393246 247.73188517 31.92710929 241.39672852 28.04931641 C235.60125484 24.56431893 233.54930152 24.45258407 227.80859375 27.8515625 Z M347.6875 27.8515625 C346.07294922 28.75841797 346.07294922 28.75841797 344.42578125 29.68359375 C343.29527344 30.32425781 342.16476562 30.96492188 341 31.625 C339.35064453 32.55119141 339.35064453 32.55119141 337.66796875 33.49609375 C334.4370274 35.31661231 331.21663589 37.15433999 328 39 C326.99582031 39.57073242 325.99164063 40.14146484 324.95703125 40.72949219 C324.04308594 41.25961914 323.12914062 41.78974609 322.1875 42.3359375 C320.97126953 43.03662354 320.97126953 43.03662354 319.73046875 43.75146484 C319.15941406 44.16348145 318.58835937 44.57549805 318 45 C318 45.66 318 46.32 318 47 C318.70495605 47.39268066 319.40991211 47.78536133 320.13623047 48.18994141 C323.3834182 49.99996267 326.62921435 51.81246577 329.875 53.625 C330.98359375 54.24246094 332.0921875 54.85992187 333.234375 55.49609375 C334.87792969 56.41455078 334.87792969 56.41455078 336.5546875 57.3515625 C337.64233398 57.95645508 338.72998047 58.56134766 339.85058594 59.18457031 C343.60221928 61.34713973 347.2105199 63.69966279 350.78564453 66.14208984 C353.02862286 67.26646042 353.02862286 67.26646042 355.53491211 66.28222656 C356.75513062 65.64752441 356.75513062 65.64752441 358 65 C358.6592749 64.66403809 359.3185498 64.32807617 359.99780273 63.98193359 C360.63661377 63.62437988 361.2754248 63.26682617 361.93359375 62.8984375 C362.65885254 62.49415527 363.38411133 62.08987305 364.13134766 61.67333984 C364.89237793 61.2448877 365.6534082 60.81643555 366.4375 60.375 C367.22431152 59.93494629 368.01112305 59.49489258 368.82177734 59.04150391 C375.90640522 55.07187911 382.96163297 51.05102154 390 47 C390 46.34 390 45.68 390 45 C389.18845459 44.53625977 388.37690918 44.07251953 387.54077148 43.59472656 C362 29 362 29 360.08938599 27.86804199 C354.45106129 24.5529121 353.29440992 24.69257004 347.6875 27.8515625 Z M465.828125 28.359375 C465.2274823 28.70502502 464.6268396 29.05067505 464.00799561 29.40679932 C462.08511177 30.5151797 460.1675368 31.63239949 458.25 32.75 C456.97430188 33.48757368 455.69826365 34.22455944 454.421875 34.9609375 C452.05154995 36.32937337 449.68374161 37.70183463 447.31738281 39.07714844 C443.88629707 41.06590553 440.44507204 43.03559918 437 45 C440.02788912 48.30927791 443.12267448 50.41331105 447.0234375 52.609375 C447.60606354 52.93987854 448.18868958 53.27038208 448.78897095 53.61090088 C450.64757604 54.6634345 452.51108468 55.70690476 454.375 56.75 C455.58758316 57.43428737 456.79982563 58.1191788 458.01171875 58.8046875 C460.30700532 60.10242842 462.60445841 61.39596271 464.90380859 62.68652344 C470.9491892 66.10087715 476.97183857 69.55533633 483 73 C483 123.16 483 173.32 483 225 C474.42 229.95 465.84 234.9 457 240 C446.98527273 245.9758333 446.98527273 245.9758333 437 252 C439.63817431 255.01174675 442.74511599 256.7216525 446.20703125 258.6875 C446.81004562 259.03127686 447.41306 259.37505371 448.03434753 259.72924805 C449.30814686 260.45425896 450.58326969 261.17694887 451.85961914 261.89746094 C453.79794699 262.9917838 455.73229934 264.09286516 457.66601562 265.1953125 C461.10139762 267.14751422 464.53750877 269.09606518 468 271 C469.02472412 271.6172998 470.04944824 272.23459961 471.10522461 272.87060547 C473.90120715 274.29806391 473.90120715 274.29806391 476.47167969 273.29345703 C477.28024414 272.78669434 478.08880859 272.27993164 478.921875 271.7578125 C479.85112793 271.19392822 480.78038086 270.63004395 481.73779297 270.04907227 C482.73182129 269.41412842 483.72584961 268.77918457 484.75 268.125 C486.91329951 266.80213688 489.07738902 265.48056496 491.2421875 264.16015625 C492.35819336 263.46937988 493.47419922 262.77860352 494.62402344 262.06689453 C499.97810426 258.78893328 505.42642916 255.67992165 510.875 252.5625 C513.05765164 251.30531225 515.23994133 250.04749591 517.421875 248.7890625 C520.7115029 246.89405701 524.00125929 244.9992747 527.29101562 243.10449219 C540.27253494 235.62642744 553.24129362 228.12786817 566.17431641 220.56616211 C567.10034668 220.02483643 568.02637695 219.48351074 568.98046875 218.92578125 C569.78379639 218.45567627 570.58712402 217.98557129 571.41479492 217.5012207 C574.60068001 215.65118695 577.80069735 213.82673781 581 212 C581.21035214 195.80584571 581.36900114 179.61213526 581.46630955 163.4169445 C581.51269527 155.89696428 581.57591836 148.37783342 581.67895508 140.85839844 C581.76873243 134.30347663 581.82673998 127.7491699 581.84679645 121.19365036 C581.8585195 117.7229491 581.88601068 114.25400721 581.95157051 110.7838707 C582.02420935 106.90750211 582.02590484 103.03284579 582.02172852 99.15576172 C582.07026474 97.43485573 582.07026474 97.43485573 582.11978149 95.67918396 C582.13534475 89.75836437 582.13534475 89.75836437 579.03480339 84.98200989 C576.74763698 83.43512156 574.49030941 82.18540406 572 81 C570.99453125 80.40348633 569.9890625 79.80697266 568.953125 79.19238281 C568.06109375 78.70092773 567.1690625 78.20947266 566.25 77.703125 C565.23881104 77.14246338 564.22762207 76.58180176 563.18579102 76.00415039 C562.13447998 75.42528076 561.08316895 74.84641113 560 74.25 C552.81107379 70.25824176 545.63363437 66.26001356 538.5625 62.0625 C531.59230038 57.92681956 524.58493424 53.85888789 517.5625 49.8125 C516.47195313 49.1839209 515.38140625 48.5553418 514.2578125 47.90771484 C509.61925273 45.23500157 504.97981614 42.56381451 500.33984375 39.89355469 C497.32457599 38.15827558 494.30983593 36.42208261 491.29537964 34.68539429 C489.59329526 33.70523373 487.89052587 32.72626304 486.18774414 31.74731445 C485.15770264 31.15394287 484.12766113 30.56057129 483.06640625 29.94921875 C481.7043103 29.16550903 481.7043103 29.16550903 480.31469727 28.3659668 C478.50873799 27.30022034 476.74478871 26.16319248 475 25 C471.07957191 25 469.21765666 26.39515465 465.828125 28.359375 Z M169.328125 61.60546875 C167.88095093 62.45395386 167.88095093 62.45395386 166.40454102 63.31958008 C165.36354248 63.93599365 164.32254395 64.55240723 163.25 65.1875 C162.18773193 65.81229248 161.12546387 66.43708496 160.03100586 67.08081055 C157.80646256 68.3901301 155.58309705 69.70145254 153.36083984 71.01464844 C150.09380937 72.94458392 146.82287711 74.86773044 143.55078125 76.7890625 C141.55450847 77.96323734 139.55840743 79.13770424 137.5625 80.3125 C136.14275879 81.14720825 136.14275879 81.14720825 134.69433594 81.9987793 C133.82711914 82.51093994 132.95990234 83.02310059 132.06640625 83.55078125 C131.30271729 84.00106689 130.53902832 84.45135254 129.75219727 84.9152832 C128.04245678 85.88119988 128.04245678 85.88119988 127 87 C126.90396978 88.6195634 126.87812145 90.24333083 126.87974548 91.86573792 C126.87837082 92.91888184 126.87699615 93.97202576 126.87557983 95.05708313 C126.87917511 96.22233017 126.88277039 97.38757721 126.88647461 98.58813477 C126.88632858 99.80747711 126.88618256 101.02681946 126.8860321 102.28311157 C126.88661107 105.63627511 126.89164032 108.98937774 126.89860606 112.34253049 C126.90484017 115.84325562 126.90544344 119.34398148 126.90663147 122.8447113 C126.90974462 129.47809656 126.91795778 136.11146541 126.92798096 142.74484342 C126.93914261 150.29490207 126.94465268 157.84496149 126.94967639 165.39502633 C126.96014041 180.93002706 126.97773953 196.46501142 127 212 C127.79125275 212.44999359 128.58250549 212.89998718 129.3977356 213.36361694 C132.38774071 215.06511036 135.37689054 216.76808844 138.36550903 218.47201538 C139.64891163 219.20334749 140.93263368 219.93411936 142.21670532 220.66427612 C152.28436991 226.38975939 162.21900974 232.29601246 172.01904297 238.47119141 C175.86813776 239.49869194 179.2008015 237.41391517 182.58276367 235.66235352 C183.86244019 234.90329712 183.86244019 234.90329712 185.16796875 234.12890625 C186.14572266 233.55333984 187.12347656 232.97777344 188.13085938 232.38476562 C189.64389648 231.48274414 189.64389648 231.48274414 191.1875 230.5625 C193.15984179 229.39660328 195.13250949 228.23125776 197.10546875 227.06640625 C198.60145096 226.12757095 198.60145096 226.12757095 200.12765503 225.16976929 C202.9266461 223.49839625 205.70505423 222.32228081 208.76431274 221.20339966 C214.24509288 218.99267356 219.16169156 216.6122152 223 212 C226.22169655 203.66466171 225.27753223 194.22215669 224.92648482 185.44160104 C224.80684561 181.94030154 224.79648576 178.43862049 224.77400208 174.93559265 C224.71518212 168.3173612 224.55964907 161.70516738 224.36836177 155.08958358 C224.15520413 147.55224028 224.05133834 140.01459178 223.95614851 132.47498 C223.75809374 116.97983506 223.42442454 101.49069886 223 86 C221.92044241 85.39692552 221.92044241 85.39692552 220.81907558 84.78166771 C218.11686905 83.27166228 215.41503988 81.76098436 212.71345425 80.24986839 C210.981951 79.28162377 209.2500242 78.31413671 207.51808929 77.34666443 C199.18112752 72.68254085 190.94710626 67.88519608 182.77539062 62.9375 C181.90205078 62.41414063 181.02871094 61.89078125 180.12890625 61.3515625 C179.37681885 60.89604004 178.62473145 60.44051758 177.84985352 59.97119141 C174.29621826 58.10549772 172.56842228 59.69616052 169.328125 61.60546875 Z M49.48046875 62.078125 C48.90782791 62.40480164 48.33518707 62.73147827 47.74519348 63.0680542 C46.51628982 63.76989407 45.28801383 64.47283389 44.06030273 65.17675781 C41.69932363 66.52975796 39.33466837 67.87623086 36.96788216 69.21904564 C35.73505584 69.92936446 34.50966119 70.6528404 33.29438591 71.39278603 C29.59076118 73.62737263 25.93406875 75.47726739 21.91934204 77.09384155 C15.46630121 79.92225857 8.69652058 82.91210485 5.8579731 89.75180054 C4.16957172 97.43084799 4.42109481 105.24037893 4.67573714 113.05834532 C4.76816786 116.48254235 4.75261791 119.90648726 4.75154114 123.33169556 C4.76542289 129.07490726 4.85556271 134.81277854 4.99682617 140.55419922 C5.15936466 147.18105438 5.22045223 153.80262301 5.2233879 160.43135107 C5.22721535 167.51334163 5.29964648 174.59337335 5.39486146 181.67466402 C5.41791106 183.70585349 5.42877887 185.73681005 5.43712425 187.76810837 C5.46606672 191.55677016 5.55455868 195.3392854 5.66088867 199.12646484 C5.65995209 200.24553223 5.6590155 201.36459961 5.65805054 202.51757812 C5.83207588 208.34074526 5.83207588 208.34074526 8.98309231 212.9995327 C11.26461629 214.54216361 13.52286832 215.80291313 16 217 C17.0211792 217.6069873 18.0423584 218.21397461 19.09448242 218.83935547 C20.46117065 219.59563232 20.46117065 219.59563232 21.85546875 220.3671875 C22.88381836 220.93953125 23.91216797 221.511875 24.97167969 222.1015625 C26.56351074 222.97941406 26.56351074 222.97941406 28.1875 223.875 C40.89229847 230.89480085 40.89229847 230.89480085 45.56640625 233.7578125 C46.20489502 234.14469238 46.84338379 234.53157227 47.5012207 234.93017578 C49.11832115 235.91944483 50.72378796 236.92766349 52.328125 237.9375 C54.90988278 239.25756322 54.90988278 239.25756322 57.37109375 238.453125 C58.23863281 237.97359375 59.10617188 237.4940625 60 237 C60.55800293 236.70673828 61.11600586 236.41347656 61.69091797 236.11132812 C63.74914981 235.02083194 65.78106683 233.88962313 67.8125 232.75 C68.57498047 232.32468994 69.33746094 231.89937988 70.12304688 231.46118164 C80.11278959 225.85831661 89.9822366 220.04485083 99.85546875 214.23999023 C101.21494669 213.45392598 102.595414 212.702293 104 212 C104.21035214 195.80584571 104.36900114 179.61213526 104.46630955 163.4169445 C104.51269527 155.89696428 104.57591836 148.37783342 104.67895508 140.85839844 C104.76873243 134.30347663 104.82673998 127.7491699 104.84679645 121.19365036 C104.8585195 117.7229491 104.88601068 114.25400721 104.95157051 110.7838707 C105.02420935 106.90750211 105.02590484 103.03284579 105.02172852 99.15576172 C105.07026474 97.43485573 105.07026474 97.43485573 105.11978149 95.67918396 C105.13452222 89.77902556 105.13452222 89.77902556 102.07105827 85.00113297 C99.77245179 83.44245302 97.50298606 82.19700233 95 81 C93.6362999 80.22369478 92.27614496 79.44107905 90.921875 78.6484375 C89.53322112 77.88701904 88.14252404 77.12931722 86.75 76.375 C78.65363989 71.93923285 70.63471068 67.37841777 62.64160156 62.75927734 C61.3630127 62.02378662 61.3630127 62.02378662 60.05859375 61.2734375 C59.29861084 60.83435059 58.53862793 60.39526367 57.75561523 59.94287109 C54.39492584 58.13797853 52.65774741 60.26450531 49.48046875 62.078125 Z M291.37304688 59.73828125 C290.49712891 60.25777344 289.62121094 60.77726562 288.71875 61.3125 C287.72166016 61.88782471 286.72457031 62.46314941 285.69726562 63.0559082 C284.64216797 63.6974585 283.58707031 64.33900879 282.5 65 C281.40880859 65.63832764 280.31761719 66.27665527 279.19335938 66.93432617 C276.92081334 68.26769103 274.65459094 69.61188711 272.39453125 70.96630859 C269.10944277 72.93443194 265.80850381 74.87233558 262.5 76.80078125 C258.67010045 79.03916104 254.84416343 81.28356646 251.03125 83.55078125 C250.27392578 84.00106689 249.51660156 84.45135254 248.73632812 84.9152832 C247.04137649 85.88360466 247.04137649 85.88360466 246 87 C245.90396978 88.6195634 245.87812145 90.24333083 245.87974548 91.86573792 C245.87837082 92.91888184 245.87699615 93.97202576 245.87557983 95.05708313 C245.87917511 96.22233017 245.88277039 97.38757721 245.88647461 98.58813477 C245.88632858 99.80747711 245.88618256 101.02681946 245.8860321 102.28311157 C245.88661107 105.63627511 245.89164032 108.98937774 245.89860606 112.34253049 C245.90484017 115.84325562 245.90544344 119.34398148 245.90663147 122.8447113 C245.90974462 129.47809656 245.91795778 136.11146541 245.92798096 142.74484342 C245.93914261 150.29490207 245.94465268 157.84496149 245.94967639 165.39502633 C245.96014041 180.93002706 245.97773953 196.46501142 246 212 C246.72007327 212.40186555 247.44014654 212.8037311 248.18204021 213.21777439 C250.88529395 214.72708677 253.58802069 216.23733759 256.29040813 217.74820042 C258.02257119 218.71626085 259.75532526 219.68326355 261.48809052 220.65024567 C269.79774855 225.29728885 277.97828674 230.09838149 286.04882812 235.15039062 C286.91572266 235.67697266 287.78261719 236.20355469 288.67578125 236.74609375 C289.7882019 237.43723267 289.7882019 237.43723267 290.9230957 238.14233398 C293.52053465 239.21495689 294.40884819 239.02761049 297 238 C298.77813083 237.11067193 300.52983686 236.16774574 302.26171875 235.19140625 C303.29079346 234.61366455 304.31986816 234.03592285 305.38012695 233.44067383 C306.47156006 232.82087646 307.56299316 232.2010791 308.6875 231.5625 C309.80278076 230.93303467 310.91806152 230.30356934 312.06713867 229.6550293 C318.67332055 225.91638943 325.26149687 222.14707238 331.8125 218.3125 C332.49207764 217.91554932 333.17165527 217.51859863 333.87182617 217.10961914 C335.59292457 216.09263664 337.29751366 215.04784225 339 214 C339.71434802 213.56713716 340.42869604 213.13427431 341.16469097 212.68829441 C343.1913074 211.14029619 343.1913074 211.14029619 343.53967762 208.72223568 C343.55807036 207.8235706 343.57646311 206.92490553 343.59541321 205.99900818 C343.62547958 204.96598068 343.65554596 203.93295319 343.68652344 202.86862183 C343.6988501 201.73562653 343.71117676 200.60263123 343.72387695 199.43530273 C343.76571358 197.64457588 343.76571358 197.64457588 343.80839539 195.81767273 C343.89251536 191.85644458 343.9441353 187.89540551 343.98828125 183.93359375 C344.00579002 182.56712123 344.02351842 181.2006515 344.04146385 179.83418465 C344.12304857 173.40993319 344.18452221 166.98585751 344.22232181 160.56120056 C344.26664217 153.15977497 344.38048811 145.76368226 344.55382568 138.36418194 C344.6833866 132.63574423 344.74699706 126.90883097 344.76218575 121.17896038 C344.77285741 117.76013675 344.81122126 114.3471373 344.91967201 110.92989922 C345.9254004 97.2503861 345.9254004 97.2503861 341.35910225 84.91082954 C337.38758094 81.52839637 333.02074268 79.55851317 328.14073563 77.82157135 C324.79904704 76.53909837 321.91174157 74.71698832 318.86328125 72.84765625 C316.68010933 71.58520775 314.49652362 70.3234745 312.3125 69.0625 C311.19939453 68.41732422 310.08628906 67.77214844 308.93945312 67.10742188 C307.86244141 66.48544922 306.78542969 65.86347656 305.67578125 65.22265625 C304.72614502 64.67359619 303.77650879 64.12453613 302.7980957 63.55883789 C301.87472412 63.04442139 300.95135254 62.53000488 300 62 C298.50279419 61.0862561 298.50279419 61.0862561 296.9753418 60.15405273 C294.08803886 58.69163188 294.08803886 58.69163188 291.37304688 59.73828125 Z M399.75 66 C398.05990338 67.02232109 396.36483774 68.03593304 394.66860294 69.04802895 C393.47160788 69.77673593 392.28443001 70.52198449 391.11093044 71.28795433 C387.49153932 73.6274766 383.94202625 75.49130546 379.94337463 77.10757446 C373.48649571 79.93171103 366.69995728 82.90861815 363.85689163 89.75118256 C362.16885379 97.4301129 362.42110082 105.24056335 362.67573714 113.05834532 C362.76816786 116.48254235 362.75261791 119.90648726 362.75154114 123.33169556 C362.76542289 129.07490726 362.85556271 134.81277854 362.99682617 140.55419922 C363.15936466 147.18105438 363.22045223 153.80262301 363.2233879 160.43135107 C363.22721535 167.51334163 363.29964648 174.59337335 363.39486146 181.67466402 C363.41791106 183.70585349 363.42877887 185.73681005 363.43712425 187.76810837 C363.46606672 191.55677016 363.55455868 195.3392854 363.66088867 199.12646484 C363.65995209 200.24553223 363.6590155 201.36459961 363.65805054 202.51757812 C363.83216334 208.34049534 363.83216334 208.34049534 366.98253441 212.9995327 C369.26427977 214.54259144 371.52215398 215.80340178 374 217 C375.02641602 217.6069873 376.05283203 218.21397461 377.11035156 218.83935547 C378.48658691 219.59563232 378.48658691 219.59563232 379.890625 220.3671875 C380.92413086 220.93945068 381.95763672 221.51171387 383.02246094 222.10131836 C384.08754883 222.6866333 385.15263672 223.27194824 386.25 223.875 C394.2110979 228.2687125 402.02670522 232.72486793 409.546875 237.83984375 C411.90633554 239.17919953 411.90633554 239.17919953 414.37890625 238.94921875 C417.91085466 237.67013758 421.00164805 235.83206181 424.1875 233.875 C425.68144888 232.97646184 427.17630564 232.07943212 428.671875 231.18359375 C429.91807617 230.43505127 429.91807617 230.43505127 431.18945312 229.67138672 C436.15360096 226.71928838 441.16026352 223.84051839 446.16519165 220.95831299 C447.92417401 219.9451755 449.68225164 218.93048272 451.44018555 217.91552734 C459.73757984 213.13121008 459.73757984 213.13121008 462 212 C462.30406755 195.84060303 462.53310591 179.68213753 462.67355824 163.52056885 C462.74051581 156.0158307 462.83174197 148.51287257 462.98071289 141.00927734 C463.1105406 134.4667818 463.19421232 127.92557522 463.22315043 121.38182735 C463.2400627 117.91803786 463.27960039 114.4579345 463.37449074 110.99533081 C464.42922411 97.56353064 464.42922411 97.56353064 460.77660179 85.1027298 C457.38857226 81.79852857 453.48019098 80.42994224 449 79 C447.66944862 78.27130885 446.35609682 77.50810891 445.08081055 76.68652344 C444.02676025 76.08356445 442.97270996 75.48060547 441.88671875 74.859375 C441.01053642 74.35787933 441.01053642 74.35787933 440.11665344 73.84625244 C438.91032098 73.15653853 437.70339362 72.46786398 436.49584961 71.78027344 C434.06777786 70.39692488 431.64423458 69.00570562 429.2203064 67.6151123 C427.49729853 66.63667779 425.76074489 65.68221872 424.02392578 64.72851562 C421 63 421 63 418.83154297 61.38085938 C411.99508658 56.58977305 405.82846071 62.16307576 399.75 66 Z M231.30615234 231.83349609 C230.40848145 232.39117676 229.51081055 232.94885742 228.5859375 233.5234375 C227.57660156 234.13316406 226.56726563 234.74289063 225.52734375 235.37109375 C224.48707031 236.03238281 223.44679688 236.69367188 222.375 237.375 C220.3203125 238.6328125 218.265625 239.890625 216.2109375 241.1484375 C215.19870117 241.77975586 214.18646484 242.41107422 213.14355469 243.06152344 C208.15271341 246.13913137 203.07898389 249.07038321 198 252 C201.63203317 255.05271901 205.3490323 257.47927676 209.47265625 259.8203125 C210.07758408 260.16504608 210.6825119 260.50977966 211.30577087 260.86495972 C213.22240073 261.9557106 215.1424384 263.04030398 217.0625 264.125 C218.35503103 264.86030222 219.64735078 265.59597598 220.93945312 266.33203125 C224.28604487 268.23402012 227.6331885 270.13392177 231 272 C231.66217529 272.46784912 232.32435059 272.93569824 233.0065918 273.41772461 C235.17821422 274.27475597 235.17821422 274.27475597 237.89746094 272.83764648 C239.5492334 271.86420288 239.5492334 271.86420288 241.234375 270.87109375 C241.83123108 270.5249855 242.42808716 270.17887726 243.04302979 269.82228088 C244.95450758 268.70886299 246.85193207 267.57359622 248.75 266.4375 C250.01217569 265.69842458 251.27518918 264.96077795 252.5390625 264.22460938 C258.75837192 260.58832452 264.91638628 256.85957906 271 253 C268.36182569 249.98825325 265.25488401 248.2783475 261.79296875 246.3125 C260.88844719 245.79683472 260.88844719 245.79683472 259.96565247 245.27075195 C258.69185314 244.54574104 257.41673031 243.82305113 256.14038086 243.10253906 C254.20205301 242.0082162 252.26770066 240.90713484 250.33398438 239.8046875 C246.89860238 237.85248578 243.46249123 235.90393482 240 234 C238.98542725 233.37689941 237.97085449 232.75379883 236.92553711 232.11181641 C234.05898774 230.6788624 234.05898774 230.6788624 231.30615234 231.83349609 Z M351.10205078 231.45751953 C348.98336487 232.50108333 347.12373295 233.71042501 345.1875 235.0625 C343.71468375 236.01089054 342.24067547 236.95743187 340.765625 237.90234375 C339.99798828 238.40749512 339.23035156 238.91264648 338.43945312 239.43310547 C334.19905997 242.15676872 329.8127346 244.62610363 325.4375 247.125 C323.81072542 248.06428631 322.18438079 249.00431791 320.55859375 249.9453125 C319.37244656 250.63029618 318.18626962 251.31522837 317 252 C321.20101662 255.63308594 325.7047546 258.18876801 330.5625 260.8125 C339.80646719 265.83757443 339.80646719 265.83757443 343.63671875 268.2421875 C344.66410156 268.88414062 345.69148438 269.52609375 346.75 270.1875 C347.63171875 270.75855469 348.5134375 271.32960938 349.421875 271.91796875 C352.77609228 273.32572358 354.48109326 272.83294275 358 272 C360.8089765 270.70705182 360.8089765 270.70705182 363.5546875 269.015625 C364.58207031 268.40976562 365.60945313 267.80390625 366.66796875 267.1796875 C367.72628906 266.54289062 368.78460938 265.90609375 369.875 265.25 C370.92558594 264.62867188 371.97617187 264.00734375 373.05859375 263.3671875 C378.75481144 259.98795448 384.39966415 256.53563372 390 253 C387.08129385 249.83102041 384.18428235 247.77068293 380.421875 245.6875 C379.34292969 245.08679688 378.26398437 244.48609375 377.15234375 243.8671875 C376.02957031 243.25101563 374.90679687 242.63484375 373.75 242 C372.64269531 241.38382813 371.53539062 240.76765625 370.39453125 240.1328125 C368.24037371 238.93918894 366.07867383 237.75905538 363.90893555 236.59399414 C362.14084462 235.62514264 360.3942286 234.61349437 358.69458008 233.52905273 C356.17023448 231.99106326 354.09140943 230.7369049 351.10205078 231.45751953 Z M112.31787109 232.0546875 C111.31320801 232.65539062 110.30854492 233.25609375 109.2734375 233.875 C108.15839844 234.53113281 107.04335937 235.18726563 105.89453125 235.86328125 C104.72113181 236.57515445 103.54795581 237.28739607 102.375 238 C101.22612989 238.68245541 100.07639715 239.36346087 98.92578125 240.04296875 C95.60732514 242.01270676 92.30237667 244.00344861 89 246 C87.05508127 247.167323 85.10981062 248.33405999 83.1640625 249.5 C81.77598296 250.33323554 80.38793718 251.16652735 79 252 C81.63817431 255.01174675 84.74511599 256.7216525 88.20703125 258.6875 C88.81004562 259.03127686 89.41306 259.37505371 90.03434753 259.72924805 C91.30814686 260.45425896 92.58326969 261.17694887 93.85961914 261.89746094 C95.79794699 262.9917838 97.73229934 264.09286516 99.66601562 265.1953125 C103.10139762 267.14751422 106.53750877 269.09606518 110 271 C111.01457275 271.62310059 112.02914551 272.24620117 113.07446289 272.88818359 C115.94101226 274.3211376 115.94101226 274.3211376 118.69384766 273.16650391 C119.59151855 272.60882324 120.48918945 272.05114258 121.4140625 271.4765625 C122.42339844 270.86683594 123.43273437 270.25710938 124.47265625 269.62890625 C125.51292969 268.96761719 126.55320312 268.30632812 127.625 267.625 C129.6796875 266.3671875 131.734375 265.109375 133.7890625 263.8515625 C134.80129883 263.22024414 135.81353516 262.58892578 136.85644531 261.93847656 C141.84728659 258.86086863 146.92101611 255.92961679 152 253 C148.36796683 249.94728099 144.6509677 247.52072324 140.52734375 245.1796875 C139.92241592 244.83495392 139.3174881 244.49022034 138.69422913 244.13504028 C136.77759927 243.0442894 134.8575616 241.95969602 132.9375 240.875 C131.64496897 240.13969778 130.35264922 239.40402402 129.06054688 238.66796875 C125.71395513 236.76597988 122.3668115 234.86607823 119 233 C118.32735107 232.5373877 117.65470215 232.07477539 116.96166992 231.59814453 C114.85863952 230.73482005 114.85863952 230.73482005 112.31787109 232.0546875 Z " fill="#F1030C" transform="translate(134,1)"/>
<path d="M0 0 C2.32641602 1.03125 2.32641602 1.03125 4.75390625 2.5 C6.13968872 3.32504028 6.13968872 3.32504028 7.5534668 4.16674805 C9.04293823 5.07420776 9.04293823 5.07420776 10.5625 6 C12.70485184 7.27881464 14.84812126 8.55609306 16.9921875 9.83203125 C18.12366211 10.50830566 19.25513672 11.18458008 20.42089844 11.88134766 C26.62588454 15.57052667 32.91225294 19.11971716 39.1875 22.6875 C41.53560819 24.02394921 43.88312221 25.36143122 46.23046875 26.69921875 C47.22457764 27.26471436 48.21868652 27.83020996 49.24291992 28.4128418 C50.60767456 29.19848511 50.60767456 29.19848511 52 30 C53.41599487 30.78274292 53.41599487 30.78274292 54.8605957 31.58129883 C55.56659912 32.04947021 56.27260254 32.5176416 57 33 C57 33.66 57 34.32 57 35 C57.67289062 35.23847656 58.34578125 35.47695313 59.0390625 35.72265625 C63.38871639 37.59909005 67.28296057 40.13422747 71.296875 42.63476562 C74.76630182 44.76244472 78.15066607 46.51647797 81.92822266 48.05932617 C86.95345655 50.34099318 91.70230195 53.21880444 96.5 55.9375 C97.60214844 56.55818359 98.70429688 57.17886719 99.83984375 57.81835938 C100.91363281 58.42357422 101.98742187 59.02878906 103.09375 59.65234375 C104.12242187 60.22839355 105.15109375 60.80444336 106.2109375 61.39794922 C107.88546186 62.35980399 109.54363146 63.3524037 111.1640625 64.40283203 C113.11492295 65.7162368 113.11492295 65.7162368 116 67 C120.14019292 65.75971333 123.77390436 63.51750251 127.5078125 61.375 C128.41876175 60.85365479 128.41876175 60.85365479 129.34811401 60.32177734 C130.62470957 59.59038229 131.90042241 58.85744459 133.17529297 58.12304688 C135.12406435 57.00053894 137.07544247 55.8826799 139.02734375 54.765625 C145.60213368 51.02770217 145.60213368 51.02770217 152 47 C157.73540026 47.15294401 162.0344878 49.99923136 166.8125 52.875 C167.58787109 53.32230469 168.36324219 53.76960938 169.16210938 54.23046875 C174.87259746 57.61779239 174.87259746 57.61779239 176 61 C175.03682861 61.53403442 175.03682861 61.53403442 174.05419922 62.07885742 C170.99274958 63.77866603 167.9338972 65.48310268 164.875 67.1875 C163.86695313 67.74630859 162.85890625 68.30511719 161.8203125 68.88085938 C159.63442597 70.10042412 157.46684379 71.35324007 155.31640625 72.63427734 C152.13999204 74.46315639 148.92025268 75.88005177 145.52685547 77.26086426 C134.77265671 81.93708113 134.77265671 81.93708113 127.75122452 90.84580421 C125.95049262 98.65444355 126.25972805 106.59848034 126.56740427 114.55925775 C126.67784876 118.02756106 126.66175134 121.49540063 126.65988159 124.96513367 C126.67517415 131.51630584 126.80191756 138.06023751 126.97019851 144.60907191 C127.15643054 152.07189491 127.21620911 159.53412466 127.26612306 166.99890959 C127.37147202 182.33618125 127.63316012 197.66661655 128 213 C128.76741013 213.30019043 129.53482025 213.60038086 130.32548523 213.90966797 C135.72311188 216.11014385 140.72805824 219.1634708 145.8125 222 C146.41980957 222.33769409 147.02711914 222.67538818 147.65283203 223.02331543 C155.34464793 227.30494416 162.9361825 231.69868934 170.3581543 236.43603516 C182.85906985 244.40538941 195.85932585 251.54485748 208.91259766 258.56079102 C213.32948666 260.94638137 217.68683397 263.38144468 221.9609375 266.015625 C222.73034668 266.48734131 223.49975586 266.95905762 224.29248047 267.44506836 C225.72011958 268.32940885 227.13917844 269.22782117 228.54736328 270.14282227 C231.48035591 271.95814718 233.37964835 273.04516919 236.87353516 272.79077148 C240.2010059 271.94915992 242.61020006 270.76823491 245.5546875 269.015625 C246.58207031 268.40976562 247.60945313 267.80390625 248.66796875 267.1796875 C249.72628906 266.54289062 250.78460938 265.90609375 251.875 265.25 C253.45087891 264.31800781 253.45087891 264.31800781 255.05859375 263.3671875 C260.79545778 259.9967129 260.79545778 259.9967129 266.36425781 256.36132812 C271.3731899 252.89667965 271.3731899 252.89667965 274.48828125 253.41015625 C275.31714844 253.93480469 276.14601563 254.45945313 277 255 C278.30354067 255.69083869 279.60979662 256.37656585 280.91796875 257.05859375 C282.34299932 257.84822678 283.766139 258.64128058 285.1875 259.4375 C285.91130859 259.83259766 286.63511719 260.22769531 287.38085938 260.63476562 C288.07373047 261.02212891 288.76660156 261.40949219 289.48046875 261.80859375 C290.10848389 262.15720459 290.73649902 262.50581543 291.38354492 262.86499023 C293 264 293 264 295 267 C288.83319352 271.43577308 282.30974144 275.10256131 275.66186523 278.74780273 C268.77418745 282.53795533 261.97401863 286.46941223 255.1875 290.4375 C254.1555249 291.04078125 253.1235498 291.6440625 252.06030273 292.265625 C246.72623095 295.34708651 246.72623095 295.34708651 241.5559082 298.68774414 C238.37942147 300.31861779 236.53561813 300.43467471 233 300 C230.12939453 298.75341797 230.12939453 298.75341797 227.1328125 296.9921875 C226.01124756 296.3417749 224.88968262 295.6913623 223.73413086 295.02124023 C222.53091245 294.30612083 221.32787289 293.59070043 220.125 292.875 C218.87901547 292.14605514 217.63234263 291.41828563 216.38500977 290.69165039 C213.83252559 289.20211179 211.28446177 287.70540686 208.73974609 286.20263672 C205.24001654 284.13752422 201.72590416 282.09873806 198.20703125 280.06640625 C189.53739479 275.05033635 180.93436868 269.99490053 172.50219727 264.58666992 C169.3815203 262.60781544 166.2157412 260.75794965 163 258.9375 C161.39125 258.02291016 161.39125 258.02291016 159.75 257.08984375 C156.80377938 255.43727549 153.83886481 253.82054016 150.87109375 252.20703125 C143.44090894 248.16292229 136.07421008 244.00644123 128.70117188 239.859375 C127.63576172 239.26125 126.57035156 238.663125 125.47265625 238.046875 C124.51625244 237.50901367 123.55984863 236.97115234 122.57446289 236.41699219 C121.72489014 235.94938477 120.87531738 235.48177734 120 235 C119.33476318 234.55309814 118.66952637 234.10619629 117.98413086 233.64575195 C115.90588994 232.73906938 115.90588994 232.73906938 113.53320312 233.94702148 C112.62505859 234.49946533 111.71691406 235.05190918 110.78125 235.62109375 C109.25757813 236.53084961 109.25757813 236.53084961 107.703125 237.45898438 C106.64609375 238.11189453 105.5890625 238.76480469 104.5 239.4375 C102.42708333 240.68619792 100.35416667 241.93489583 98.28125 243.18359375 C95.07051009 245.11986445 91.88500792 247.07435604 88.73632812 249.11035156 C87.68896484 249.76874023 86.64160156 250.42712891 85.5625 251.10546875 C84.62535156 251.71156982 83.68820312 252.3176709 82.72265625 252.94213867 C80 254 80 254 77.06958008 253.23266602 C74.18135743 251.70664168 71.6445295 249.91664379 69 248 C66.78241338 246.6885518 64.55326895 245.39643279 62.3125 244.125 C60.54074139 243.08490791 58.76956179 242.04382528 57 241 C59.57308084 238.08391572 62.51714273 236.42108526 65.890625 234.5234375 C66.46803436 234.19642853 67.04544373 233.86941956 67.64035034 233.53250122 C69.50783535 232.47568991 71.37887887 231.42535749 73.25 230.375 C75.79576345 228.93752605 78.33953152 227.49654823 80.8828125 226.0546875 C81.50417084 225.70287415 82.12552917 225.35106079 82.76571655 224.98858643 C88.7589749 221.58687522 94.64869875 218.03267606 100.5078125 214.40625 C103 213 103 213 105 213 C105 171.42 105 129.84 105 87 C102.03 86.01 102.03 86.01 99 85 C97.22671126 84.08197658 95.48017481 83.11072037 93.76171875 82.09375 C92.78468994 81.51947266 91.80766113 80.94519531 90.80102539 80.35351562 C89.77356201 79.74185547 88.74609863 79.13019531 87.6875 78.5 C86.6245874 77.87287109 85.5616748 77.24574219 84.46655273 76.59960938 C82.31790847 75.33156764 80.17051332 74.0614068 78.02441406 72.7890625 C75.34269459 71.20271762 72.65453039 69.62856781 69.9609375 68.0625 C63.57781196 64.34751542 57.27592014 60.60691532 51.17578125 56.4375 C45.61548438 52.76391068 39.88555303 49.20802624 33.73193359 46.63183594 C30.10182499 45.09176193 26.71813987 43.24281946 23.296875 41.27734375 C22.6924054 40.93119522 22.08793579 40.58504669 21.46514893 40.22840881 C20.20036019 39.50324268 18.93659498 38.77628865 17.67382812 38.04760742 C15.74306497 36.93349828 13.80933824 35.82468519 11.875 34.71679688 C2.51971158 29.34647438 2.51971158 29.34647438 -1 27 C-5.0598267 27.32579898 -7.96152221 28.92219342 -11.421875 30.984375 C-12.44796875 31.59023438 -13.4740625 32.19609375 -14.53125 32.8203125 C-15.5934375 33.45710938 -16.655625 34.09390625 -17.75 34.75 C-20.86663317 36.60002117 -23.98453801 38.44765704 -27.10742188 40.28710938 C-28.94662949 41.37622827 -30.77722066 42.48013406 -32.59570312 43.60351562 C-33.37365234 44.06951172 -34.15160156 44.53550781 -34.953125 45.015625 C-35.61989258 45.42586914 -36.28666016 45.83611328 -36.97363281 46.25878906 C-39.71036048 47.25983788 -41.2357856 46.85009554 -44 46 C-46.2199707 44.90844727 -46.2199707 44.90844727 -48.42578125 43.56640625 C-49.22177734 43.08236328 -50.01777344 42.59832031 -50.83789062 42.09960938 C-52.06282227 41.33874023 -52.06282227 41.33874023 -53.3125 40.5625 C-54.14845703 40.05912109 -54.98441406 39.55574219 -55.84570312 39.03710938 C-60.42659471 36.22126336 -60.42659471 36.22126336 -62 35 C-62 34.34 -62 33.68 -62 33 C-59.35767008 31.47557889 -56.71533818 29.95116121 -54.07299805 28.42675781 C-51.75411792 27.08892341 -49.4352653 25.75104148 -47.11645508 24.41308594 C-41.56785387 21.21162719 -36.01902665 18.01056425 -30.46881104 14.81190491 C-28.68469579 13.78367401 -26.90068228 12.75526684 -25.11669922 11.72680664 C-22.86722699 10.43006902 -20.61755915 9.13367064 -18.36767578 7.83764648 C-17.34270996 7.24669189 -16.31774414 6.6557373 -15.26171875 6.046875 C-14.36412842 5.52963867 -13.46653809 5.01240234 -12.54174805 4.47949219 C-10.8220827 3.47851514 -9.13532973 2.41913487 -7.48364258 1.30957031 C-4.63355146 -0.19322028 -3.17528405 -0.43930431 0 0 Z " fill="#249E03" transform="translate(252,0)"/>
<path d="M0 0 C3.05925279 1.46903635 5.96390843 3.13327911 8.875 4.875 C9.65875 5.32230469 10.4425 5.76960938 11.25 6.23046875 C11.98992187 6.66746094 12.72984375 7.10445312 13.4921875 7.5546875 C14.16620605 7.95155762 14.84022461 8.34842773 15.53466797 8.75732422 C16.01822754 9.16740723 16.50178711 9.57749023 17 10 C17 10.99 17 11.98 17 13 C15.14599609 14.41943359 15.14599609 14.41943359 12.5234375 15.8984375 C11.53988281 16.46175781 10.55632812 17.02507812 9.54296875 17.60546875 C8.49753906 18.18941406 7.45210938 18.77335937 6.375 19.375 C3.30361143 21.11888908 0.24299642 22.8667604 -2.78527832 24.68486023 C-5.9187628 26.49641735 -9.10081249 27.88724376 -12.45178223 29.25056458 C-23.21766869 33.9309758 -23.21766869 33.9309758 -30.24973679 42.8462677 C-32.0501332 50.6544722 -31.74025299 58.5989708 -31.43259573 66.55925775 C-31.32215124 70.02756106 -31.33824866 73.49540063 -31.34011841 76.96513367 C-31.32482585 83.51630584 -31.19808244 90.06023751 -31.02980149 96.60907191 C-30.84356946 104.07189491 -30.78379089 111.53412466 -30.73387694 118.99890959 C-30.62852798 134.33618125 -30.36683988 149.66661655 -30 165 C-29.22814865 165.30241104 -28.4562973 165.60482208 -27.66105652 165.91639709 C-24.86452996 167.05516446 -22.3119667 168.3996745 -19.67578125 169.87109375 C-18.65653564 170.43965088 -17.63729004 171.00820801 -16.5871582 171.59399414 C-15.506521 172.20235107 -14.42588379 172.81070801 -13.3125 173.4375 C-12.19125732 174.06712646 -11.07001465 174.69675293 -9.91479492 175.34545898 C-2.01977116 179.80295542 5.74569902 184.43111023 13.453125 189.203125 C18.74187662 192.47262087 24.08646031 195.64627641 29.4375 198.8125 C30.32526123 199.33980713 31.21302246 199.86711426 32.12768555 200.41040039 C37.39676206 203.52271738 42.71954575 206.50943424 48.10131836 209.42211914 C53.45043011 212.33387769 58.75269632 215.32985186 64.0625 218.3125 C66.28232111 219.55900516 68.50236156 220.80511983 70.72265625 222.05078125 C72.17297241 222.86542847 72.17297241 222.86542847 73.65258789 223.6965332 C75.08636132 224.49267635 76.533153 225.2665765 78 226 C80.84546835 224.67490553 80.84546835 224.67490553 84.07421875 222.73828125 C84.6762764 222.39121628 85.27833405 222.04415131 85.89863586 221.68656921 C87.8327063 220.56936432 89.7600981 219.4411631 91.6875 218.3125 C92.96767064 217.57022434 94.24826503 216.82867901 95.52929688 216.08789062 C97.91115632 214.7093477 100.28982843 213.32581103 102.66674805 211.9387207 C103.76672119 211.29894287 104.86669434 210.65916504 106 210 C106.61879028 209.62635315 107.23758057 209.2527063 107.87512207 208.86773682 C112.68702541 206.00593719 112.68702541 206.00593719 115.8828125 205.9453125 C120.21401802 207.41075798 123.96116758 209.53333416 127.875 211.875 C128.65875 212.32230469 129.4425 212.76960937 130.25 213.23046875 C130.98992187 213.66746094 131.72984375 214.10445312 132.4921875 214.5546875 C133.16620605 214.95155762 133.84022461 215.34842773 134.53466797 215.75732422 C135.01822754 216.16740723 135.50178711 216.57749023 136 217 C136 217.99 136 218.98 136 220 C135.27748047 220.41137207 134.55496094 220.82274414 133.81054688 221.24658203 C120.65705929 228.73941679 107.51487642 236.24990227 94.4375 243.875 C93.42816406 244.46297363 92.41882813 245.05094727 91.37890625 245.65673828 C86.12605432 248.72601061 86.12605432 248.72601061 81 252 C74.63380017 253.19488674 69.88139274 249.49363599 64.625 246.375 C63.62637939 245.79613037 62.62775879 245.21726074 61.59887695 244.62084961 C59.48036201 243.39053654 57.36528525 242.15428699 55.25341797 240.91259766 C52.01059586 239.00622902 48.75874149 237.11624168 45.50390625 235.23046875 C34.63080811 228.92138712 23.80692857 222.53888931 13.0703125 216 C5.19113181 211.2120335 -2.62722315 206.54487798 -10.9453125 202.55078125 C-20.78485221 197.55551621 -30.30349897 191.65912167 -39.48828125 185.5546875 C-41.9971078 183.92921807 -41.9971078 183.92921807 -44.85546875 182.6953125 C-47.69915802 181.33964681 -49.72331495 180.17996868 -52 178 C-52.64144707 175.27469635 -52.64144707 175.27469635 -52.76535034 172.08557129 C-52.81723385 170.92278152 -52.86911736 169.75999176 -52.92257309 168.56196594 C-52.94812397 167.38651718 -52.97367485 166.21106842 -53 165 C-53.02574223 163.96187668 -53.05148445 162.92375336 -53.07800674 161.85417175 C-53.12896924 158.65400166 -53.13527524 155.45641516 -53.12939453 152.25585938 C-53.13202301 150.45554008 -53.13202301 150.45554008 -53.13470459 148.61885071 C-53.13831691 145.36883721 -53.13751926 142.11886538 -53.1343255 138.86885262 C-53.13176448 135.44101002 -53.13414974 132.01316988 -53.13571167 128.58532715 C-53.13752256 122.83275871 -53.13515557 117.08020319 -53.13037109 111.32763672 C-53.12493057 104.71054789 -53.12669399 98.09348989 -53.1321975 91.47640181 C-53.13675957 85.75878371 -53.13736412 80.0411748 -53.13475883 74.32355547 C-53.13321299 70.92457608 -53.13295518 67.52561111 -53.13629532 64.12663269 C-53.13885556 60.33244794 -53.13493406 56.5383211 -53.12939453 52.74414062 C-53.13243088 51.09162041 -53.13243088 51.09162041 -53.13552856 49.40571594 C-53.12711007 46.26842969 -53.0776057 43.13631341 -53 40 C-52.97517422 38.83397751 -52.95034843 37.66795502 -52.92477036 36.46659851 C-52.87345081 35.31114029 -52.82213127 34.15568207 -52.76925659 32.96520996 C-52.70901212 31.40073246 -52.70901212 31.40073246 -52.64755058 29.80464935 C-51.82169084 26.22771334 -50.42211577 25.03942919 -47.5625 22.8125 C-45.3909844 21.47250913 -43.23537026 20.22053232 -41 19 C-39.62050284 18.21588242 -38.24162916 17.43066725 -36.86328125 16.64453125 C-33.83519844 14.93348567 -30.78765235 13.26443586 -27.7265625 11.61328125 C-24.51421849 9.86611195 -21.38060493 8.03340999 -18.2734375 6.10546875 C-17.51369629 5.63802246 -16.75395508 5.17057617 -15.97119141 4.68896484 C-14.52487754 3.792689 -13.08650178 2.88343266 -11.65771484 1.95947266 C-7.39362945 -0.66272493 -4.97028373 -1.73896695 0 0 Z " fill="#EC020F" transform="translate(291,48)"/>
<path d="M0 0 C0.72791748 0.4137085 1.45583496 0.82741699 2.20581055 1.25366211 C3.39980469 1.92558594 3.39980469 1.92558594 4.61791992 2.61108398 C5.43454102 3.0796582 6.25116211 3.54823242 7.0925293 4.03100586 C7.92848633 4.50344727 8.76444336 4.97588867 9.62573242 5.46264648 C11.68072195 6.62518342 13.73190667 7.79392677 15.7800293 8.96850586 C15.7800293 9.95850586 15.7800293 10.94850586 15.7800293 11.96850586 C15.03132568 12.39558838 14.28262207 12.8226709 13.51123047 13.26269531 C10.62749457 14.90805225 7.74407443 16.55396017 4.86083984 18.20019531 C3.63276821 18.90124923 2.40458484 19.60210748 1.17626953 20.30273438 C0.59111572 20.636521 0.00596191 20.97030762 -0.59692383 21.31420898 C-1.44183632 21.79338052 -1.44183632 21.79338052 -2.30381775 22.28223228 C-3.54195636 22.99354563 -4.77330023 23.71690601 -5.99536133 24.45549965 C-9.6023384 26.60781758 -13.12633143 28.36759616 -17.06066895 29.84738159 C-23.28087818 32.40512411 -29.59582219 35.12977711 -32.34990501 41.63914299 C-34.11304791 49.2040766 -34.03603432 56.93173897 -33.93681312 64.66200471 C-33.91308064 67.3734785 -33.94870277 70.08292939 -33.98374015 72.79418105 C-34.06550065 79.20055015 -34.05028382 85.60154592 -33.97167969 92.0078125 C-33.89254768 98.58275407 -33.96976256 105.14249626 -34.12596768 111.71571714 C-34.25565216 117.3911152 -34.29047729 123.06181748 -34.25083095 128.73855418 C-34.22789974 132.11793393 -34.24815564 135.48080092 -34.33823204 138.86020851 C-34.7132137 151.25561386 -34.7132137 151.25561386 -31.2199707 162.96850586 C-25.34113128 169.10381714 -17.73482802 172.52889078 -9.99924564 175.7730093 C-6.48436729 177.2849234 -3.33895166 179.11371026 -0.08325195 181.11694336 C0.85574951 181.66261963 1.79475098 182.2082959 2.76220703 182.77050781 C9.79908589 186.86207089 16.8241539 190.95121161 23.7175293 195.28100586 C28.91444891 198.52055549 34.25487319 201.36360414 39.68725586 204.17919922 C47.46968948 208.25311446 55.02083895 212.71599533 62.58203125 217.18383789 C64.49754489 218.31358486 66.42136669 219.42941059 68.35473633 220.52832031 C70.7800293 221.96850586 70.7800293 221.96850586 73.75268555 224.28491211 C78.48046687 225.35247563 81.32563041 222.97614724 85.3503418 220.54858398 C86.39963867 219.8827832 87.44893555 219.21698242 88.5300293 218.53100586 C89.56385742 217.90000977 90.59768555 217.26901367 91.6628418 216.61889648 C95.65766619 214.17621734 99.64216703 211.7337526 103.52807617 209.12036133 C109.78166335 205.03138637 109.78166335 205.03138637 114.31518555 204.74584961 C119.04046042 206.41328032 123.0202992 208.82191536 127.2175293 211.53100586 C128.04446289 212.05114258 128.87139648 212.5712793 129.72338867 213.10717773 C131.7493578 214.38365539 133.76762589 215.67078778 135.7800293 216.96850586 C133.38033248 219.62416373 130.81558741 221.24849139 127.71362305 223.01538086 C126.16674805 223.90169189 126.16674805 223.90169189 124.58862305 224.8059082 C122.91993164 225.75264404 122.91993164 225.75264404 121.2175293 226.71850586 C119.47257047 227.7162934 117.72761631 228.7140892 115.98294067 229.71237183 C114.15810422 230.75582037 112.33213073 231.79726002 110.50610352 232.83862305 C106.77925148 234.96626025 103.06163708 237.10966592 99.34643555 239.25756836 C98.74963486 239.60255371 98.15283417 239.94753906 97.53794861 240.30297852 C95.78522815 241.31634816 94.03262187 242.32991505 92.2800293 243.34350586 C90.10333557 244.60199248 87.92628475 245.85986178 85.7487793 247.11694336 C84.37882812 247.9085083 84.37882812 247.9085083 82.98120117 248.71606445 C79.23541396 250.84737417 77.16080664 251.38498821 72.7800293 250.96850586 C70.21143462 249.71084141 67.93000313 248.42958475 65.5300293 246.90600586 C64.03117736 245.98876261 62.53109142 245.07353392 61.0300293 244.15991211 C60.20374023 243.65347168 59.37745117 243.14703125 58.52612305 242.62524414 C53.24719075 239.44042599 47.88011439 236.40668586 42.5300293 233.34350586 C29.36034398 225.77338947 29.36034398 225.77338947 22.9675293 221.78100586 C12.12423576 215.01304412 0.92102683 208.81765019 -10.2512207 202.61303711 C-11.28666016 202.0369873 -12.32209961 201.4609375 -13.38891602 200.86743164 C-15.32355381 199.7928032 -17.26012182 198.72163477 -19.19946289 197.65551758 C-21.1596587 196.56722923 -23.09664506 195.43640867 -25.01234436 194.27157593 C-28.3324842 192.34036264 -31.7405097 190.93518666 -35.30326843 189.5067749 C-52.10969205 182.09908409 -52.10969205 182.09908409 -55.62630844 173.54937172 C-57.62423341 164.04774537 -57.17685678 154.40335461 -56.75481915 144.75437474 C-56.59717145 140.53538601 -56.5837513 136.31582417 -56.55418396 132.09434509 C-56.47685019 124.12208182 -56.27230383 116.15851748 -56.02044672 108.1900658 C-55.73976915 99.11011195 -55.60326216 90.02971347 -55.47806084 80.94649327 C-55.21760594 62.28225356 -54.77869452 43.62608151 -54.2199707 24.96850586 C-53.49421341 24.55076904 -52.76845612 24.13303223 -52.02070618 23.70263672 C-49.26694673 22.1171285 -46.51357808 20.53094413 -43.76045227 18.94433594 C-42.00738026 17.93431093 -40.25387936 16.92503044 -38.50036621 15.91577148 C-28.71303582 10.27437856 -18.99181396 4.52673528 -9.30273438 -1.28149414 C-5.82497789 -2.53382891 -3.25342125 -1.51167984 0 0 Z " fill="#249C03" transform="translate(173.219970703125,49.031494140625)"/>
<path d="M0 0 C2.65527344 1.25244141 2.65527344 1.25244141 5.359375 2.8515625 C6.3803125 3.44839844 7.40125 4.04523437 8.453125 4.66015625 C9.54109375 5.30855469 10.6290625 5.95695313 11.75 6.625 C13.48290239 7.64308015 15.21581517 8.66114309 16.94934082 9.67816162 C18.14693457 10.38154218 19.34378534 11.08618917 20.53991699 11.79205322 C24.72058104 14.25836142 28.92280048 16.68380282 33.140625 19.0859375 C34.30243333 19.74914333 35.46421748 20.4123915 36.62597656 21.07568359 C38.81388218 22.32351804 41.00324955 23.56879434 43.19433594 24.81103516 C48.92274966 28.09448355 54.37488409 31.57902548 59.74462891 35.41992188 C62.80143543 37.56147328 65.93903044 39.41082046 69.1875 41.25 C70.31542969 41.89453125 71.44335938 42.5390625 72.60546875 43.203125 C75.94026592 45.03276673 75.94026592 45.03276673 79.31958008 46.39501953 C82.78227929 47.8635196 86.01652663 49.60313687 89.28125 51.4765625 C89.85725952 51.80610931 90.43326904 52.13565613 91.0267334 52.47518921 C92.24117574 53.17096773 93.454584 53.86855405 94.66699219 54.56787109 C97.02762501 55.92929093 99.39275325 57.28271169 101.76166916 58.62966633 C102.96369574 59.32559776 104.15694384 60.03710518 105.33729935 60.76919079 C108.4876807 62.6996278 111.36663671 64.19202908 114.93084717 65.19612122 C119.6613845 66.7750116 123.23752995 68.73468967 126 73 C128.84757303 82.98531853 128.09109086 94.04131122 127.94901943 104.34231496 C127.90339421 108.55337244 127.93298643 112.7640294 127.95098877 116.97520447 C127.96909598 124.04472215 127.92554659 131.1118626 127.84570312 138.1809082 C127.75434784 146.34117249 127.76324911 154.49671682 127.82526469 162.65715033 C127.88251858 170.52527065 127.86619895 178.3916417 127.81748199 186.25976372 C127.79822179 189.60021063 127.80493691 192.93909142 127.83296967 196.27946663 C127.86286245 200.2173686 127.82821855 204.14967913 127.74480057 208.08675957 C127.72450828 209.52650442 127.72601781 210.9667563 127.75154495 212.40641785 C127.82286097 216.9033981 127.64761123 220.79324824 126 225 C122.0115817 228.61856689 117.89974708 230.74391719 113 233 C111.66773131 233.75915671 110.34297989 234.53201039 109.03320312 235.3293457 C107.96005859 235.93866943 106.88691406 236.54799316 105.78125 237.17578125 C105.19001343 237.51248337 104.59877686 237.84918549 103.98962402 238.1960907 C102.16094771 239.2370195 100.33058163 240.27492633 98.5 241.3125 C96.64121095 242.36854208 94.78279634 243.42523781 92.92468262 244.48246765 C91.26100568 245.42870042 89.59635549 246.37322141 87.93164062 247.31762695 C86.02633747 248.41101836 84.14279457 249.54356546 82.28759766 250.7199707 C80 252 80 252 77.2421875 251.9921875 C72.80864602 250.63541697 69.08987603 248.49720549 65.125 246.125 C64.34125 245.67769531 63.5575 245.23039063 62.75 244.76953125 C62.01007813 244.33253906 61.27015625 243.89554688 60.5078125 243.4453125 C59.83379395 243.04844238 59.15977539 242.65157227 58.46533203 242.24267578 C57.98177246 241.83259277 57.49821289 241.42250977 57 241 C57 240.01 57 239.02 57 238 C57.68811768 237.60321045 58.37623535 237.2064209 59.08520508 236.79760742 C61.1512774 235.60616494 63.21726938 234.41458315 65.28320312 233.22290039 C67.64479056 231.86072864 70.00682328 230.49933322 72.36914062 229.13842773 C77.88446081 225.95989501 83.39549237 222.77476317 88.88671875 219.5546875 C89.75772217 219.04526611 90.62872559 218.53584473 91.52612305 218.01098633 C93.14816731 217.06125884 94.76820125 216.1080877 96.38598633 215.15112305 C101.77694046 212 101.77694046 212 104 212 C104.47864233 195.96146227 104.80543178 179.92790541 104.95596504 163.88325405 C105.02934827 156.4312637 105.15068316 148.98605492 105.38867188 141.53735352 C105.59621729 135.03754687 105.70997061 128.54367428 105.71533382 122.04044682 C105.7213409 118.59944102 105.77133569 115.17289324 105.9341774 111.73544121 C106.54367257 99.02230714 106.54367257 99.02230714 103 87 C96.72228996 80.5135466 88.55787284 76.96202294 80.35825729 73.48788643 C75.03736121 71.13044673 70.07881996 68.18712808 65.0625 65.25 C63.36783797 64.29340766 61.67156686 63.33965136 59.97265625 62.390625 C57.20624263 60.84008063 55.2297378 59.23375732 53 57 C51.75831009 56.19861135 50.48553956 55.44407689 49.19140625 54.73046875 C48.06895508 54.10881836 48.06895508 54.10881836 46.92382812 53.47460938 C46.14458984 53.04986328 45.36535156 52.62511719 44.5625 52.1875 C43.81806641 51.77435547 43.07363281 51.36121094 42.30664062 50.93554688 C37.98296149 48.55550636 33.61471918 46.3062915 29.18359375 44.1328125 C21.6582078 40.39861341 14.50223409 36.08151929 7.296875 31.77148438 C6.28109375 31.17013672 5.2653125 30.56878906 4.21875 29.94921875 C3.31060547 29.40612061 2.40246094 28.86302246 1.46679688 28.3034668 C-1.62277038 26.63271367 -1.62277038 26.63271367 -5 26 C-7.70299061 27.05861629 -7.70299061 27.05861629 -10.5078125 28.75390625 C-11.57773437 29.36169922 -12.64765625 29.96949219 -13.75 30.59570312 C-14.86375 31.24474609 -15.9775 31.89378906 -17.125 32.5625 C-18.21554687 33.18447266 -19.30609375 33.80644531 -20.4296875 34.44726562 C-26.70871216 38.03597168 -26.70871216 38.03597168 -32.85839844 41.83935547 C-33.72754883 42.3963916 -34.59669922 42.95342773 -35.4921875 43.52734375 C-36.62309814 44.27939087 -36.62309814 44.27939087 -37.77685547 45.04663086 C-40.66684801 46.28596985 -42.03265244 45.95417191 -45 45 C-48.38879601 43.39990422 -51.58148526 41.45870328 -54.8125 39.5625 C-55.69615234 39.05912109 -56.57980469 38.55574219 -57.49023438 38.03710938 C-58.32490234 37.55177734 -59.15957031 37.06644531 -60.01953125 36.56640625 C-61.16578979 35.90040405 -61.16578979 35.90040405 -62.33520508 35.22094727 C-62.8845874 34.81803467 -63.43396973 34.41512207 -64 34 C-64 33.34 -64 32.68 -64 32 C-62.9790625 31.44054688 -61.958125 30.88109375 -60.90625 30.3046875 C-51.82290096 25.30385 -42.82306975 20.17669049 -33.875 14.9375 C-32.85615723 14.34364502 -31.83731445 13.74979004 -30.78759766 13.13793945 C-26.2176846 10.47393211 -21.65674099 7.79879822 -17.125 5.0703125 C-15.70856404 4.23398415 -14.29191483 3.39801679 -12.875 2.5625 C-12.2547998 2.17892334 -11.63459961 1.79534668 -10.99560547 1.40014648 C-6.82893269 -1.02664163 -4.61631061 -1.12655249 0 0 Z " fill="#24A503" transform="translate(492,1)"/>
<path d="M0 0 C0.88171875 0.54333984 0.88171875 0.54333984 1.78125 1.09765625 C9.76751343 6.8720379 11.33110117 16.90078091 13 26 C13.95215149 32.35545707 14.16070267 38.55118501 14.16796875 44.97265625 C14.17296135 46.53372353 14.17296135 46.53372353 14.17805481 48.12632751 C14.18309818 50.32241375 14.18546394 52.51850759 14.18530273 54.71459961 C14.18747733 58.02796507 14.2056283 61.3409907 14.22460938 64.65429688 C14.32590534 102.24782658 14.32590534 102.24782658 2.99609375 114.30859375 C-5.75513084 121.72401497 -17.13198148 121.61432787 -28 121 C-36.05899482 119.64796256 -42.81997096 116.38403995 -47.6875 109.6875 C-55.69178778 95.73943416 -55.18687822 77.89618709 -55.18530273 62.35083008 C-55.18747394 59.96612261 -55.20565056 57.58189085 -55.22460938 55.19726562 C-55.25441254 47.16852177 -54.97755054 39.25467081 -54.10546875 31.26953125 C-54.02668991 30.54499252 -53.94791107 29.8204538 -53.866745 29.07395935 C-52.56285986 18.26949622 -49.95314682 7.82669753 -41.1875 0.75 C-31.03152112 -7.0397405 -10.65335766 -6.65834854 0 0 Z M-29 12 C-37.66113339 20.89521807 -36.68759813 37.30603806 -37 49 C-37.02964844 50.00417969 -37.05929687 51.00835937 -37.08984375 52.04296875 C-37.12868594 55.03381728 -37.07815554 58.00970111 -37 61 C-36.98211426 61.78890625 -36.96422852 62.5778125 -36.94580078 63.390625 C-37.37239119 84.51504885 -37.37239119 84.51504885 -30 103.4375 C-25.66742535 107.13824085 -22.58997563 107.38551556 -17 107 C-12.64720261 105.13451541 -9.41522157 102.06075714 -7 98 C-4.06495995 89.57564181 -3.84514553 80.06304494 -3.83203125 71.22265625 C-3.82870285 70.41243515 -3.82537445 69.60221405 -3.82194519 68.7674408 C-3.81691655 67.06070516 -3.8145356 65.35395983 -3.81469727 63.6472168 C-3.81253181 61.0999221 -3.7943905 58.55307658 -3.77539062 56.00585938 C-3.74555408 47.71140042 -3.9704318 39.500589 -4.82421875 31.24609375 C-4.89357132 30.53211929 -4.96292389 29.81814484 -5.03437805 29.08253479 C-5.76074882 22.86549238 -7.02259767 16.41668741 -11.8125 12.0625 C-17.91562332 8.1134202 -22.8298774 8.44590368 -29 12 Z " fill="#24AB03" transform="translate(329,93)"/>
<path d="M0 0 C40.37532134 0 40.37532134 0 50 9 C65.22877938 26.46184559 63.00312733 56.11821792 61.859375 77.64697266 C60.86787164 91.33366251 58.86492005 107.27509846 47.96484375 116.7734375 C33.51596768 127.2214784 17.76421454 124 0 124 C0 83.08 0 42.16 0 0 Z M18 13 C18 45.34 18 77.68 18 111 C26.60522636 110.04386374 30.73473277 109.48683955 36.50390625 103.41796875 C44.32586755 92.70071432 43.48113822 76.74578224 43.39111328 64.12036133 C43.37499788 61.43714756 43.39106941 58.75543473 43.41015625 56.07226562 C43.59719659 36.50012365 43.59719659 36.50012365 36 19 C30.41168426 13.83955994 25.84073813 13.78407381 18 13 Z " fill="#F0030D" transform="translate(635,89)"/>
<path d="M0 0 C35.92783505 0 35.92783505 0 43.40234375 5.89453125 C51.57567828 16.10600009 52.75635857 26.07187118 52 39 C50.73259672 47.45293542 47.56901942 54.19968139 40.93359375 59.71875 C39 61 39 61 37 61 C37 61.66 37 62.32 37 63 C37.721875 63.061875 38.44375 63.12375 39.1875 63.1875 C44.90256402 64.8385185 48.1290327 70.05005638 51 75 C53.09625879 80.83957806 53.33454463 86.20250481 53.3125 92.375 C53.32861328 93.26960938 53.34472656 94.16421875 53.36132812 95.0859375 C53.36693366 102.79915517 52.16350685 110.31607446 46.9375 116.3125 C46.43089844 116.92738281 45.92429687 117.54226562 45.40234375 118.17578125 C31.88781993 128.43802942 16.65263213 124 0 124 C0 83.08 0 42.16 0 0 Z M18 13 C18 26.86 18 40.72 18 55 C25.8096547 54.02379316 28.31262345 53.68717709 33 48 C36.63923956 40.40506527 36.10598103 29.84844698 33.875 21.875 C32.21191777 17.71342679 30.14037385 15.87488627 26 14 C23.36 13.67 20.72 13.34 18 13 Z M18 69 C18 82.86 18 96.72 18 111 C27.47092381 109.70776873 27.47092381 109.70776873 33 104 C34.9107645 99.36825284 35.35298315 95.08389193 35.3125 90.125 C35.30758545 89.41827148 35.3026709 88.71154297 35.29760742 87.98339844 C35.14756832 81.313968 34.35216147 76.69806756 29.875 71.5625 C26.21597722 69.3395471 26.21597722 69.3395471 18 69 Z " fill="#24AB03" transform="translate(523,89)"/>
<path d="M0 0 C35.92783505 0 35.92783505 0 43.40234375 5.89453125 C52.09123939 16.75012351 53.01755664 27.9236458 51.76171875 41.59375 C50.49677388 48.8512115 46.58237685 54.5936943 41.25 59.5625 C39 61 39 61 37 61 C37 61.66 37 62.32 37 63 C37.721875 63.0825 38.44375 63.165 39.1875 63.25 C43.63229645 64.43527905 46.03220685 66.36616944 48.390625 70.34765625 C52.29141982 77.95868983 53.20285723 83.70769466 53.25 92.1875 C53.270625 93.09564453 53.29125 94.00378906 53.3125 94.93945312 C53.35710327 102.72829981 52.22141913 110.24962473 46.9375 116.3125 C46.43089844 116.92738281 45.92429688 117.54226562 45.40234375 118.17578125 C31.88781993 128.43802942 16.65263213 124 0 124 C0 83.08 0 42.16 0 0 Z M18 13 C18 26.86 18 40.72 18 55 C25.40325992 54.41711862 25.40325992 54.41711862 31 51 C35.90862014 42.76053047 36.09034942 33.56981724 34.5390625 24.22265625 C33.42291991 20.27676391 32.35808209 18.33309962 29.3125 15.5 C25.37731162 13.52088082 25.37731162 13.52088082 18 13 Z M18 69 C18 82.86 18 96.72 18 111 C27.46577511 109.6858083 27.46577511 109.6858083 33 104 C35.2350216 99.65631845 35.34863367 95.47756766 35.3125 90.6875 C35.30758545 89.92928955 35.3026709 89.1710791 35.29760742 88.38989258 C35.1567391 81.68817228 34.44979266 76.81005629 29.875 71.5625 C26.21597722 69.3395471 26.21597722 69.3395471 18 69 Z " fill="#24AB03" transform="translate(43,89)"/>
<path d="M0 0 C1.18432617 0.0009668 1.18432617 0.0009668 2.39257812 0.00195312 C6.49089003 0.03287082 9.8481313 0.36962626 13.9375 1.1875 C13.9375 6.4675 13.9375 11.7475 13.9375 17.1875 C11.6275 16.8575 9.3175 16.5275 6.9375 16.1875 C0.65394363 15.68880505 -3.95479335 16.26418909 -9.0625 20.1875 C-19.31556212 31.55150339 -19.24941268 46.7364613 -19.24780273 61.17602539 C-19.2499776 63.35257888 -19.26814935 65.52861466 -19.28710938 67.70507812 C-19.58133 86.03258386 -19.58133 86.03258386 -12.0625 102.1875 C-8.1337583 105.90624215 -4.47144202 107.475444 0.9375 107.625 C5.47077928 107.39342381 9.59357081 106.47459013 13.9375 105.1875 C13.9375 110.4675 13.9375 115.7475 13.9375 121.1875 C4.27935047 125.11623879 -5.75293878 125.73089753 -15.71484375 122.296875 C-25.08954741 117.86689856 -31.64863405 110.45489445 -35.21875 100.82421875 C-42.52311701 77.99807183 -42.72685345 42.86795997 -32.96875 20.703125 C-28.15399324 11.50570503 -22.01175952 5.1007267 -12.37890625 1.0625 C-8.17401495 -0.04691773 -4.32590253 -0.06742588 0 0 Z " fill="#F0030D" transform="translate(200.0625,88.8125)"/>
<path d="M0 0 C5.61 0 11.22 0 17 0 C17 35.97 17 71.94 17 109 C26.24 109 35.48 109 45 109 C45 113.95 45 118.9 45 124 C30.15 124 15.3 124 0 124 C0 83.08 0 42.16 0 0 Z " fill="#EF020E" transform="translate(405,89)"/>
</svg>
