<?xml version="1.0" encoding="UTF-8"?>
<svg version="1.1" xmlns="http://www.w3.org/2000/svg" width="472" height="107">
<path d="M0 0 C155.76 0 311.52 0 472 0 C472 35.31 472 70.62 472 107 C316.24 107 160.48 107 0 107 C0 71.69 0 36.38 0 0 Z " fill="#FCFBFC" transform="translate(0,0)"/>
<path d="M0 0 C45.95889335 -0.40303034 45.95889335 -0.40303034 65.28710938 -0.48828125 C78.60838526 -0.54751089 91.92902647 -0.61696147 105.24975586 -0.75439453 C114.95329771 -0.85446001 124.6563224 -0.91867455 134.36036593 -0.94088495 C139.4929449 -0.9538567 144.62404517 -0.98406619 149.75614738 -1.05730057 C154.6001417 -1.12585494 159.44206753 -1.14598306 164.28650093 -1.13107681 C166.05167565 -1.13379824 167.81692919 -1.15328989 169.5816803 -1.19205475 C181.62918668 -1.44341375 189.36464273 0.88485309 199.38135624 7.66968727 C202.41608058 9.72403689 205.24111493 10.94827777 208.81640625 11.87109375 C214.65146527 13.63130929 218.93450895 15.49331677 222 21 C223.83608823 28.11137252 223.76835963 35.51510361 223.75 42.8125 C223.75629425 43.79676971 223.7625885 44.78103943 223.76907349 45.7951355 C223.72017521 61.67192968 223.72017521 61.67192968 220.14990234 66.50390625 C217.81247729 68.0987722 215.66096963 69.05703763 213 70 C211.69852058 70.71482287 210.40859616 71.45120303 209.1328125 72.2109375 C207.79828591 72.93489855 206.46227376 73.65612607 205.125 74.375 C196.07564518 79.32065686 187.21068037 84.56477124 178.35791016 89.85107422 C176.20022143 91.13824828 174.03057127 92.4055741 171.84967041 93.65301514 C169.2011499 95.20814851 166.78487594 96.9000606 164.3586731 98.78085327 C149.78949587 109.41706243 134.18092193 108.4555227 116.98608041 108.11533332 C112.86106079 108.04569161 108.73591416 108.04003966 104.61039734 108.02705383 C96.82930975 107.99311656 89.04996015 107.90320388 81.26963156 107.79220945 C70.73436255 107.6452358 60.19860465 107.58668693 49.66256618 107.52268505 C33.10708035 107.41982829 16.55525871 107.20053476 0 107 C0 71.69 0 36.38 0 0 Z " fill="#ED1D23" transform="translate(0,0)"/>
<path d="M0 0 C36.3 0 72.6 0 110 0 C107.01946939 2.98053061 104.40156154 4.64464991 100.7578125 6.72265625 C99.84973343 7.24187904 99.84973343 7.24187904 98.92330933 7.77159119 C97.64534874 8.50085379 96.36602922 9.2277395 95.08544922 9.95239258 C93.13546093 11.05657648 91.1905179 12.16925626 89.24609375 13.28320312 C78.85497521 19.20104313 78.85497521 19.20104313 74 21 C74.0825 22.093125 74.165 23.18625 74.25 24.3125 C74 28 74 28 72.125 29.9375 C70 31 70 31 68 31 C68.06807861 31.86689453 68.13615723 32.73378906 68.20629883 33.62695312 C69.84491615 57.50896288 69.84491615 57.50896288 66.88525391 63.109375 C63.61415302 66.43751047 59.34173556 67.62440061 55 69 C53.07403044 70.11621522 51.17385721 71.27908048 49.3125 72.5 C45.25 75 45.25 75 43 75 C43.33 76.98 43.66 78.96 44 81 C45.13429443 80.32626343 45.13429443 80.32626343 46.29150391 79.63891602 C49.11627998 77.96713186 51.94576836 76.30395059 54.77880859 74.64624023 C56.00083663 73.92889265 57.22092667 73.20823242 58.43896484 72.48413086 C60.19642432 71.44014532 61.96065257 70.40851734 63.7265625 69.37890625 C64.78439941 68.7557251 65.84223633 68.13254395 66.93212891 67.49047852 C70.13615308 65.9338521 72.4427119 65.14850215 76 65 C78.73803711 66.02880859 78.73803711 66.02880859 81.52734375 67.6484375 C83.0740979 68.5310022 83.0740979 68.5310022 84.65209961 69.43139648 C86.2783728 70.39348022 86.2783728 70.39348022 87.9375 71.375 C89.62854858 72.3496521 89.62854858 72.3496521 91.35375977 73.34399414 C94.58061378 75.21061007 97.79321659 77.09915368 101 79 C101.72960937 79.43199707 102.45921875 79.86399414 103.2109375 80.30908203 C106.09551507 82.02446242 108.96679462 83.7603149 111.83203125 85.5078125 C115.36113677 87.64041749 118.93345126 89.69325477 122.51171875 91.7421875 C123.09366501 92.07559647 123.67561127 92.40900543 124.27519226 92.7525177 C127.20704513 94.43151418 130.1414625 96.10560369 133.07983398 97.77319336 C134.15950439 98.39073486 135.2391748 99.00827637 136.3515625 99.64453125 C137.31916504 100.19471924 138.28676758 100.74490723 139.28369141 101.31176758 C142 103 142 103 147 107 C98.49 107 49.98 107 0 107 C0 71.69 0 36.38 0 0 Z " fill="#F7C216" transform="translate(0,0)"/>
<path d="M0 0 C3.05551962 1.60155295 6.06928332 3.24580757 9.06079102 4.96484375 C9.66334717 5.31003555 10.26590332 5.65522736 10.88671875 6.01087952 C12.800667 7.10839101 14.71196732 8.21042555 16.62329102 9.3125 C17.90698065 10.04911494 19.19083333 10.7854458 20.47485352 11.52148438 C23.86185417 13.46549488 27.24684673 15.41268432 30.62329102 17.375 C32.03505615 17.93912598 32.03505615 17.93912598 33.4753418 18.51464844 C36.01872224 20.71748533 36.01567947 21.32765568 36.33374023 24.56762695 C36.39387365 26.33210015 36.42325037 28.09779 36.42797852 29.86328125 C36.44224884 30.7992363 36.45651917 31.73519135 36.47122192 32.69950867 C36.49215681 34.68068104 36.49969016 36.66203342 36.49487305 38.64331055 C36.49826941 41.66825296 36.57607935 44.68529282 36.65844727 47.70898438 C36.66952648 49.63539581 36.67618066 51.5618388 36.67797852 53.48828125 C36.72412796 54.8385717 36.72412796 54.8385717 36.77120972 56.21614075 C36.7008512 60.08826541 36.59309939 62.43031049 33.74104309 65.20849609 C31.43086174 66.77096697 29.1013234 68.0983917 26.62329102 69.375 C25.64996826 69.9632959 24.67664551 70.5515918 23.67382812 71.15771484 C22.84117432 71.62902832 22.00852051 72.1003418 21.15063477 72.5859375 C20.23217773 73.10800781 19.3137207 73.63007812 18.36743164 74.16796875 C17.44124023 74.69003906 16.51504883 75.21210937 15.56079102 75.75 C14.59979492 76.29527344 13.63879883 76.84054688 12.64868164 77.40234375 C10.30856709 78.7295729 7.96677186 80.05372684 5.62329102 81.375 C9.26907567 83.66610097 12.93287338 85.92438967 16.6159668 88.15478516 C17.98514274 88.9870816 19.35056658 89.82557432 20.71264648 90.66943359 C22.81675425 91.96728091 24.93629985 93.2358584 27.06079102 94.5 C27.72208008 94.91435303 28.38336914 95.32870605 29.06469727 95.75561523 C32.19304009 97.58298856 33.90217598 98.5507936 37.49853516 97.67407227 C40.63303389 96.37094954 43.36793049 94.87456967 46.24829102 93.08203125 C47.28469727 92.45232422 48.32110352 91.82261719 49.38891602 91.17382812 C51.55040864 89.84638972 53.70666636 88.51039041 55.85766602 87.16601562 C56.89407227 86.54017578 57.93047852 85.91433594 58.99829102 85.26953125 C59.93415039 84.69050049 60.87000977 84.11146973 61.83422852 83.51489258 C65.25609712 82.11637152 67.10719703 82.35328994 70.62329102 83.375 C71.28329102 84.035 71.94329102 84.695 72.62329102 85.375 C71.88804199 85.79797363 71.15279297 86.22094727 70.39526367 86.65673828 C67.61782446 88.25512946 64.84086537 89.85435093 62.06420898 91.45410156 C60.87168674 92.1409482 59.67898405 92.82748165 58.48608398 93.51367188 C56.75267661 94.51085493 55.02001311 95.5093307 53.28735352 96.5078125 C52.15845703 97.15395508 51.02956055 97.80009766 49.86645508 98.46582031 C47.78811276 99.68929494 45.73444614 100.95631709 43.71606445 102.27636719 C42.84755859 102.84258789 41.97905273 103.40880859 41.08422852 103.9921875 C40.33705566 104.50120605 39.58988281 105.01022461 38.82006836 105.53466797 C36.62329102 106.375 36.62329102 106.375 34.06176758 105.63769531 C30.68023267 103.88666422 27.3216178 102.10873348 23.99829102 100.25 C23.22831787 99.82114502 22.45834473 99.39229004 21.66503906 98.95043945 C15.10263071 95.26559635 8.62705576 91.43964888 2.16079712 87.58914185 C-1.29879645 85.53015578 -4.76261328 83.47827845 -8.22679138 81.42701721 C-11.06626807 79.74555832 -13.90349609 78.06055051 -16.73706055 76.36914062 C-19.87819113 74.50002263 -23.0315829 72.65357646 -26.18920898 70.8125 C-27.60206177 69.9630481 -27.60206177 69.9630481 -29.04345703 69.09643555 C-29.92300049 68.58894775 -30.80254395 68.08145996 -31.70874023 67.55859375 C-32.46904541 67.11056396 -33.22935059 66.66253418 -34.01269531 66.20092773 C-37.22889462 65.07726748 -39.10278749 65.47925095 -42.37670898 66.375 C-45.49642745 67.84774983 -45.49642745 67.84774983 -48.61499023 69.75390625 C-49.46434395 70.25119484 -49.46434395 70.25119484 -50.33085632 70.75852966 C-52.12226305 71.80950127 -53.90587503 72.87289856 -55.68920898 73.9375 C-57.49178988 75.00310882 -59.29587357 76.06609562 -61.10112 77.12718201 C-62.727426 78.08471031 -64.34965719 79.04914938 -65.97167969 80.01391602 C-68.37670898 81.375 -68.37670898 81.375 -69.37670898 81.375 C-70.12280273 78.22265625 -70.12280273 78.22265625 -69.37670898 74.375 C-66.6657019 72.66780625 -63.84245547 71.54884313 -60.89160156 70.30395508 C-55.00864512 67.76248128 -49.6933286 65.21393413 -45.37670898 60.375 C-42.53304295 51.6828127 -43.59068445 42.19649607 -44.65527344 33.24731445 C-44.56334717 32.29945068 -44.4714209 31.35158691 -44.37670898 30.375 C-42.7108998 29.37357225 -41.04418543 28.37364913 -39.37670898 27.375 C-39.22065186 26.23554932 -39.06459473 25.09609863 -38.90380859 23.92211914 C-38.37670898 20.375 -38.37670898 20.375 -36.03515625 18.29858398 C-35.01478271 17.74501221 -33.99440918 17.19144043 -32.94311523 16.62109375 C-31.8184082 15.99396484 -30.69370117 15.36683594 -29.53491211 14.72070312 C-28.3367598 14.08385327 -27.13818951 13.44778921 -25.93920898 12.8125 C-23.62768051 11.54096531 -21.31647804 10.26883781 -19.00561523 8.99609375 C-17.88300293 8.39394043 -16.76039062 7.79178711 -15.60375977 7.17138672 C-11.79338063 5.05028143 -8.17083282 2.6970759 -4.57568359 0.23071289 C-2.37670898 -0.625 -2.37670898 -0.625 0 0 Z " fill="#09A451" transform="translate(112.376708984375,0.625)"/>
<path d="M0 0 C3.22023755 1.25801161 6.02896153 2.72533205 9.00097656 4.48657227 C10.05542969 5.10725586 11.10988281 5.72793945 12.19628906 6.36743164 C13.28167969 7.01389648 14.36707031 7.66036133 15.48535156 8.32641602 C17.6570156 9.60932527 19.82888025 10.89189502 22.00097656 12.17407227 C22.9577832 12.74262939 23.91458984 13.31118652 24.90039062 13.89697266 C26.32118085 14.72873808 27.76280857 15.52764452 29.23535156 16.26391602 C29.60874143 21.36767686 29.87929799 26.46339599 30.05932617 31.57763672 C30.1343735 33.31211759 30.23647605 35.045661 30.36694336 36.77685547 C31.39172928 50.7340378 31.39172928 50.7340378 27.84960938 54.88967896 C24.27500201 57.78146703 20.27107061 59.67433571 16.05996704 61.46530151 C13.74306897 62.47938279 11.6521818 63.74957188 9.52441406 65.11157227 C8.90050781 65.48862305 8.27660156 65.86567383 7.63378906 66.25415039 C6.39588322 67.00261989 5.15898209 67.7527525 3.92285156 68.50415039 C-0.65242125 71.26391602 -0.65242125 71.26391602 -1.76464844 71.26391602 C-1.65878418 70.25192139 -1.55291992 69.23992676 -1.44384766 68.19726562 C0.84984669 50.26935096 0.84984669 50.26935096 -3.91522217 33.59820557 C-9.74617485 27.50189401 -18.1570292 24.29641582 -25.93969727 21.52368164 C-28.93799137 20.18661505 -30.61550725 18.71416336 -32.76464844 16.26391602 C-28.81403233 14.00289309 -24.86301466 11.74257411 -20.91162109 9.48291016 C-19.56710898 8.71389858 -18.22270734 7.94469384 -16.87841797 7.17529297 C-14.94755512 6.07021242 -13.0162977 4.9658243 -11.08496094 3.86157227 C-10.18174606 3.34434349 -10.18174606 3.34434349 -9.26028442 2.81666565 C-2.95465451 -0.78667285 -2.95465451 -0.78667285 0 0 Z " fill="#FEFDFD" transform="translate(186.7646484375,7.736083984375)"/>
<path d="M0 0 C5.07238041 2.07766445 9.6341618 4.92291876 14.31665039 7.75341797 C16.068397 8.81006602 17.82824241 9.85219637 19.58911133 10.89355469 C20.6899707 11.55484375 21.79083008 12.21613281 22.92504883 12.89746094 C23.93422363 13.50267578 24.94339844 14.10789062 25.9831543 14.73144531 C26.70905762 15.25029297 27.43496094 15.76914062 28.18286133 16.30371094 C28.18286133 16.96371094 28.18286133 17.62371094 28.18286133 18.30371094 C27.33989502 18.78316162 26.49692871 19.2626123 25.62841797 19.7565918 C22.50965004 21.53100442 19.39209279 23.30753462 16.27490234 25.0847168 C14.92399653 25.85450398 13.57276034 26.62371168 12.22119141 27.39233398 C10.28176716 28.49539486 8.34352941 29.60051465 6.40551758 30.70605469 C5.79821304 31.05087387 5.19090851 31.39569305 4.56520081 31.7509613 C1.70347499 33.29158574 1.70347499 33.29158574 -0.81713867 35.30371094 C-0.97717356 37.96797779 -1.07656756 40.60931522 -1.13354492 43.27636719 C-1.15432602 44.07400986 -1.17510712 44.87165253 -1.19651794 45.69346619 C-1.26210025 48.25095705 -1.32093834 50.80855374 -1.37963867 53.36621094 C-1.42281566 55.09603975 -1.46642968 56.82585772 -1.51049805 58.55566406 C-1.61779039 62.80490354 -1.71903293 67.05424983 -1.81713867 71.30371094 C-2.79626221 70.76319092 -3.77538574 70.2226709 -4.78417969 69.66577148 C-13.01516555 65.0473204 -13.01516555 65.0473204 -21.78198242 61.63574219 C-26.73203394 59.90889757 -30.35761869 58.12603329 -32.81713867 53.30371094 C-35.37769322 41.43753094 -33.75766483 28.29722821 -32.81713867 16.30371094 C-32.15705811 15.93084961 -31.49697754 15.55798828 -30.81689453 15.17382812 C-27.79604243 13.4672996 -24.77533941 11.76050736 -21.75463867 10.05371094 C-20.71629883 9.4671875 -19.67795898 8.88066406 -18.6081543 8.27636719 C-17.08544922 7.41591797 -17.08544922 7.41591797 -15.53198242 6.53808594 C-14.54053223 5.98443359 -13.54908203 5.43078125 -12.52758789 4.86035156 C-10.89846074 3.92472603 -9.28771915 2.95413381 -7.7199707 1.91894531 C-4.79783673 0.00463789 -3.47818318 -0.85967401 0 0 Z " fill="#FCFCFC" transform="translate(112.817138671875,7.6962890625)"/>
<path d="M0 0 C3.23459506 1.47549231 6.28276697 3.08782922 9.35302734 4.88134766 C9.92163483 5.21145844 10.49024231 5.54156921 11.07608032 5.88168335 C12.87198337 6.92589067 14.66330622 7.97767725 16.45458984 9.02978516 C17.6795543 9.74383479 18.9048121 10.45738144 20.13037109 11.17041016 C23.11685639 12.90940174 26.09928681 14.65521455 29.07958984 16.40478516 C26.49715931 19.32068437 23.52710274 21.03968031 20.16943359 22.97900391 C19.60132462 23.30769974 19.03321564 23.63639557 18.44789124 23.97505188 C17.25151327 24.66562683 16.05376386 25.35383064 14.85473633 26.03979492 C13.01617167 27.09281103 11.18342709 28.15545769 9.35107422 29.21923828 C8.18669573 29.88974233 7.02199317 30.55968399 5.85693359 31.22900391 C4.79724365 31.83832764 3.73755371 32.44765137 2.64575195 33.07543945 C0.07958984 34.40478516 0.07958984 34.40478516 -1.92041016 34.40478516 C-1.92041016 46.28478516 -1.92041016 58.16478516 -1.92041016 70.40478516 C-6.47740364 68.88578733 -9.68892128 67.55596806 -13.72119141 65.18212891 C-15.30963867 64.25110352 -15.30963867 64.25110352 -16.93017578 63.30126953 C-18.02007812 62.65480469 -19.10998047 62.00833984 -20.23291016 61.34228516 C-21.34214844 60.69195312 -22.45138672 60.04162109 -23.59423828 59.37158203 C-31.75771949 54.56747582 -31.75771949 54.56747582 -32.92041016 53.40478516 C-33.00899661 50.66584431 -33.03564495 47.95225246 -33.01806641 45.21337891 C-33.01665146 44.39354019 -33.01523651 43.57370148 -33.01377869 42.72901917 C-33.00816305 40.10007133 -32.99560795 37.47120742 -32.98291016 34.84228516 C-32.97789717 33.06429159 -32.97333391 31.2862967 -32.96923828 29.50830078 C-32.95818854 25.1404297 -32.94091347 20.77262168 -32.92041016 16.40478516 C-32.18927002 15.99639404 -31.45812988 15.58800293 -30.70483398 15.16723633 C-27.97417907 13.64149238 -25.24391802 12.11504661 -22.51391602 10.58813477 C-20.75843826 9.6065592 -19.00251338 8.62578343 -17.24658203 7.64501953 C-16.13476562 7.02304688 -15.02294922 6.40107422 -13.87744141 5.76025391 C-12.85626221 5.18944092 -11.83508301 4.61862793 -10.78295898 4.03051758 C-7.91347464 2.47457432 -7.91347464 2.47457432 -5.4230957 0.57006836 C-2.92041016 -0.59521484 -2.92041016 -0.59521484 0 0 Z " fill="#FDFDFD" transform="translate(38.92041015625,7.59521484375)"/>
<path d="M0 0 C6.93 3.96 6.93 3.96 14 8 C18.10176078 10.29616414 22.2056443 12.58801933 26.3125 14.875 C35.59098523 20.05710324 44.79771552 25.33868473 53.92919922 30.77490234 C56.21801469 32.12897875 58.51630853 33.46596444 60.81640625 34.80078125 C61.60982422 35.26258789 62.40324219 35.72439453 63.22070312 36.20019531 C64.75298434 37.09157659 66.28678307 37.98035562 67.82226562 38.86621094 C69.56468363 39.88303512 71.28503078 40.93753471 73 42 C73 42.33 73 42.66 73 43 C48.91 43 24.82 43 0 43 C0 28.81 0 14.62 0 0 Z " fill="#FEFEFE" transform="translate(0,64)"/>
<path d="M0 0 C22.9460856 -1.64055137 40.47725294 -2.33996427 59.53710938 12.20410156 C62.91247767 14.66536338 66.50861353 16.65635373 70.17285156 18.65380859 C70.77581055 19.09805176 71.37876953 19.54229492 72 20 C72 20.99 72 21.98 72 23 C68.37478488 23.96532599 66.50821406 24.21103314 62.99560547 22.75244141 C61.96322754 22.12515137 60.93084961 21.49786133 59.8671875 20.8515625 C59.30806671 20.51957855 58.74894592 20.1875946 58.17288208 19.84555054 C56.39703202 18.78755969 54.63589559 17.70766398 52.875 16.625 C51.10478063 15.55371623 49.33183598 14.48730854 47.55569458 13.4258728 C45.94684464 12.46179574 44.34599488 11.48440513 42.74560547 10.50634766 C39.53004362 8.67495376 39.53004362 8.67495376 36 8 C33.40983141 9.01049613 33.40983141 9.01049613 30.75390625 10.640625 C29.75166016 11.21683594 28.74941406 11.79304687 27.71679688 12.38671875 C26.67587891 13.00160156 25.63496094 13.61648438 24.5625 14.25 C23.52544922 14.84941406 22.48839844 15.44882813 21.41992188 16.06640625 C17.68076446 18.23257195 13.95116361 20.40420585 10.28881836 22.69824219 C8 24 8 24 6 24 C3.18755826 44.00686517 3.18755826 44.00686517 8.15057373 62.70861816 C14.62361018 69.64778631 24.30581016 72.87051243 33 76 C34.34507929 76.64263825 35.68425504 77.29925938 37 78 C37 80.31 37 82.62 37 85 C31.25339224 82.82470124 26.08161249 79.7782475 20.75 76.75 C19.75097656 76.18925781 18.75195312 75.62851563 17.72265625 75.05078125 C16.73652344 74.49261719 15.75039062 73.93445313 14.734375 73.359375 C13.84975586 72.85889648 12.96513672 72.35841797 12.05371094 71.84277344 C11.04598633 71.2346582 10.03826172 70.62654297 9 70 C8.23099869 69.65911346 7.46199738 69.31822693 6.66969299 68.9670105 C3.90536956 67.55269121 2.05722174 66.33901031 0 64 C-1.25929511 59.15721499 -1.05067914 54.37598469 -0.87890625 49.4140625 C-0.86210305 47.98778308 -0.84929993 46.56145143 -0.84031677 45.13510132 C-0.80608196 41.39526911 -0.71780565 37.65862363 -0.61798096 33.92004395 C-0.52562166 30.0994783 -0.48474781 26.27839337 -0.43945312 22.45703125 C-0.34316093 14.96990702 -0.18973317 7.48540131 0 0 Z " fill="#0885C8" transform="translate(0,0)"/>
<path d="M0 0 C4.97939916 2.60360438 9.86812126 5.35208846 14.74584961 8.13989258 C16.68161071 9.24416459 18.62304493 10.33795864 20.56494141 11.43139648 C21.8055371 12.13779355 23.0457835 12.84480449 24.28564453 13.55249023 C25.40592041 14.18912598 26.52619629 14.82576172 27.68041992 15.48168945 C30.40146761 17.2289526 32.45672839 18.99109564 34.62548828 21.37280273 C32.97548828 22.36280273 31.32548828 23.35280273 29.62548828 24.37280273 C26.15609963 22.43491501 22.68728889 20.4959972 19.21899414 18.55615234 C17.46351639 17.57457678 15.70759151 16.59380101 13.95166016 15.61303711 C12.83984375 14.99106445 11.72802734 14.3690918 10.58251953 13.72827148 C9.56134033 13.1574585 8.54016113 12.58664551 7.48803711 11.99853516 C4.62548828 10.37280273 4.62548828 10.37280273 2.12817383 8.53808594 C-0.3793174 7.06780436 -0.3793174 7.06780436 -3.32666016 7.98168945 C-6.39078307 9.38022937 -9.25097721 10.89934718 -12.14013672 12.63061523 C-13.19458984 13.25581055 -14.24904297 13.88100586 -15.33544922 14.52514648 C-16.42083984 15.17612305 -17.50623047 15.82709961 -18.62451172 16.49780273 C-20.79405777 17.79597373 -22.96582051 19.09044972 -25.14013672 20.38061523 C-26.09694336 20.95440918 -27.05375 21.52820313 -28.03955078 22.11938477 C-30.37451172 23.37280273 -30.37451172 23.37280273 -32.37451172 23.37280273 C-35.1914613 43.37972836 -35.1914613 43.37972836 -30.22393799 62.07427979 C-24.43176235 68.24601061 -16.00624955 71.46939658 -8.19946289 74.24243164 C-5.46017999 75.33852358 -3.50996801 76.34270284 -1.37451172 78.37280273 C-1.12451172 81.56030273 -1.12451172 81.56030273 -1.37451172 84.37280273 C-5.16949797 82.94795002 -8.62486836 81.20816793 -12.15576172 79.22045898 C-13.24501953 78.60879883 -14.33427734 77.99713867 -15.45654297 77.36694336 C-16.58447266 76.72950195 -17.71240234 76.09206055 -18.87451172 75.43530273 C-20.00244141 74.80172852 -21.13037109 74.1681543 -22.29248047 73.51538086 C-31.1592636 68.52584787 -31.1592636 68.52584787 -33.86083984 66.60498047 C-37.21751713 64.9595696 -38.81448746 65.33317962 -42.37451172 66.37280273 C-45.49423019 67.84555257 -45.49423019 67.84555257 -48.61279297 69.75170898 C-49.46214668 70.24899757 -49.46214668 70.24899757 -50.32865906 70.7563324 C-52.12006578 71.80730401 -53.90367777 72.87070129 -55.68701172 73.93530273 C-57.48959262 75.00091155 -59.29367631 76.06389835 -61.09892273 77.12498474 C-62.72522873 78.08251304 -64.34745992 79.04695211 -65.96948242 80.01171875 C-68.37451172 81.37280273 -68.37451172 81.37280273 -69.37451172 81.37280273 C-70.12060547 78.22045898 -70.12060547 78.22045898 -69.37451172 74.37280273 C-66.66350463 72.66560898 -63.8402582 71.54664586 -60.8894043 70.30175781 C-55.00644785 67.76028402 -49.69113133 65.21173686 -45.37451172 60.37280273 C-42.53084568 51.68061544 -43.58848718 42.19429881 -44.65307617 33.24511719 C-44.5611499 32.29725342 -44.46922363 31.34938965 -44.37451172 30.37280273 C-42.70870254 29.37137498 -41.04198817 28.37145186 -39.37451172 27.37280273 C-39.21845459 26.23335205 -39.06239746 25.09390137 -38.90161133 23.91992188 C-38.37451172 20.37280273 -38.37451172 20.37280273 -36.03295898 18.29638672 C-35.01258545 17.74281494 -33.99221191 17.18924316 -32.94091797 16.61889648 C-31.81621094 15.99176758 -30.69150391 15.36463867 -29.53271484 14.71850586 C-28.33456254 14.08165601 -27.13599225 13.44559194 -25.93701172 12.81030273 C-23.62548325 11.53876805 -21.31428077 10.26664055 -19.00341797 8.99389648 C-17.88080566 8.39174316 -16.75819336 7.78958984 -15.6015625 7.16918945 C-11.79118337 5.04808417 -8.16863555 2.69487863 -4.57348633 0.22851562 C-2.37451172 -0.62719727 -2.37451172 -0.62719727 0 0 Z " fill="#0A0C0B" transform="translate(112.37451171875,0.627197265625)"/>
<path d="M0 0 C5.82744658 2.16747667 11.0667636 5.34820131 16.43066406 8.44970703 C18.25487213 9.50281265 20.08423571 10.54653865 21.9140625 11.58984375 C23.07324045 12.25725045 24.23210598 12.92520014 25.390625 13.59375 C26.44282227 14.19896484 27.49501953 14.80417969 28.57910156 15.42773438 C31 17 31 17 32 19 C31.26885986 19.40839111 30.53771973 19.81678223 29.78442383 20.23754883 C27.05376892 21.76329278 24.32350786 23.28973854 21.59350586 24.81665039 C19.83802811 25.79822596 18.08210323 26.77900173 16.32617188 27.75976562 C15.21435547 28.38173828 14.10253906 29.00371094 12.95703125 29.64453125 C11.93585205 30.21534424 10.91467285 30.78615723 9.86254883 31.37426758 C6.99306448 32.93021084 6.99306448 32.93021084 4.50268555 34.8347168 C2 36 2 36 -0.92041016 35.40478516 C-4.15500522 33.92929285 -7.20317713 32.31695594 -10.2734375 30.5234375 C-10.84204498 30.19332672 -11.41065247 29.86321594 -11.99649048 29.52310181 C-13.79239353 28.47889449 -15.58371638 27.42710791 -17.375 26.375 C-18.59996446 25.66095037 -19.82522226 24.94740372 -21.05078125 24.234375 C-24.03726655 22.49538341 -27.01969696 20.74957061 -30 19 C-27.0222141 15.74847644 -24.03412764 13.69724982 -20.17578125 11.58203125 C-18.50999023 10.66067383 -18.50999023 10.66067383 -16.81054688 9.72070312 C-15.65619141 9.09099609 -14.50183594 8.46128906 -13.3125 7.8125 C-11.01548767 6.55076973 -8.72061283 5.28523044 -6.42578125 4.01953125 C-4.90078003 3.18578979 -4.90078003 3.18578979 -3.3449707 2.33520508 C-1.11318957 1.20138968 -1.11318957 1.20138968 0 0 Z " fill="#FCFCFC" transform="translate(147,64)"/>
<path d="M0 0 C3.05200195 1.45874023 3.05200195 1.45874023 6.23828125 3.30859375 C6.80451706 3.63537613 7.37075287 3.96215851 7.95414734 4.29884338 C9.14069463 4.98624816 10.32465806 5.67813077 11.50610352 6.37426758 C13.31870223 7.44115059 15.1399062 8.49199745 16.96289062 9.54101562 C25.85662739 14.71325479 25.85662739 14.71325479 27 17 C26.37544922 17.33733154 25.75089844 17.67466309 25.10742188 18.0222168 C22.23682885 19.57464243 19.36840837 21.13104177 16.5 22.6875 C15.51773438 23.21794922 14.53546875 23.74839844 13.5234375 24.29492188 C12.55664062 24.82021484 11.58984375 25.34550781 10.59375 25.88671875 C9.63855469 26.40411621 8.68335938 26.92151367 7.69921875 27.45458984 C4.62416719 29.21517924 1.75703745 31.18723995 -1.06835938 33.32348633 C-4.15454101 34.40435202 -6.05500487 33.24840703 -9 32 C-11.11867342 30.89227404 -13.20907301 29.72935339 -15.2734375 28.5234375 C-15.84204498 28.19332672 -16.41065247 27.86321594 -16.99649048 27.52310181 C-18.79239353 26.47889449 -20.58371638 25.42710791 -22.375 24.375 C-23.59996446 23.66095037 -24.82522226 22.94740372 -26.05078125 22.234375 C-29.03726655 20.49538341 -32.01969696 18.74957061 -35 17 C-32.47725899 14.32865483 -30.14799372 12.30997109 -26.91796875 10.5625 C-26.15033203 10.14226562 -25.38269531 9.72203125 -24.59179688 9.2890625 C-23.79837891 8.86367187 -23.00496094 8.43828125 -22.1875 8 C-20.61829667 7.1461878 -19.04928364 6.29202574 -17.48046875 5.4375 C-16.72040527 5.03144531 -15.9603418 4.62539062 -15.17724609 4.20703125 C-13.78537885 3.43540178 -12.4147666 2.62321607 -11.07666016 1.76171875 C-6.84330906 -0.94799842 -4.81672124 -1.22301871 0 0 Z " fill="#FDFDFC" transform="translate(78,66)"/>
<path d="M0 0 C3.2449668 1.13212878 6.04484032 2.64975071 9.02734375 4.3605957 C9.6298999 4.70483078 10.23245605 5.04906586 10.85327148 5.4037323 C12.12252778 6.13088128 13.38983257 6.86144609 14.65527344 7.59521484 C16.57916739 8.70987879 18.50963863 9.81237999 20.44140625 10.91333008 C25.79732569 13.99028707 30.74183319 17.025156 35.58984375 20.90356445 C11.49984375 20.90356445 -12.59015625 20.90356445 -37.41015625 20.90356445 C-34.14968968 18.45821452 -31.02906716 16.45149571 -27.5078125 14.43481445 C-26.37021484 13.78125977 -25.23261719 13.12770508 -24.06054688 12.4543457 C-22.86464407 11.7706457 -21.66867998 11.08705288 -20.47265625 10.40356445 C-18.12972603 9.06065378 -15.7875572 7.71642092 -13.4453125 6.37231445 C-12.40769775 5.77870117 -11.37008301 5.18508789 -10.30102539 4.57348633 C-7.4168434 2.96051012 -7.4168434 2.96051012 -4.84545898 1.12426758 C-2.41015625 -0.09643555 -2.41015625 -0.09643555 0 0 Z " fill="#FDFEFC" transform="translate(111.41015625,86.096435546875)"/>
<path d="M0 0 C23.76 0 47.52 0 72 0 C68.99861609 3.00138391 66.3672549 4.64758495 62.6875 6.72265625 C62.07737061 7.06880478 61.46724121 7.41495331 60.83862305 7.77159119 C58.89498717 8.87318268 56.94767823 9.96807428 55 11.0625 C53.05308258 12.16179136 51.10695249 13.26245607 49.16137695 14.36412048 C47.39674447 15.36249341 45.63006276 16.35724171 43.86328125 17.35180664 C41.86832122 18.50016741 39.91527025 19.72315317 38 21 C33.00792 20.78373661 28.85664237 17.92020406 24.625 15.5 C23.8407666 15.0572876 23.0565332 14.6145752 22.24853516 14.15844727 C16.92610937 11.13861218 11.63598709 8.06309252 6.375 4.9375 C5.72998535 4.5559375 5.0849707 4.174375 4.42041016 3.78125 C2.92883216 2.8835905 1.46128587 1.94617182 0 1 C0 0.67 0 0.34 0 0 Z " fill="#FCFCFD" transform="translate(38,0)"/>
<path d="M0 0 C23.76 0 47.52 0 72 0 C66.59602095 4.32318324 60.92026279 7.67140684 54.93457031 11.08276367 C53.00100319 12.18692713 51.074656 13.30299971 49.1484375 14.41992188 C47.9118788 15.1283386 46.67491308 15.83604545 45.4375 16.54296875 C44.32246094 17.18258545 43.20742187 17.82220215 42.05859375 18.48120117 C39.16692178 19.91711204 37.21433031 20.87493993 34 21 C31.17260742 19.81591797 31.17260742 19.81591797 28.10546875 17.9921875 C26.98462891 17.33476562 25.86378906 16.67734375 24.70898438 16 C23.53500307 15.29192058 22.3611759 14.58358553 21.1875 13.875 C20.02616435 13.18879302 18.86406083 12.50388384 17.70117188 11.8203125 C14.45478533 9.90038647 11.22427067 7.95679155 8 6 C7.13971191 5.48083008 6.27942383 4.96166016 5.39306641 4.42675781 C3.57619542 3.31526968 1.78423565 2.16315485 0 1 C0 0.67 0 0.34 0 0 Z " fill="#FDFCFC" transform="translate(112,0)"/>
<path d="M0 0 C2.05113457 25.20589518 2.05113457 25.20589518 -1.11474609 31.06201172 C-4.39975222 34.36049479 -8.67541886 35.58701804 -13 37 C-14.92488833 38.11807873 -16.82489308 39.28098786 -18.6875 40.5 C-22.75 43 -22.75 43 -25 43 C-25.22363929 38.98060937 -25.38628486 34.96365228 -25.49438477 30.93945312 C-25.53946167 29.57325144 -25.6007517 28.2074797 -25.67895508 26.84277344 C-26.30932344 15.55382376 -26.30932344 15.55382376 -23.21801758 11.88525391 C-20.8807244 10.31076664 -18.57300426 9.14293131 -16 8 C-14.70051683 7.23666942 -13.40925747 6.45906617 -12.12890625 5.6640625 C-10.94201128 4.98105019 -9.75323959 4.30128746 -8.5625 3.625 C-7.95212891 3.27050781 -7.34175781 2.91601562 -6.71289062 2.55078125 C-2.24656129 0 -2.24656129 0 0 0 Z " fill="#FDFEFD" transform="translate(68,32)"/>
<path d="M0 0 C9.86328125 4.78515625 9.86328125 4.78515625 11.7824707 5.82446289 C13.45742855 6.7123768 15.17615516 7.51838425 16.91088867 8.28295898 C20.15704439 9.92344988 22.49627559 11.35027303 25 14 C26.33965336 19.00795591 26.04839615 23.81747939 25.6875 28.9375 C25.63225044 30.30253678 25.58207272 31.66778882 25.53710938 33.03320312 C25.407761 36.36098392 25.22733612 39.67771305 25 43 C21.61636394 41.71563748 18.51797586 40.25238128 15.390625 38.43359375 C14.55402344 37.94826172 13.71742187 37.46292969 12.85546875 36.96289062 C11.99566406 36.45951172 11.13585937 35.95613281 10.25 35.4375 C9.37472656 34.93025391 8.49945313 34.42300781 7.59765625 33.90039062 C1.14223388 30.14223388 1.14223388 30.14223388 0 29 C-0.08775605 26.85441173 -0.10695219 24.70595579 -0.09765625 22.55859375 C-0.09443359 21.25341797 -0.09121094 19.94824219 -0.08789062 18.60351562 C-0.07953401 17.2148431 -0.07106905 15.82617123 -0.0625 14.4375 C-0.05748666 13.04492344 -0.05292347 11.65234519 -0.04882812 10.25976562 C-0.03699434 6.8398013 -0.0205088 3.41992156 0 0 Z " fill="#FDFDFC" transform="translate(80,32)"/>
<path d="M0 0 C2.05113457 25.20589518 2.05113457 25.20589518 -1.11474609 31.06201172 C-4.39975222 34.36049479 -8.67541886 35.58701804 -13 37 C-14.92488833 38.11807873 -16.82489308 39.28098786 -18.6875 40.5 C-22.75 43 -22.75 43 -25 43 C-27.04720628 17.84237872 -27.04720628 17.84237872 -23.90136719 11.93798828 C-20.62808803 8.60686531 -16.34225322 7.39120734 -12 6 C-9.89475429 4.8733548 -7.80885506 3.70934062 -5.75 2.5 C-1.14893617 0 -1.14893617 0 0 0 Z " fill="#FDFDFD" transform="translate(142,32)"/>
<path d="M0 0 C0.78213867 0.403396 1.56427734 0.80679199 2.37011719 1.22241211 C9.01713496 4.68924846 9.01713496 4.68924846 16.015625 7.31640625 C20.03113525 8.86344462 22.97395351 10.14073328 25 14 C26.6695553 23.48591222 25.77693875 33.45238813 25 43 C21.61636394 41.71563748 18.51797586 40.25238128 15.390625 38.43359375 C14.55402344 37.94826172 13.71742188 37.46292969 12.85546875 36.96289062 C11.99566406 36.45951172 11.13585937 35.95613281 10.25 35.4375 C9.37472656 34.93025391 8.49945313 34.42300781 7.59765625 33.90039062 C1.14223388 30.14223388 1.14223388 30.14223388 0 29 C-0.08775605 26.85441173 -0.10695219 24.70595579 -0.09765625 22.55859375 C-0.09443359 21.25341797 -0.09121094 19.94824219 -0.08789062 18.60351562 C-0.07953401 17.2148431 -0.07106905 15.82617123 -0.0625 14.4375 C-0.05748666 13.04492344 -0.05292347 11.65234519 -0.04882812 10.25976562 C-0.03699434 6.8398013 -0.0205088 3.41992156 0 0 Z " fill="#FEFDFD" transform="translate(154,32)"/>
<path d="M0 0 C11.88 0 23.76 0 36 0 C33.01946939 2.98053061 30.40156154 4.64464991 26.7578125 6.72265625 C26.15242645 7.06880478 25.54704041 7.41495331 24.92330933 7.77159119 C23.64534874 8.50085379 22.36602922 9.2277395 21.08544922 9.95239258 C19.13546093 11.05657648 17.1905179 12.16925626 15.24609375 13.28320312 C10.22990729 16.13996862 5.3755744 18.84977024 0 21 C0 14.07 0 7.14 0 0 Z " fill="#FCFDFE" transform="translate(0,0)"/>
<path d="M0 0 C0.495 18.315 0.495 18.315 1 37 C-3.62 39.31 -8.24 41.62 -13 44 C-16.13450986 45.78179795 -19.2336988 47.5683307 -22.3125 49.4375 C-29.88585384 54 -29.88585384 54 -31 54 C-31.74609375 50.84765625 -31.74609375 50.84765625 -31 47 C-28.28899291 45.29280625 -25.46574649 44.17384313 -22.51489258 42.92895508 C-16.63193613 40.38748128 -11.31661961 37.83893413 -7 33 C-4.15633396 24.3078127 -5.21397547 14.82149607 -6.27856445 5.87231445 C-6.18663818 4.92445068 -6.09471191 3.97658691 -6 3 C-2.16016982 0 -2.16016982 0 0 0 Z " fill="#0985C8" transform="translate(74,28)"/>
<path d="M0 0 C0.33 0.66 0.66 1.32 1 2 C2.65580037 2.69321523 4.32495955 3.35466154 6 4 C7.91878091 5.04220207 9.81883121 6.11932391 11.703125 7.22265625 C12.7653125 7.84333984 13.8275 8.46402344 14.921875 9.10351562 C16.02015625 9.74998047 17.1184375 10.39644531 18.25 11.0625 C19.920625 12.03799805 19.920625 12.03799805 21.625 13.03320312 C29.85688973 17.85688973 29.85688973 17.85688973 31 19 C31.08855161 21.6662603 31.11524673 24.30647114 31.09765625 26.97265625 C31.0962413 27.77029892 31.09482635 28.56794159 31.09336853 29.38975525 C31.08775316 31.94737435 31.07519812 34.50490718 31.0625 37.0625 C31.05748698 38.79231645 31.05292373 40.52213426 31.04882812 42.25195312 C31.03777875 46.50133553 31.02050386 50.75065312 31 55 C29.02 54.01 27.04 53.02 25 52 C25.14308594 50.74678955 25.14308594 50.74678955 25.2890625 49.46826172 C26.1558067 40.33847221 27.03897447 30.79127608 24 22 C18.87146295 16.30973129 12.15007285 13.69461296 5.21484375 10.7890625 C2.23388672 9.48925781 2.23388672 9.48925781 0 8 C-1.0958185 4.88118717 -0.6798965 3.32472948 0 0 Z " fill="#F5C114" transform="translate(80,24)"/>
<path d="M0 0 C7.12504102 3.79468477 14.13601865 7.77397061 21.125 11.8125 C21.97876221 12.30468018 22.83252441 12.79686035 23.7121582 13.30395508 C24.51097412 13.76697021 25.30979004 14.22998535 26.1328125 14.70703125 C26.85355957 15.1244458 27.57430664 15.54186035 28.31689453 15.97192383 C30 17 30 17 31 18 C31.08855161 20.6662603 31.11524673 23.30647114 31.09765625 25.97265625 C31.0962413 26.77029892 31.09482635 27.56794159 31.09336853 28.38975525 C31.08775316 30.94737435 31.07519812 33.50490718 31.0625 36.0625 C31.05748698 37.79231645 31.05292373 39.52213426 31.04882812 41.25195312 C31.03777875 45.50133553 31.02050386 49.75065312 31 54 C29.02 53.01 27.04 52.02 25 51 C25.09015381 50.15928955 25.18030762 49.3185791 25.27319336 48.45239258 C26.08521302 39.32859728 26.93042216 29.80698891 24 21 C18.62119464 14.69967113 10.84466853 11.62569325 3.20898438 8.83081055 C1 8 1 8 0 7 C-0.04092937 4.66702567 -0.04241723 2.33294775 0 0 Z " fill="#05A44F" transform="translate(154,25)"/>
<path d="M0 0 C0.22329729 4.87436991 0.38613882 9.74573961 0.49438477 14.62402344 C0.53951672 16.28112654 0.60084462 17.93787369 0.67895508 19.59375 C1.30632791 33.24013414 1.30632791 33.24013414 -1.65673828 37.23193359 C-4.02871435 38.84162094 -6.3535421 39.90316527 -9 41 C-10.82426304 42.05013782 -12.63660816 43.12120649 -14.4375 44.2109375 C-16.28974767 45.26899153 -18.14393257 46.32366111 -20 47.375 C-20.95261719 47.92027344 -21.90523437 48.46554688 -22.88671875 49.02734375 C-29.86624765 53 -29.86624765 53 -31 53 C-31.74609375 49.84765625 -31.74609375 49.84765625 -31 46 C-28.28862831 44.29257664 -25.46486068 43.17344814 -22.51367188 41.92822266 C-16.62576177 39.38495871 -11.32941703 36.83265348 -7 32 C-3.71373139 22.48164587 -4.87640208 11.84097165 -6 2 C-2.25 0 -2.25 0 0 0 Z " fill="#0C0A0A" transform="translate(148,29)"/>
<path d="M0 0 C3.0625 0.3125 3.0625 0.3125 4.7265625 1.5234375 C6.94155167 4.48970955 6.53056323 7.341076 6.41015625 10.921875 C6.0625 13.3125 6.0625 13.3125 4.4375 16 C2.0625 17.3125 2.0625 17.3125 -1.125 17.1875 C-2.053125 16.89875 -2.98125 16.61 -3.9375 16.3125 C-5.30021133 13.58707733 -5.10673601 11.35162726 -5.125 8.3125 C-5.13917969 7.24 -5.15335937 6.1675 -5.16796875 5.0625 C-4.83737746 1.11781745 -3.89980522 0.4148729 0 0 Z " fill="#3B3B3D" transform="translate(377.9375,58.6875)"/>
<path d="M0 0 C7 0 7 0 9 1 C8.979375 2.03125 8.95875 3.0625 8.9375 4.125 C8.90089481 7.92311262 8.90089481 7.92311262 9.5625 11.3125 C10 14 10 14 9 16 C6.03 16 3.06 16 0 16 C0 10.72 0 5.44 0 0 Z " fill="#313134" transform="translate(247,59)"/>
<path d="M0 0 C0.66 0 1.32 0 2 0 C2 5.94 2 11.88 2 18 C-0.31 18 -2.62 18 -5 18 C-7 16 -7 16 -7.265625 13.90625 C-7.25789063 12.71515625 -7.25789063 12.71515625 -7.25 11.5 C-7.25515625 10.7059375 -7.2603125 9.911875 -7.265625 9.09375 C-7 7 -7 7 -5 5 C-2.375 5.375 -2.375 5.375 0 6 C0 4.02 0 2.04 0 0 Z " fill="#3B3B3E" transform="translate(467,58)"/>
<path d="M0 0 C2.31 0 4.62 0 7 0 C9.45811625 3.68717438 9.31118164 5.64345704 9 10 C8.01 11.485 8.01 11.485 7 13 C5.68 13 4.36 13 3 13 C2.67 14.32 2.34 15.64 2 17 C1.34 17 0.68 17 0 17 C0 11.39 0 5.78 0 0 Z " fill="#48484A" transform="translate(427,63)"/>
<path d="M0 0 C2.4375 0.8125 2.4375 0.8125 4.4375 2.8125 C4.98936722 8.88303942 4.98936722 8.88303942 3.25 11.8125 C1.4375 12.8125 1.4375 12.8125 -1.125 12.625 C-3.5625 11.8125 -3.5625 11.8125 -5.5625 9.8125 C-6.11436722 3.74196058 -6.11436722 3.74196058 -4.375 0.8125 C-2.5625 -0.1875 -2.5625 -0.1875 0 0 Z " fill="#3B3B3D" transform="translate(273.5625,63.1875)"/>
<path d="M0 0 C2.5 0.25 2.5 0.25 4.5 2.25 C4.765625 4.125 4.765625 4.125 4.75 6.25 C4.75515625 6.95125 4.7603125 7.6525 4.765625 8.375 C4.5 10.25 4.5 10.25 2.5 12.25 C-0.625 12.375 -0.625 12.375 -3.5 12.25 C-4.61445498 10.02109005 -4.66480286 8.71944894 -4.6875 6.25 C-4.70167969 5.54875 -4.71585937 4.8475 -4.73046875 4.125 C-4.34202978 0.96481851 -3.03116737 0.30311674 0 0 Z " fill="#2C2C2F" transform="translate(345.5,32.75)"/>
<path d="M0 0 C2.375 -0.125 2.375 -0.125 5 0 C7 2 7 2 7.1953125 4.6015625 C7.17210937 5.59929687 7.14890625 6.59703125 7.125 7.625 C7.10695313 8.62789062 7.08890625 9.63078125 7.0703125 10.6640625 C7.03550781 11.82035156 7.03550781 11.82035156 7 13 C3.625 13.125 3.625 13.125 0 13 C-0.66 12.34 -1.32 11.68 -2 11 C-1.625 8.375 -1.625 8.375 -1 6 C0.65 5.67 2.3 5.34 4 5 C4 4.01 4 3.02 4 2 C3.01 2 2.02 2 1 2 C1 2.66 1 3.32 1 4 C0.01 4 -0.98 4 -2 4 C-1.34 2.68 -0.68 1.36 0 0 Z " fill="#7E7E7F" transform="translate(334,63)"/>
<path d="M0 0 C2.375 -0.125 2.375 -0.125 5 0 C7 2 7 2 7.1953125 4.6015625 C7.17210937 5.59929687 7.14890625 6.59703125 7.125 7.625 C7.10695313 8.62789062 7.08890625 9.63078125 7.0703125 10.6640625 C7.03550781 11.82035156 7.03550781 11.82035156 7 13 C3.625 13.125 3.625 13.125 0 13 C-0.66 12.34 -1.32 11.68 -2 11 C-1.625 8.375 -1.625 8.375 -1 6 C0.65 5.67 2.3 5.34 4 5 C4 4.01 4 3.02 4 2 C2.02 2.66 0.04 3.32 -2 4 C-1.34 2.68 -0.68 1.36 0 0 Z " fill="#6C6C6E" transform="translate(449,63)"/>
<path d="M0 0 C0.99 0 1.98 0 3 0 C3.33 2.97 3.66 5.94 4 9 C4.66 7.68 5.32 6.36 6 5 C6.99 5.33 7.98 5.66 9 6 C8.01 7.485 8.01 7.485 7 9 C7.26259783 11.48051222 7.26259783 11.48051222 8 14 C8.2784375 15.1446875 8.2784375 15.1446875 8.5625 16.3125 C8.706875 16.869375 8.85125 17.42625 9 18 C6 17 6 17 4.8125 14.9375 C4.544375 14.298125 4.27625 13.65875 4 13 C3.67 14.65 3.34 16.3 3 18 C2.01 18 1.02 18 0 18 C0 12.06 0 6.12 0 0 Z " fill="#626263" transform="translate(294,58)"/>
<path d="M0 0 C1.98 0 3.96 0 6 0 C7.26237731 2.52475462 7.09856404 4.31200466 7.0625 7.125 C7.05347656 8.03507812 7.04445313 8.94515625 7.03515625 9.8828125 C7.02355469 10.58148438 7.01195312 11.28015625 7 12 C4.36 12 1.72 12 -1 12 C-1.625 9.625 -1.625 9.625 -2 7 C0 5 0 5 2.625 4.875 C3.40875 4.91625 4.1925 4.9575 5 5 C4.67 4.01 4.34 3.02 4 2 C2.35 2.33 0.7 2.66 -1 3 C-0.67 2.01 -0.34 1.02 0 0 Z " fill="#5D5D5E" transform="translate(369,33)"/>
<path d="M0 0 C1.65 0 3.3 0 5 0 C5 3.96 5 7.92 5 12 C3.35 12.33 1.7 12.66 0 13 C-1 12 -1 12 -1.1328125 9.53125 C-1.13023437 8.5309375 -1.12765625 7.530625 -1.125 6.5 C-1.12757813 5.4996875 -1.13015625 4.499375 -1.1328125 3.46875 C-1 1 -1 1 0 0 Z " fill="#FBFBFB" transform="translate(376,61)"/>
<path d="M0 0 C1.99954746 -0.04254356 4.00041636 -0.04080783 6 0 C7 1 7 1 7.09765625 3.50390625 C7.08605469 4.51324219 7.07445312 5.52257813 7.0625 6.5625 C7.05347656 7.57441406 7.04445313 8.58632813 7.03515625 9.62890625 C7.02355469 10.41136719 7.01195312 11.19382812 7 12 C4.36 12 1.72 12 -1 12 C-1.04254356 10.00045254 -1.04080783 7.99958364 -1 6 C0 5 0 5 2.5625 4.9375 C3.7690625 4.9684375 3.7690625 4.9684375 5 5 C4.67 4.01 4.34 3.02 4 2 C2.35 2.33 0.7 2.66 -1 3 C-0.67 2.01 -0.34 1.02 0 0 Z " fill="#27272A" transform="translate(313,33)"/>
<path d="M0 0 C3.375 -0.125 3.375 -0.125 7 0 C9 2 9 2 9.1953125 4.3828125 C9.17210937 5.28773437 9.14890625 6.19265625 9.125 7.125 C9.10695313 8.03507812 9.08890625 8.94515625 9.0703125 9.8828125 C9.04710937 10.58148438 9.02390625 11.28015625 9 12 C8.34 12 7.68 12 7 12 C7 8.7 7 5.4 7 2 C5.68 2 4.36 2 3 2 C3 5.63 3 9.26 3 13 C2.01 13 1.02 13 0 13 C0 8.71 0 4.42 0 0 Z " fill="#585859" transform="translate(352,63)"/>
<path d="M0 0 C3.375 -0.125 3.375 -0.125 7 0 C9 2 9 2 9.1953125 4.3828125 C9.17210937 5.28773437 9.14890625 6.19265625 9.125 7.125 C9.10695313 8.03507812 9.08890625 8.94515625 9.0703125 9.8828125 C9.04710937 10.58148438 9.02390625 11.28015625 9 12 C8.34 12 7.68 12 7 12 C6.67 9.03 6.34 6.06 6 3 C5.01 2.67 4.02 2.34 3 2 C3 5.63 3 9.26 3 13 C2.01 13 1.02 13 0 13 C0 8.71 0 4.42 0 0 Z " fill="#515152" transform="translate(407,63)"/>
<path d="M0 0 C0.66 0 1.32 0 2 0 C2 1.98 2 3.96 2 6 C2.78375 5.79375 3.5675 5.5875 4.375 5.375 C5.674375 5.189375 5.674375 5.189375 7 5 C9 7 9 7 9.1953125 9.3828125 C9.16050781 10.74019531 9.16050781 10.74019531 9.125 12.125 C9.10695313 13.03507812 9.08890625 13.94515625 9.0703125 14.8828125 C9.04710937 15.58148438 9.02390625 16.28015625 9 17 C8.34 17 7.68 17 7 17 C6.67 14.03 6.34 11.06 6 8 C5.01 8 4.02 8 3 8 C2.67 10.97 2.34 13.94 2 17 C1.34 17 0.68 17 0 17 C0 11.39 0 5.78 0 0 Z " fill="#2F2F32" transform="translate(319,58)"/>
<path d="M0 0 C0.99 0 1.98 0 3 0 C3.66 2.64 4.32 5.28 5 8 C5.66 5.36 6.32 2.72 7 0 C7.66 0 8.32 0 9 0 C8.5653312 4.08588671 7.84920147 7.92900315 6.6875 11.875 C6.46449219 12.63554688 6.24148438 13.39609375 6.01171875 14.1796875 C5 16 5 16 2.89453125 16.7578125 C1.95673828 16.87769531 1.95673828 16.87769531 1 17 C1.66 16.67 2.32 16.34 3 16 C2.52013969 10.43109483 1.70084819 5.32932432 0 0 Z " fill="#333335" transform="translate(394,63)"/>
<path d="M0 0 C1.1446875 0.3403125 1.1446875 0.3403125 2.3125 0.6875 C2.6425 1.6775 2.9725 2.6675 3.3125 3.6875 C2.6525 3.6875 1.9925 3.6875 1.3125 3.6875 C1.3125 3.0275 1.3125 2.3675 1.3125 1.6875 C-0.0075 1.6875 -1.3275 1.6875 -2.6875 1.6875 C-2.3575 4.3275 -2.0275 6.9675 -1.6875 9.6875 C-0.6975 10.0175 0.2925 10.3475 1.3125 10.6875 C1.3125 10.0275 1.3125 9.3675 1.3125 8.6875 C1.9725 8.6875 2.6325 8.6875 3.3125 8.6875 C2.6525 10.0075 1.9925 11.3275 1.3125 12.6875 C-1.0625 12.375 -1.0625 12.375 -3.6875 11.6875 C-6.00032587 8.21826119 -6.11228586 6.76544425 -5.6875 2.6875 C-3.95592109 -0.1377077 -3.32136449 -0.38620517 0 0 Z " fill="#4E4E50" transform="translate(286.6875,63.3125)"/>
<path d="M0 0 C0.99 0 1.98 0 3 0 C3 0.99 3 1.98 3 3 C3.66 3 4.32 3 5 3 C5 3.66 5 4.32 5 5 C4.34 5 3.68 5 3 5 C3 7.97 3 10.94 3 14 C3.66 14.33 4.32 14.66 5 15 C3.35 14.67 1.7 14.34 0 14 C-0.19532961 12.2300132 -0.38098882 10.45895721 -0.5625 8.6875 C-0.66691406 7.70136719 -0.77132813 6.71523438 -0.87890625 5.69921875 C-1 3 -1 3 0 0 Z " fill="#5C5C5D" transform="translate(325,30)"/>
<path d="M0 0 C0.99 0 1.98 0 3 0 C3 0.99 3 1.98 3 3 C3.66 3 4.32 3 5 3 C5 3.66 5 4.32 5 5 C4.34 5 3.68 5 3 5 C3 7.97 3 10.94 3 14 C3.66 14.33 4.32 14.66 5 15 C3.35 14.67 1.7 14.34 0 14 C-0.19532961 12.2300132 -0.38098882 10.45895721 -0.5625 8.6875 C-0.66691406 7.70136719 -0.77132813 6.71523438 -0.87890625 5.69921875 C-1 3 -1 3 0 0 Z " fill="#59595A" transform="translate(268,30)"/>
<path d="M0 0 C1.1446875 0.3403125 1.1446875 0.3403125 2.3125 0.6875 C2.6425 1.6775 2.9725 2.6675 3.3125 3.6875 C0.3425 3.1925 0.3425 3.1925 -2.6875 2.6875 C-2.6875 5.3275 -2.6875 7.9675 -2.6875 10.6875 C-0.7075 10.0275 1.2725 9.3675 3.3125 8.6875 C2.6525 10.0075 1.9925 11.3275 1.3125 12.6875 C-3.4375 11.9375 -3.4375 11.9375 -5.6875 9.6875 C-6.23936722 3.61696058 -6.23936722 3.61696058 -4.5 0.6875 C-2.6875 -0.3125 -2.6875 -0.3125 0 0 Z " fill="#3B3B3D" transform="translate(311.6875,63.3125)"/>
<path d="M0 0 C0.99 0 1.98 0 3 0 C4.36952673 2.73905345 4.12621361 4.97087332 4 8 C3.67 8.66 3.34 9.32 3 10 C1.68 9.67 0.36 9.34 -1 9 C-1.09765625 2.84765625 -1.09765625 2.84765625 -1 1 C-0.67 0.67 -0.34 0.34 0 0 Z " fill="#EBEBEC" transform="translate(344,34)"/>
<path d="M0 0 C1.66611905 -0.042721 3.33382885 -0.04063832 5 0 C6 1 6 1 6.0625 3.5625 C6.041875 4.366875 6.02125 5.17125 6 6 C4.02 6 2.04 6 0 6 C0.33 7.32 0.66 8.64 1 10 C2.65 10 4.3 10 6 10 C5.67 10.66 5.34 11.32 5 12 C3.00045254 12.04254356 0.99958364 12.04080783 -1 12 C-2 11 -2 11 -2.0625 7.9375 C-2.041875 6.968125 -2.02125 5.99875 -2 5 C-0.02 5 1.96 5 4 5 C3.67 4.01 3.34 3.02 3 2 C2.01 2 1.02 2 0 2 C0 1.34 0 0.68 0 0 Z " fill="#28282B" transform="translate(279,33)"/>
<path d="M0 0 C2.0625 0.4375 2.0625 0.4375 4 1 C4 3.31 4 5.62 4 8 C2.0625 8.5625 2.0625 8.5625 0 9 C-1 8 -1 8 -1.125 4.5 C-1 1 -1 1 0 0 Z " fill="#EAEAEA" transform="translate(463,65)"/>
<path d="M0 0 C1.32 0 2.64 0 4 0 C4 2.64 4 5.28 4 8 C2.68 8.33 1.36 8.66 0 9 C-1.36623674 6.26752652 -1.128426 4.01801098 -1 1 C-0.67 0.67 -0.34 0.34 0 0 Z " fill="#EEEEEE" transform="translate(271,65)"/>
<path d="M0 0 C1.32 0 2.64 0 4 0 C5.125 6.75 5.125 6.75 4 9 C2.68 8.67 1.36 8.34 0 8 C0 5.36 0 2.72 0 0 Z " fill="#EFEFEF" transform="translate(429,65)"/>
<path d="M0 0 C1.98 0 3.96 0 6 0 C6 0.66 6 1.32 6 2 C5.01 2 4.02 2 3 2 C3 5.3 3 8.6 3 12 C2.01 12 1.02 12 0 12 C0 8.04 0 4.08 0 0 Z " fill="#555557" transform="translate(289,33)"/>
<path d="M0 0 C0.99 0 1.98 0 3 0 C3 4.29 3 8.58 3 13 C2.01 13 1.02 13 0 13 C0 8.71 0 4.42 0 0 Z " fill="#6A6A6C" transform="translate(345,63)"/>
<path d="M0 0 C1.67542976 0.28604898 3.34385343 0.61781233 5 1 C4.67 2.98 4.34 4.96 4 7 C2.35 7 0.7 7 -1 7 C-1.04254356 5.00045254 -1.04080783 2.99958364 -1 1 C-0.67 0.67 -0.34 0.34 0 0 Z " fill="#3A3A3C" transform="translate(313,38)"/>
<path d="M0 0 C1.98 0.99 1.98 0.99 4 2 C3.67 5.3 3.34 8.6 3 12 C2.01 12 1.02 12 0 12 C0 8.04 0 4.08 0 0 Z " fill="#5C5C5D" transform="translate(354,33)"/>
<path d="M0 0 C1.98 0.99 1.98 0.99 4 2 C3.67 5.3 3.34 8.6 3 12 C2.01 12 1.02 12 0 12 C0 8.04 0 4.08 0 0 Z " fill="#5C5C5D" transform="translate(254,33)"/>
<path d="M0 0 C1.65 0 3.3 0 5 0 C5.38218767 1.65614657 5.71395102 3.32457024 6 5 C5 6 5 6 2.4375 6.0625 C1.2309375 6.0315625 1.2309375 6.0315625 0 6 C0 4.02 0 2.04 0 0 Z " fill="#EDEDED" transform="translate(249,68)"/>
<path d="M0 0 C2.75566251 2.75566251 2.45934233 5.21539633 3 9 C3.66 9.66 4.32 10.32 5 11 C4.01 11 3.02 11 2 11 C2 12.65 2 14.3 2 16 C1.34 16 0.68 16 0 16 C0 10.72 0 5.44 0 0 Z " fill="#262629" transform="translate(427,64)"/>
<path d="M0 0 C0.99 0.33 1.98 0.66 3 1 C2.01 2.485 2.01 2.485 1 4 C1.26259783 6.48051222 1.26259783 6.48051222 2 9 C2.2784375 10.1446875 2.2784375 10.1446875 2.5625 11.3125 C2.706875 11.869375 2.85125 12.42625 3 13 C0 12 0 12 -1.25 10.3125 C-2.43779402 6.65013509 -1.70045696 3.40091392 0 0 Z " fill="#414143" transform="translate(300,63)"/>
<path d="M0 0 C3.69230769 0.69230769 3.69230769 0.69230769 5 2 C5.07205511 3.68608966 5.08386068 5.37500659 5.0625 7.0625 C5.05347656 7.98160156 5.04445313 8.90070313 5.03515625 9.84765625 C5.02355469 10.55792969 5.01195312 11.26820312 5 12 C4.34 12 3.68 12 3 12 C2.96261719 11.37351562 2.92523438 10.74703125 2.88671875 10.1015625 C2.82097656 9.28429687 2.75523437 8.46703125 2.6875 7.625 C2.62949219 6.81289062 2.57148438 6.00078125 2.51171875 5.1640625 C2.17009472 2.62078662 2.17009472 2.62078662 -1 1 C-0.67 0.67 -0.34 0.34 0 0 Z " fill="#2A2A2D" transform="translate(417,63)"/>
<path d="M0 0 C2.475 0.99 2.475 0.99 5 2 C5 2.99 5 3.98 5 5 C3.02 5 1.04 5 -1 5 C-1.33 6.32 -1.66 7.64 -2 9 C-2.25 3.375 -2.25 3.375 0 0 Z " fill="#A6A7A7" transform="translate(278,33)"/>
<path d="M0 0 C1.485 0.99 1.485 0.99 3 2 C3.1875 5.625 3.1875 5.625 3 9 C1.68 9.33 0.36 9.66 -1 10 C-0.67 6.7 -0.34 3.4 0 0 Z " fill="#575759" transform="translate(275,64)"/>
<path d="M0 0 C2.475 0.495 2.475 0.495 5 1 C5 4.63 5 8.26 5 12 C4.34 12 3.68 12 3 12 C2.92652344 10.95199219 2.92652344 10.95199219 2.8515625 9.8828125 C2.73941406 8.51769531 2.73941406 8.51769531 2.625 7.125 C2.55539062 6.22007813 2.48578125 5.31515625 2.4140625 4.3828125 C2.20431868 1.82058097 2.20431868 1.82058097 0 0 Z " fill="#242427" transform="translate(358,33)"/>
<path d="M0 0 C2.475 0.495 2.475 0.495 5 1 C5 4.63 5 8.26 5 12 C4.34 12 3.68 12 3 12 C2.92652344 10.95199219 2.92652344 10.95199219 2.8515625 9.8828125 C2.73941406 8.51769531 2.73941406 8.51769531 2.625 7.125 C2.55539062 6.22007813 2.48578125 5.31515625 2.4140625 4.3828125 C2.20431868 1.82058097 2.20431868 1.82058097 0 0 Z " fill="#242426" transform="translate(258,33)"/>
<path d="M0 0 C2.475 0.495 2.475 0.495 5 1 C5 4.63 5 8.26 5 12 C4.34 12 3.68 12 3 12 C2.92652344 10.95199219 2.92652344 10.95199219 2.8515625 9.8828125 C2.73941406 8.51769531 2.73941406 8.51769531 2.625 7.125 C2.55539062 6.22007813 2.48578125 5.31515625 2.4140625 4.3828125 C2.20431868 1.82058097 2.20431868 1.82058097 0 0 Z " fill="#222224" transform="translate(302,33)"/>
<path d="M0 0 C0.08121924 1.60332791 0.13929134 3.20784026 0.1875 4.8125 C0.22230469 5.70582031 0.25710938 6.59914063 0.29296875 7.51953125 C-0.04918998 10.41647515 -0.75393573 11.22555028 -3 13 C-4.29550413 10.40899174 -3.96400816 8.80575631 -3.6875 5.9375 C-3.60886719 5.03902344 -3.53023438 4.14054687 -3.44921875 3.21484375 C-3.30097656 2.48394531 -3.15273438 1.75304688 -3 1 C-1 0 -1 0 0 0 Z " fill="#707071" transform="translate(384,62)"/>
<path d="M0 0 C0.99 0.33 1.98 0.66 3 1 C2.67 4.63 2.34 8.26 2 12 C1.34 12 0.68 12 0 12 C0 8.04 0 4.08 0 0 Z " fill="#3E3E40" transform="translate(299,33)"/>
<path d="M0 0 C0.33 0 0.66 0 1 0 C1.268125 0.969375 1.53625 1.93875 1.8125 2.9375 C2.204375 3.948125 2.59625 4.95875 3 6 C3.99 6.33 4.98 6.66 6 7 C6 6.34 6 5.68 6 5 C6.66 5 7.32 5 8 5 C7.34 6.32 6.68 7.64 6 9 C1.125 8.125 1.125 8.125 0 7 C-0.04092937 4.66702567 -0.04241723 2.33294775 0 0 Z " fill="#343437" transform="translate(282,67)"/>
<path d="M0 0 C1.65 0 3.3 0 5 0 C4.67 1.65 4.34 3.3 4 5 C2.68 5 1.36 5 0 5 C0 3.35 0 1.7 0 0 Z " fill="#F7F7F7" transform="translate(249,61)"/>
<path d="M0 0 C1.65 0 3.3 0 5 0 C4.01 0.66 3.02 1.32 2 2 C2 2.66 2 3.32 2 4 C2.99 4.66 3.98 5.32 5 6 C3.125 6.625 3.125 6.625 1 7 C0.34 6.34 -0.32 5.68 -1 5 C-0.625 2.375 -0.625 2.375 0 0 Z " fill="#3E3E41" transform="translate(333,69)"/>
<path d="M0 0 C0.66 0 1.32 0 2 0 C2.33 1.65 2.66 3.3 3 5 C4.65 5 6.3 5 8 5 C7.67 5.66 7.34 6.32 7 7 C5.00045254 7.04254356 2.99958364 7.04080783 1 7 C0 6 0 6 -0.0625 2.9375 C-0.041875 1.968125 -0.02125 0.99875 0 0 Z " fill="#363638" transform="translate(277,38)"/>
<path d="M0 0 C2.475 0.495 2.475 0.495 5 1 C4.01 1.66 3.02 2.32 2 3 C1.42006301 5.19454681 1.42006301 5.19454681 1.3125 7.625 C1.24675781 8.44226563 1.18101562 9.25953125 1.11328125 10.1015625 C1.07589844 10.72804688 1.03851563 11.35453125 1 12 C0.67 12 0.34 12 0 12 C0 8.04 0 4.08 0 0 Z " fill="#3B3C3E" transform="translate(353,63)"/>
<path d="M0 0 C0 0.99 0 1.98 0 3 C-2.31 2.67 -4.62 2.34 -7 2 C-5.26578631 -1.46842738 -3.40984787 -1.13661596 0 0 Z " fill="#E0E0E0" transform="translate(374,35)"/>
<path d="M0 0 C2.31 0 4.62 0 7 0 C7.33 1.32 7.66 2.64 8 4 C7.34 4 6.68 4 6 4 C6 3.34 6 2.68 6 2 C4.35 2.33 2.7 2.66 1 3 C0.67 2.01 0.34 1.02 0 0 Z " fill="#424344" transform="translate(427,63)"/>
<path d="M0 0 C0.99 0 1.98 0 3 0 C2.67 1.65 2.34 3.3 2 5 C1.01 5 0.02 5 -1 5 C-0.67 3.35 -0.34 1.7 0 0 Z " fill="#DADADA" transform="translate(315,39)"/>
<path d="M0 0 C0.99 0.33 1.98 0.66 3 1 C3 1.99 3 2.98 3 4 C1.35 4 -0.3 4 -2 4 C-2.33 3.34 -2.66 2.68 -3 2 C-2.01 1.34 -1.02 0.68 0 0 Z " fill="#E8E8E8" transform="translate(315,34)"/>
</svg>
