<?xml version="1.0" encoding="UTF-8"?>
<svg version="1.1" xmlns="http://www.w3.org/2000/svg" width="1564" height="552">
<path d="M0 0 C182.16 0 364.32 0 552 0 C552 182.16 552 364.32 552 552 C369.84 552 187.68 552 0 552 C0 369.84 0 187.68 0 0 Z " fill="#1D1B11" transform="translate(0,0)"/>
<path d="M0 0 C182.16 0 364.32 0 552 0 C552 182.16 552 364.32 552 552 C369.84 552 187.68 552 0 552 C0 369.84 0 187.68 0 0 Z M161 29 C160.28183105 29.34611328 159.56366211 29.69222656 158.82373047 30.04882812 C138.32422593 40.05414315 119.02427186 53.48015229 102.2578125 68.92578125 C100.22836537 70.79020413 98.15965844 72.58774554 96.0625 74.375 C87.14452679 82.17822656 79.32133851 90.69657324 72 100 C71.11692256 101.09328646 70.23276394 102.1857003 69.34765625 103.27734375 C31.0403829 150.81813786 9.80848072 210.70298777 9.81469727 271.72460938 C9.81252248 274.10044612 9.7943278 276.47580801 9.77539062 278.8515625 C9.73563835 289.69832399 10.57781377 300.25102687 12 311 C12.12044678 311.94198242 12.24089355 312.88396484 12.36499023 313.85449219 C20.23851107 372.66159049 48.23912402 425.46498361 89 468 C89.77988281 468.82113281 90.55976562 469.64226562 91.36328125 470.48828125 C96.03407145 475.29181149 100.98323011 479.59118365 106.21875 483.76953125 C107.97166822 485.17531257 109.70431375 486.6071276 111.40625 488.07421875 C125.7679858 500.36804639 142.23297883 510.3523963 159 519 C159.66854004 519.34724121 160.33708008 519.69448242 161.02587891 520.05224609 C188.16669824 533.96499037 218.69743865 542.77209791 249 546 C249.86536377 546.0928125 250.73072754 546.185625 251.62231445 546.28125 C260.46937828 547.1253348 269.30828563 547.24207452 278.1875 547.25 C278.97591278 547.25100708 279.76432556 547.25201416 280.57662964 547.25305176 C301.13453655 547.23540304 321.01025882 544.81129791 341 540 C342.82917969 539.57267578 342.82917969 539.57267578 344.6953125 539.13671875 C377.11662699 531.04920404 408.07262703 516.77467663 435 497 C435.88341064 496.35200439 435.88341064 496.35200439 436.78466797 495.69091797 C443.3936315 490.8040996 449.68856795 485.65048572 455.73828125 480.078125 C457.79026416 478.19271065 459.88151954 476.37229967 462 474.5625 C469.57118146 467.95492345 476.58021413 460.72680814 483 453 C483.41975098 452.49936035 483.83950195 451.9987207 484.27197266 451.48291016 C496.56511894 436.752514 507.01794087 420.94584042 516 404 C516.3398291 403.36416992 516.6796582 402.72833984 517.02978516 402.07324219 C522.87596498 391.05189314 527.57304108 379.65459891 532 368 C532.28117676 367.27167969 532.56235352 366.54335938 532.85205078 365.79296875 C544.05497613 336.6044406 548.22003192 305.0100721 548.25 273.875 C548.25100708 273.13999268 548.25201416 272.40498535 548.25305176 271.64770508 C548.23493231 251.88897617 546.4805861 232.32038716 541.55029297 213.14355469 C540.97293633 210.89457898 540.42541773 208.63946712 539.87890625 206.3828125 C527.01201354 154.29767378 497.13721842 101.56077916 454.75 67.625 C449.23361895 63.2014869 449.23361895 63.2014869 446.5859375 60.91796875 C424.35930947 41.90185365 398.10095842 28.52970305 371 18 C369.86667236 17.54802246 369.86667236 17.54802246 368.71044922 17.08691406 C349.05813939 9.28845132 327.93479361 5.41291372 307 3 C305.9025647 2.85860596 305.9025647 2.85860596 304.78295898 2.71435547 C255.60167714 -3.0765527 205.22895181 7.52727017 161 29 Z " fill="#FEFEFE" transform="translate(0,0)"/>
<path d="M0 0 C10.71346105 7.32168038 17.30421341 17.68109467 20.890625 30.01953125 C21.98582393 36.07161317 21.81015851 42.04855986 21.609375 48.17578125 C21.59519531 49.3565625 21.58101563 50.53734375 21.56640625 51.75390625 C21.89640625 52.08390625 22.22640625 52.41390625 22.56640625 52.75390625 C22.97616995 55.69054611 23.10822881 57.84598736 21.5546875 60.44921875 C19.37400695 63.16033511 17.9002123 64.64263757 14.56640625 65.75390625 C11.75363461 65.87092861 8.9647246 65.93201657 6.15112305 65.94677734 C5.29225494 65.95495483 4.43338684 65.96313232 3.54849243 65.97155762 C0.70421036 65.99638466 -2.14002192 66.01291998 -4.984375 66.02734375 C-6.44186189 66.03532927 -6.44186189 66.03532927 -7.92879295 66.0434761 C-13.07092881 66.07019488 -18.21304049 66.08957462 -23.35522461 66.10400391 C-27.61065127 66.11734992 -31.86559919 66.14521662 -36.12084961 66.18603516 C-41.25961827 66.23532868 -46.39795224 66.26012081 -51.53694725 66.26723099 C-53.49417045 66.27394631 -55.45138384 66.28917567 -57.40847206 66.3131218 C-60.14953801 66.34474919 -62.88892636 66.34481402 -65.63012695 66.33740234 C-66.43605789 66.35380768 -67.24198883 66.37021301 -68.07234192 66.38711548 C-72.16741409 66.34186304 -74.68264835 65.95859935 -77.92131042 63.34243774 C-81.53268854 59.62145377 -81.56022356 57.96558684 -81.48828125 52.890625 C-81.43484993 50.40740457 -81.37463553 47.92432331 -81.30859375 45.44140625 C-81.29828125 44.22388672 -81.28796875 43.00636719 -81.27734375 41.75195312 C-80.90279785 28.20347547 -76.5119697 16.88827385 -67.43359375 6.75390625 C-47.80873597 -11.28540661 -23.10954422 -13.42170036 0 0 Z " fill="#FAF1C3" transform="translate(200.43359375,137.24609375)"/>
<path d="M0 0 C1.051875 -0.00386719 1.051875 -0.00386719 2.125 -0.0078125 C4 0.125 4 0.125 6 1.125 C7.39315684 1.21744757 8.79054703 1.25012788 10.18676758 1.25097656 C11.05139114 1.25478333 11.91601471 1.25859009 12.80683899 1.26251221 C13.74327744 1.26353943 14.67971588 1.26456665 15.64453125 1.265625 C17.62045423 1.28395324 19.59636601 1.30352357 21.57226562 1.32421875 C24.69298162 1.35319385 27.81297862 1.37500007 30.93383789 1.37548828 C33.94222073 1.37882273 36.94893758 1.41337399 39.95703125 1.453125 C40.887397 1.4460553 41.81776276 1.4389856 42.77632141 1.43170166 C47.12193155 1.51331312 49.39925286 1.72489793 53.08618164 4.18041992 C55.44647995 7.81194919 55.72436846 10.70737073 55.6640625 14.91015625 C55.66884613 15.64826035 55.67362976 16.38636444 55.67855835 17.14683533 C55.68194843 18.70085798 55.67280818 20.2549528 55.65185547 21.80883789 C55.62503136 24.18472237 55.65164525 26.55590065 55.68359375 28.93164062 C55.68029023 30.4453229 55.67388518 31.95900225 55.6640625 33.47265625 C55.67418365 34.18003433 55.68430481 34.88741241 55.69473267 35.6162262 C55.61321184 39.05205536 55.20981149 40.86256512 53.04736328 43.56738281 C48.82863867 45.72372498 45.25541883 45.70950382 40.578125 45.69921875 C39.22723785 45.72046562 39.22723785 45.72046562 37.84906006 45.74214172 C34.98258399 45.78397028 32.1167381 45.79927482 29.25 45.8125 C26.36927145 45.84152316 23.4887035 45.87599552 20.60809326 45.91499329 C18.81751778 45.93754489 17.02684228 45.95332505 15.23614502 45.96183777 C11.30262012 45.60279058 11.30262012 45.60279058 8 47.125 C7.90221595 49.36837977 7.87483643 51.61484185 7.87402344 53.86035156 C7.8721553 54.56447678 7.87028717 55.26860199 7.86836243 55.99406433 C7.86434909 57.52844119 7.86228274 59.06282406 7.86190033 60.59720612 C7.85849471 63.85865025 7.83714194 67.11989323 7.81666946 70.38126755 C7.77860387 76.4587941 7.74738294 82.53611031 7.74951172 88.61376953 C7.75029901 92.83624161 7.72692447 97.0579842 7.6876297 101.28026581 C7.6771666 102.88934804 7.67564802 104.49851446 7.68328094 106.10761261 C7.69291016 108.36323268 7.67171012 110.61664914 7.64355469 112.87207031 C7.63990906 114.15478821 7.63626343 115.4375061 7.63250732 116.75909424 C6.82029738 121.08129263 5.52662687 122.54606556 2 125.125 C-0.96607971 125.75318909 -0.96607971 125.75318909 -4.28735352 125.75610352 C-6.15938194 125.77490318 -6.15938194 125.77490318 -8.06922913 125.79408264 C-9.4224655 125.78181522 -10.77569184 125.76839534 -12.12890625 125.75390625 C-13.524655 125.75473546 -14.92040364 125.75719681 -16.31614685 125.76121521 C-19.23572317 125.76406862 -22.15453036 125.74941684 -25.07397461 125.72192383 C-28.81241677 125.68780838 -32.5494871 125.6938731 -36.28799534 125.7125864 C-39.16801858 125.72316369 -42.04772355 125.71421286 -44.92771721 125.69920158 C-46.3059895 125.69402667 -47.68429512 125.69449323 -49.06256294 125.70074654 C-50.98909949 125.70620763 -52.9156526 125.68295345 -54.84204102 125.65844727 C-55.93726578 125.65224869 -57.03249054 125.64605011 -58.16090393 125.6396637 C-61.67267406 125.00305946 -62.83200987 123.90881015 -65 121.125 C-66.16191629 117.63925112 -66.16038014 114.85388273 -66.20532227 111.17504883 C-66.21522186 110.47235367 -66.22512146 109.76965851 -66.23532104 109.04566956 C-66.26689234 106.72449099 -66.29167613 104.40329195 -66.31640625 102.08203125 C-66.33697956 100.47205577 -66.35797613 98.86208564 -66.37937927 97.25212097 C-66.43456106 93.01563862 -66.48398749 88.77910784 -66.53222656 84.5425415 C-66.58247001 80.21907239 -66.63814123 75.89567356 -66.69335938 71.57226562 C-66.80089334 63.08990319 -66.90234887 54.60748193 -67 46.125 C-71.76886487 46.07549885 -76.53757959 46.03923262 -81.30664062 46.01513672 C-82.92841192 46.00508977 -84.55016516 45.99144985 -86.171875 45.97412109 C-88.50525374 45.94981507 -90.8383926 45.93850387 -93.171875 45.9296875 C-93.89493835 45.91936493 -94.61800171 45.90904236 -95.36297607 45.89840698 C-99.17254107 45.89756119 -101.69489955 46.26668476 -105 48.125 C-110.20575078 48.125 -112.04142545 47.96375273 -116 44.5 C-118.33999613 40.55125653 -118.73821385 38.63630687 -118 34.125 C-116.20437595 31.37170979 -114.94745078 29.59872539 -112 28.125 C-110.48154798 28.03027088 -108.95889616 27.9951159 -107.4375 28 C-106.22900391 27.99613281 -106.22900391 27.99613281 -104.99609375 27.9921875 C-103 28.125 -103 28.125 -102 29.125 C-100.58389585 29.22644165 -99.16288348 29.26066998 -97.74316406 29.2668457 C-96.83842346 29.27388016 -95.93368286 29.28091461 -95.00152588 29.28816223 C-94.01617859 29.29232651 -93.0308313 29.29649078 -92.015625 29.30078125 C-89.94530239 29.3239846 -87.87498986 29.34810215 -85.8046875 29.37304688 C-82.52825232 29.40814803 -79.25218612 29.43749104 -75.97558594 29.45092773 C-72.8218059 29.46640612 -69.66911686 29.50662433 -66.515625 29.55078125 C-65.53837463 29.54887283 -64.56112427 29.54696442 -63.55426025 29.54499817 C-59.19123346 29.62343111 -56.68256232 29.70354092 -52.90527344 32.03588867 C-49.57930463 35.68277682 -49.85329412 38.1796892 -49.79467773 43.05322266 C-49.78477814 43.76552536 -49.77487854 44.47782806 -49.76467896 45.2117157 C-49.73304142 47.57079726 -49.7082977 49.92989897 -49.68359375 52.2890625 C-49.66302616 53.92288747 -49.64202974 55.55670708 -49.62062073 57.19052124 C-49.56537987 61.49442216 -49.5159795 65.79837126 -49.46777344 70.10235596 C-49.40874966 75.26443767 -49.34251062 80.42643117 -49.27747345 85.58843994 C-49.17943858 93.43390617 -49.09059997 101.27942851 -49 109.125 C-36.13 109.125 -23.26 109.125 -10 109.125 C-9.96261719 103.98550781 -9.92523438 98.84601563 -9.88671875 93.55078125 C-9.85643802 90.29228434 -9.82528958 87.033842 -9.79101562 83.77539062 C-9.73671285 78.60492716 -9.6856021 73.43457162 -9.65356445 68.26391602 C-9.62752984 64.09457836 -9.58712656 59.92560359 -9.53681374 55.75649071 C-9.52014604 54.16695868 -9.50863114 52.57736388 -9.50238609 50.98775673 C-9.49274366 48.75878606 -9.46468452 46.53074352 -9.43237305 44.30200195 C-9.42126999 43.03403275 -9.41016693 41.76606354 -9.39872742 40.45967102 C-8.96795216 36.85697482 -8.18644935 34.99084577 -6 32.125 C-2.96414723 30.10109816 -2.32739231 29.87101104 1.08837891 29.82202148 C1.90577545 29.80537949 2.723172 29.78873749 3.56533813 29.77159119 C4.44354218 29.76317703 5.32174622 29.75476288 6.2265625 29.74609375 C7.12998383 29.72909927 8.03340515 29.7121048 8.96420288 29.69459534 C11.85106421 29.64143642 14.7379107 29.60114494 17.625 29.5625 C20.51915792 29.51862733 23.4132022 29.47198925 26.30722046 29.41969299 C28.108912 29.38764105 29.91070442 29.3607809 31.71255493 29.33946228 C35.67448951 29.6665909 35.67448951 29.6665909 39 28.125 C39.22918242 24.10842857 39.22918242 24.10842857 39 20.125 C36.16740425 17.29240425 34.2730534 17.86661739 30.3125 17.859375 C29.65419189 17.85746155 28.99588379 17.8555481 28.31762695 17.85357666 C26.9256146 17.8522155 25.53358953 17.85590717 24.14160156 17.86425781 C22.00817411 17.874959 19.87558869 17.86436094 17.7421875 17.8515625 C16.39062314 17.85288411 15.0390593 17.85544653 13.6875 17.859375 C11.83705078 17.86275879 11.83705078 17.86275879 9.94921875 17.86621094 C6.87930422 17.81730233 6.87930422 17.81730233 5 20.125 C1.94436062 20.69530597 -0.94141876 20.66381742 -4 20.125 C-7 17.6875 -7 17.6875 -9 15.125 C-9.495 14.63 -9.495 14.63 -10 14.125 C-10.58968059 7.04883292 -10.58968059 7.04883292 -8.125 3.1875 C-5.29650024 0.44219141 -3.82908313 -0.01407751 0 0 Z " fill="#F7EEC0" transform="translate(201,264.875)"/>
<path d="M0 0 C3.6578218 2.03993908 5.66946174 3.50419262 8 7 C8.46797583 11.21178243 8.46565795 13.28599114 6.125 16.875 C3.91935862 19.08064138 2.9940214 19.9369464 -0.09375 20.1328125 C-0.8878125 20.13023437 -1.681875 20.12765625 -2.5 20.125 C-3.2940625 20.12757813 -4.088125 20.13015625 -4.90625 20.1328125 C-7 20 -7 20 -9 19 C-10.80497384 18.90021279 -12.6136493 18.86491114 -14.42137146 18.85955811 C-16.14810089 18.85099289 -16.14810089 18.85099289 -17.90971375 18.84225464 C-19.81343498 18.84057785 -19.81343498 18.84057785 -21.75561523 18.83886719 C-23.1007806 18.83423978 -24.44594466 18.82921522 -25.79110718 18.82382202 C-29.45016389 18.8106901 -33.10920224 18.80425174 -36.76827884 18.79981136 C-39.05281304 18.79688241 -41.33734219 18.79277798 -43.62187386 18.78830719 C-50.76540238 18.77463127 -57.90891942 18.76496461 -65.05246013 18.7611053 C-73.3068261 18.75662167 -81.5610267 18.73906013 -89.81534237 18.7101047 C-96.19075183 18.68851417 -102.56611468 18.67840246 -108.94156033 18.67706418 C-112.75180446 18.67601442 -116.56189318 18.67007037 -120.37209892 18.65224457 C-123.95490421 18.63580872 -127.53743649 18.63358627 -131.12026596 18.64238358 C-133.06511665 18.64352541 -135.00995809 18.62977409 -136.95475769 18.6156311 C-138.10873047 18.62120026 -139.26270325 18.62676941 -140.4516449 18.63250732 C-141.45656699 18.63104076 -142.46148909 18.6295742 -143.49686337 18.6280632 C-146.02792897 18.81462433 -146.02792897 18.81462433 -147.86239719 20.29640579 C-149.35980096 22.16302688 -149.35980096 22.16302688 -148.75 25.625 C-148.35631915 28.82263935 -148.35631915 28.82263935 -147 30 C-144.85391653 30.10294071 -142.70445043 30.13573418 -140.5559082 30.1418457 C-139.88264999 30.14532013 -139.20939178 30.14879456 -138.51573181 30.15237427 C-137.04847864 30.1597442 -135.58121422 30.16508296 -134.11394691 30.16866493 C-131.789185 30.17581693 -129.46463584 30.19147557 -127.13993835 30.21000671 C-120.52829994 30.2625227 -113.91677392 30.31041949 -107.30493164 30.32592773 C-103.26406358 30.3360284 -99.22372428 30.36541081 -95.18306541 30.40724754 C-93.64459426 30.41953902 -92.10604831 30.42468217 -90.56752968 30.42244911 C-88.40813808 30.4200872 -86.25025204 30.44232826 -84.09106445 30.4699707 C-82.86386185 30.47583694 -81.63665924 30.48170319 -80.37226868 30.48774719 C-76.32728104 31.10218705 -74.14186836 32.41582293 -71 35 C-69.88285052 38.35144843 -69.84813058 40.92661685 -69.81054688 44.45922852 C-69.79810692 45.4353006 -69.79810692 45.4353006 -69.78541565 46.43109131 C-69.76803736 47.84209852 -69.75286449 49.25313423 -69.73963928 50.66418648 C-69.71859273 52.89558016 -69.69157307 55.12683033 -69.66296387 57.35813904 C-69.59316848 62.89831397 -69.53369308 68.43859115 -69.47393799 73.97888184 C-69.42303722 78.66293905 -69.36822752 83.34691822 -69.30812073 88.03086662 C-69.28151153 90.23226999 -69.26072045 92.43368054 -69.2401123 94.63514709 C-69.22351288 95.98015697 -69.20664136 97.32516353 -69.18945312 98.67016602 C-69.17692505 99.84692398 -69.16439697 101.02368195 -69.15148926 102.23609924 C-69.18592236 104.95948306 -69.18592236 104.95948306 -68 107 C-67.29846154 114.13230769 -67.29846154 114.13230769 -70.375 117.9375 C-74.45267175 121.14138495 -76.78779014 121.4417127 -82 121 C-84.75329021 119.20437595 -86.52627461 117.94745078 -88 115 C-88.35555556 107.53333333 -88.35555556 107.53333333 -86 104 C-85.69618707 101.4883373 -85.69618707 101.4883373 -85.74121094 98.64233398 C-85.73175446 97.00064491 -85.73175446 97.00064491 -85.72210693 95.32579041 C-85.7261554 94.14449051 -85.73020386 92.96319061 -85.734375 91.74609375 C-85.73246155 90.53429947 -85.7305481 89.32250519 -85.72857666 88.07398987 C-85.72721486 85.51099439 -85.7309109 82.94799201 -85.73925781 80.38500977 C-85.74996632 76.44987596 -85.73935724 72.51519776 -85.7265625 68.58007812 C-85.72788391 66.09374899 -85.73044593 63.60742013 -85.734375 61.12109375 C-85.73032654 59.93776962 -85.72627808 58.7544455 -85.72210693 57.53526306 C-85.72841125 56.44395584 -85.73471558 55.35264862 -85.74121094 54.22827148 C-85.74280212 53.26469223 -85.74439331 52.30111298 -85.74603271 51.30833435 C-85.77787237 48.80510432 -85.77787237 48.80510432 -88 47 C-91.09631454 46.68770307 -91.09631454 46.68770307 -94.78881836 46.72875977 C-95.48654861 46.72353302 -96.18427887 46.71830627 -96.90315247 46.71292114 C-98.42003564 46.7026701 -99.9369541 46.69689881 -101.45387077 46.69503975 C-103.85357568 46.69138534 -106.25286384 46.67468504 -108.65248108 46.65428162 C-115.47551739 46.59877747 -122.2986155 46.56816347 -129.12182617 46.54370117 C-133.29341373 46.52784196 -137.46470602 46.49763994 -141.63614082 46.45893669 C-143.22734001 46.44727126 -144.81859197 46.44135621 -146.40983391 46.44125557 C-148.63413256 46.44106389 -150.85761497 46.42282637 -153.08178711 46.40063477 C-154.34816513 46.39556412 -155.61454315 46.39049347 -156.91929626 46.38526917 C-160 46 -160 46 -161.86988831 44.66246033 C-165.39954759 39.4701253 -164.26276782 32.41310741 -164.29516602 26.37646484 C-164.30669518 24.87897296 -164.32716217 23.38152248 -164.35668945 21.88427734 C-164.399427 19.71683932 -164.4155411 17.55061987 -164.42578125 15.3828125 C-164.44036377 14.08746582 -164.45494629 12.79211914 -164.4699707 11.45751953 C-163.90835579 7.32578427 -162.94792792 5.90454561 -160 3 C-157.15796566 2.37473011 -157.15796566 2.37473011 -153.80662537 2.3742218 C-152.53492493 2.36182465 -151.26322449 2.34942749 -149.95298767 2.33665466 C-148.54604734 2.34809619 -147.13911068 2.35999824 -145.73217773 2.37231445 C-144.24878033 2.36713585 -142.76538925 2.35973601 -141.28201294 2.35028076 C-138.08923501 2.33471291 -134.89698203 2.33489163 -131.70419121 2.34728432 C-126.65794153 2.36680577 -121.61215976 2.35164139 -116.56593323 2.33183289 C-108.58683026 2.3046769 -100.60791762 2.30119351 -92.62877756 2.30760592 C-78.33366659 2.31854556 -64.03861268 2.29399862 -49.74356037 2.25385827 C-44.72493087 2.24076456 -39.7064755 2.23954149 -34.68783748 2.2479912 C-31.56946406 2.25160953 -28.45113534 2.24732364 -25.33276749 2.2411499 C-23.88433354 2.24006213 -22.43589232 2.24243925 -20.98747063 2.2484951 C-19.01379268 2.25635235 -17.04007508 2.25095215 -15.06639099 2.24482727 C-13.96082572 2.24579061 -12.85526045 2.24675394 -11.7161932 2.24774647 C-7.07666985 1.8245713 -5.04056416 -0.59300755 0 0 Z " fill="#FAF1C3" transform="translate(250,236)"/>
<path d="M0 0 C7.59 0 15.18 0 23 0 C22.67 27.06 22.34 54.12 22 82 C24.97 82.99 24.97 82.99 28 84 C29.875 85.125 29.875 85.125 31 87 C31.24222254 89.71827521 31.13476191 92.25984115 31 95 C31.99 94.34 32.98 93.68 34 93 C38.52388744 92.27143386 42.03119012 92.46616598 46.0625 94.6875 C48 97 48 97 48.3125 99.75 C48.209375 100.4925 48.10625 101.235 48 102 C48.78375 102.12375 49.5675 102.2475 50.375 102.375 C53 103 53 103 55 105 C54.79023828 107.72690234 54.41185242 109.4602431 52.7421875 111.6484375 C50.47011673 113.41107536 49.15134828 113.31092819 46.3125 113.1875 C45.10013672 113.14689453 45.10013672 113.14689453 43.86328125 113.10546875 C43.24839844 113.07066406 42.63351562 113.03585937 42 113 C41.67 111.68 41.34 110.36 41 109 C38.69 109 36.38 109 34 109 C34 109.66 34 110.32 34 111 C29.9631135 113.69125767 26.74035825 113.66531344 22 113 C19 111.375 19 111.375 17 109 C16.1875 105.75 16.1875 105.75 16 103 C15.01 103 14.02 103 13 103 C13 110.26 13 117.52 13 125 C14.98 125.66 16.96 126.32 19 127 C21.30078125 128.65625 21.30078125 128.65625 23.3125 130.5 C23.98925781 131.1084375 24.66601562 131.716875 25.36328125 132.34375 C27.70828517 134.71673726 27.98073031 135.80344921 28.3125 139.1875 C27.94232153 143.70367735 26.94608858 146.55862697 24 150 C21.73326012 151.67102651 19.56189429 152.76649534 17 154 C16.34 154.33 15.68 154.66 15 155 C8.50278029 155.50577159 2.50900282 155.89661175 -3 152 C-9.79349904 145.82409178 -9.79349904 145.82409178 -10.375 140.6875 C-9.82293876 135.25889778 -7.46813698 132.46813698 -3.6875 128.6875 C-1 127 -1 127 6 126 C6 118.41 6 110.82 6 103 C5.01 103 4.02 103 3 103 C3 101.68 3 100.36 3 99 C3.99 98.505 3.99 98.505 5 98 C4.9175 97.0925 4.835 96.185 4.75 95.25 C5 92 5 92 6.6875 89.875 C7.450625 89.25625 8.21375 88.6375 9 88 C9.9075 87.2575 10.815 86.515 11.75 85.75 C12.4925 85.1725 13.235 84.595 14 84 C13.22914063 83.93941406 12.45828125 83.87882812 11.6640625 83.81640625 C10.15972656 83.69072266 10.15972656 83.69072266 8.625 83.5625 C7.12839844 83.44068359 7.12839844 83.44068359 5.6015625 83.31640625 C3 83 3 83 1 82 C0.67 54.94 0.34 27.88 0 0 Z " fill="#E55986" transform="translate(367,216)"/>
<path d="M0 0 C2.97 0 5.94 0 9 0 C8.67 1.32 8.34 2.64 8 4 C10.31 4 12.62 4 15 4 C14.505 2.02 14.505 2.02 14 0 C16.97 0 19.94 0 23 0 C22.67 1.32 22.34 2.64 22 4 C24.97 4 27.94 4 31 4 C31 4.66 31 5.32 31 6 C30.01 6 29.02 6 28 6 C28.33 16.89 28.66 27.78 29 39 C29.33 38.67 29.66 38.34 30 38 C31.66617115 37.95936168 33.33388095 37.957279 35 38 C35.04254356 39.99954746 35.04080783 42.00041636 35 44 C33.03177114 45.96822886 29.65191291 45.66248381 27 46 C27.66 46.66 28.32 47.32 29 48 C28.46428571 51.53571429 28.46428571 51.53571429 27 53 C24.67182036 53.36760731 22.3381615 53.70241581 20 54 C22.64 54.66 25.28 55.32 28 56 C28 56.99 28 57.98 28 59 C27.34 59 26.68 59 26 59 C25.9175 59.86625 25.835 60.7325 25.75 61.625 C24.56444469 66.95999891 22.33643454 69.94791323 18.0625 73.3125 C12.13938943 76.33137571 4.79965686 76.85816916 -1.62890625 75.40625 C-7.04608592 73.27970908 -10.88882686 69.90647305 -14 65 C-14.70367389 63.34861716 -15.37890443 61.68418007 -16 60 C-16.00257813 60.90363281 -16.00515625 61.80726563 -16.0078125 62.73828125 C-16.12278362 66.24490045 -16.3426807 69.55233853 -17 73 C-20.57286722 76.22429481 -23.99720934 76.34773522 -28.73046875 76.17578125 C-31.32579444 75.97476635 -33.91082324 75.7060868 -36.5 75.4375 C-41.22796355 74.95747032 -45.31472813 75.31850591 -50 76 C-50.66 75.67 -51.32 75.34 -52 75 C-53.49756871 74.90500497 -54.99942932 74.87012802 -56.5 74.875 C-57.2940625 74.87242187 -58.088125 74.86984375 -58.90625 74.8671875 C-61.05918534 74.86722004 -61.05918534 74.86722004 -63 76 C-64.97637414 76.12227926 -66.9573831 76.17549929 -68.9375 76.1875 C-70.52884766 76.20876953 -70.52884766 76.20876953 -72.15234375 76.23046875 C-75 76 -75 76 -78 74 C-78.34057617 71.20263672 -78.34057617 71.20263672 -78.29296875 67.6796875 C-78.28330078 66.42285156 -78.27363281 65.16601562 -78.26367188 63.87109375 C-78.23853516 62.55238281 -78.21339844 61.23367188 -78.1875 59.875 C-78.17245483 58.53517097 -78.15876613 57.19532596 -78.14648438 55.85546875 C-78.11102872 52.56991158 -78.06160849 49.28515418 -78 46 C-77.34 46 -76.68 46 -76 46 C-76 54.91 -76 63.82 -76 73 C-68.23548211 73.62051575 -68.23548211 73.62051575 -61 72 C-55.87076572 71.65121207 -51.05659775 72.13667843 -46 73 C-45.34 72.67 -44.68 72.34 -44 72 C-42.50243129 71.90500497 -41.00057068 71.87012802 -39.5 71.875 C-38.30890625 71.87113281 -38.30890625 71.87113281 -37.09375 71.8671875 C-35 72 -35 72 -33 73 C-28.71 73 -24.42 73 -20 73 C-20 63.76 -20 54.52 -20 45 C-22.31 45 -24.62 45 -27 45 C-26.67 43.02 -26.34 41.04 -26 39 C-24.68 39 -23.36 39 -22 39 C-21.67 28.11 -21.34 17.22 -21 6 C-21.66 6 -22.32 6 -23 6 C-23 5.34 -23 4.68 -23 4 C-15.08 4 -7.16 4 1 4 C0.505 2.02 0.505 2.02 0 0 Z " fill="#202018" transform="translate(422,326)"/>
<path d="M0 0 C1.10021484 -0.0299707 1.10021484 -0.0299707 2.22265625 -0.06054688 C7.78621124 -0.05557053 11.44096181 1.37846181 15.5 5.4375 C16.16 3.7875 16.82 2.1375 17.5 0.4375 C18.99955885 0.3821884 20.49975484 0.34413168 22 0.3125 C22.8353125 0.28929687 23.670625 0.26609375 24.53125 0.2421875 C28.36459828 0.49438147 31.77998769 1.47416348 35.5 2.4375 C35.52526605 10.10961202 35.54283123 17.7817134 35.55493164 25.45385742 C35.55997377 28.06616619 35.56680725 30.67847211 35.57543945 33.29077148 C35.58751036 37.03630268 35.59322935 40.78179672 35.59765625 44.52734375 C35.60281754 45.70336655 35.60797882 46.87938934 35.61329651 48.09104919 C35.61337204 49.17209427 35.61344757 50.25313934 35.61352539 51.36694336 C35.615746 52.32402695 35.61796661 53.28111053 35.62025452 54.26719666 C35.5 56.4375 35.5 56.4375 34.5 57.4375 C33.08429877 57.52401611 31.664405 57.54454904 30.24609375 57.53515625 C29.39208984 57.53193359 28.53808594 57.52871094 27.65820312 57.52539062 C26.76037109 57.51701172 25.86253906 57.50863281 24.9375 57.5 C24.03580078 57.49548828 23.13410156 57.49097656 22.20507812 57.48632812 C19.96998686 57.47450225 17.73502563 57.4580222 15.5 57.4375 C15.005 54.4675 15.005 54.4675 14.5 51.4375 C13.57767578 52.06978516 13.57767578 52.06978516 12.63671875 52.71484375 C11.82847656 53.26269531 11.02023437 53.81054688 10.1875 54.375 C8.98673828 55.19291016 8.98673828 55.19291016 7.76171875 56.02734375 C3.16818396 58.89136113 -1.24359719 59.12593488 -6.5 58.4375 C-14.3794951 55.97890564 -19.33117894 51.46659551 -23.5 44.4375 C-27.67777299 36.45496947 -28.12334149 25.77590037 -25.5625 17.1875 C-20.60408462 6.25537466 -11.79351433 -0.11399706 0 0 Z " fill="#FAF2C3" transform="translate(423.5,240.5625)"/>
<path d="M0 0 C1.11316086 -0.0071553 2.22632172 -0.01431061 3.37321472 -0.02168274 C4.60024612 -0.02437164 5.82727753 -0.02706055 7.0914917 -0.02983093 C8.37937088 -0.03640213 9.66725006 -0.04297333 10.99415588 -0.04974365 C14.5335774 -0.06715896 18.0729854 -0.07770717 21.61243916 -0.08594918 C23.82396237 -0.09109897 26.03548139 -0.09717476 28.24700165 -0.10346031 C35.16681392 -0.12251519 42.08661551 -0.13674483 49.00644898 -0.14507228 C56.9931256 -0.15484223 64.97952489 -0.1811539 72.96610379 -0.22157317 C79.1394376 -0.25174295 85.31269196 -0.26654202 91.48609805 -0.26985329 C95.17297841 -0.27220311 98.85956259 -0.28115387 102.54636383 -0.30631447 C106.66184407 -0.33394615 110.77670583 -0.32976147 114.89227295 -0.32279968 C116.11120743 -0.33560974 117.33014191 -0.3484198 118.58601379 -0.36161804 C124.89348526 -0.32266717 129.02261216 -0.23924124 133.75067139 4.14717102 C135.30091603 7.2476603 135.04059154 9.7261132 134.75067139 13.14717102 C132.5550607 16.67583106 130.58168787 18.61412177 126.75067139 20.14717102 C124.21374702 20.40723324 124.21374702 20.40723324 121.29879761 20.42132568 C120.19130157 20.43130081 119.08380554 20.44127594 117.94274902 20.45155334 C116.73225891 20.45221802 115.5217688 20.45288269 114.27459717 20.4535675 C112.9961795 20.46189102 111.71776184 20.47021454 110.40060425 20.47879028 C106.89640898 20.50071887 103.39230096 20.50953187 99.88804483 20.51461673 C97.69760894 20.51826207 95.50719584 20.52450302 93.31676865 20.53161812 C85.67184191 20.55610635 78.02698299 20.56916327 70.38201904 20.57270813 C63.26095267 20.57634356 56.14031725 20.60624063 49.0193826 20.64811271 C42.9011971 20.68282461 36.78315439 20.69825672 30.6648711 20.69895416 C27.01261786 20.69974665 23.3608038 20.70847131 19.7086525 20.73695183 C15.63397126 20.76801753 11.56031504 20.75906877 7.48553467 20.74653625 C5.67587219 20.76878769 5.67587219 20.76878769 3.82965088 20.79148865 C-5.28444652 20.71154621 -5.28444652 20.71154621 -8.98275757 17.73471069 C-11.4014403 14.97351883 -12.13603833 13.97796643 -12.62432861 10.39717102 C-12.10216871 5.87178522 -10.40703483 4.38006072 -7.24932861 1.14717102 C-4.68865002 -0.13316828 -2.8681228 0.01262097 0 0 Z " fill="#FAF1C2" transform="translate(109.24932861328125,209.8528289794922)"/>
<path d="M0 0 C4.88325043 4.53444683 8.15232518 11.3945145 9.23046875 17.8984375 C9.41486124 23.88680321 9.41486124 23.88680321 7.73046875 26.70703125 C4.58984894 28.75741617 1.14892982 28.81275554 -2.5 29.125 C-3.68988525 29.24174072 -3.68988525 29.24174072 -4.90380859 29.36083984 C-12.34044078 30.06845476 -19.7919044 30.58199464 -27.25 31 C-25.97251483 33.87582709 -25.37211527 34.9166042 -22.6875 36.75 C-17.70033835 38.56351333 -13.03488735 39.1787883 -8.03515625 37.0625 C-6.6918656 36.34207597 -5.3681784 35.58301674 -4.07421875 34.77734375 C-2.25 34 -2.25 34 -0.19921875 34.109375 C2.4620538 35.32534723 3.21969864 36.77214755 4.625 39.3125 C5.07617188 40.09238281 5.52734375 40.87226563 5.9921875 41.67578125 C6.75 44 6.75 44 6.1328125 46.10546875 C2.10650079 51.62174327 -3.82667886 52.83925332 -10.25 54 C-20.79580407 54.99421722 -29.54257719 53.87613152 -38.0625 47.3125 C-43.79849688 41.98331141 -46.92723059 35.17755842 -47.5234375 27.4609375 C-47.91662505 16.30970175 -46.18449425 9.01237736 -38.4375 0.5625 C-27.18713238 -9.78867467 -12.24975535 -7.53831099 0 0 Z " fill="#F9F0C2" transform="translate(310.25,245)"/>
<path d="M0 0 C7.95737016 4.28193852 14.12077768 10.69134115 17.4375 19.19140625 C18.4375 23.81640625 18.4375 23.81640625 18.4375 35.81640625 C-5.6525 35.81640625 -29.7425 35.81640625 -54.5625 35.81640625 C-54.5625 22.39109536 -51.91168302 14.61701329 -42.97265625 5.12890625 C-31.07490316 -6.06897901 -14.2419844 -6.57823365 0 0 Z " fill="#201E13" transform="translate(188.5625,147.18359375)"/>
<path d="M0 0 C7.59 0 15.18 0 23 0 C22.93433838 1.61044189 22.86867676 3.22088379 22.80102539 4.88012695 C22.12417765 21.98083478 21.7177512 39.07616227 21.4375 56.1875 C21.39412393 58.7141969 21.35050505 61.24088965 21.30664062 63.76757812 C21.20164637 69.84500814 21.09987358 75.92248377 21 82 C14.4 82 7.8 82 1 82 C0.67 54.94 0.34 27.88 0 0 Z " fill="#FDF4C6" transform="translate(367,216)"/>
<path d="M0 0 C4.16511572 4.17415068 6.69542214 9.0607318 7 15 C6.28972656 15.13277344 5.57945312 15.26554688 4.84765625 15.40234375 C3.92855469 15.57894531 3.00945312 15.75554687 2.0625 15.9375 C1.14597656 16.11152344 0.22945313 16.28554687 -0.71484375 16.46484375 C-2.95289844 16.77714988 -2.95289844 16.77714988 -4 18 C-4.54673018 21.55060405 -4.12535394 22.81690728 -2.06640625 25.82421875 C-1.24011719 26.76910156 -0.41382813 27.71398437 0.4375 28.6875 C5.3057252 34.31757578 6.38174566 36.824048 6.265625 44.24609375 C5.87926258 48.25176296 4.77478489 50.08985975 2 53 C-4.01471488 57.71423598 -10.07904749 61.01976187 -17.5 62.875 C-21.89694771 61.77576307 -22.44344843 60.47176261 -24.875 56.75 C-26.77007742 53.5377163 -28.31623562 50.68180818 -29 47 C-28.22914063 46.80664062 -27.45828125 46.61328125 -26.6640625 46.4140625 C-25.66117187 46.15367187 -24.65828125 45.89328125 -23.625 45.625 C-22.62726563 45.36976563 -21.62953125 45.11453125 -20.6015625 44.8515625 C-17.87458985 44.17595681 -17.87458985 44.17595681 -16 42 C-16.24646929 37.58595907 -18.12621387 35.22665393 -20.9375 31.9375 C-24.37730765 27.88589353 -26.76910817 25.03954446 -27.375 19.6875 C-26.75780141 13.61838055 -24.10526405 9.78634312 -19.75 5.75 C-13.99435267 1.16020874 -7.32024219 -1.41682107 0 0 Z " fill="#FAF1C3" transform="translate(352,237)"/>
<path d="M0 0 C2.3821875 0.0309375 2.3821875 0.0309375 4.8125 0.0625 C5.1425 6.0025 5.4725 11.9425 5.8125 18.0625 C7.1325 17.0725 8.4525 16.0825 9.8125 15.0625 C15.25049125 14.44687835 19.04560782 15.41422656 23.8125 18.0625 C27.75871185 21.69342173 29.50365463 25.08543317 30.05078125 30.359375 C30.23299088 36.38188271 29.53631281 41.17566256 25.8125 46.0625 C23.02810595 48.81763597 21.50672317 49.97088944 17.5859375 50.48828125 C16.46445312 50.45089844 15.34296875 50.41351563 14.1875 50.375 C13.06085938 50.35050781 11.93421875 50.32601562 10.7734375 50.30078125 C7.8125 50.0625 7.8125 50.0625 4.8125 49.0625 C0.5225 49.0625 -3.7675 49.0625 -8.1875 49.0625 C-8.1875 33.2225 -8.1875 17.3825 -8.1875 1.0625 C-5.17259443 0.05753148 -3.14568308 -0.04085303 0 0 Z " fill="#F9F0C2" transform="translate(314.1875,324.9375)"/>
<path d="M0 0 C5.42686103 3.10425384 8.7508794 8.75263819 10.6875 14.5625 C11.52012033 20.40138182 11.14718927 24.54259089 7.8125 29.5 C6.7862343 30.86587537 5.74604879 32.22148871 4.6875 33.5625 C4.0275 34.5525 3.3675 35.5425 2.6875 36.5625 C0.66927083 36.26953125 -1.34895833 35.9765625 -3.3671875 35.68359375 C-5.39390667 35.3940703 -5.39390667 35.3940703 -7.3125 36.5625 C-11.08410651 36.98156739 -12.82220134 36.87450824 -16.0625 34.8125 C-19.34048171 31.53451829 -20.60614238 28.82488427 -20.6875 24.1875 C-20.57492153 19.63182472 -19.41813981 17.00388465 -16.3125 13.5625 C-12.65814202 11.44681906 -9.48835496 11.13639235 -5.3125 11.5625 C-1.9375 13.0625 -1.9375 13.0625 0.6875 14.5625 C-0.39413269 10.93503635 -0.39413269 10.93503635 -3.05078125 8.421875 C-7.34593959 6.7898632 -11.80007616 7.01939995 -16.3125 7.5625 C-20.31661383 9.81481403 -22.26948531 12.49923401 -24.3125 16.5625 C-25.05010348 22.2440403 -25.77777328 29.21739835 -22.5625 34.25 C-21.82 35.013125 -21.0775 35.77625 -20.3125 36.5625 C-19.735 37.160625 -19.1575 37.75875 -18.5625 38.375 C-15.21061405 40.14405092 -12.07892498 40.24863125 -8.3125 40.5625 C-8.3125 43.5325 -8.3125 46.5025 -8.3125 49.5625 C-15.85362344 49.32309926 -20.58583716 47.53302095 -26.3125 42.5625 C-32.33813312 35.89178693 -33.73455252 29.59817703 -33.5546875 20.71484375 C-32.95748676 12.94160183 -28.70502961 7.82437361 -23.3125 2.5625 C-16.50074646 -2.23668999 -7.78099055 -3.3046678 0 0 Z " fill="#F3EBBD" transform="translate(290.3125,326.4375)"/>
<path d="M0 0 C4.62 0 9.24 0 14 0 C13.67 12.21 13.34 24.42 13 37 C23.395 36.505 23.395 36.505 34 36 C34.09765625 45.27734375 34.09765625 45.27734375 34 48 C33 49 33 49 29.85717773 49.11352539 C28.46597304 49.11327441 27.07476209 49.10771709 25.68359375 49.09765625 C25.03588013 49.09664917 24.3881665 49.09564209 23.7208252 49.09460449 C21.29303221 49.08935843 18.86526439 49.07539725 16.4375 49.0625 C8.3009375 49.0315625 8.3009375 49.0315625 0 49 C0 32.83 0 16.66 0 0 Z " fill="#FBF3C4" transform="translate(220,326)"/>
<path d="M0 0 C2.97 0 5.94 0 9 0 C8.67 1.32 8.34 2.64 8 4 C10.31 4 12.62 4 15 4 C14.505 2.02 14.505 2.02 14 0 C16.97 0 19.94 0 23 0 C22.67 1.32 22.34 2.64 22 4 C24.97 4 27.94 4 31 4 C31 4.66 31 5.32 31 6 C30.01 6 29.02 6 28 6 C28 17.55 28 29.1 28 41 C27.01 41 26.02 41 25 41 C25 29.45 25 17.9 25 6 C23.68 6 22.36 6 21 6 C21 13.92 21 21.84 21 30 C19.35 30 17.7 30 16 30 C15 29 15 29 14.88647461 26.77514648 C14.89171143 25.81680908 14.89694824 24.85847168 14.90234375 23.87109375 C14.90556641 22.83662109 14.90878906 21.80214844 14.91210938 20.73632812 C14.92467773 19.1034082 14.92467773 19.1034082 14.9375 17.4375 C14.94201172 16.34501953 14.94652344 15.25253906 14.95117188 14.12695312 C14.96300174 11.41791505 14.97948457 8.70898401 15 6 C12.69 6 10.38 6 8 6 C8.00785522 7.0372522 8.00785522 7.0372522 8.01586914 8.09545898 C8.036575 11.20946352 8.04963963 14.32345361 8.0625 17.4375 C8.07087891 18.52611328 8.07925781 19.61472656 8.08789062 20.73632812 C8.09272461 22.28803711 8.09272461 22.28803711 8.09765625 23.87109375 C8.10551147 25.30859985 8.10551147 25.30859985 8.11352539 26.77514648 C8 29 8 29 7 30 C4.5 30.125 4.5 30.125 2 30 C1 29 1 29 0.88647461 26.77514648 C0.89171143 25.81680908 0.89694824 24.85847168 0.90234375 23.87109375 C0.90556641 22.83662109 0.90878906 21.80214844 0.91210938 20.73632812 C0.92048828 19.64771484 0.92886719 18.55910156 0.9375 17.4375 C0.94201172 16.34501953 0.94652344 15.25253906 0.95117188 14.12695312 C0.96300174 11.41791505 0.97948457 8.70898401 1 6 C-1.31 6 -3.62 6 -6 6 C-5.99214478 7.0372522 -5.99214478 7.0372522 -5.98413086 8.09545898 C-5.963425 11.20946352 -5.95036037 14.32345361 -5.9375 17.4375 C-5.92912109 18.52611328 -5.92074219 19.61472656 -5.91210938 20.73632812 C-5.90727539 22.28803711 -5.90727539 22.28803711 -5.90234375 23.87109375 C-5.89448853 25.30859985 -5.89448853 25.30859985 -5.88647461 26.77514648 C-6 29 -6 29 -7 30 C-9.5 30.125 -9.5 30.125 -12 30 C-13 29 -13 29 -13.11352539 26.77514648 C-13.10828857 25.81680908 -13.10305176 24.85847168 -13.09765625 23.87109375 C-13.09443359 22.83662109 -13.09121094 21.80214844 -13.08789062 20.73632812 C-13.07951172 19.64771484 -13.07113281 18.55910156 -13.0625 17.4375 C-13.05798828 16.34501953 -13.05347656 15.25253906 -13.04882812 14.12695312 C-13.03699826 11.41791505 -13.02051543 8.70898401 -13 6 C-14.32 6 -15.64 6 -17 6 C-17 17.22 -17 28.44 -17 40 C-18.32 39.67 -19.64 39.34 -21 39 C-21 28.11 -21 17.22 -21 6 C-21.66 6 -22.32 6 -23 6 C-23 5.34 -23 4.68 -23 4 C-15.08 4 -7.16 4 1 4 C0.67 2.68 0.34 1.36 0 0 Z " fill="#AFAFAF" transform="translate(422,326)"/>
<path d="M0 0 C1.32 0 2.64 0 4 0 C4.33 7.59 4.66 15.18 5 23 C6.65 23 8.3 23 10 23 C10.33 15.41 10.66 7.82 11 0 C13.31 0 15.62 0 18 0 C18.33 7.59 18.66 15.18 19 23 C20.65 23 22.3 23 24 23 C24.33 15.41 24.66 7.82 25 0 C27.31 0 29.62 0 32 0 C32.495 11.385 32.495 11.385 33 23 C34.65 23 36.3 23 38 23 C38.33 15.74 38.66 8.48 39 1 C39.66 1 40.32 1 41 1 C41 11.89 41 22.78 41 34 C40.67 33.34 40.34 32.68 40 32 C34.72 32 29.44 32 24 32 C24 32.66 24 33.32 24 34 C23.34 34 22.68 34 22 34 C22 33.34 22 32.68 22 32 C21.36908447 32.00523682 20.73816895 32.01047363 20.08813477 32.01586914 C17.24626653 32.03657826 14.40441412 32.04964066 11.5625 32.0625 C10.07266602 32.07506836 10.07266602 32.07506836 8.55273438 32.08789062 C7.60849609 32.09111328 6.66425781 32.09433594 5.69140625 32.09765625 C4.81685791 32.10289307 3.94230957 32.10812988 3.04125977 32.11352539 C1 32 1 32 0 31 C-0.08790975 28.70848583 -0.10694038 26.41427476 -0.09765625 24.12109375 C-0.0962413 23.4344313 -0.09482635 22.74776886 -0.09336853 22.04029846 C-0.08775479 19.83932199 -0.07520007 17.63844591 -0.0625 15.4375 C-0.05748676 13.94856917 -0.05292355 12.45963676 -0.04882812 10.97070312 C-0.03778093 7.31376925 -0.02050713 3.65689442 0 0 Z " fill="#211F15" transform="translate(405,332)"/>
<path d="M0 0 C0.40527672 4.96463983 -0.04447295 8.26627406 -2.65234375 12.42578125 C-5.01024568 15.18008409 -7.75032626 16.43534227 -11 18 C-11.66 18.33 -12.32 18.66 -13 19 C-19.49721971 19.50577159 -25.49099718 19.89661175 -31 16 C-33.79648597 13.45774003 -35.90316661 11.14525008 -38 8 C-38.07905064 5.66800612 -38.08798769 3.33167378 -38 1 C-37.67 1.99 -37.34 2.98 -37 4 C-31.29788833 3.78318967 -26.34117173 3.36542204 -21.125 0.9375 C-14.58642725 -1.95920318 -6.79622694 -2.26540898 0 0 Z " fill="#C8174B" transform="translate(395,352)"/>
<path d="M0 0 C12.87 0 25.74 0 39 0 C37.85294118 8.02941176 37.85294118 8.02941176 33 12 C27.34447064 15.92207088 21.76084872 16.24861959 15 16 C8.94649725 14.64580901 4.97311261 11.5241505 0.99609375 6.87890625 C0 5 0 5 0 0 Z " fill="#FB7210" transform="translate(408,386)"/>
<path d="M0 0 C3.5167169 0.65124387 6.13433723 1.85038639 9 4 C9.56762695 6.4519043 9.56762695 6.4519043 9.48828125 9.32421875 C9.47216797 10.35224609 9.45605469 11.38027344 9.43945312 12.43945312 C9.39755859 13.51130859 9.35566406 14.58316406 9.3125 15.6875 C9.28994141 16.77095703 9.26738281 17.85441406 9.24414062 18.97070312 C9.1851579 21.64851905 9.10290307 24.32357027 9 27 C10.59521484 27.14115234 10.59521484 27.14115234 12.22265625 27.28515625 C16.14447802 28.02734176 17.58716271 28.76496153 20.4375 31.4375 C21.11683594 32.05496094 21.79617188 32.67242187 22.49609375 33.30859375 C24 35 24 35 24 37 C23.03320312 36.95359375 22.06640625 36.9071875 21.0703125 36.859375 C13.7645473 36.65683894 8.12408807 36.90868516 1.4296875 40.109375 C-2.93448084 41.7091023 -7.42169453 41.3133441 -12 41 C-11.93213562 37.60678124 -11.76017941 34.9733742 -9.62109375 32.234375 C-5.17462004 28.13605919 -3.64106778 27.94872397 3 27 C3 19.41 3 11.82 3 4 C2.01 4 1.02 4 0 4 C0 2.68 0 1.36 0 0 Z " fill="#D0DCDF" transform="translate(370,315)"/>
<path d="M0 0 C3.0625 2.4375 3.0625 2.4375 5 5 C5.33 5.33 5.66 5.66 6 6 C6.40256562 10.75027435 6.46650379 13.10031412 4.25 17.375 C1.05000967 21.10832206 -0.52565068 21.80888064 -5.375 22.4375 C-10.1853299 21.85694294 -11.61392593 20.38607407 -15 17 C-16.72869779 13.54260443 -16.48966895 9.78024432 -16 6 C-11.95035341 -0.47943454 -7.26674713 -1.06259038 0 0 Z " fill="#252317" transform="translate(433,259)"/>
<path d="M0 0 C3.125 -0.1875 3.125 -0.1875 6 0 C6.625 1.875 6.625 1.875 7 4 C4.23776722 6.76223278 1.79293383 6.57856291 -2 7 C0.64 7.66 3.28 8.32 6 9 C6 9.99 6 10.98 6 12 C5.34 12 4.68 12 4 12 C3.67 13.32 3.34 14.64 3 16 C3 15.01 3 14.02 3 13 C-9.87 13 -22.74 13 -36 13 C-36.33 13.66 -36.66 14.32 -37 15 C-37.66 13.35 -38.32 11.7 -39 10 C-36.76950297 7.76950297 -30.89100791 8.5938843 -27.7265625 8.48242188 C-25.81313467 8.39089509 -23.90487161 8.20260148 -22 8 C-21.67 7.34 -21.34 6.68 -21 6 C-18.36211781 5.92463194 -16.27059629 5.90980124 -13.75 6.75 C-9.38726882 7.14661193 -5.69847258 5.23797555 -2 3 C-1.34 2.01 -0.68 1.02 0 0 Z " fill="#344553" transform="translate(444,373)"/>
<path d="M0 0 C1.32 0 2.64 0 4 0 C4.33 12.21 4.66 24.42 5 37 C1.37 37 -2.26 37 -6 37 C-6 39.31 -6 41.62 -6 44 C-7.65 44 -9.3 44 -11 44 C-11 42.68 -11 41.36 -11 40 C-13.5545541 39.92904016 -15.76197755 39.94049439 -18.25 40.5625 C-18.8275 40.706875 -19.405 40.85125 -20 41 C-20.495 40.505 -20.495 40.505 -21 40 C-24.39570436 39.76309039 -27.78416702 39.6035831 -31.18554688 39.48242188 C-36.78671875 39.21328125 -36.78671875 39.21328125 -39 37 C-35.20834926 36.9710663 -31.41672673 36.95322399 -27.625 36.9375 C-26.54476563 36.92912109 -25.46453125 36.92074219 -24.3515625 36.91210938 C-23.3203125 36.90888672 -22.2890625 36.90566406 -21.2265625 36.90234375 C-20.27346191 36.89710693 -19.32036133 36.89187012 -18.33837891 36.88647461 C-16 37 -16 37 -14 38 C-13.87625 37.38125 -13.7525 36.7625 -13.625 36.125 C-13 34 -13 34 -11 32 C-6.71 32 -2.42 32 2 32 C2.33 21.77 2.66 11.54 3 1 C2.34 1 1.68 1 1 1 C1 8.26 1 15.52 1 23 C0.67 23 0.34 23 0 23 C0 15.41 0 7.82 0 0 Z " fill="#444E4E" transform="translate(443,332)"/>
<path d="M0 0 C0.66 0 1.32 0 2 0 C2 8.91 2 17.82 2 27 C9.76451789 27.62051575 9.76451789 27.62051575 17 26 C22.12923428 25.65121207 26.94340225 26.13667843 32 27 C32.66 26.67 33.32 26.34 34 26 C35.49756871 25.90500497 36.99942932 25.87012802 38.5 25.875 C39.69109375 25.87113281 39.69109375 25.87113281 40.90625 25.8671875 C43 26 43 26 45 27 C47.37402501 27.07116382 49.75000677 27.08409085 52.125 27.0625 C54.39375 27.041875 56.6625 27.02125 59 27 C59 18.09 59 9.18 59 0 C59.33 0 59.66 0 60 0 C60 9.24 60 18.48 60 28 C53.44740419 30.62103832 48.33855031 30.1573474 41.5 29.4375 C36.77203645 28.95747032 32.68527187 29.31850591 28 30 C27.34 29.67 26.68 29.34 26 29 C24.50243129 28.90500497 23.00057068 28.87012802 21.5 28.875 C20.7059375 28.87242187 19.911875 28.86984375 19.09375 28.8671875 C16.94081466 28.86722004 16.94081466 28.86722004 15 30 C13.02362586 30.12227926 11.0426169 30.17549929 9.0625 30.1875 C8.00160156 30.20167969 6.94070313 30.21585937 5.84765625 30.23046875 C3 30 3 30 0 28 C-0.34057617 25.20263672 -0.34057617 25.20263672 -0.29296875 21.6796875 C-0.28330078 20.42285156 -0.27363281 19.16601562 -0.26367188 17.87109375 C-0.23853516 16.55238281 -0.21339844 15.23367188 -0.1875 13.875 C-0.17245483 12.53517097 -0.15876613 11.19532596 -0.14648438 9.85546875 C-0.11102872 6.56991158 -0.06160849 3.28515418 0 0 Z " fill="#0E2532" transform="translate(344,372)"/>
<path d="M0 0 C7.26 0.33 14.52 0.66 22 1 C22 1.66 22 2.32 22 3 C22.66 3 23.32 3 24 3 C24 2.34 24 1.68 24 1 C24.99 1.33 25.98 1.66 27 2 C25.83276367 4.46948242 25.83276367 4.46948242 24 7 C21.5480957 7.56762695 21.5480957 7.56762695 18.67578125 7.48828125 C17.13374023 7.46411133 17.13374023 7.46411133 15.56054688 7.43945312 C14.48869141 7.39755859 13.41683594 7.35566406 12.3125 7.3125 C11.22904297 7.28994141 10.14558594 7.26738281 9.02929688 7.24414062 C6.35148095 7.1851579 3.67642973 7.10290307 1 7 C1 7.33 1 7.66 1 8 C-2.63 8 -6.26 8 -10 8 C-9.67 6.02 -9.34 4.04 -9 2 C-5.72724974 2 -3.153368 2.29925156 0 3 C0 2.01 0 1.02 0 0 Z " fill="#303030" transform="translate(405,363)"/>
<path d="M0 0 C2.31 0 4.62 0 7 0 C7.02887236 3.81248426 7.04675492 7.6249407 7.0625 11.4375 C7.07087891 12.52611328 7.07925781 13.61472656 7.08789062 14.73632812 C7.09111328 15.77080078 7.09433594 16.80527344 7.09765625 17.87109375 C7.10289307 18.82943115 7.10812988 19.78776855 7.11352539 20.77514648 C7 23 7 23 6 24 C3.5 24.125 3.5 24.125 1 24 C0 23 0 23 -0.11352539 20.77514648 C-0.10828857 19.81680908 -0.10305176 18.85847168 -0.09765625 17.87109375 C-0.09443359 16.83662109 -0.09121094 15.80214844 -0.08789062 14.73632812 C-0.07951172 13.64771484 -0.07113281 12.55910156 -0.0625 11.4375 C-0.05798828 10.34501953 -0.05347656 9.25253906 -0.04882812 8.12695312 C-0.03699826 5.41791505 -0.02051543 2.70898401 0 0 Z " fill="#E3B621" transform="translate(409,332)"/>
<path d="M0 0 C2.31 0 4.62 0 7 0 C7.02887236 3.81248426 7.04675492 7.6249407 7.0625 11.4375 C7.07087891 12.52611328 7.07925781 13.61472656 7.08789062 14.73632812 C7.09111328 15.77080078 7.09433594 16.80527344 7.09765625 17.87109375 C7.10289307 18.82943115 7.10812988 19.78776855 7.11352539 20.77514648 C7 23 7 23 6 24 C3.5 24.125 3.5 24.125 1 24 C0 23 0 23 -0.11352539 20.77514648 C-0.10828857 19.81680908 -0.10305176 18.85847168 -0.09765625 17.87109375 C-0.09443359 16.83662109 -0.09121094 15.80214844 -0.08789062 14.73632812 C-0.07951172 13.64771484 -0.07113281 12.55910156 -0.0625 11.4375 C-0.05798828 10.34501953 -0.05347656 9.25253906 -0.04882812 8.12695312 C-0.03699826 5.41791505 -0.02051543 2.70898401 0 0 Z " fill="#BF4790" transform="translate(423,332)"/>
<path d="M0 0 C0 1.65 0 3.3 0 5 C-1.02738281 5.06058594 -2.05476563 5.12117188 -3.11328125 5.18359375 C-4.51302719 5.26812397 -5.9127663 5.35276732 -7.3125 5.4375 C-8.04218994 5.48044189 -8.77187988 5.52338379 -9.52368164 5.56762695 C-13.68313282 5.82167069 -17.79852111 6.19223757 -21.9375 6.6875 C-27.01216456 7.19496646 -31.10272531 6.36481426 -36 5 C-36 4.67 -36 4.34 -36 4 C-35.32195312 3.97421875 -34.64390625 3.9484375 -33.9453125 3.921875 C-28.89140533 3.61388066 -24.73914308 3.08520147 -20.125 0.9375 C-14.35415337 -1.62319722 -5.84886203 -2.92443102 0 0 Z " fill="#EC184B" transform="translate(394,352)"/>
<path d="M0 0 C1 2 1 2 0.22265625 4.3828125 C-0.16019531 5.28773438 -0.54304687 6.19265625 -0.9375 7.125 C-1.31777344 8.03507813 -1.69804687 8.94515625 -2.08984375 9.8828125 C-2.39019531 10.58148438 -2.69054687 11.28015625 -3 12 C-0.36 12 2.28 12 5 12 C0.74093983 17.72554976 -3.60280936 23.37992202 -8 29 C-8.66 28.67 -9.32 28.34 -10 28 C-9.35474023 26.5414128 -8.7087728 25.08313863 -8.0625 23.625 C-7.52302734 22.40683594 -7.52302734 22.40683594 -6.97265625 21.1640625 C-6.3430097 19.76316215 -5.68687358 18.37374716 -5 17 C-7.64 17 -10.28 17 -13 17 C-9.21168028 10.90574654 -4.58506716 5.50599945 0 0 Z " fill="#EAE2B6" transform="translate(175,151)"/>
<path d="M0 0 C3.36875585 -0.36750064 5.87672462 -0.57975504 8.9375 1 C10.65916718 4.24078528 10.52857058 7.41912042 10 11 C8.9375 13.0625 8.9375 13.0625 7 14 C3.4375 13.875 3.4375 13.875 0 13 C-2.45811625 9.31282562 -2.31118164 7.35654296 -2 3 C-1.34 2.01 -0.68 1.02 0 0 Z " fill="#252217" transform="translate(321,351)"/>
<path d="M0 0 C1.98 0 3.96 0 6 0 C6 7.92 6 15.84 6 24 C4.35 24 2.7 24 1 24 C0 23 0 23 -0.11352539 20.77514648 C-0.10828857 19.81680908 -0.10305176 18.85847168 -0.09765625 17.87109375 C-0.09443359 16.83662109 -0.09121094 15.80214844 -0.08789062 14.73632812 C-0.07951172 13.64771484 -0.07113281 12.55910156 -0.0625 11.4375 C-0.05798828 10.34501953 -0.05347656 9.25253906 -0.04882812 8.12695312 C-0.03699826 5.41791505 -0.02051543 2.70898401 0 0 Z " fill="#3DBFD6" transform="translate(437,332)"/>
<path d="M0 0 C2.625 1.5625 2.625 1.5625 3.625 4.5625 C4.615 6.0475 4.615 6.0475 5.625 7.5625 C2.73152793 10.69057791 1.08865449 12.3918407 -3.22265625 12.89453125 C-5.95528129 12.87690141 -8.65141199 12.78058089 -11.375 12.5625 C-11.30600941 9.11297054 -11.08299549 6.49932276 -8.9609375 3.69140625 C-5.80874055 0.68501577 -4.4598357 -0.57812685 0 0 Z " fill="#C0D7DF" transform="translate(369.375,343.4375)"/>
<path d="M0 0 C3.58912679 0.66465311 6.21824797 1.59737017 9 4 C9.67270467 7.196032 9.51431253 10.31267503 9.375 13.5625 C9.35373047 14.87637695 9.35373047 14.87637695 9.33203125 16.21679688 C9.18386804 22.63226392 9.18386804 22.63226392 8 25 C6.68 25 5.36 25 4 25 C3.21311555 22.22276075 2.88050076 19.77389923 2.90234375 16.890625 C2.90717773 15.75947266 2.90717773 15.75947266 2.91210938 14.60546875 C2.92048828 13.82816406 2.92886719 13.05085938 2.9375 12.25 C2.94201172 11.45722656 2.94652344 10.66445313 2.95117188 9.84765625 C2.96291435 7.89840492 2.98084854 5.94919262 3 4 C2.01 4 1.02 4 0 4 C0 2.68 0 1.36 0 0 Z " fill="#A9D1DE" transform="translate(370,315)"/>
<path d="M0 0 C1.2065625 0.0309375 1.2065625 0.0309375 2.4375 0.0625 C2.48004356 2.06204746 2.47830783 4.06291636 2.4375 6.0625 C0.46927114 8.03072886 -2.91058709 7.72498381 -5.5625 8.0625 C-5.5625 8.3925 -5.5625 8.7225 -5.5625 9.0625 C-6.34625 9.165625 -7.13 9.26875 -7.9375 9.375 C-10.89295181 9.83845022 -10.89295181 9.83845022 -12.5625 13.0625 C-14.86394109 14.13386051 -17.1965213 15.14239717 -19.5625 16.0625 C-19.5625 15.4025 -19.5625 14.7425 -19.5625 14.0625 C-20.5525 13.4025 -21.5425 12.7425 -22.5625 12.0625 C-20.9125 12.0625 -19.2625 12.0625 -17.5625 12.0625 C-17.748125 11.27875 -17.93375 10.495 -18.125 9.6875 C-18.5625 7.0625 -18.5625 7.0625 -17.5625 5.0625 C-15.3828125 4.68359375 -15.3828125 4.68359375 -12.6875 4.5 C-9.69453161 4.28621654 -7.4296313 4.01821043 -4.5625 3.0625 C-4.2325 2.4025 -3.9025 1.7425 -3.5625 1.0625 C-2.5625 0.0625 -2.5625 0.0625 0 0 Z " fill="#353635" transform="translate(454.5625,363.9375)"/>
<path d="M0 0 C7.26 0 14.52 0 22 0 C21.01 0.495 21.01 0.495 20 1 C20 12.55 20 24.1 20 36 C19.01 36 18.02 36 17 36 C17 24.45 17 12.9 17 1 C11.39 1 5.78 1 0 1 C0 0.67 0 0.34 0 0 Z " fill="#BDBCBB" transform="translate(430,331)"/>
<path d="M0 0 C2.4375 1.8125 2.4375 1.8125 4 4 C4 5.32 4 6.64 4 8 C-1.38490641 8.91657981 -6.54230189 9.11138159 -12 9 C-12.3125 6.25 -12.3125 6.25 -12 3 C-8.26678625 -1.41197988 -5.41800721 -1.57614755 0 0 Z " fill="#242116" transform="translate(294,255)"/>
<path d="M0 0 C1.65 0 3.3 0 5 0 C5.33 1.65 5.66 3.3 6 5 C12.27 5.33 18.54 5.66 25 6 C24.67 7.32 24.34 8.64 24 10 C24 9.01 24 8.02 24 7 C11.13 7 -1.74 7 -15 7 C-15.33 7.66 -15.66 8.32 -16 9 C-16.66 7.35 -17.32 5.7 -18 4 C-15.76950297 1.76950297 -9.89100791 2.5938843 -6.7265625 2.48242188 C-4.81313467 2.39089509 -2.90487161 2.20260148 -1 2 C-0.67 1.34 -0.34 0.68 0 0 Z " fill="#725F50" transform="translate(423,379)"/>
<path d="M0 0 C2.97 0 5.94 0 9 0 C8.67 1.32 8.34 2.64 8 4 C10.31 4 12.62 4 15 4 C14.67 2.68 14.34 1.36 14 0 C16.97 0 19.94 0 23 0 C22.67 1.32 22.34 2.64 22 4 C24.97 4 27.94 4 31 4 C30.67 4.66 30.34 5.32 30 6 C25.68751453 6.02929984 21.37505507 6.04689903 17.0625 6.0625 C15.85013672 6.07087891 14.63777344 6.07925781 13.38867188 6.08789062 C6.83374288 6.10565466 0.49598725 5.88995726 -6 5 C-6 4.67 -6 4.34 -6 4 C-3.69 4 -1.38 4 1 4 C0.67 2.68 0.34 1.36 0 0 Z " fill="#9D9D99" transform="translate(422,326)"/>
<path d="M0 0 C0.99 0 1.98 0 3 0 C3.83211276 5.03854106 4.1078534 9.8125662 4.0625 14.9375 C4.05798828 15.62134766 4.05347656 16.30519531 4.04882812 17.00976562 C4.0371956 18.67321604 4.01926694 20.3366205 4 22 C2.35 22 0.7 22 -1 22 C-0.67 14.74 -0.34 7.48 0 0 Z " fill="#FDC81D" transform="translate(411,334)"/>
<path d="M0 0 C2.375 0.5 2.375 0.5 4.375 3.5 C8.42746898 3.92803944 8.42746898 3.92803944 12.375 3.5 C12.83648437 3.00113281 13.29796875 2.50226563 13.7734375 1.98828125 C16.11987797 -0.19219148 17.93059419 0.20196215 21.0625 0.3125 C22.05636719 0.33957031 23.05023438 0.36664063 24.07421875 0.39453125 C25.21310547 0.44673828 25.21310547 0.44673828 26.375 0.5 C26.045 1.16 25.715 1.82 25.375 2.5 C22.405 2.17 19.435 1.84 16.375 1.5 C16.705 2.82 17.035 4.14 17.375 5.5 C9.455 5.5 1.535 5.5 -6.625 5.5 C-2.625 0.5 -2.625 0.5 0 0 Z " fill="#211D14" transform="translate(405.625,324.5)"/>
<path d="M0 0 C2.5625 0.25 2.5625 0.25 5.5625 2.25 C5.2325 4.23 4.9025 6.21 4.5625 8.25 C1.1875 8.875 1.1875 8.875 -2.4375 9.25 C-4.4375 7.25 -4.4375 7.25 -4.6875 4.75 C-4.3425508 1.30050805 -3.45990757 0.35486231 0 0 Z " fill="#2A271B" transform="translate(284.4375,345.75)"/>
<path d="M0 0 C0.66 0 1.32 0 2 0 C2 8.91 2 17.82 2 27 C5.63 27.66 9.26 28.32 13 29 C13 29.33 13 29.66 13 30 C11.39620659 30.05416188 9.79188594 30.09286638 8.1875 30.125 C7.29417969 30.14820313 6.40085937 30.17140625 5.48046875 30.1953125 C3 30 3 30 0 28 C-0.34057617 25.20263672 -0.34057617 25.20263672 -0.29296875 21.6796875 C-0.28330078 20.42285156 -0.27363281 19.16601562 -0.26367188 17.87109375 C-0.23853516 16.55238281 -0.21339844 15.23367188 -0.1875 13.875 C-0.17245483 12.53517097 -0.15876613 11.19532596 -0.14648438 9.85546875 C-0.11102872 6.56991158 -0.06160849 3.28515418 0 0 Z " fill="#082838" transform="translate(344,372)"/>
<path d="M0 0 C1.79244141 0.01740234 1.79244141 0.01740234 3.62109375 0.03515625 C5.41740234 0.04869141 5.41740234 0.04869141 7.25 0.0625 C8.17683594 0.07410156 9.10367187 0.08570313 10.05859375 0.09765625 C9.72859375 1.08765625 9.39859375 2.07765625 9.05859375 3.09765625 C8.27484375 3.20078125 7.49109375 3.30390625 6.68359375 3.41015625 C3.72814194 3.87360647 3.72814194 3.87360647 2.05859375 7.09765625 C-0.24284734 8.16901676 -2.57542755 9.17755342 -4.94140625 10.09765625 C-4.94140625 9.43765625 -4.94140625 8.77765625 -4.94140625 8.09765625 C-5.93140625 7.43765625 -6.92140625 6.77765625 -7.94140625 6.09765625 C-6.29140625 6.09765625 -4.64140625 6.09765625 -2.94140625 6.09765625 C-3.21984375 4.89109375 -3.21984375 4.89109375 -3.50390625 3.66015625 C-3.64828125 2.81453125 -3.79265625 1.96890625 -3.94140625 1.09765625 C-2.94140625 0.09765625 -2.94140625 0.09765625 0 0 Z " fill="#302F27" transform="translate(439.94140625,369.90234375)"/>
<path d="M0 0 C3.125 -0.1875 3.125 -0.1875 6 0 C6.625 1.875 6.625 1.875 7 4 C3.28343453 7.71656547 -2.47977004 7.9466586 -7.5625 8.125 C-8.366875 8.08375 -9.17125 8.0425 -10 8 C-7.31158141 5.74754119 -5.35358125 4.11786042 -2 3 C-1.34 2.01 -0.68 1.02 0 0 Z " fill="#B2B2B1" transform="translate(444,373)"/>
<path d="M0 0 C1.12921875 0.00644531 2.2584375 0.01289063 3.421875 0.01953125 C6.25 0.1875 6.25 0.1875 8.25 1.1875 C8.25 2.1775 8.25 3.1675 8.25 4.1875 C5.12507749 4.24541844 2.00029234 4.28106746 -1.125 4.3125 C-2.01445312 4.32925781 -2.90390625 4.34601563 -3.8203125 4.36328125 C-4.67109375 4.36972656 -5.521875 4.37617188 -6.3984375 4.3828125 C-7.57672119 4.39852295 -7.57672119 4.39852295 -8.77880859 4.41455078 C-10.75 4.1875 -10.75 4.1875 -12.75 2.1875 C-8.3423213 0.49788983 -4.7121638 -0.05971636 0 0 Z " fill="#F9234F" transform="translate(385.75,350.8125)"/>
<path d="M0 0 C0.99 0 1.98 0 3 0 C2.75331325 4.19367478 2.44696258 6.4537124 -0.25 9.75 C-2.76533052 11.80799769 -5.07730368 13.57814774 -8 15 C-8.66 14.67 -9.32 14.34 -10 14 C-9.278125 13.54625 -8.55625 13.0925 -7.8125 12.625 C-3.9386002 9.00936019 -2.14656056 4.78637334 0 0 Z " fill="#CA5B0C" transform="translate(444,386)"/>
<path d="M0 0 C0 0.99 0 1.98 0 3 C-2.37507855 3.02719556 -4.74983964 3.04693247 -7.125 3.0625 C-8.12273437 3.07506836 -8.12273437 3.07506836 -9.140625 3.08789062 C-13.20681354 3.10782292 -17.0120092 2.78890161 -21 2 C-21 1.67 -21 1.34 -21 1 C-6.78640777 -2.26213592 -6.78640777 -2.26213592 0 0 Z " fill="#494948" transform="translate(444,381)"/>
<path d="M0 0 C7.59 0 15.18 0 23 0 C22.67 1.32 22.34 2.64 22 4 C21.50757813 3.84402344 21.01515625 3.68804687 20.5078125 3.52734375 C16.29002271 2.64042534 11.96631475 2.63837956 7.66796875 2.48242188 C2.21533345 2.21533345 2.21533345 2.21533345 0 0 Z " fill="#676867" transform="translate(404,369)"/>
<path d="M0 0 C2.31 0.66 4.62 1.32 7 2 C7 2.99 7 3.98 7 5 C7.66 5.66 8.32 6.32 9 7 C5.37 7 1.74 7 -2 7 C-1.125 1.125 -1.125 1.125 0 0 Z " fill="#454644" transform="translate(397,364)"/>
<path d="M0 0 C1.67542976 0.28604898 3.34385343 0.61781233 5 1 C5.125 6.75 5.125 6.75 4 9 C2.68 9 1.36 9 0 9 C-0.87890625 2.84765625 -0.87890625 2.84765625 -1 1 C-0.67 0.67 -0.34 0.34 0 0 Z " fill="#B1D9E6" transform="translate(374,331)"/>
<path d="M0 0 C0.99 0.33 1.98 0.66 3 1 C2.67 2.32 2.34 3.64 2 5 C-0.12563103 4.88623383 -2.2505261 4.75864369 -4.375 4.625 C-5.55835938 4.55539062 -6.74171875 4.48578125 -7.9609375 4.4140625 C-11 4 -11 4 -13 2 C-12.22914063 1.93941406 -11.45828125 1.87882812 -10.6640625 1.81640625 C-9.15972656 1.69072266 -9.15972656 1.69072266 -7.625 1.5625 C-6.62726563 1.48128906 -5.62953125 1.40007812 -4.6015625 1.31640625 C-2.02072387 1.15034374 -2.02072387 1.15034374 0 0 Z " fill="#F41446" transform="translate(371,354)"/>
<path d="M0 0 C0.33 0 0.66 0 1 0 C1 11.22 1 22.44 1 34 C0.01 33.67 -0.98 33.34 -2 33 C-2 32.01 -2 31.02 -2 30 C-1.34 30 -0.68 30 0 30 C0 20.1 0 10.2 0 0 Z " fill="#BEBEBF" transform="translate(403,332)"/>
<path d="M0 0 C1.32 0 2.64 0 4 0 C4 3.3 4 6.6 4 10 C2.68 10 1.36 10 0 10 C0 6.7 0 3.4 0 0 Z " fill="#C6A832" transform="translate(362,370)"/>
<path d="M0 0 C1.1725131 0.95117134 2.33787015 1.91117009 3.5 2.875 C4.1496875 3.40867187 4.799375 3.94234375 5.46875 4.4921875 C6.22671875 5.23855469 6.22671875 5.23855469 7 6 C7 6.66 7 7.32 7 8 C3.04 7.67 -0.92 7.34 -5 7 C-3.68 6.34 -2.36 5.68 -1 5 C-0.18828772 2.44480079 -0.18828772 2.44480079 0 0 Z " fill="#B7D5DB" transform="translate(387,344)"/>
<path d="M0 0 C0.66 0 1.32 0 2 0 C2.66 0.99 3.32 1.98 4 3 C7.06556598 3.73343428 7.06556598 3.73343428 10 4 C10 4.66 10 5.32 10 6 C6.37 6 2.74 6 -1 6 C-1 1 -1 1 0 0 Z " fill="#E0CFD3" transform="translate(359,350)"/>
<path d="M0 0 C0.33 1.32 0.66 2.64 1 4 C5.29 4.66 9.58 5.32 14 6 C14 6.33 14 6.66 14 7 C9.38 7 4.76 7 0 7 C0 4.69 0 2.38 0 0 Z " fill="#CF1F49" transform="translate(357,353)"/>
<path d="M0 0 C0.66 0 1.32 0 2 0 C2 1.98 2 3.96 2 6 C-0.64 6.33 -3.28 6.66 -6 7 C-5.67 6.01 -5.34 5.02 -5 4 C-3.66666667 3.66666667 -2.33333333 3.33333333 -1 3 C-0.67 2.01 -0.34 1.02 0 0 Z " fill="#E2E7E5" transform="translate(385,344)"/>
<path d="M0 0 C3.491933 0.64665426 6.15389899 1.86542424 9 4 C9 5.32 9 6.64 9 8 C8.34 8 7.68 8 7 8 C6.67 7.01 6.34 6.02 6 5 C3.03 4.505 3.03 4.505 0 4 C0 2.68 0 1.36 0 0 Z " fill="#DDE1DD" transform="translate(370,315)"/>
<path d="M0 0 C1.51400391 0.01740234 1.51400391 0.01740234 3.05859375 0.03515625 C4.07050781 0.04417969 5.08242188 0.05320312 6.125 0.0625 C7.29869141 0.07990234 7.29869141 0.07990234 8.49609375 0.09765625 C8.16609375 0.75765625 7.83609375 1.41765625 7.49609375 2.09765625 C4.52609375 1.76765625 1.55609375 1.43765625 -1.50390625 1.09765625 C-1.17390625 2.41765625 -0.84390625 3.73765625 -0.50390625 5.09765625 C-2.15390625 5.09765625 -3.80390625 5.09765625 -5.50390625 5.09765625 C-3.09571996 0.12073791 -3.09571996 0.12073791 0 0 Z " fill="#3B302B" transform="translate(423.50390625,324.90234375)"/>
<path d="M0 0 C0.33 0.99 0.66 1.98 1 3 C-0.28524261 3.86380259 -1.57842419 4.71580369 -2.875 5.5625 C-3.59429687 6.03816406 -4.31359375 6.51382812 -5.0546875 7.00390625 C-5.69664062 7.33261719 -6.33859375 7.66132813 -7 8 C-7.66 7.67 -8.32 7.34 -9 7 C-6.03 4.69 -3.06 2.38 0 0 Z " fill="#B3520D" transform="translate(443,393)"/>
<path d="M0 0 C2.97 0 5.94 0 9 0 C8.67 1.32 8.34 2.64 8 4 C7.34 4 6.68 4 6 4 C6 3.34 6 2.68 6 2 C4.68 2 3.36 2 2 2 C1.67 2.66 1.34 3.32 1 4 C0.67 2.68 0.34 1.36 0 0 Z " fill="#A7A6A3" transform="translate(422,326)"/>
<path d="M0 0 C2.31 0 4.62 0 7 0 C7.33 0.99 7.66 1.98 8 3 C10.64 3.33 13.28 3.66 16 4 C16 4.33 16 4.66 16 5 C13.03 5 10.06 5 7 5 C6.67 3.68 6.34 2.36 6 1 C4.02 1 2.04 1 0 1 C0 0.67 0 0.34 0 0 Z " fill="#9D5F70" transform="translate(402,324)"/>
<path d="M0 0 C1.65 0 3.3 0 5 0 C5 1.32 5 2.64 5 4 C3.35 4 1.7 4 0 4 C0 2.68 0 1.36 0 0 Z " fill="#D5D5D4" transform="translate(432,372)"/>
<path d="M0 0 C0.99 0.33 1.98 0.66 3 1 C3.6875 3.0625 3.6875 3.0625 4 5 C2.02 5 0.04 5 -2 5 C-1.34 3.35 -0.68 1.7 0 0 Z " fill="#30302F" transform="translate(397,364)"/>
<path d="M0 0 C1.65 0.33 3.3 0.66 5 1 C4.67 1.99 4.34 2.98 4 4 C2.35 3.67 0.7 3.34 -1 3 C-0.67 2.01 -0.34 1.02 0 0 Z " fill="#16BDF6" transform="translate(374,331)"/>
<path d="M0 0 C-2.76223278 2.76223278 -5.20706617 2.57856291 -9 3 C-9 2.34 -9 1.68 -9 1 C-5.57367167 -0.61798838 -3.61944899 -1.34053666 0 0 Z " fill="#362833" transform="translate(382,399)"/>
<path d="M0 0 C1.98 0 3.96 0 6 0 C6 0.99 6 1.98 6 3 C3.69 3 1.38 3 -1 3 C-0.67 2.01 -0.34 1.02 0 0 Z " fill="#35393C" transform="translate(444,382)"/>
<path d="M0 0 C0.33 0 0.66 0 1 0 C1 3.96 1 7.92 1 12 C0.01 11.67 -0.98 11.34 -2 11 C-2 10.01 -2 9.02 -2 8 C-1.34 8 -0.68 8 0 8 C0 5.36 0 2.72 0 0 Z " fill="#C4C4C4" transform="translate(403,354)"/>
<path d="M0 0 C0.33 0 0.66 0 1 0 C1 1.65 1 3.3 1 5 C1.66 5 2.32 5 3 5 C3 4.01 3 3.02 3 2 C3.66 2 4.32 2 5 2 C5 3.98 5 5.96 5 8 C2.525 7.01 2.525 7.01 0 6 C0 4.02 0 2.04 0 0 Z " fill="#E7E5E3" transform="translate(374,324)"/>
<path d="M0 0 C1.98 0 3.96 0 6 0 C6.33 0.99 6.66 1.98 7 3 C4.36 2.67 1.72 2.34 -1 2 C-0.67 1.34 -0.34 0.68 0 0 Z " fill="#27261E" transform="translate(442,379)"/>
<path d="M0 0 C0.66 0.33 1.32 0.66 2 1 C1.125 4.875 1.125 4.875 0 6 C-1.66617115 6.04063832 -3.33388095 6.042721 -5 6 C-4.360625 5.566875 -3.72125 5.13375 -3.0625 4.6875 C-0.73253997 3.08760823 -0.73253997 3.08760823 0 0 Z " fill="#7A7A77" transform="translate(449,373)"/>
</svg>
