<?xml version="1.0" encoding="utf-8"?>
<!-- Generator: Adobe Illustrator 28.0.0, SVG Export Plug-In . SVG Version: 6.00 Build 0)  -->
<svg version="1.1" id="Layer_1" xmlns="http://www.w3.org/2000/svg" xmlns:xlink="http://www.w3.org/1999/xlink" x="0px" y="0px"
	 viewBox="0 0 40 40" style="enable-background:new 0 0 40 40;" xml:space="preserve">
<style type="text/css">
	.st0{fill:#FFFFFF;}
</style>
<g>
	<path class="st0" d="M20,0C9,0,0,9,0,20s9,20,20,20s20-9,20-20S31,0,20,0z M31.8,27.3c0,0.9-0.7,1.6-1.6,1.6h-3.8v-9.1L20,24.6
		l-6.5-4.8v9.1H9.8c-0.9,0-1.6-0.7-1.6-1.6V13.5c0-0.7,0.3-1.3,0.7-1.7c0.2-0.2,0.5-0.4,0.9-0.6c0.3-0.1,0.5-0.2,0.8-0.2
		c0.5,0,1,0.2,1.4,0.5l8,6l8-6c0.4-0.3,0.9-0.5,1.5-0.5c0.3,0,0.6,0,0.8,0.2c0.9,0.3,1.6,1.2,1.6,2.3h0V27.3z"/>
</g>
</svg>
