<?xml version="1.0" encoding="UTF-8"?>
<svg version="1.1" xmlns="http://www.w3.org/2000/svg" width="746" height="724">
<path d="M0 0 C15.51 0 31.02 0 47 0 C47 39.6 47 79.2 47 120 C89.9 120 132.8 120 177 120 C177 80.4 177 40.8 177 0 C192.51 0 208.02 0 224 0 C224.0225834 46.60921417 224.04049717 93.21842704 224.05106533 139.8276456 C224.05231611 145.3241433 224.05361043 150.82064099 224.05493164 156.31713867 C224.05532511 157.95859272 224.05532511 157.95859272 224.05572652 159.63320745 C224.06008367 177.37668219 224.06797146 195.12015371 224.0771528 212.86362653 C224.08648809 231.05570079 224.09205535 249.24777336 224.09408849 267.43984991 C224.09546398 278.67490888 224.09981595 289.90995873 224.10791647 301.14501489 C224.1131824 308.83822502 224.11480465 316.53143041 224.11350138 324.22464221 C224.11285776 328.67023231 224.1138782 333.11580644 224.11920547 337.56139374 C224.124039 341.62436648 224.12433897 345.68731236 224.12089889 349.75028629 C224.12047315 351.22674169 224.12176929 352.70319871 224.12488318 354.1796509 C224.12884648 356.17342826 224.12615666 358.16721565 224.12304783 360.16099453 C224.12342755 361.27243594 224.12380727 362.38387734 224.1241985 363.52899879 C224 366 224 366 223 367 C207.82 367 192.64 367 177 367 C177 299.35 177 231.7 177 162 C134.1 162 91.2 162 47 162 C47 229.65 47 297.3 47 367 C31.82 367 16.64 367 1 367 C0 366 0 366 -0.1241985 363.52899879 C-0.12381878 362.41755739 -0.12343906 361.30611598 -0.12304783 360.16099453 C-0.12503888 358.8840807 -0.12702993 357.60716687 -0.12908131 356.29155868 C-0.12622771 354.85602897 -0.1232821 353.42049945 -0.12025452 351.98497009 C-0.12069009 350.47442992 -0.12156473 348.96388982 -0.12284368 347.45335013 C-0.12509146 343.28262391 -0.12106352 339.11192311 -0.11606562 334.94120014 C-0.11176534 330.45105987 -0.11320724 325.96092116 -0.1139679 321.47077942 C-0.1144934 313.68470352 -0.11134385 305.89863598 -0.10573006 298.11256218 C-0.09761863 286.85507081 -0.0950002 275.59758349 -0.09374207 264.34008951 C-0.09155098 246.07755412 -0.08488938 227.8150232 -0.07543945 209.55249023 C-0.06626679 191.80737327 -0.05918524 174.06225752 -0.05493164 156.31713867 C-0.05466892 155.22416101 -0.05440619 154.13118336 -0.05413551 153.00508516 C-0.05283051 147.52218573 -0.0515668 142.03928628 -0.05032361 136.55638683 C-0.03994924 91.03758798 -0.02205506 45.51879457 0 0 Z " fill="#F9F9F9" transform="translate(311,180)"/>
<path d="M0 0 C27.78669409 -2.30007656 27.78669409 -2.30007656 38.84106445 6.88330078 C40.1775959 8.01801417 41.51113032 9.15626614 42.84179688 10.29785156 C89.24127677 46.89255449 164.18350189 58.07658246 221.22167969 51.63623047 C261.30305965 46.66208165 300.02964378 34.34944992 335 13.9375 C335.70431152 13.52983398 336.40862305 13.12216797 337.13427734 12.70214844 C340.37107494 10.77491828 343.12639814 8.88762754 345.95703125 6.37109375 C356.83406044 -3.13700701 370.33376229 -0.82564795 384 0 C339.85980985 46.2705082 264.55363002 69.25612544 202.47509766 71.10498047 C167.37965163 71.86230078 133.5236005 67.6171162 100 57 C99.0915332 56.71318359 98.18306641 56.42636719 97.24707031 56.13085938 C62.33373062 44.84548215 27.09137253 25.89900713 0 1 C0 0.67 0 0.34 0 0 Z " fill="#F1F1F1" transform="translate(165,589)"/>
<path d="M0 0 C1.33408905 0.00140488 1.33408905 0.00140488 2.69512939 0.00283813 C66.58944672 0.14870901 142.84471408 21.59999446 189.37109375 67.99609375 C190.07363281 68.71925781 190.77617188 69.44242187 191.5 70.1875 C162.88698223 72.1343713 162.88698223 72.1343713 150.49609375 61.73632812 C146.50371504 58.63852351 142.08140591 56.2271211 137.6875 53.75 C136.71949463 53.20311523 135.75148926 52.65623047 134.75415039 52.09277344 C123.41505924 45.83685042 111.5483327 40.89754375 99.5 36.1875 C98.69868652 35.87200195 97.89737305 35.55650391 97.07177734 35.23144531 C30.13048034 9.23279186 -47.3867544 13.07203484 -112.77734375 41.63110352 C-118.92700177 44.39320844 -124.99737272 47.30663189 -131 50.375 C-132.30843872 51.04329834 -132.30843872 51.04329834 -133.64331055 51.72509766 C-138.23656884 54.16264907 -142.38839744 56.77052664 -146.46875 60 C-161.31330313 71.56633878 -173.28155161 71.92550063 -191.5 70.1875 C-144.84405658 21.31406877 -65.30441793 -0.08881753 0 0 Z " fill="#F3F3F3" transform="translate(356.5,66.8125)"/>
</svg>
