<?xml version="1.0" encoding="UTF-8"?>
<svg version="1.1" xmlns="http://www.w3.org/2000/svg" width="419" height="406">
<path d="M0 0 C1.47495537 -0.00571686 2.94990632 -0.01268615 4.42485046 -0.02079773 C8.39615963 -0.03860163 12.3672463 -0.03758478 16.33858323 -0.03185534 C19.67061249 -0.02874409 23.0026002 -0.03487748 26.33462352 -0.04089409 C34.204889 -0.05489654 42.07504584 -0.05341456 49.9453125 -0.04199219 C58.02628746 -0.03052213 66.10693009 -0.04457764 74.18786126 -0.07138866 C81.16070266 -0.09364494 88.1334405 -0.10016062 95.10631484 -0.09431225 C99.25551074 -0.09096424 103.40449389 -0.09321207 107.55365944 -0.11056328 C111.46010568 -0.12618925 115.36606527 -0.12190655 119.27249336 -0.10325813 C120.69331529 -0.09961467 122.11417456 -0.10255421 123.5349617 -0.11314392 C143.23512756 -0.24858834 160.47044364 5.68787877 174.92260742 19.40405273 C190.08088284 35.17613156 194.06538898 54.10888646 194.08374023 75.20117188 C194.08837669 76.58686452 194.09340245 77.97255591 194.0987854 79.35824585 C194.11183403 83.10452713 194.11833985 86.85079054 194.12279606 90.59709096 C194.12573977 92.94506963 194.129847 95.29304356 194.13430023 97.64101982 C194.14795699 105.00880567 194.15763183 112.37658052 194.16150212 119.74437815 C194.16597477 128.20910416 194.18349336 136.67366806 194.21250272 145.13834482 C194.23422395 151.70769161 194.24421198 158.27699314 194.24554324 164.84637541 C194.24658408 168.75751628 194.25233579 172.6685044 194.27036285 176.57960701 C194.28702482 180.26594407 194.28891282 183.9520165 194.28022385 187.63837814 C194.27910479 189.60948895 194.29268224 191.58059171 194.30697632 193.551651 C194.25301173 205.29856081 192.89485245 217.32371358 187.17260742 227.77905273 C186.82117676 228.44622314 186.46974609 229.11339355 186.10766602 229.80078125 C183.23017813 235.1271812 180.0716666 239.97033877 175.92260742 244.40405273 C175.23038086 245.14913086 174.5381543 245.89420898 173.82495117 246.66186523 C158.63037122 261.62814599 138.89687594 265.54721161 118.33081055 265.56518555 C116.95511748 265.56982065 115.57942569 265.57484622 114.20373535 265.58023071 C110.48012142 265.59329424 106.75652547 265.59978836 103.03289223 265.60424137 C100.69949227 265.60718324 98.36609711 265.61129019 96.03269958 265.61574554 C88.71189667 265.62940752 81.39110486 265.63907927 74.07029009 265.64294744 C65.65762402 265.64741845 57.24512122 265.66492723 48.83250475 265.69394803 C42.30564059 265.71567115 35.778822 265.72565743 29.25192213 265.72698855 C25.36535818 265.72802945 21.47894794 265.73378222 17.59242249 265.75180817 C13.92825915 265.76847287 10.26436203 265.77035685 6.60017395 265.76166916 C4.64098141 265.76055026 2.68179696 265.77412647 0.72265625 265.78842163 C-17.08649777 265.70613442 -32.85813468 261.419665 -47.07739258 250.40405273 C-47.8946582 249.79561523 -48.71192383 249.18717773 -49.55395508 248.56030273 C-62.03787021 237.89293252 -70.03821373 221.16603781 -71.36063957 204.92554283 C-71.47178996 201.05767457 -71.49515243 197.19553131 -71.48144531 193.32666016 C-71.48716217 191.85170479 -71.49413146 190.37675383 -71.50224304 188.90180969 C-71.52004694 184.93050053 -71.51903009 180.95941386 -71.51330066 176.98807693 C-71.5101894 173.65604766 -71.51632279 170.32405995 -71.5223394 166.99203664 C-71.53634185 159.12177116 -71.53485987 151.25161432 -71.5234375 143.38134766 C-71.51196744 135.3003727 -71.52602295 127.21973007 -71.55283397 119.13879889 C-71.57509025 112.1659575 -71.58160593 105.19321966 -71.57575756 98.22034532 C-71.57240956 94.07114942 -71.57465738 89.92216627 -71.59200859 85.77300072 C-71.60763457 81.86655448 -71.60335186 77.96059489 -71.58470345 74.05416679 C-71.58105998 72.63334486 -71.58399952 71.21248559 -71.59458923 69.79169846 C-71.72791908 50.39909354 -65.98847505 33.77736384 -52.41333008 19.64624023 C-37.28188237 5.12207471 -20.70754263 -0.07336526 0 0 Z M5.92260742 77.40405273 C-3.43790249 88.96334014 -4.54545759 99.24678315 -4.51098633 113.55639648 C-4.51555582 115.22351797 -4.52086366 116.89063759 -4.52687073 118.55775452 C-4.53577011 122.04004604 -4.53341503 125.52210784 -4.5234375 129.00439453 C-4.51195055 133.44374306 -4.53217095 137.88229579 -4.56135464 142.32153988 C-4.57979268 145.76104175 -4.57940915 149.20035555 -4.57371712 152.63989449 C-4.57356484 154.27559081 -4.57953114 155.91130065 -4.59200859 157.54694939 C-4.67854637 170.74826209 -3.05993128 180.33493063 6.35620117 190.20092773 C14.32928157 197.04539858 23.44040683 198.50379195 33.67724609 198.56518555 C35.63044014 198.57959686 35.63044014 198.57959686 37.62309265 198.59429932 C39.02891868 198.59914936 40.43474678 198.60342768 41.84057617 198.60717773 C42.91725272 198.6114188 42.91725272 198.6114188 44.01568031 198.61574554 C47.81612126 198.63068087 51.61652483 198.6399454 55.41699219 198.64428711 C59.30900577 198.64975627 63.20066681 198.67376744 67.0925703 198.70225906 C70.11520841 198.72103763 73.13776424 198.7260991 76.1604557 198.72762299 C77.59354893 198.73061703 79.02664187 198.73853315 80.45967674 198.75180817 C94.58400536 198.87328961 106.13423764 197.34021696 116.85620117 187.65795898 C126.88828963 177.28068039 127.67410975 165.33870864 127.55151367 151.73999023 C127.55234452 150.05473681 127.55481202 148.36948348 127.55882263 146.68423462 C127.5616632 143.17262029 127.54714871 139.66164995 127.51953125 136.15014648 C127.48539821 131.67382771 127.49150073 127.1986547 127.51019382 122.7222805 C127.52081462 119.24928412 127.51178107 115.77654953 127.49680901 112.30357742 C127.49166747 110.65394495 127.49205941 109.00428469 127.49835396 107.35465622 C127.52819609 94.84230836 126.28254054 84.87234057 117.32885742 75.45092773 C106.33691967 66.10064302 94.42654956 66.24777384 80.74682617 66.23608398 C79.3721361 66.23286292 77.99744635 66.22949824 76.62275696 66.22599792 C73.75077521 66.22003697 70.87882342 66.21815488 68.00683594 66.21875 C64.35584191 66.21885144 60.70504314 66.20520443 57.05409527 66.18797779 C54.21679327 66.17677133 51.37953719 66.17483343 48.54221535 66.17535973 C46.55113401 66.17363113 44.560067 66.16284733 42.5690155 66.15180969 C29.32961404 66.18480088 15.77488627 67.55177389 5.92260742 77.40405273 Z " fill="#159CFD" transform="translate(156.077392578125,75.595947265625)"/>
<path d="M0 0 C4.85223655 -0.10043639 9.70384113 -0.17218965 14.55688477 -0.21972656 C16.20054693 -0.23958568 17.84414096 -0.26668256 19.48754883 -0.30175781 C40.47506333 -0.73779539 58.35419468 4.1509718 74 19 C89.15827542 34.77207883 93.14278156 53.70483373 93.16113281 74.79711914 C93.16576927 76.18281178 93.17079503 77.56850317 93.17617798 78.95419312 C93.18922661 82.70047439 93.19573243 86.4467378 93.20018864 90.19303823 C93.20313235 92.5410169 93.20723958 94.88899083 93.21169281 97.23696709 C93.22534957 104.60475294 93.23502441 111.97252779 93.2388947 119.34032542 C93.24336735 127.80505143 93.26088594 136.26961532 93.2898953 144.73429209 C93.31161653 151.30363888 93.32160456 157.87294041 93.32293582 164.44232267 C93.32397666 168.35346355 93.32972837 172.26445166 93.34775543 176.17555428 C93.3644174 179.86189133 93.3663054 183.54796377 93.35761642 187.23432541 C93.35649736 189.20543622 93.37007482 191.17653897 93.3843689 193.14759827 C93.33040431 204.89450807 91.97224503 216.91966085 86.25 227.375 C85.89856934 228.04217041 85.54713867 228.70934082 85.18505859 229.39672852 C82.30757071 234.72312847 79.14905918 239.56628603 75 244 C74.30777344 244.74507812 73.61554688 245.49015625 72.90234375 246.2578125 C57.63099071 261.29971282 37.83055123 265.17054798 17.17016602 265.11352539 C15.77013654 265.113243 14.37010691 265.11340226 12.97007751 265.1139679 C9.18547567 265.11425385 5.40090576 265.10838974 1.61631131 265.10139394 C-2.34482583 265.09512681 -6.30596377 265.09455395 -10.2671051 265.09336853 C-17.76089769 265.09026511 -25.25467563 265.08206507 -32.74846178 265.07201904 C-41.28292162 265.06082717 -49.81738217 265.05533971 -58.35184753 265.05032361 C-75.90124015 265.03988161 -93.45061852 265.02230135 -111 265 C-111 264.67 -111 264.34 -111 264 C-110.42868977 264.00037703 -109.85737953 264.00075405 -109.26875687 264.0011425 C-95.31953733 264.00828275 -81.37072373 263.98177658 -67.42163467 263.9197216 C-60.67570213 263.89031768 -53.9300825 263.8718685 -47.18408203 263.87988281 C-40.66747772 263.88649482 -34.15155665 263.86388286 -27.63509369 263.82144547 C-25.1553872 263.81034781 -22.67561115 263.80958368 -20.19589996 263.81957626 C-0.20793815 263.97724503 -0.20793815 263.97724503 16.9375 254.625 C24.57928025 244.89909786 27.08744374 236.47119022 26 224 C23.98985979 215.21315956 18.69225831 208.40719763 11.4375 203.1875 C5.84494018 199.90948474 -0.69331841 199.08949696 -7 198 C-7 197.67 -7 197.34 -7 197 C-6.23816406 196.85304688 -5.47632813 196.70609375 -4.69140625 196.5546875 C5.76137685 194.28404548 13.95659877 190.03798062 20 181 C25.50762811 171.2092882 25.72707797 162.22543343 25.62890625 151.3359375 C25.6297371 149.65068407 25.6322046 147.96543075 25.63621521 146.28018188 C25.63905578 142.76856756 25.62454129 139.25759721 25.59692383 135.74609375 C25.56279079 131.26977498 25.56889331 126.79460197 25.5875864 122.31822777 C25.5982072 118.84523138 25.58917364 115.37249679 25.57420158 111.89952469 C25.56906005 110.24989222 25.56945199 108.60023196 25.57574654 106.95060349 C25.60407508 95.07288179 24.71629835 84.87072062 16.18359375 75.82421875 C9.76839379 70.46482987 2.33013392 67.32038977 -6 67 C-6 66.67 -6 66.34 -6 66 C-5.31035156 65.91363281 -4.62070313 65.82726562 -3.91015625 65.73828125 C3.04263451 64.69870074 8.0610094 62.66923776 14 59 C14.72316406 58.65453125 15.44632812 58.3090625 16.19140625 57.953125 C18.59211583 56.68795624 18.90518478 55.46333425 20 53 C20.99 51.576875 20.99 51.576875 22 50.125 C26.85218856 42.54345537 27.24259954 33.74917522 26 25 C23.36460299 16.68114895 18.52448758 8.96824163 10.6953125 4.76171875 C8.48584306 3.76564646 6.25728401 2.88038249 4 2 C2.66304298 1.34063049 1.32917303 0.67492317 0 0 Z " fill="#005DA9" transform="translate(257,76)"/>
</svg>
