<svg role="img" viewBox="0 0 24 24" xmlns="http://www.w3.org/2000/svg" fill="#777BB4">
    <title>PHP</title>
    <path
        d="M 7 10.2 h -0.9 l -0.5 2.6 h 0.8 c 0.6 0 1 -0.1 1.2 -0.3 c 0.3 -0.2 0.5 -0.6 0.6 -1 c 0.1 -0.5 0.1 -0.8 -0.1 -1 c -0.2 -0.2 -0.5 -0.3 -1 -0.3 z M 12 5.7 C 5.4 5.7 0 8.5 0 12 s 5.4 6.3 12 6.3 S 24 15.5 24 12 c 0 -3.5 -5.4 -6.3 -12 -6.3 z m -3.3 7.5 c -0.3 0.3 -0.6 0.4 -0.9 0.6 c -0.3 0.1 -0.8 0.2 -1.3 0.2 H 5.4 l -0.3 1.7 H 3.7 l 1.2 -6.3 h 2.7 c 0.8 0 1.4 0.2 1.7 0.6 c 0.4 0.4 0.5 1 0.3 1.8 C 9.6 11.9 9.4 12.2 9.3 12.4 c -0.1 0.3 -0.3 0.5 -0.6 0.7 z m 4 0.7 l 0.5 -2.8 c 0.1 -0.3 0 -0.5 -0.1 -0.7 c -0.1 -0.1 -0.3 -0.2 -0.7 -0.2 H 11.5 l -0.7 3.6 H 9.4 l 1.2 -6.3 h 1.4 l -0.3 1.7 h 1.2 c 0.8 0 1.3 0.1 1.6 0.4 s 0.4 0.7 0.3 1.3 l -0.6 2.9 h -1.4 z m 7.6 -2.3 C 20.3 11.9 20.2 12.2 20.1 12.4 c -0.1 0.3 -0.3 0.5 -0.6 0.7 C 19.2 13.4 18.9 13.6 18.6 13.7 c -0.3 0.1 -0.8 0.2 -1.3 0.2 h -1.2 l -0.3 1.7 h -1.4 l 1.2 -6.3 h 2.6 c 0.8 0 1.4 0.2 1.7 0.6 c 0.4 0.4 0.5 1 0.3 1.8 z M 17.8 10.2 h -0.9 l -0.5 2.6 h 0.8 c 0.6 0 1 -0.1 1.2 -0.3 c 0.3 -0.2 0.5 -0.6 0.6 -1 c 0.1 -0.5 0 -0.8 -0.1 -1 s -0.5 -0.3 -1 -0.3 z" />
</svg>