<svg width="259.6" height="85.8" viewBox="0 0 259.6 85.8" xmlns="http://www.w3.org/2000/svg">
	<g id="svgGroup" stroke-linecap="round" fill-rule="evenodd" font-size="9pt" stroke="#000" stroke-width="0.25mm" fill="none" style="stroke:#000;stroke-width:0.25mm;fill:none">
		<path d="M 62.2 85.8 L 61.8 84.8 Q 61.8 84.711 61.642 84.701 A 0.673 0.673 0 0 0 61.6 84.7 L 61.4 83.7 L 61.4 82.1 A 20.579 20.579 0 0 0 61.386 81.369 Q 61.363 80.713 61.3 79.9 Q 61.3 79.6 61 79 A 17.012 17.012 0 0 1 60.93 78.858 Q 60.7 78.388 60.7 78.3 Q 60.7 78.22 60.797 77.945 A 8.172 8.172 0 0 1 60.85 77.8 A 1.557 1.557 0 0 0 60.911 77.599 Q 60.974 77.322 60.9 77.1 L 61.5 71.6 A 0.734 0.734 0 0 0 61.906 71.279 Q 62.234 70.788 62.3 69.6 A 0.451 0.451 0 0 0 62.239 69.548 Q 62.17 69.5 62.1 69.5 L 62.1 69.1 A 2.561 2.561 0 0 1 62.137 68.645 Q 62.249 68.025 62.7 67.8 A 0.998 0.998 0 0 0 62.748 67.731 Q 62.955 67.4 62.5 67.4 L 63.2 66.5 A 0.812 0.812 0 0 0 63.261 66.33 Q 63.3 66.169 63.3 65.95 A 3.098 3.098 0 0 1 63.314 65.666 Q 63.328 65.516 63.356 65.344 A 6.671 6.671 0 0 1 63.4 65.1 A 0.71 0.71 0 0 0 63.572 64.808 Q 63.643 64.586 63.619 64.269 A 2.61 2.61 0 0 0 63.6 64.1 L 63.6 62.9 A 5.976 5.976 0 0 0 63.735 62.76 Q 63.894 62.591 64.1 62.35 A 2.481 2.481 0 0 0 64.302 62.075 Q 64.488 61.785 64.674 61.359 A 8.187 8.187 0 0 0 64.7 61.3 L 64.7 61 L 64.7 60.55 Q 64.7 60.311 64.609 59.936 A 5.454 5.454 0 0 0 64.6 59.9 Q 65.5 59.3 65.1 58.9 Q 65.646 58.9 65.86 57.99 A 3.738 3.738 0 0 0 65.9 57.8 Q 66 57.8 66.15 57.5 A 3.258 3.258 0 0 0 66.222 57.342 Q 66.379 56.978 66.736 56.035 A 138.883 138.883 0 0 0 66.9 55.6 Q 67.5 54.2 67.4 53.9 A 1.204 1.204 0 0 1 67.765 53.652 A 1.478 1.478 0 0 1 67.9 53.6 A 0.739 0.739 0 0 0 67.855 53.337 A 0.664 0.664 0 0 0 67.7 53.1 L 68.7 52 A 0.987 0.987 0 0 0 68.748 51.75 Q 68.756 51.618 68.734 51.47 A 1.786 1.786 0 0 0 68.7 51.3 L 69.2 50.9 A 1.887 1.887 0 0 1 69.299 50.302 A 2.009 2.009 0 0 1 69.3 50.3 A 0.86 0.86 0 0 0 69.437 50.213 Q 69.582 50.102 69.75 49.9 A 0.814 0.814 0 0 0 69.882 49.665 Q 69.971 49.428 69.993 49.058 A 4.347 4.347 0 0 0 70 48.8 L 70 48.6 A 7.069 7.069 0 0 0 69.861 48.532 Q 69.581 48.4 69.5 48.4 L 67.9 48.8 L 66.4 49.1 L 66.2 49.1 Q 66.117 49.017 65.966 49.003 A 0.703 0.703 0 0 0 65.9 49 Q 65.82 49 65.545 49.097 A 8.172 8.172 0 0 0 65.4 49.15 Q 65 49.3 64.8 49.4 L 64.25 49.4 A 3.098 3.098 0 0 0 63.966 49.414 Q 63.816 49.428 63.644 49.456 A 6.671 6.671 0 0 0 63.4 49.5 A 23.59 23.59 0 0 0 62.55 49.631 Q 61.159 49.869 58.912 50.375 A 146.737 146.737 0 0 0 58.8 50.4 Q 58.8 50.3 58.6 50.1 A 9.332 9.332 0 0 0 58.211 50.043 Q 57.863 50 57.6 50 A 0.078 0.078 0 0 1 57.571 50.049 Q 57.478 50.141 57.082 50.32 A 10.26 10.26 0 0 1 56.9 50.4 Q 56.6 50.5 56.3 50.55 Q 56 50.6 55.7 50.6 L 54.6 50.4 Q 54.7 50.4 54.1 50.7 A 0.402 0.402 0 0 0 53.823 50.43 Q 53.745 50.406 53.646 50.401 A 0.998 0.998 0 0 0 53.6 50.4 A 0.826 0.826 0 0 0 53.489 50.41 Q 53.247 50.444 52.7 50.6 A 15.549 15.549 0 0 1 52.455 50.668 Q 51.963 50.8 51.8 50.8 L 51.5 50.8 A 0.963 0.963 0 0 0 51.275 50.719 A 0.817 0.817 0 0 0 51.1 50.7 A 4.851 4.851 0 0 0 50.116 50.805 A 6.314 6.314 0 0 0 49.4 51 L 48.9 51.2 A 0.202 0.202 0 0 1 48.898 51.2 Q 48.8 51.199 48.75 51.1 A 0.216 0.216 0 0 0 48.715 51.048 A 0.151 0.151 0 0 0 48.6 51 A 0.144 0.144 0 0 0 48.56 51.005 Q 48.516 51.018 48.504 51.063 A 0.147 0.147 0 0 0 48.5 51.1 L 48.4 51.1 Q 48.245 51.1 48.06 51.01 A 1.436 1.436 0 0 1 47.95 50.95 Q 47.724 50.814 47.621 50.801 A 0.165 0.165 0 0 0 47.6 50.8 A 0.193 0.193 0 0 0 47.544 50.81 Q 47.457 50.837 47.299 50.936 A 3.801 3.801 0 0 0 47.2 51 A 3.741 3.741 0 0 1 47.095 51.068 Q 46.881 51.2 46.8 51.2 Q 46.6 51.2 46.351 51.001 A 1.584 1.584 0 0 1 46.35 51 A 1.318 1.318 0 0 0 46.213 50.903 Q 46.047 50.802 45.906 50.8 A 0.401 0.401 0 0 0 45.9 50.8 A 1.887 1.887 0 0 0 45.302 50.899 A 2.009 2.009 0 0 0 45.3 50.9 A 0.575 0.575 0 0 1 45.327 50.914 Q 45.468 50.995 45.233 51 A 1.551 1.551 0 0 1 45.2 51 L 45.3 50.9 L 41.7 50.9 A 3.945 3.945 0 0 0 41.334 50.916 Q 40.902 50.956 40.65 51.1 L 40.3 51.3 Q 40.203 51.3 40.013 51.16 A 2.008 2.008 0 0 1 40 51.15 A 1.652 1.652 0 0 0 39.917 51.092 Q 39.787 51.006 39.71 51 A 0.144 0.144 0 0 0 39.7 51 A 0.108 0.108 0 0 0 39.647 51.019 Q 39.543 51.082 39.334 51.356 A 5.791 5.791 0 0 0 39.3 51.4 A 15.171 15.171 0 0 0 38.853 51.317 Q 38.643 51.282 38.454 51.257 A 8.967 8.967 0 0 0 38.4 51.25 A 7.511 7.511 0 0 0 38.114 51.22 Q 37.972 51.207 37.846 51.203 A 4.039 4.039 0 0 0 37.7 51.2 A 0.49 0.49 0 0 0 37.32 51.382 Q 37.19 51.53 37.1 51.8 A 0.617 0.617 0 0 0 37.056 51.925 Q 37.005 52.128 37.001 52.515 A 6.687 6.687 0 0 0 37 52.6 L 37 52.95 Q 37 53.2 37.1 53.5 A 6.717 6.717 0 0 0 36.576 54.343 Q 35.896 55.658 36.2 56.8 L 36 56.8 A 0.901 0.901 0 0 0 35.497 56.968 Q 35.048 57.267 34.6 58.1 A 2.073 2.073 0 0 1 34.594 58.257 Q 34.588 58.332 34.577 58.418 A 4.728 4.728 0 0 1 34.55 58.6 Q 34.5 58.9 34.4 59.3 Q 34 60.1 33.3 60.6 L 33.3 60.8 L 33.3 61.15 Q 33.3 61.4 33.4 61.7 L 33.05 62.05 Q 32.816 62.284 32.625 62.651 A 3.495 3.495 0 0 0 32.6 62.7 L 32.6 63.5 A 2.668 2.668 0 0 1 32.592 63.692 Q 32.578 63.882 32.54 64.146 A 12.544 12.544 0 0 1 32.5 64.4 A 35.153 35.153 0 0 0 32.466 64.607 Q 32.409 64.963 32.401 65.072 A 0.409 0.409 0 0 0 32.4 65.1 A 0.193 0.193 0 0 0 32.41 65.156 Q 32.437 65.243 32.536 65.401 A 3.801 3.801 0 0 0 32.6 65.5 Q 32.8 65.8 32.8 66 L 32.65 66.3 Q 32.5 66.6 32.3 67.3 A 1.494 1.494 0 0 0 32.314 67.511 Q 32.338 67.675 32.4 67.8 A 1.735 1.735 0 0 0 32.213 68.027 Q 32.035 68.278 31.858 68.668 A 6.859 6.859 0 0 0 31.8 68.8 Q 31.8 68.887 30.887 70.192 A 124.086 124.086 0 0 1 30.6 70.6 Q 30.269 70.683 30.006 71.04 A 2.051 2.051 0 0 0 29.9 71.2 L 29.2 71.4 A 0.977 0.977 0 0 1 28.872 71.339 Q 28.605 71.244 28.3 71 A 374.669 374.669 0 0 0 28.178 70.474 Q 28.025 69.814 27.943 69.477 A 24.32 24.32 0 0 0 27.9 69.3 A 2.4 2.4 0 0 0 27.988 69.024 Q 28.144 68.428 28.3 67.1 Q 28.5 67.1 28.7 66.9 L 28.7 65.3 A 0.101 0.101 0 0 1 28.638 65.276 Q 28.575 65.227 28.513 65.082 A 1.433 1.433 0 0 1 28.5 65.05 A 2.387 2.387 0 0 0 28.458 64.954 Q 28.263 64.529 27.331 62.663 A 596.678 596.678 0 0 0 27.2 62.4 Q 27 61.8 26.5 61.4 Q 26.5 61.2 26.45 61 Q 26.416 60.866 26.36 60.686 A 10.585 10.585 0 0 0 26.3 60.5 L 25.7 60.2 A 2.496 2.496 0 0 0 25.294 59.317 A 2.364 2.364 0 0 0 24.9 58.9 Q 24.646 58.646 24.034 58.464 A 5.462 5.462 0 0 0 23.8 58.4 A 0.874 0.874 0 0 0 23.664 58.112 Q 23.506 57.886 23.188 57.66 A 3.511 3.511 0 0 0 23.1 57.6 L 22.9 57 A 1.887 1.887 0 0 1 22.302 56.901 A 2.009 2.009 0 0 1 22.3 56.9 L 19.3 54.7 Q 19.4 54.4 18.6 53.75 A 15.851 15.851 0 0 1 18.279 53.482 Q 17.756 53.034 17.6 52.8 L 17.2 52.8 Q 17.2 52.6 17 52.4 A 42.311 42.311 0 0 0 16.597 52.095 Q 15.263 51.1 15 51.1 L 14.6 51.2 A 0.601 0.601 0 0 0 14.597 51.133 Q 14.589 51.066 14.565 51.033 A 0.076 0.076 0 0 0 14.5 51 Q 13.3 50.5 12.5 50.5 A 0.251 0.251 0 0 0 12.444 50.508 Q 12.357 50.528 12.198 50.602 A 4.126 4.126 0 0 0 12.1 50.65 Q 11.853 50.773 11.742 50.795 A 0.221 0.221 0 0 1 11.7 50.8 Q 11.441 50.8 11.183 50.429 A 2.263 2.263 0 0 1 11.1 50.3 A 0.532 0.532 0 0 0 10.955 50.372 Q 10.8 50.484 10.8 50.7 A 1.236 1.236 0 0 0 10.603 50.489 A 0.769 0.769 0 0 0 10.1 50.3 Q 9.9 50.3 9.7 50.5 L 7.6 50.5 A 0.144 0.144 0 0 1 7.56 50.495 Q 7.516 50.482 7.504 50.437 A 0.147 0.147 0 0 1 7.5 50.4 A 0.144 0.144 0 0 0 7.495 50.36 Q 7.482 50.316 7.437 50.304 A 0.147 0.147 0 0 0 7.4 50.3 L 6.2 50.3 Q 5.792 50.3 5.55 50.333 A 1.691 1.691 0 0 0 5.45 50.35 Q 5.209 50.398 5.107 50.4 A 0.434 0.434 0 0 1 5.1 50.4 A 0.251 0.251 0 0 1 5.044 50.392 Q 4.957 50.372 4.798 50.298 A 4.126 4.126 0 0 1 4.7 50.25 Q 4.453 50.127 4.342 50.105 A 0.221 0.221 0 0 0 4.3 50.1 Q 4.1 50.1 3.65 50.25 Q 3.318 50.361 3.122 50.39 A 0.847 0.847 0 0 1 3 50.4 A 0.062 0.062 0 0 0 3.013 50.399 Q 3.077 50.385 2.81 50.207 A 4.498 4.498 0 0 0 2.8 50.2 A 1.2 1.2 0 0 0 2.587 50.09 Q 2.361 49.998 2.02 49.936 A 5.609 5.609 0 0 0 1.8 49.9 L 0.1 49.5 A 3.534 3.534 0 0 1 0.066 49.43 Q 0.001 49.293 0 49.252 A 0.054 0.054 0 0 1 0 49.25 L 0 49.2 A 2.007 2.007 0 0 1 0.203 48.337 Q 0.377 47.969 0.7 47.6 L 1.15 47.15 A 4.396 4.396 0 0 0 1.345 46.941 Q 1.513 46.75 1.7 46.5 A 4.495 4.495 0 0 0 2.19 46.364 Q 2.701 46.187 2.98 45.919 A 1.31 1.31 0 0 0 3 45.9 Q 3.097 45.803 3.286 45.52 A 9.13 9.13 0 0 0 3.3 45.5 Q 3.449 45.276 3.765 45.108 A 2.39 2.39 0 0 1 4 45 L 6.3 45 A 0.18 0.18 0 0 1 6.367 45.015 Q 6.425 45.038 6.495 45.099 A 1.049 1.049 0 0 1 6.55 45.15 A 0.772 0.772 0 0 0 6.637 45.223 Q 6.831 45.366 7.3 45.6 L 9.5 46.2 Q 9.654 46.507 9.689 46.697 A 0.564 0.564 0 0 1 9.7 46.8 A 16.667 16.667 0 0 1 10.047 46.943 Q 10.578 47.17 10.797 47.318 A 0.717 0.717 0 0 1 10.9 47.4 Q 11.034 47.534 11.167 47.578 A 0.419 0.419 0 0 0 11.3 47.6 L 11.4 47.6 A 0.144 0.144 0 0 1 11.405 47.56 Q 11.418 47.516 11.463 47.504 A 0.147 0.147 0 0 1 11.5 47.5 Q 11.7 47.5 12 47.85 A 4.345 4.345 0 0 0 12.105 47.969 Q 12.315 48.196 12.397 48.2 A 0.06 0.06 0 0 0 12.4 48.2 A 0.144 0.144 0 0 0 12.44 48.195 Q 12.484 48.182 12.496 48.137 A 0.147 0.147 0 0 0 12.5 48.1 L 12.6 48.1 A 0.322 0.322 0 0 1 12.804 48.175 Q 12.853 48.213 12.898 48.272 A 0.84 0.84 0 0 1 12.95 48.35 L 13.1 48.6 A 2.933 2.933 0 0 0 13.3 48.781 Q 13.597 49.027 14.1 49.35 Q 14.8 49.8 15.8 49.8 L 22.4 49.8 L 22.7 50 Q 22.8 50 23 49.9 A 1.769 1.769 0 0 1 23.094 49.856 Q 23.185 49.817 23.248 49.805 A 0.282 0.282 0 0 1 23.3 49.8 L 31.8 50.1 Q 32.2 50.1 32.7 50.05 A 21.059 21.059 0 0 0 33.103 50.005 Q 33.283 49.984 33.482 49.958 A 40.997 40.997 0 0 0 33.9 49.9 Q 33.993 49.9 34.214 49.814 A 3.625 3.625 0 0 0 34.25 49.8 Q 34.452 49.719 34.622 49.704 A 0.862 0.862 0 0 1 34.7 49.7 A 0.498 0.498 0 0 1 34.759 49.705 Q 34.9 49.724 35.305 49.809 A 40.04 40.04 0 0 1 35.5 49.85 Q 36.06 49.97 36.3 49.994 A 1.037 1.037 0 0 0 36.4 50 Q 36.659 50 36.917 49.629 A 2.263 2.263 0 0 0 37 49.5 Q 37.1 49.2 36.9 49 L 38 47.7 A 2.182 2.182 0 0 1 38.103 47.072 Q 38.276 46.499 38.742 45.779 A 10.022 10.022 0 0 1 39 45.4 L 39.7 44.35 Q 40.147 43.679 40.194 43.368 A 0.457 0.457 0 0 0 40.2 43.3 A 1.412 1.412 0 0 0 40.195 43.17 Q 40.183 43.043 40.146 42.966 A 0.241 0.241 0 0 0 40.1 42.9 Q 41.3 42.7 40.4 42 L 40.7 41.1 A 0.329 0.329 0 0 1 40.727 40.991 Q 40.837 40.705 41.4 39.9 Q 41.584 39.808 42.023 39.631 A 29.077 29.077 0 0 1 42.1 39.6 A 0.706 0.706 0 0 0 42.396 39.361 Q 42.579 39.12 42.7 38.67 A 4.968 4.968 0 0 0 42.8 38.2 A 0.363 0.363 0 0 0 42.996 38.052 Q 43.193 37.788 43.325 37.074 A 9.381 9.381 0 0 0 43.4 36.6 A 0.725 0.725 0 0 0 43.74 36.305 Q 43.941 35.994 44 35.4 A 0.494 0.494 0 0 0 44.173 35.292 Q 44.382 35.102 44.591 34.621 A 4.828 4.828 0 0 0 44.6 34.6 A 0.851 0.851 0 0 1 44.906 34.659 A 1.045 1.045 0 0 1 45 34.7 Q 45.081 34.619 45.096 34.406 A 1.484 1.484 0 0 0 45.1 34.3 A 0.911 0.911 0 0 0 45.014 33.894 Q 44.838 33.534 44.3 33.4 A 1.074 1.074 0 0 0 44.613 33.213 Q 44.835 33.018 44.899 32.705 A 1.129 1.129 0 0 0 44.9 32.7 A 1.219 1.219 0 0 0 45.439 32.28 Q 45.74 31.885 45.919 31.173 A 6.327 6.327 0 0 0 46 30.8 L 46.7 29.8 A 0.337 0.337 0 0 0 46.8 29.56 A 0.444 0.444 0 0 0 46.8 29.55 A 0.37 0.37 0 0 1 46.823 29.418 A 0.332 0.332 0 0 1 46.9 29.3 Q 47.4 28.5 47.95 27.65 Q 48.5 26.8 49.2 25.8 L 49.5 24.7 L 49.8 24.4 A 2.242 2.242 0 0 1 49.835 24.032 Q 49.901 23.644 50.088 23.086 A 14.383 14.383 0 0 1 50.3 22.5 Q 50.675 22.313 51.05 21.949 A 4.421 4.421 0 0 0 51.1 21.9 Q 51.234 21.497 51.459 20.958 A 26.497 26.497 0 0 1 51.7 20.4 A 12.699 12.699 0 0 1 52.419 19.733 A 10.944 10.944 0 0 1 52.7 19.5 L 53.7 18.7 A 4.909 4.909 0 0 0 53.777 18.329 Q 53.81 18.132 53.834 17.908 A 9.08 9.08 0 0 0 53.85 17.75 Q 53.9 17.2 54.4 17.4 Q 54.561 17.319 54.918 16.783 A 11.984 11.984 0 0 0 55.1 16.5 Q 55 16 55.1 15.3 L 56.3 13.6 A 1.412 1.412 0 0 0 56.43 13.595 Q 56.557 13.583 56.634 13.546 A 0.241 0.241 0 0 0 56.7 13.5 A 5.634 5.634 0 0 0 56.696 13.293 Q 56.685 12.995 56.64 12.87 A 0.195 0.195 0 0 0 56.601 12.801 A 5.267 5.267 0 0 0 56.7 12.748 Q 56.947 12.617 57.587 12.263 A 201.916 201.916 0 0 0 57.7 12.2 A 0.899 0.899 0 0 1 57.737 11.956 Q 57.768 11.845 57.826 11.723 A 2.284 2.284 0 0 1 57.95 11.5 A 8.76 8.76 0 0 0 58.145 11.172 Q 58.229 11.023 58.317 10.855 A 17.418 17.418 0 0 0 58.5 10.5 Q 58.744 10.5 59.449 10.236 A 16.752 16.752 0 0 0 59.8 10.1 Q 60.8 9.7 60.7 9.7 Q 61.235 9.7 61.77 10.167 A 3.507 3.507 0 0 1 62.1 10.5 Q 62.648 11.126 63.073 11.324 A 1.014 1.014 0 0 0 63.3 11.4 A 23.18 23.18 0 0 1 63.674 11.852 Q 64.4 12.756 64.4 13 Q 64.4 13.774 63.371 15.389 A 18.255 18.255 0 0 1 63.3 15.5 L 61.9 16.4 L 60.4 18.2 Q 60.2 18.5 59.85 18.95 Q 59.5 19.4 59.1 20.1 A 0.873 0.873 0 0 0 58.931 20.181 Q 58.65 20.35 58.2 20.8 A 2.717 2.717 0 0 1 58.181 21.131 Q 58.159 21.306 58.114 21.457 A 1.615 1.615 0 0 1 58.1 21.5 A 4.203 4.203 0 0 0 57.25 22.171 Q 56.528 22.895 55.844 24.12 A 14.373 14.373 0 0 0 55.8 24.2 L 54.3 26.9 Q 54.225 26.975 54.064 27.108 A 10.576 10.576 0 0 1 53.95 27.2 A 1.061 1.061 0 0 0 53.805 27.344 Q 53.668 27.507 53.516 27.78 A 5.648 5.648 0 0 0 53.4 28 A 1.412 1.412 0 0 0 53.27 28.005 Q 53.143 28.017 53.066 28.054 A 0.241 0.241 0 0 0 53 28.1 Q 52.4 28.8 51.7 29.6 A 3.255 3.255 0 0 0 51.486 29.871 Q 51.053 30.488 51.3 30.9 A 3.037 3.037 0 0 0 51.094 30.941 Q 50.778 31.017 50.685 31.133 A 0.175 0.175 0 0 0 50.65 31.2 A 0.354 0.354 0 0 1 50.594 31.305 Q 50.439 31.527 49.869 32.055 A 25.815 25.815 0 0 1 49.6 32.3 L 49 33.5 L 47.9 34.6 L 47.9 34.9 L 47 36.7 L 46.6 37.1 A 3.181 3.181 0 0 1 46.474 37.41 Q 46.247 37.906 45.726 38.769 A 39.923 39.923 0 0 1 45.4 39.3 Q 45.2 39.4 44.8 39.65 A 7.253 7.253 0 0 0 44.486 39.859 Q 44.315 39.978 44.129 40.121 A 13.63 13.63 0 0 0 43.9 40.3 L 43.9 41 Q 43.9 41.372 43.814 41.83 A 6.465 6.465 0 0 1 43.8 41.9 A 1.494 1.494 0 0 1 43.786 42.111 Q 43.763 42.275 43.7 42.4 L 42.5 43.3 A 5.309 5.309 0 0 0 42.025 44.05 A 3.94 3.94 0 0 0 41.7 44.9 Q 41.787 45.074 41.798 45.628 A 8.503 8.503 0 0 1 41.8 45.8 L 41.5 45.8 A 1.237 1.237 0 0 0 40.819 45.988 Q 40.594 46.131 40.424 46.385 A 1.969 1.969 0 0 0 40.3 46.6 Q 40.3 46.768 40.159 47.041 A 2.846 2.846 0 0 1 40.1 47.15 A 0.636 0.636 0 0 1 39.988 47.296 Q 39.8 47.475 39.5 47.4 L 39.1 49.1 Q 39.181 49.181 39.394 49.196 A 1.484 1.484 0 0 0 39.5 49.2 L 39.7 49.2 Q 39.7 49.111 39.858 49.101 A 0.673 0.673 0 0 1 39.9 49.1 A 0.179 0.179 0 0 0 39.871 49.102 Q 39.748 49.122 40.026 49.343 A 3.387 3.387 0 0 0 40.1 49.4 L 41.2 49.7 A 0.392 0.392 0 0 0 41.272 49.694 Q 41.393 49.671 41.4 49.563 A 0.21 0.21 0 0 0 41.4 49.55 A 0.333 0.333 0 0 1 41.404 49.497 Q 41.42 49.4 41.5 49.4 A 0.705 0.705 0 0 1 41.613 49.411 Q 41.829 49.447 42.25 49.6 Q 42.752 49.783 42.879 49.799 A 0.171 0.171 0 0 0 42.9 49.8 A 6.324 6.324 0 0 0 43.632 49.76 Q 44.451 49.665 44.946 49.337 A 1.853 1.853 0 0 0 45 49.3 A 0.953 0.953 0 0 1 44.982 49.3 Q 44.864 49.298 45.586 49.259 A 144.907 144.907 0 0 1 45.75 49.25 Q 46.7 49.2 48.7 49.1 A 0.672 0.672 0 0 0 48.817 49.088 Q 49.003 49.054 49.329 48.928 A 7.262 7.262 0 0 0 49.4 48.9 Q 49.877 48.709 49.99 48.7 A 0.13 0.13 0 0 1 50 48.7 Q 50.1 48.7 50.25 48.8 A 0.596 0.596 0 0 0 50.53 48.897 A 0.75 0.75 0 0 0 50.6 48.9 L 50.9 48.9 A 0.963 0.963 0 0 1 51.125 48.819 A 0.817 0.817 0 0 1 51.3 48.8 A 1.081 1.081 0 0 0 52.095 48.455 A 1.725 1.725 0 0 0 52.3 48.2 A 10.255 10.255 0 0 0 53.083 48.383 Q 53.467 48.456 53.806 48.483 A 4.87 4.87 0 0 0 54.2 48.5 Q 54.3 48.5 54.45 48.3 Q 54.6 48.1 54.7 48.1 L 55.5 48.1 Q 55.872 48.1 56.33 48.014 A 6.465 6.465 0 0 0 56.4 48 A 0.569 0.569 0 0 0 56.513 47.986 Q 56.729 47.941 57.15 47.75 A 6.941 6.941 0 0 1 57.374 47.653 Q 57.687 47.524 57.847 47.504 A 0.435 0.435 0 0 1 57.9 47.5 L 59.5 47.7 Q 59.592 47.7 59.813 47.572 A 3.044 3.044 0 0 0 59.85 47.55 A 1.34 1.34 0 0 1 60.012 47.466 Q 60.098 47.429 60.177 47.413 A 0.606 0.606 0 0 1 60.3 47.4 L 61.8 47.6 Q 61.894 47.6 63.057 47.377 A 171.486 171.486 0 0 0 63.2 47.35 A 72.159 72.159 0 0 1 63.649 47.265 Q 64.415 47.123 64.642 47.103 A 0.708 0.708 0 0 1 64.7 47.1 A 0.155 0.155 0 0 1 64.785 47.123 Q 64.824 47.148 64.85 47.2 A 0.216 0.216 0 0 0 64.885 47.252 A 0.151 0.151 0 0 0 65 47.3 Q 65.097 47.3 65.526 47.111 A 11.617 11.617 0 0 0 65.55 47.1 Q 65.99 46.904 66.095 46.9 A 0.112 0.112 0 0 1 66.1 46.9 A 1.412 1.412 0 0 1 66.23 46.905 Q 66.357 46.917 66.434 46.954 A 0.241 0.241 0 0 1 66.5 47 L 66.8 47 A 0.303 0.303 0 0 0 66.858 46.988 Q 67.129 46.913 68.573 46.391 A 265 265 0 0 0 69.1 46.2 A 2.717 2.717 0 0 0 69.431 46.181 Q 69.606 46.159 69.757 46.114 A 1.615 1.615 0 0 0 69.8 46.1 L 70.5 45.7 Q 70.597 45.7 70.787 45.84 A 2.008 2.008 0 0 1 70.8 45.85 A 1.652 1.652 0 0 0 70.883 45.908 Q 71.013 45.994 71.09 46 A 0.144 0.144 0 0 0 71.1 46 Q 71.183 46 71.266 45.931 A 0.497 0.497 0 0 0 71.3 45.9 Q 71.8 44.9 71.5 44.8 A 1.858 1.858 0 0 0 71.657 44.711 Q 71.74 44.659 71.831 44.592 A 3.888 3.888 0 0 0 71.95 44.5 A 2.723 2.723 0 0 1 72.178 44.337 Q 72.363 44.219 72.6 44.1 A 2.369 2.369 0 0 1 72.604 43.972 Q 72.611 43.845 72.63 43.67 A 10.977 10.977 0 0 1 72.65 43.5 A 10.439 10.439 0 0 1 72.708 43.103 Q 72.742 42.895 72.787 42.666 A 17.262 17.262 0 0 1 72.8 42.6 A 5.599 5.599 0 0 1 73.3 41.965 Q 73.858 41.346 74.742 40.646 A 18.545 18.545 0 0 1 74.8 40.6 A 12.892 12.892 0 0 1 74.805 40.235 Q 74.82 39.696 74.885 39.452 A 0.857 0.857 0 0 1 74.9 39.4 Q 75.582 39.011 75.6 38.526 A 0.709 0.709 0 0 0 75.6 38.5 Q 75.8 38.1 76.25 37.55 Q 76.7 37 77.2 36.3 A 0.346 0.346 0 0 0 77.034 35.996 Q 76.971 35.955 76.884 35.925 A 1.018 1.018 0 0 0 76.8 35.9 L 77.3 35.1 Q 77.3 34.649 78.114 33.71 A 11.744 11.744 0 0 1 78.3 33.5 Q 78.5 33.4 79.2 32.7 L 79.2 32.2 A 2.204 2.204 0 0 1 79.217 31.94 Q 79.232 31.813 79.26 31.673 A 4.231 4.231 0 0 1 79.3 31.5 Q 79.544 31.337 79.789 31.041 A 3.81 3.81 0 0 0 79.9 30.9 Q 80.3 30.2 80.3 29.4 Q 81.38 29.13 81.569 28.131 A 2.246 2.246 0 0 0 81.6 27.9 Q 81.6 27.225 82.808 26.086 A 11.695 11.695 0 0 1 82.9 26 L 83.9 24 Q 83.9 23.911 84.137 23.901 A 1.514 1.514 0 0 1 84.2 23.9 Q 84.2 23.8 84.55 23.35 A 1.528 1.528 0 0 0 84.658 23.194 Q 84.773 23 84.773 22.838 A 0.42 0.42 0 0 0 84.7 22.6 L 85.1 22.3 A 28.667 28.667 0 0 1 86.738 19.79 A 23.125 23.125 0 0 1 88.1 18.1 Q 88.177 17.87 88.312 17.582 A 8.033 8.033 0 0 1 88.4 17.4 Q 88.6 17 88.8 16.5 Q 89.3 15.8 89.6 15.4 Q 89.9 15 90.7 14.2 Q 90.7 13.939 91.079 13.298 A 9.683 9.683 0 0 1 91.2 13.1 A 1.204 1.204 0 0 1 91.565 12.852 A 1.478 1.478 0 0 1 91.7 12.8 A 0.529 0.529 0 0 0 91.761 12.725 Q 91.83 12.624 91.9 12.45 Q 91.967 12.282 92.034 12.046 A 7.81 7.81 0 0 0 92.1 11.8 Q 93.166 11.315 92.729 10.643 A 1.177 1.177 0 0 0 92.7 10.6 A 2.58 2.58 0 0 0 94.12 9.645 Q 94.438 9.239 94.686 8.676 A 7.183 7.183 0 0 0 95 7.8 A 1.858 1.858 0 0 1 95.089 7.643 Q 95.141 7.56 95.208 7.469 A 3.888 3.888 0 0 1 95.3 7.35 A 7.351 7.351 0 0 0 95.55 7.018 A 8.781 8.781 0 0 0 95.7 6.8 L 96 6.8 A 10.114 10.114 0 0 0 96.432 6.263 Q 97.108 5.355 97.108 4.812 A 0.79 0.79 0 0 0 97.1 4.7 L 98.3 3.8 Q 98.725 3.534 98.924 3.241 A 0.95 0.95 0 0 0 99.1 2.7 L 99.95 1.85 Q 100.4 1.4 101.1 0.9 L 101.7 0.7 L 101.8 0.7 A 0.451 0.451 0 0 0 101.861 0.752 Q 101.93 0.8 102 0.8 Q 102.086 0.8 102.467 0.431 A 11.601 11.601 0 0 0 102.6 0.3 L 103.6 0 Q 103.7 0 104.9 0.7 Q 106.1 1.4 106.6 1.5 A 59.176 59.176 0 0 0 106.768 1.833 Q 107.4 3.078 107.4 2.9 A 3.613 3.613 0 0 1 107.334 3.606 A 2.74 2.74 0 0 1 107.1 4.3 Q 107.017 4.3 106.934 4.369 A 0.497 0.497 0 0 0 106.9 4.4 Q 106.7 5.1 106.3 5.7 A 1.619 1.619 0 0 0 105.923 5.74 Q 105.418 5.862 105.322 6.352 A 1.301 1.301 0 0 0 105.3 6.6 L 104.8 6.6 Q 104.7 6.9 103.9 8.2 A 94.206 94.206 0 0 0 103.571 8.436 Q 102.536 9.182 102.455 9.292 A 0.056 0.056 0 0 0 102.45 9.3 Q 102.409 9.382 102.402 9.668 A 5.201 5.201 0 0 0 102.4 9.8 A 4.017 4.017 0 0 0 101.9 10.114 Q 101.193 10.643 101.193 11.272 A 1.154 1.154 0 0 0 101.2 11.4 A 1.054 1.054 0 0 0 101.03 11.442 Q 100.632 11.579 100.8 12 Q 99.2 12.3 99.4 13.4 A 5.638 5.638 0 0 1 99.191 13.692 Q 99.059 13.864 98.9 14.05 A 4.345 4.345 0 0 1 98.795 14.169 Q 98.585 14.396 98.503 14.4 A 0.06 0.06 0 0 1 98.5 14.4 L 98 14.4 A 0.129 0.129 0 0 1 97.943 14.384 Q 97.866 14.345 97.751 14.211 A 2.231 2.231 0 0 1 97.7 14.15 A 2.031 2.031 0 0 0 97.623 14.059 Q 97.509 13.933 97.436 13.907 A 0.108 0.108 0 0 0 97.4 13.9 A 0.019 0.019 0 0 1 97.422 13.92 Q 97.422 14.078 96 15.5 A 0.82 0.82 0 0 0 95.837 15.58 Q 95.587 15.733 95.174 16.129 A 12.028 12.028 0 0 0 95 16.3 Q 94.917 16.383 94.903 16.534 A 0.703 0.703 0 0 0 94.9 16.6 A 0.851 0.851 0 0 1 94.841 16.906 A 1.045 1.045 0 0 1 94.8 17 L 94.4 17.2 A 2.784 2.784 0 0 1 94.2 17.732 Q 93.891 18.37 93.2 19.2 Q 92.256 20.333 91.935 20.842 A 3.238 3.238 0 0 0 91.9 20.9 Q 91.503 20.9 90.909 21.59 A 5.552 5.552 0 0 0 90.9 21.6 Q 90.803 21.99 88.519 25.801 A 350.273 350.273 0 0 1 88.4 26 L 86 30.1 Q 85.919 30.019 85.706 30.004 A 1.484 1.484 0 0 0 85.6 30 L 86 29.1 L 85.7 28.2 A 1.374 1.374 0 0 0 85.794 28.197 Q 85.936 28.187 85.98 28.145 A 0.06 0.06 0 0 0 86 28.1 A 1.067 1.067 0 0 1 86.072 27.94 Q 86.21 27.683 86.561 27.213 A 19.946 19.946 0 0 1 86.8 26.9 Q 86.646 26.593 86.611 26.403 A 0.564 0.564 0 0 1 86.6 26.3 A 0.754 0.754 0 0 1 86.662 26.014 Q 86.757 25.782 86.999 25.509 A 3.705 3.705 0 0 1 87.15 25.35 A 4.448 4.448 0 0 0 87.364 25.121 Q 87.669 24.77 87.697 24.545 A 0.361 0.361 0 0 0 87.7 24.5 L 87.7 24.1 A 0.451 0.451 0 0 0 87.639 24.048 Q 87.57 24 87.5 24 A 3.362 3.362 0 0 0 87.423 24.059 Q 87.121 24.3 87.3 24.3 L 87.1 24.3 Q 87.1 24.211 86.942 24.201 A 0.673 0.673 0 0 0 86.9 24.2 A 0.193 0.193 0 0 0 86.796 24.248 Q 86.574 24.414 86.062 25.16 A 21.51 21.51 0 0 0 85.9 25.4 Q 85.815 25.992 85.231 26.869 A 9.84 9.84 0 0 1 85 27.2 L 84.3 27.4 A 0.82 0.82 0 0 0 83.913 27.607 Q 83.559 27.956 83.7 28.8 A 0.733 0.733 0 0 1 83.58 29.045 Q 83.435 29.248 83.133 29.474 A 4.858 4.858 0 0 1 82.8 29.7 L 82.8 30.3 L 83.1 30.5 A 72.514 72.514 0 0 0 83.223 30.885 Q 83.693 32.346 83.7 32.107 A 0.26 0.26 0 0 0 83.7 32.1 L 83.6 32.35 Q 83.5 32.6 82.5 33.4 Q 82.597 33.497 82.695 34.162 A 11.379 11.379 0 0 1 82.7 34.2 A 0.881 0.881 0 0 1 82.772 34.409 Q 82.793 34.508 82.798 34.621 A 1.684 1.684 0 0 1 82.8 34.7 A 1.008 1.008 0 0 1 82.765 34.977 Q 82.676 35.288 82.359 35.37 A 1.031 1.031 0 0 1 82.1 35.4 Q 82 35.4 81.9 35.3 L 81.7 35.3 A 0.801 0.801 0 0 0 81.218 35.468 Q 81.09 35.562 80.97 35.708 A 2.226 2.226 0 0 0 80.8 35.95 A 2.419 2.419 0 0 0 80.594 36.365 Q 80.432 36.794 80.5 37.2 A 0.82 0.82 0 0 0 80.337 37.28 Q 80.087 37.433 79.674 37.829 A 12.028 12.028 0 0 0 79.5 38 L 79.5 38.3 A 2.689 2.689 0 0 1 79.359 39.191 A 2.233 2.233 0 0 1 78.5 40.3 Q 78.587 40.474 78.598 41.028 A 8.503 8.503 0 0 1 78.6 41.2 L 78 42.2 A 1.682 1.682 0 0 0 77.88 42.336 Q 77.716 42.541 77.5 42.9 A 5.603 5.603 0 0 0 77.275 43.317 Q 77.164 43.544 77.052 43.813 A 12.196 12.196 0 0 0 76.9 44.2 A 0.083 0.083 0 0 1 76.874 44.25 Q 76.776 44.362 76.3 44.6 L 76.3 45 Q 76.381 45.081 76.594 45.096 A 1.484 1.484 0 0 0 76.7 45.1 Q 76.785 45.1 77.199 44.918 A 14.551 14.551 0 0 0 77.35 44.85 A 6.941 6.941 0 0 1 77.574 44.753 Q 77.887 44.624 78.047 44.604 A 0.435 0.435 0 0 1 78.1 44.6 A 0.155 0.155 0 0 1 78.185 44.623 Q 78.224 44.648 78.25 44.7 A 0.216 0.216 0 0 0 78.285 44.752 A 0.151 0.151 0 0 0 78.4 44.8 A 0.851 0.851 0 0 0 78.706 44.741 A 1.045 1.045 0 0 0 78.8 44.7 L 79.2 44.7 L 79.7 44.3 L 79.8 44.3 Q 79.8 44.389 79.958 44.399 A 0.673 0.673 0 0 0 80 44.4 A 2.369 2.369 0 0 0 80.128 44.396 Q 80.255 44.389 80.43 44.37 A 10.977 10.977 0 0 0 80.6 44.35 A 10.439 10.439 0 0 0 80.997 44.292 Q 81.205 44.258 81.434 44.213 A 17.262 17.262 0 0 0 81.5 44.2 A 0.142 0.142 0 0 0 81.555 44.186 Q 81.638 44.15 81.778 44.02 A 2.932 2.932 0 0 0 81.85 43.95 Q 82.056 43.744 82.16 43.708 A 0.122 0.122 0 0 1 82.2 43.7 A 0.601 0.601 0 0 1 82.267 43.703 Q 82.334 43.711 82.367 43.735 A 0.076 0.076 0 0 1 82.4 43.8 L 82.6 43.8 L 83.85 43.3 A 5.967 5.967 0 0 1 84.952 42.982 A 7.143 7.143 0 0 1 85.5 42.9 A 0.111 0.111 0 0 1 85.518 42.845 Q 85.574 42.751 85.8 42.6 A 3.741 3.741 0 0 1 85.905 42.532 Q 86.119 42.4 86.2 42.4 L 86.4 42.4 Q 86.483 42.483 86.634 42.497 A 0.703 0.703 0 0 0 86.7 42.5 A 0.274 0.274 0 0 0 86.767 42.484 Q 86.991 42.411 87.875 42.007 A 77.562 77.562 0 0 0 88 41.95 A 32.416 32.416 0 0 1 88.415 41.763 Q 89.125 41.45 89.343 41.407 A 0.307 0.307 0 0 1 89.4 41.4 A 0.144 0.144 0 0 1 89.44 41.405 Q 89.484 41.418 89.496 41.463 A 0.147 0.147 0 0 1 89.5 41.5 L 89.6 41.5 A 0.794 0.794 0 0 0 89.792 41.458 Q 90.421 41.266 92.8 40.2 Q 93 39.8 93.3 39.6 A 4.761 4.761 0 0 0 94.059 39.465 Q 94.848 39.267 95.937 38.794 A 25.657 25.657 0 0 0 96.8 38.4 Q 97.3 38.4 98.9 37.5 A 4.771 4.771 0 0 1 98.299 38.187 Q 97.898 38.561 97.454 38.766 A 2.696 2.696 0 0 1 97.1 38.9 L 96.8 39.4 L 94.8 40.4 A 5.976 5.976 0 0 1 94.66 40.535 Q 94.496 40.689 94.265 40.887 A 18.545 18.545 0 0 1 94.25 40.9 A 24.162 24.162 0 0 1 93.966 41.139 Q 93.839 41.245 93.698 41.36 A 45.878 45.878 0 0 1 93.4 41.6 L 91.7 42 L 91.2 42.4 A 19.676 19.676 0 0 1 90.421 42.79 Q 89.238 43.347 88.614 43.395 A 1.472 1.472 0 0 1 88.5 43.4 L 88.3 43.4 A 0.144 0.144 0 0 0 88.295 43.36 Q 88.282 43.316 88.237 43.304 A 0.147 0.147 0 0 0 88.2 43.3 L 88 43.6 L 86.1 44 A 20.947 20.947 0 0 0 85.547 44.18 Q 84.458 44.555 84.252 44.798 A 0.351 0.351 0 0 0 84.25 44.8 A 0.798 0.798 0 0 1 83.674 45.097 A 1.014 1.014 0 0 1 83.6 45.1 L 83.5 45.1 A 0.144 0.144 0 0 0 83.495 45.06 Q 83.482 45.016 83.437 45.004 A 0.147 0.147 0 0 0 83.4 45 A 2.221 2.221 0 0 0 82.872 45.058 A 1.319 1.319 0 0 0 82 45.7 A 269.272 269.272 0 0 0 80.872 46.006 Q 79.177 46.47 78.45 46.7 A 25.976 25.976 0 0 1 78.12 46.802 Q 77.485 46.993 77.312 47 A 0.311 0.311 0 0 1 77.3 47 L 77.2 47 A 0.218 0.218 0 0 0 77.215 46.984 Q 77.277 46.907 77.13 46.901 A 0.666 0.666 0 0 0 77.1 46.9 L 74.5 47.7 A 1.531 1.531 0 0 1 74.423 47.835 Q 74.322 47.994 74.15 48.2 Q 73.9 48.5 73.7 49 L 73.7 49.7 L 72.8 51 A 0.945 0.945 0 0 0 72.75 51.295 Q 72.749 51.447 72.8 51.599 A 1.005 1.005 0 0 0 72.8 51.6 Q 72.7 51.8 72.45 52.2 A 5.258 5.258 0 0 0 72.157 52.739 A 6.425 6.425 0 0 0 72 53.1 Q 71.866 53.1 71.777 53.145 A 0.296 0.296 0 0 0 71.7 53.2 Q 71.113 54.473 71.1 54.787 A 0.333 0.333 0 0 0 71.1 54.8 Q 70.7 55.1 70.8 55.4 A 0.625 0.625 0 0 0 70.281 55.819 Q 70.153 56.14 70.2 56.7 A 0.529 0.529 0 0 0 70.139 56.775 Q 70.07 56.876 70 57.05 A 2.387 2.387 0 0 1 69.893 57.278 Q 69.813 57.431 69.7 57.6 A 0.654 0.654 0 0 0 69.467 57.72 Q 69.173 57.943 68.832 58.544 A 6.796 6.796 0 0 0 68.8 58.6 A 1.887 1.887 0 0 1 68.701 59.198 A 2.009 2.009 0 0 1 68.7 59.2 Q 68.547 59.506 68.394 59.93 A 11.361 11.361 0 0 0 68.3 60.2 A 6.029 6.029 0 0 0 68.134 60.806 Q 68.064 61.126 68.015 61.488 A 10.231 10.231 0 0 0 68 61.6 L 67.2 63 Q 67.1 63.1 67.2 63.6 L 66.25 65.5 Q 65.8 66.4 65.4 67.3 A 1.096 1.096 0 0 0 65.367 67.567 Q 65.367 67.767 65.442 67.967 A 1.388 1.388 0 0 0 65.5 68.1 L 65.45 68.25 L 65.3 68.7 Q 65.5 69.1 65.3 69.9 L 64.6 70.5 L 64.1 71.9 A 0.617 0.617 0 0 1 64.144 72.025 Q 64.195 72.228 64.199 72.615 A 6.687 6.687 0 0 1 64.2 72.7 Q 63.896 73.46 63.534 74.912 A 49.596 49.596 0 0 0 63.3 75.9 A 15.743 15.743 0 0 1 63.204 76.549 Q 63.155 76.84 63.092 77.165 A 32.903 32.903 0 0 1 62.95 77.85 A 67.443 67.443 0 0 1 62.741 78.776 Q 62.646 79.188 62.535 79.644 A 130.25 130.25 0 0 1 62.3 80.6 L 62.3 80.8 L 62.3 81.25 A 3.098 3.098 0 0 0 62.314 81.534 Q 62.328 81.684 62.356 81.856 A 6.671 6.671 0 0 0 62.4 82.1 Q 62.4 82.4 62.45 82.7 A 2.974 2.974 0 0 1 62.476 82.907 Q 62.5 83.156 62.5 83.5 A 6.047 6.047 0 0 1 62.476 84.005 Q 62.43 84.554 62.293 85.314 A 26.298 26.298 0 0 1 62.2 85.8 Z M 33 58.1 L 33.4 56.4 Q 33.553 56.094 33.706 55.67 A 11.361 11.361 0 0 0 33.8 55.4 Q 33.934 54.997 34.159 54.458 A 26.497 26.497 0 0 1 34.4 53.9 L 34.9 52.8 A 5.892 5.892 0 0 0 35.526 52.054 A 7.907 7.907 0 0 0 36 51.3 L 35.4 51.3 A 0.451 0.451 0 0 0 35.348 51.361 Q 35.3 51.43 35.3 51.5 A 0.144 0.144 0 0 1 35.295 51.54 Q 35.282 51.584 35.237 51.596 A 0.147 0.147 0 0 1 35.2 51.6 A 0.58 0.58 0 0 1 34.963 51.547 Q 34.886 51.513 34.81 51.458 A 1.026 1.026 0 0 1 34.8 51.45 A 1.652 1.652 0 0 0 34.717 51.392 Q 34.587 51.306 34.51 51.3 A 0.144 0.144 0 0 0 34.5 51.3 L 32.5 51.8 L 31.5 51.8 Q 31.044 51.891 30.671 51.899 A 3.308 3.308 0 0 1 30.6 51.9 L 30 51.9 Q 30 51.983 29.931 52.066 A 0.497 0.497 0 0 1 29.9 52.1 L 29.6 51.8 Q 29.284 51.721 29.093 51.704 A 1.081 1.081 0 0 0 29 51.7 L 28.8 51.7 L 25.1 52.1 A 1.19 1.19 0 0 1 24.972 52.092 Q 24.845 52.078 24.67 52.04 A 5.828 5.828 0 0 1 24.5 52 A 11.198 11.198 0 0 0 24.361 51.966 Q 24.081 51.9 24 51.9 Q 23.917 51.9 23.834 51.969 A 0.497 0.497 0 0 0 23.8 52 Q 23.717 52.083 23.566 52.097 A 0.703 0.703 0 0 1 23.5 52.1 L 21.3 52.1 A 0.155 0.155 0 0 1 21.215 52.077 Q 21.176 52.052 21.15 52 A 0.151 0.151 0 0 0 21.078 51.932 Q 21.022 51.904 20.93 51.901 A 0.733 0.733 0 0 0 20.9 51.9 Q 20.8 51.9 20.6 52 A 1.769 1.769 0 0 1 20.506 52.044 Q 20.415 52.083 20.352 52.095 A 0.282 0.282 0 0 1 20.3 52.1 A 3.569 3.569 0 0 1 19.915 52.076 Q 19.535 52.035 19.009 51.92 A 17.483 17.483 0 0 1 18.5 51.8 L 18.5 52.3 A 0.86 0.86 0 0 0 18.587 52.437 Q 18.698 52.582 18.9 52.75 Q 19.2 53 20 53.1 A 0.731 0.731 0 0 1 20.069 53.181 Q 20.102 53.225 20.134 53.28 A 1.826 1.826 0 0 1 20.2 53.4 Q 20.3 53.6 20.5 53.8 L 21.2 54.15 A 1.008 1.008 0 0 1 21.568 54.477 Q 21.784 54.78 21.9 55.3 L 23 55.5 A 5.562 5.562 0 0 1 23.569 56.07 Q 23.829 56.368 24.088 56.735 A 11.354 11.354 0 0 1 24.4 57.2 Q 24.6 57.3 25.7 58.7 L 26.6 59 L 26.9 59.4 A 8.825 8.825 0 0 0 27.203 59.746 Q 27.525 60.094 27.8 60.3 Q 27.9 60.7 28.7 60.9 A 4.073 4.073 0 0 0 29.372 62.165 A 3.619 3.619 0 0 0 30.5 63.1 Q 30.5 62.93 31.151 61.747 A 55.643 55.643 0 0 1 31.4 61.3 A 7.008 7.008 0 0 1 31.489 60.979 Q 31.543 60.801 31.612 60.6 A 14.404 14.404 0 0 1 31.7 60.35 A 15.903 15.903 0 0 0 31.898 59.767 Q 31.999 59.453 32.1 59.1 A 2.048 2.048 0 0 0 32.533 58.746 Q 32.704 58.565 32.86 58.328 A 4.145 4.145 0 0 0 33 58.1 Z M 27.8 69.5 L 27.8 69.3 L 27.9 69.3 L 27.8 69.5 Z" id="0" vector-effect="non-scaling-stroke"/>
		<path d="M 91.4 64.1 L 91.3 64.1 A 0.144 0.144 0 0 1 91.295 64.14 Q 91.282 64.184 91.237 64.196 A 0.147 0.147 0 0 1 91.2 64.2 A 0.138 0.138 0 0 1 91.101 64.145 Q 90.95 63.977 90.8 63.3 A 0.322 0.322 0 0 0 90.739 63.255 Q 90.581 63.161 90.116 63.005 A 12.544 12.544 0 0 0 90.1 63 Q 89.84 62.048 89.506 61.845 A 0.383 0.383 0 0 0 89.4 61.8 L 89.4 59.1 L 90.2 58.2 Q 90.292 58.108 90.132 57.597 A 5.633 5.633 0 0 0 90.1 57.5 L 90.3 57.1 Q 90.4 56.9 90.6 56.7 A 2.204 2.204 0 0 0 90.583 56.44 Q 90.568 56.313 90.54 56.173 A 4.231 4.231 0 0 0 90.5 56 A 2.309 2.309 0 0 1 90.686 55.579 Q 90.832 55.325 91.033 55.154 A 1.398 1.398 0 0 1 91.1 55.1 A 1.707 1.707 0 0 1 91.457 54.055 A 2.141 2.141 0 0 1 91.5 54 A 0.206 0.206 0 0 0 91.605 53.954 Q 91.876 53.766 92.6 52.8 L 93.6 51.3 A 2.118 2.118 0 0 0 93.76 51.179 Q 94.097 50.903 94.8 50.2 L 94.8 49.8 Q 95.044 49.637 95.289 49.341 A 3.81 3.81 0 0 0 95.4 49.2 A 1.757 1.757 0 0 0 95.825 49.088 A 1.174 1.174 0 0 0 96.4 48.6 L 96.4 48.3 A 0.851 0.851 0 0 1 96.459 47.994 A 1.045 1.045 0 0 1 96.5 47.9 A 0.963 0.963 0 0 1 96.725 47.819 A 0.817 0.817 0 0 1 96.9 47.8 A 1.034 1.034 0 0 0 97.049 47.788 Q 97.203 47.766 97.4 47.7 A 2.868 2.868 0 0 1 97.517 47.402 Q 97.657 47.099 97.836 46.948 A 0.717 0.717 0 0 1 97.9 46.9 A 2.091 2.091 0 0 0 99.514 45.997 A 3.042 3.042 0 0 0 99.8 45.5 Q 99.9 45.5 100.25 45.25 Q 100.528 45.052 100.648 45.011 A 0.168 0.168 0 0 1 100.7 45 Q 100.604 45.096 100.966 45.191 A 2.591 2.591 0 0 0 101 45.2 A 1.758 1.758 0 0 0 101.077 45.119 Q 101.185 44.996 101.198 44.92 A 0.117 0.117 0 0 0 101.2 44.9 A 2.681 2.681 0 0 1 101.525 44.732 Q 101.696 44.659 101.855 44.626 A 1.212 1.212 0 0 1 102.1 44.6 L 102.6 44 A 0.202 0.202 0 0 1 102.602 44 Q 102.7 44.001 102.75 44.1 A 0.216 0.216 0 0 0 102.785 44.152 A 0.151 0.151 0 0 0 102.9 44.2 A 0.569 0.569 0 0 0 103.013 44.186 Q 103.229 44.141 103.65 43.95 A 6.941 6.941 0 0 1 103.874 43.853 Q 104.187 43.724 104.347 43.704 A 0.435 0.435 0 0 1 104.4 43.7 L 104.5 43.7 A 0.218 0.218 0 0 0 104.485 43.716 Q 104.423 43.793 104.57 43.799 A 0.666 0.666 0 0 0 104.6 43.8 A 0.18 0.18 0 0 0 104.667 43.785 Q 104.725 43.762 104.795 43.701 A 1.049 1.049 0 0 0 104.85 43.65 Q 105 43.5 105.1 43.5 A 0.58 0.58 0 0 1 105.338 43.553 Q 105.414 43.587 105.49 43.642 A 1.026 1.026 0 0 1 105.5 43.65 A 1.652 1.652 0 0 0 105.583 43.708 Q 105.713 43.794 105.79 43.8 A 0.144 0.144 0 0 0 105.8 43.8 A 0.155 0.155 0 0 0 105.885 43.777 Q 105.924 43.752 105.95 43.7 A 0.151 0.151 0 0 1 106.022 43.632 Q 106.078 43.604 106.17 43.601 A 0.733 0.733 0 0 1 106.2 43.6 A 0.267 0.267 0 0 0 106.175 43.601 Q 106.036 43.614 106.5 43.8 Q 106.589 43.442 106.918 43.405 A 0.712 0.712 0 0 1 107 43.4 Q 107.2 43.4 107.25 43.55 Q 107.297 43.691 107.477 43.699 A 0.499 0.499 0 0 0 107.5 43.7 A 0.144 0.144 0 0 0 107.54 43.695 Q 107.584 43.682 107.596 43.637 A 0.147 0.147 0 0 0 107.6 43.6 L 107.8 43.6 A 0.215 0.215 0 0 1 107.906 43.638 Q 108.114 43.764 108.533 44.311 A 11.582 11.582 0 0 1 108.6 44.4 L 108.8 44.2 A 6.257 6.257 0 0 1 109.078 44.409 Q 109.473 44.726 109.578 44.947 A 0.463 0.463 0 0 1 109.6 45 L 109.6 46 L 109.4 45.8 A 3.779 3.779 0 0 1 108.219 46 A 3.602 3.602 0 0 1 108.2 46 A 0.155 0.155 0 0 1 108.115 45.977 Q 108.076 45.952 108.05 45.9 A 0.151 0.151 0 0 0 107.978 45.832 Q 107.922 45.804 107.83 45.801 A 0.733 0.733 0 0 0 107.8 45.8 Q 107.7 45.8 107.55 45.9 A 0.931 0.931 0 0 1 107.471 45.948 Q 107.389 45.991 107.325 45.999 A 0.22 0.22 0 0 1 107.3 46 A 0.676 0.676 0 0 1 107.104 45.973 A 0.576 0.576 0 0 1 106.95 45.9 A 0.931 0.931 0 0 0 106.871 45.852 Q 106.789 45.809 106.725 45.801 A 0.22 0.22 0 0 0 106.7 45.8 A 0.144 0.144 0 0 0 106.66 45.805 Q 106.616 45.818 106.604 45.863 A 0.147 0.147 0 0 0 106.6 45.9 Q 106.6 45.989 106.442 45.999 A 0.673 0.673 0 0 1 106.4 46 L 106.3 46 A 0.218 0.218 0 0 0 106.315 45.984 Q 106.377 45.907 106.23 45.901 A 0.666 0.666 0 0 0 106.2 45.9 A 0.246 0.246 0 0 0 106.138 45.915 Q 105.934 45.981 105.159 46.348 A 58.396 58.396 0 0 0 105.05 46.4 A 52.604 52.604 0 0 1 104.802 46.517 Q 104.005 46.892 103.904 46.9 A 0.051 0.051 0 0 1 103.9 46.9 A 0.111 0.111 0 0 1 103.845 46.882 Q 103.751 46.826 103.6 46.6 L 101.6 47.5 L 100.9 47.3 Q 100.806 47.3 100.446 47.654 A 8.36 8.36 0 0 0 100.4 47.7 A 3.516 3.516 0 0 1 100.237 47.853 Q 99.991 48.07 99.84 48.096 A 0.233 0.233 0 0 1 99.8 48.1 A 0.144 0.144 0 0 1 99.76 48.095 Q 99.716 48.082 99.704 48.037 A 0.147 0.147 0 0 1 99.7 48 L 99.6 48 A 0.752 0.752 0 0 0 99.189 48.127 Q 99.014 48.239 98.85 48.45 Q 98.519 48.875 97.876 49.077 A 3.057 3.057 0 0 1 97.8 49.1 Q 97.7 49.2 97.8 49.5 A 3.852 3.852 0 0 1 97.467 50.096 Q 97.056 50.691 96.5 50.9 Q 96.419 50.981 96.404 51.194 A 1.484 1.484 0 0 0 96.4 51.3 L 95.7 51.3 A 0.189 0.189 0 0 0 95.661 51.368 Q 95.6 51.531 95.6 52 L 95.45 52 A 0.557 0.557 0 0 1 95.325 51.985 Q 95.267 51.971 95.203 51.946 A 1.268 1.268 0 0 1 95.1 51.9 A 1.336 1.336 0 0 0 94.971 52.181 Q 94.863 52.519 94.983 52.856 A 1.222 1.222 0 0 0 95 52.9 L 94 52.9 A 22.2 22.2 0 0 1 93.836 53.221 Q 93.762 53.364 93.678 53.521 A 42.842 42.842 0 0 1 93.5 53.85 A 8.068 8.068 0 0 0 93.256 54.338 Q 93.134 54.604 93.011 54.912 A 15.396 15.396 0 0 0 92.9 55.2 A 2.762 2.762 0 0 1 92.823 55.402 Q 92.728 55.625 92.572 55.91 A 8.876 8.876 0 0 1 92.55 55.95 Q 92.3 56.399 92.101 56.998 A 4.823 4.823 0 0 0 92.1 57 Q 91.5 57.7 91.1 58.7 L 91.1 59.6 A 0.364 0.364 0 0 1 91.095 59.653 Q 91.081 59.747 91.025 59.924 A 5.488 5.488 0 0 1 91 60 A 2.608 2.608 0 0 0 90.947 60.178 Q 90.9 60.363 90.9 60.5 A 2.254 2.254 0 0 0 91.205 60.758 Q 91.387 60.885 91.569 60.945 A 1.048 1.048 0 0 0 91.9 61 Q 92.2 61 92.65 60.85 A 0.907 0.907 0 0 0 92.953 60.67 Q 93.185 60.47 93.402 60.085 A 4.25 4.25 0 0 0 93.5 59.9 L 93.8 60.1 Q 94.381 59.882 95.068 59.4 A 10.601 10.601 0 0 0 95.6 59 A 0.321 0.321 0 0 1 95.666 58.952 Q 95.784 58.883 96.041 58.815 A 4.305 4.305 0 0 1 96.1 58.8 Q 96.458 58.711 96.495 58.382 A 0.712 0.712 0 0 0 96.5 58.3 Q 96.583 58.3 96.666 58.369 A 0.497 0.497 0 0 1 96.7 58.4 L 97.1 57.7 A 1.947 1.947 0 0 0 97.607 57.541 Q 98.226 57.238 98.3 56.5 Q 98.434 56.5 98.523 56.545 A 0.296 0.296 0 0 1 98.6 56.6 L 99.3 56 A 0.851 0.851 0 0 1 99.359 55.694 A 1.045 1.045 0 0 1 99.4 55.6 A 0.426 0.426 0 0 0 99.553 55.571 A 0.523 0.523 0 0 0 99.6 55.55 L 99.9 55.4 L 100.5 54.3 Q 100.788 54.012 101.444 53.908 A 3.804 3.804 0 0 1 101.5 53.9 A 2.529 2.529 0 0 0 101.971 53.491 A 2.9 2.9 0 0 0 102.05 53.4 Q 102.241 53.17 102.404 52.999 A 5.149 5.149 0 0 1 102.5 52.9 L 102.3 52.5 Q 102.2 52.3 102 52.1 A 0.477 0.477 0 0 1 101.961 52.03 Q 101.851 51.783 102.182 51.609 A 1.076 1.076 0 0 1 102.2 51.6 Q 102 51.7 102 51.4 L 102 50.8 Q 102.3 50.6 102.75 50.4 A 3.545 3.545 0 0 0 103.153 50.187 Q 103.352 50.065 103.56 49.909 A 6.216 6.216 0 0 0 103.7 49.8 A 7.069 7.069 0 0 1 103.839 49.732 Q 104.119 49.6 104.2 49.6 A 0.652 0.652 0 0 0 104.159 49.601 Q 103.941 49.615 104.386 49.795 A 5.048 5.048 0 0 0 104.4 49.8 A 12.381 12.381 0 0 1 104.621 49.284 Q 104.74 49.022 104.881 48.738 A 19.92 19.92 0 0 1 104.9 48.7 A 12.077 12.077 0 0 0 105.181 48.094 Q 105.321 47.771 105.46 47.405 A 20.339 20.339 0 0 0 105.5 47.3 L 106.3 46.9 L 106.5 47.5 Q 105.91 48.311 105.755 48.85 A 1.277 1.277 0 0 0 105.7 49.2 A 0.248 0.248 0 0 0 105.777 49.366 Q 105.977 49.583 106.7 49.8 L 106.7 49.85 A 0.078 0.078 0 0 1 106.693 49.88 Q 106.676 49.922 106.614 49.986 A 1.045 1.045 0 0 1 106.6 50 A 4.737 4.737 0 0 1 106.921 50.263 Q 107.074 50.4 107.196 50.537 A 2.752 2.752 0 0 1 107.25 50.6 A 4.828 4.828 0 0 1 107.388 50.774 Q 107.53 50.961 107.6 51.1 Q 107.072 51.854 106.942 52.551 A 2.448 2.448 0 0 0 106.9 53 L 107.1 53.2 A 0.183 0.183 0 0 0 107.062 53.269 Q 107 53.448 107 54 Q 107.1 54.6 107.25 55.25 Q 107.4 55.9 107.6 56.7 L 108.3 57.7 L 108.3 58 Q 108.3 59.4 109.3 60.4 L 109.6 60.2 L 109.6 60.5 A 2.295 2.295 0 0 1 110.062 60.719 Q 110.274 60.848 110.497 61.032 A 5.716 5.716 0 0 1 110.9 61.4 L 112 61.4 Q 112.271 61.762 112.543 61.796 A 0.453 0.453 0 0 0 112.6 61.8 A 4.805 4.805 0 0 0 113.134 61.773 Q 113.669 61.713 113.936 61.518 A 0.609 0.609 0 0 0 114.2 61 L 114.4 61.2 A 3.065 3.065 0 0 0 114.976 60.839 Q 116.016 60.044 117.7 57.9 Q 119.2 56.1 119.4 56.2 L 119.8 56.3 L 119.8 56.7 L 119.9 56.8 L 119.1 57.9 Q 119.1 58.287 118.351 58.862 A 6.023 6.023 0 0 1 118.3 58.9 Q 118.5 59 118.3 59.2 L 117.7 59.6 L 117.9 59.9 A 5.924 5.924 0 0 0 117.18 60.165 Q 116.812 60.33 116.521 60.532 A 3.17 3.17 0 0 0 116.3 60.7 A 4.433 4.433 0 0 0 116.125 60.853 Q 115.786 61.168 115.786 61.337 A 0.139 0.139 0 0 0 115.8 61.4 A 0.246 0.246 0 0 0 115.69 61.433 Q 115.533 61.514 115.274 61.799 A 6.233 6.233 0 0 0 115.1 62 A 0.576 0.576 0 0 0 114.942 62.02 Q 114.764 62.071 114.717 62.252 A 0.589 0.589 0 0 0 114.7 62.4 L 114.5 62.2 L 114.2 62.4 L 114.05 62.5 A 1.531 1.531 0 0 0 113.941 62.581 Q 113.831 62.669 113.7 62.8 L 113.4 62.8 A 0.851 0.851 0 0 0 113.094 62.859 A 1.045 1.045 0 0 0 113 62.9 L 112.8 63.2 L 112.3 63.2 A 0.451 0.451 0 0 0 112.239 63.148 Q 112.17 63.1 112.1 63.1 Q 111.339 63.1 110.865 63.457 A 1.548 1.548 0 0 0 110.7 63.6 L 110.7 63.2 L 109.4 63.2 L 109.4 62.8 A 1.758 1.758 0 0 1 109.319 62.877 Q 109.196 62.985 109.12 62.998 A 0.117 0.117 0 0 1 109.1 63 A 0.334 0.334 0 0 1 108.976 62.972 Q 108.802 62.902 108.55 62.65 A 1.114 1.114 0 0 0 108.361 62.496 Q 108.094 62.326 107.8 62.4 A 19.933 19.933 0 0 0 107.116 61.38 A 24.067 24.067 0 0 0 106.65 60.75 A 6.419 6.419 0 0 0 106.467 60.521 Q 105.97 59.93 105.8 60.1 Q 105.8 60 105.9 59.9 Q 105.6 59.6 105.5 59 Q 104.8 58.2 102.8 54.1 A 11.953 11.953 0 0 0 102.53 54.379 Q 102.213 54.719 101.8 55.2 Q 101.2 55.9 100.4 56.7 Q 100.3 56.9 100.2 57.15 Q 100.133 57.318 100.066 57.554 A 7.811 7.811 0 0 0 100 57.8 L 99.3 58.2 A 1.906 1.906 0 0 1 99.289 58.398 Q 99.277 58.517 99.25 58.65 Q 99.2 58.9 99.1 59.3 Q 99.006 59.3 98.603 59.654 A 10.077 10.077 0 0 0 98.55 59.7 A 2.177 2.177 0 0 1 98.287 59.902 Q 98.14 59.997 97.999 60.047 A 0.903 0.903 0 0 1 97.7 60.1 Q 97.6 60.1 97.4 59.9 A 5.976 5.976 0 0 0 97.265 60.04 Q 97.106 60.209 96.9 60.45 A 24.162 24.162 0 0 0 96.661 60.734 Q 96.555 60.861 96.44 61.002 A 45.878 45.878 0 0 0 96.2 61.3 Q 96.285 61.385 96.658 61.398 A 4.146 4.146 0 0 0 96.8 61.4 L 96.8 61.8 A 0.126 0.126 0 0 1 96.779 61.855 Q 96.704 61.985 96.359 62.339 A 16.608 16.608 0 0 1 96.2 62.5 L 96.4 62.7 Q 96.119 62.887 95.226 63.775 A 52.601 52.601 0 0 0 95.1 63.9 L 94.75 63.9 Q 94.5 63.9 94.2 64 Q 92.9 64.5 93.4 64.5 A 2.204 2.204 0 0 1 93.14 64.483 Q 93.013 64.468 92.873 64.44 A 4.231 4.231 0 0 1 92.7 64.4 L 92.1 64.4 Q 91.9 64.4 91.9 64.6 A 1.575 1.575 0 0 1 91.833 64.528 Q 91.753 64.438 91.65 64.3 Q 91.5 64.1 91.4 64.1 Z" id="1" vector-effect="non-scaling-stroke"/>
		<path d="M 120 65.1 L 120 64.8 A 3.964 3.964 0 0 1 119.854 64.565 Q 119.786 64.445 119.736 64.335 A 2.11 2.11 0 0 1 119.7 64.25 L 119.6 64 Q 119.687 63.826 119.774 63.276 A 12.271 12.271 0 0 0 119.8 63.1 Q 120.077 62.823 120.184 61.778 A 9.723 9.723 0 0 0 120.2 61.6 L 120.7 61.1 L 121.2 59 Q 121.5 58.7 121.6 58.1 L 121.6 57.6 A 11.96 11.96 0 0 0 122.092 56.246 Q 122.466 54.963 122.4 53.9 Q 122.8 53.5 122.8 52.8 Q 122.8 52.3 122.65 52.1 A 2.776 2.776 0 0 1 122.471 51.831 A 2.352 2.352 0 0 1 122.4 51.7 Q 122.3 51.2 122.4 50.8 L 122.4 50.75 A 0.078 0.078 0 0 1 122.407 50.72 Q 122.424 50.678 122.486 50.614 A 1.045 1.045 0 0 1 122.5 50.6 L 122.45 50.2 L 122.3 49 Q 122.223 48.847 122.147 48.635 A 5.681 5.681 0 0 1 122.1 48.5 Q 122.017 48.251 121.934 47.794 A 13.23 13.23 0 0 1 121.9 47.6 L 121.7 47.2 Q 121.623 47.047 121.547 46.835 A 5.681 5.681 0 0 1 121.5 46.7 Q 120.8 46.6 120.8 46.5 L 120.5 46.6 A 5.439 5.439 0 0 1 120.414 46.317 Q 120.376 46.179 120.351 46.054 A 3.875 3.875 0 0 1 120.35 46.05 A 2.842 2.842 0 0 1 120.316 45.841 Q 120.3 45.713 120.3 45.6 L 120.9 45.35 Q 121.362 45.158 121.646 45.113 A 1.009 1.009 0 0 1 121.8 45.1 Q 121.892 45.1 122.113 45.228 A 3.044 3.044 0 0 1 122.15 45.25 Q 122.376 45.386 122.479 45.399 A 0.165 0.165 0 0 0 122.5 45.4 L 122.7 45.4 Q 122.7 45.311 122.858 45.301 A 0.673 0.673 0 0 1 122.9 45.3 A 0.11 0.11 0 0 0 122.866 45.304 Q 122.691 45.363 123.9 46.2 Q 124.011 46.532 124.183 46.711 A 0.656 0.656 0 0 0 124.5 46.9 Q 124.5 47 124.3 47.2 L 125.1 49.4 Q 125.2 49.8 125.25 50.45 A 13.629 13.629 0 0 1 125.276 50.9 Q 125.298 51.408 125.3 52.1 A 46.973 46.973 0 0 1 125.3 52.2 L 125.3 54.9 Q 125.718 55.318 125.856 55.387 A 0.106 0.106 0 0 0 125.9 55.4 A 0.388 0.388 0 0 0 126.238 55.205 Q 126.341 55.049 126.39 54.766 A 2.362 2.362 0 0 0 126.4 54.7 A 5.94 5.94 0 0 0 126.509 54.644 Q 126.632 54.579 126.794 54.488 A 22.29 22.29 0 0 0 126.95 54.4 Q 127.3 54.2 127.7 54 A 0.82 0.82 0 0 1 127.78 53.837 Q 127.933 53.587 128.329 53.174 A 12.028 12.028 0 0 1 128.5 53 Q 128.6 52.7 128.4 52.5 L 129.1 51.8 Q 129.1 51.3 129.4 50.9 A 1.778 1.778 0 0 0 129.579 50.761 Q 129.765 50.598 130.007 50.325 A 10.013 10.013 0 0 0 130.2 50.1 A 13.293 13.293 0 0 1 130.319 49.959 Q 130.713 49.5 130.8 49.5 A 0.451 0.451 0 0 0 130.861 49.552 Q 130.93 49.6 131 49.6 A 0.222 0.222 0 0 0 131.045 49.527 Q 131.1 49.395 131.1 49.1 Q 131.234 49.1 131.323 49.145 A 0.296 0.296 0 0 1 131.4 49.2 L 131.9 48.6 L 131.9 48 A 9.414 9.414 0 0 0 132.24 47.752 Q 132.718 47.384 132.85 47.154 A 0.319 0.319 0 0 0 132.9 47 L 134.1 46.4 Q 134.186 46.314 134.601 45.936 A 137.024 137.024 0 0 1 134.75 45.8 Q 135.3 45.3 136.3 44.2 L 136.9 43.9 L 139.7 41.8 A 1.286 1.286 0 0 0 140.357 41.615 A 1.836 1.836 0 0 0 140.65 41.4 A 4.256 4.256 0 0 1 140.829 41.249 Q 141.093 41.039 141.247 41.006 A 0.255 0.255 0 0 1 141.3 41 L 141.7 41.2 L 141.7 41 L 142.1 41 Q 142.015 41.254 142.361 41.58 A 2.273 2.273 0 0 0 142.5 41.7 A 2.122 2.122 0 0 1 142.789 41.988 Q 143.065 42.315 143.368 42.859 A 11.296 11.296 0 0 1 143.6 43.3 Q 143.9 43.8 143.5 44.2 A 0.128 0.128 0 0 0 143.472 44.248 Q 143.417 44.401 143.5 44.9 A 11.786 11.786 0 0 1 143.602 45.145 Q 143.754 45.524 143.789 45.707 A 0.507 0.507 0 0 1 143.8 45.8 L 143.5 46.9 L 143.6 47.4 L 143.4 47.9 Q 143.207 48.381 142.83 49.419 A 153.937 153.937 0 0 0 142.8 49.5 L 142.3 50.5 L 142.3 50.9 L 142.5 51.1 L 144.1 49.5 A 1.128 1.128 0 0 0 144.364 49.465 Q 144.708 49.381 145.2 49.1 Q 145.3 48.9 145.4 48.65 Q 145.5 48.4 145.5 48.3 Q 146.3 48.7 146.6 48.7 L 146.9 48.7 Q 146.983 48.617 147.134 48.603 A 0.703 0.703 0 0 1 147.2 48.6 A 0.846 0.846 0 0 1 147.655 48.744 Q 147.944 48.927 148.234 49.343 A 4.526 4.526 0 0 1 148.4 49.6 Q 148.6 50 149.3 50.8 L 149 51.4 Q 149 51.787 149.561 52.08 A 2.424 2.424 0 0 0 149.6 52.1 L 149.6 52.7 L 149.6 53.3 A 1.887 1.887 0 0 1 149.501 53.898 A 2.009 2.009 0 0 1 149.5 53.9 L 150.2 55.1 A 0.851 0.851 0 0 1 150.141 55.406 A 1.045 1.045 0 0 1 150.1 55.5 Q 150.1 56.2 150.999 57.599 A 3.646 3.646 0 0 0 151 57.6 L 151 57.8 A 1.359 1.359 0 0 0 151.431 58.786 Q 151.777 59.133 152.4 59.4 L 153.1 60.3 A 0.182 0.182 0 0 0 153.159 60.284 Q 153.3 60.228 153.705 59.974 A 20.779 20.779 0 0 0 153.9 59.85 A 21.513 21.513 0 0 1 154.066 59.745 Q 154.497 59.472 154.643 59.415 A 0.178 0.178 0 0 1 154.7 59.4 L 155 59.6 Q 155.085 59.43 156.257 58.68 A 49.544 49.544 0 0 1 156.7 58.4 Q 156.783 58.317 156.934 58.303 A 0.703 0.703 0 0 1 157 58.3 A 0.851 0.851 0 0 0 157.306 58.241 A 1.045 1.045 0 0 0 157.4 58.2 A 0.602 0.602 0 0 0 157.276 58.382 A 0.739 0.739 0 0 0 157.25 58.45 Q 157.212 58.563 157.089 58.761 A 5.006 5.006 0 0 1 157 58.9 Q 156.6 59.1 155.95 59.45 Q 155.3 59.8 154.5 60.2 Q 154.041 60.659 153.23 61.353 A 53.773 53.773 0 0 1 152.7 61.8 A 3.648 3.648 0 0 1 151.613 62.438 Q 150.855 62.714 150 62.6 Q 149.8 62.4 149.55 62.25 A 1.759 1.759 0 0 0 149.322 62.136 Q 149.207 62.088 149.071 62.047 A 3.59 3.59 0 0 0 148.9 62 L 148.6 61.6 A 1.898 1.898 0 0 1 147.926 61.154 Q 147.704 60.931 147.507 60.62 A 4.615 4.615 0 0 1 147.25 60.15 A 127.562 127.562 0 0 1 146.202 57.904 A 56.092 56.092 0 0 1 146.2 57.9 L 145.7 55.8 L 145.7 55.3 A 0.251 0.251 0 0 0 145.692 55.244 Q 145.672 55.157 145.598 54.998 A 4.126 4.126 0 0 0 145.55 54.9 Q 145.4 54.6 145.1 52.9 A 3.848 3.848 0 0 0 144.933 52.535 Q 144.74 52.168 144.525 52.013 A 0.549 0.549 0 0 0 144.2 51.9 Q 144.1 51.8 143.9 52 A 1.758 1.758 0 0 1 143.819 52.077 Q 143.696 52.185 143.62 52.198 A 0.117 0.117 0 0 1 143.6 52.2 L 143.4 52 A 0.253 0.253 0 0 0 143.38 51.891 Q 143.143 51.402 140.06 54.931 A 89.101 89.101 0 0 0 140 55 A 1.682 1.682 0 0 1 139.864 55.12 Q 139.659 55.284 139.3 55.5 A 12.747 12.747 0 0 0 138.899 55.752 Q 138.719 55.869 138.519 56.006 A 27.202 27.202 0 0 0 138.1 56.3 L 138.1 56.6 A 1.724 1.724 0 0 1 137.56 57.852 Q 137.327 58.086 136.994 58.289 A 4.175 4.175 0 0 1 136.8 58.4 L 136.3 58 A 2.703 2.703 0 0 1 136.306 57.828 Q 136.319 57.633 136.357 57.349 A 15.354 15.354 0 0 1 136.4 57.05 A 15.3 15.3 0 0 0 136.444 56.747 Q 136.5 56.325 136.5 56.1 L 136.7 56.1 A 0.144 0.144 0 0 0 136.705 56.14 Q 136.718 56.184 136.763 56.196 A 0.147 0.147 0 0 0 136.8 56.2 L 137.1 54.5 Q 137.9 54 137.7 52.9 A 2.554 2.554 0 0 0 138.02 52.514 A 1.938 1.938 0 0 0 138.25 52.05 L 138.7 50.7 A 0.426 0.426 0 0 0 138.671 50.547 A 0.523 0.523 0 0 0 138.65 50.5 A 0.482 0.482 0 0 1 138.61 50.388 A 0.408 0.408 0 0 1 138.6 50.3 Q 138.6 49.7 138.8 48.95 A 16.027 16.027 0 0 1 139.156 47.797 A 18.513 18.513 0 0 1 139.3 47.4 L 139.3 46 L 138.9 45.7 L 138.9 45 L 138.6 44.8 Q 138.294 45.03 137.87 45.289 A 15.132 15.132 0 0 1 137.6 45.45 Q 137 45.8 136.1 46.2 Q 135.7 46.5 135.8 46.5 L 135.7 46.5 A 0.144 0.144 0 0 0 135.695 46.46 Q 135.682 46.416 135.637 46.404 A 0.147 0.147 0 0 0 135.6 46.4 A 0.207 0.207 0 0 0 135.493 46.453 Q 135.249 46.639 134.611 47.482 A 34.408 34.408 0 0 0 134.3 47.9 L 133.25 48.95 A 14.728 14.728 0 0 0 132.741 49.487 Q 132.3 49.975 131.8 50.6 L 131.3 50.9 L 128.7 53.9 Q 128.546 54.207 128.511 54.397 A 0.564 0.564 0 0 0 128.5 54.5 A 1.997 1.997 0 0 1 128.365 54.624 Q 128.226 54.74 128.112 54.779 A 0.341 0.341 0 0 1 128 54.8 L 127.3 55.9 L 127 56.2 Q 126.915 56.285 126.902 56.658 A 4.146 4.146 0 0 0 126.9 56.8 Q 126.133 57.28 125.457 58.588 A 9.672 9.672 0 0 0 125.4 58.7 A 5.962 5.962 0 0 1 125.387 59.114 Q 125.363 59.447 125.3 59.7 Q 124.925 60.356 124.726 61.276 A 7.97 7.97 0 0 0 124.7 61.4 Q 124.5 62.4 124.3 63.7 A 4.997 4.997 0 0 0 123.905 64.071 Q 123.514 64.477 123.053 65.093 A 18.137 18.137 0 0 0 122.9 65.3 A 1.893 1.893 0 0 0 122.494 65.529 Q 122.313 65.66 122.132 65.843 A 4.151 4.151 0 0 0 121.9 66.1 A 1.215 1.215 0 0 1 121.771 66.156 Q 121.707 66.179 121.648 66.19 A 0.532 0.532 0 0 1 121.55 66.2 L 121.4 66.2 A 0.251 0.251 0 0 1 121.344 66.192 Q 121.257 66.172 121.098 66.098 A 4.126 4.126 0 0 1 121 66.05 Q 120.739 65.92 120.177 65.299 A 15.416 15.416 0 0 1 120 65.1 Z" id="2" vector-effect="non-scaling-stroke"/>
		<path d="M 165.5 61.3 Q 165.4 61.2 165.5 61.2 L 165.5 61.3 L 165.5 61.6 Q 165.363 61.6 165.178 61.647 A 2.608 2.608 0 0 0 165 61.7 A 5.488 5.488 0 0 1 164.924 61.725 Q 164.747 61.781 164.653 61.795 A 0.364 0.364 0 0 1 164.6 61.8 A 0.147 0.147 0 0 1 164.563 61.796 Q 164.518 61.784 164.505 61.74 A 0.144 0.144 0 0 1 164.5 61.7 A 0.147 0.147 0 0 0 164.496 61.663 Q 164.484 61.618 164.44 61.605 A 0.144 0.144 0 0 0 164.4 61.6 A 0.07 0.07 0 0 0 164.384 61.602 Q 164.294 61.624 164.039 61.865 A 6.999 6.999 0 0 0 163.9 62 A 8.36 8.36 0 0 1 163.854 62.046 Q 163.494 62.4 163.4 62.4 L 163.3 62.4 A 0.147 0.147 0 0 0 163.296 62.363 Q 163.284 62.318 163.24 62.305 A 0.144 0.144 0 0 0 163.2 62.3 L 163.05 62.45 A 0.359 0.359 0 0 1 162.983 62.502 Q 162.823 62.6 162.5 62.6 L 162.1 62.6 A 12.334 12.334 0 0 0 161.709 62.369 Q 160.676 61.785 160 61.7 Q 160 61.231 160.061 61.068 A 0.189 0.189 0 0 1 160.1 61 Q 159.534 60.151 159.502 60.192 A 0.013 0.013 0 0 0 159.5 60.2 Q 159.5 60.113 159.73 59.642 A 17.012 17.012 0 0 1 159.8 59.5 A 0.298 0.298 0 0 0 159.81 59.458 Q 159.856 59.203 159.562 58.608 A 7.259 7.259 0 0 0 159.4 58.3 L 159.4 57.6 A 0.107 0.107 0 0 1 159.402 57.581 Q 159.414 57.513 159.523 57.542 A 0.443 0.443 0 0 1 159.55 57.55 Q 159.669 57.59 159.882 57.535 A 1.739 1.739 0 0 0 160 57.5 Q 160.613 56.657 160.756 56.225 A 0.735 0.735 0 0 0 160.8 56 L 161.8 54.7 L 162 54.9 L 162.2 54.9 Q 162.4 54.7 162.5 54.45 Q 162.57 54.276 162.639 54.175 A 0.529 0.529 0 0 1 162.7 54.1 A 1.228 1.228 0 0 0 162.891 54 Q 163.405 53.678 164.4 52.6 A 15.611 15.611 0 0 0 164.566 52.389 Q 165.6 51.05 165.6 50.4 L 165.3 50 A 1.636 1.636 0 0 0 165.436 49.846 A 1.191 1.191 0 0 0 165.7 49.1 A 0.282 0.282 0 0 0 165.695 49.048 Q 165.677 48.954 165.6 48.8 Q 165.5 48.6 165.5 48.5 A 2.544 2.544 0 0 1 165.446 48.542 Q 165.258 48.684 165.07 48.77 A 1.364 1.364 0 0 1 164.5 48.9 A 0.07 0.07 0 0 1 164.484 48.898 Q 164.394 48.876 164.139 48.635 A 6.999 6.999 0 0 1 164 48.5 A 0.22 0.22 0 0 0 163.975 48.501 Q 163.911 48.509 163.829 48.552 A 0.931 0.931 0 0 0 163.75 48.6 A 0.576 0.576 0 0 1 163.596 48.673 A 0.676 0.676 0 0 1 163.4 48.7 A 0.221 0.221 0 0 1 163.358 48.695 Q 163.247 48.673 163 48.55 A 4.126 4.126 0 0 0 162.902 48.502 Q 162.743 48.428 162.656 48.408 A 0.251 0.251 0 0 0 162.6 48.4 L 162.55 48.4 A 0.054 0.054 0 0 0 162.548 48.4 Q 162.507 48.401 162.37 48.466 A 3.534 3.534 0 0 0 162.3 48.5 A 1.19 1.19 0 0 1 162.334 48.624 Q 162.476 49.277 161.705 49.645 A 2.97 2.97 0 0 1 161.3 49.8 A 0.589 0.589 0 0 1 161.283 49.948 Q 161.236 50.129 161.058 50.18 A 0.576 0.576 0 0 1 160.9 50.2 Q 160.6 51.1 159.4 51.9 L 159.4 52.2 L 158.4 53.3 L 157.3 56.4 L 156.9 56.7 L 157.1 56.9 L 157.1 57.4 L 156.8 57.8 A 8.956 8.956 0 0 1 156.756 58.282 Q 156.67 58.984 156.491 59.248 A 0.338 0.338 0 0 1 156.3 59.4 L 156.3 60.2 A 1.484 1.484 0 0 1 156.406 60.204 Q 156.619 60.219 156.7 60.3 A 3.698 3.698 0 0 0 156.874 61.078 A 4.361 4.361 0 0 0 157.35 62.05 A 12.294 12.294 0 0 0 157.616 62.444 Q 157.82 62.735 158.018 62.976 A 5.876 5.876 0 0 0 158.4 63.4 L 158.7 63.2 Q 158.9 63.4 159 63.4 Q 159 63.33 159.048 63.261 A 0.451 0.451 0 0 1 159.1 63.2 L 159.4 63.8 L 160 63.8 Q 160 63.73 160.048 63.661 A 0.451 0.451 0 0 1 160.1 63.6 Q 160.209 63.873 160.349 63.997 A 0.371 0.371 0 0 0 160.6 64.1 L 161.1 63.8 A 0.865 0.865 0 0 1 161.114 63.8 Q 161.317 63.803 161.8 63.9 Q 162.206 63.981 162.348 63.996 A 0.514 0.514 0 0 0 162.4 64 A 0.606 0.606 0 0 1 162.392 64 Q 162.053 63.995 162.794 63.605 A 11.093 11.093 0 0 1 163 63.5 A 4.494 4.494 0 0 0 163.178 63.452 Q 163.346 63.402 163.453 63.353 A 0.725 0.725 0 0 0 163.55 63.3 Q 163.7 63.2 163.8 63.2 A 0.673 0.673 0 0 1 163.842 63.201 Q 164 63.211 164 63.3 L 164.1 63.3 A 0.181 0.181 0 0 0 164.148 63.291 Q 164.283 63.25 164.696 63.032 A 19.385 19.385 0 0 0 164.85 62.95 Q 165.378 62.666 165.543 62.612 A 0.207 0.207 0 0 1 165.6 62.6 A 0.147 0.147 0 0 1 165.637 62.604 Q 165.682 62.616 165.695 62.66 A 0.144 0.144 0 0 1 165.7 62.7 L 165.8 62.7 A 0.391 0.391 0 0 0 165.904 62.682 Q 166.136 62.616 166.65 62.3 Q 167.178 61.975 167.343 61.914 A 0.185 0.185 0 0 1 167.4 61.9 Q 167.47 61.9 167.539 61.948 A 0.451 0.451 0 0 1 167.6 62 L 167.9 62 A 0.39 0.39 0 0 0 167.982 61.99 Q 168.214 61.94 168.622 61.626 A 6.788 6.788 0 0 0 168.9 61.4 L 169.5 61.4 A 99.503 99.503 0 0 1 169.694 61.234 Q 169.98 60.99 170.24 60.772 A 57.746 57.746 0 0 1 170.75 60.35 Q 171.3 59.9 171.7 59.6 A 1.045 1.045 0 0 1 171.794 59.559 A 0.851 0.851 0 0 1 172.1 59.5 L 172.4 59.5 A 8.342 8.342 0 0 1 172.513 59.39 Q 173.229 58.7 173.6 58.7 L 173.7 58.7 A 1.484 1.484 0 0 1 173.704 58.594 Q 173.719 58.381 173.8 58.3 Q 173.87 58.3 173.939 58.348 A 0.451 0.451 0 0 1 174 58.4 A 0.198 0.198 0 0 1 173.981 58.405 Q 173.744 58.459 175 57.3 A 2.967 2.967 0 0 0 175.211 57.293 Q 175.474 57.274 175.636 57.205 A 0.51 0.51 0 0 0 175.8 57.1 Q 176.709 56.191 176.709 56.108 A 0.008 0.008 0 0 0 176.7 56.1 L 176.8 56.1 A 0.242 0.242 0 0 0 176.791 56.11 Q 176.719 56.19 176.862 56.199 A 0.626 0.626 0 0 0 176.9 56.2 L 179.2 54.4 A 4.146 4.146 0 0 1 179.202 54.258 Q 179.215 53.885 179.3 53.8 L 179.8 53.8 L 179.8 53.2 L 178.4 53.9 L 178.4 54.2 Q 178.238 54.322 178.075 54.394 A 1.159 1.159 0 0 1 177.6 54.5 Q 177.6 54.7 176.6 55.1 A 91.039 91.039 0 0 0 176.097 55.491 Q 174.412 56.812 174.5 56.9 L 173.9 56.6 A 2.221 2.221 0 0 1 173.895 56.611 Q 173.809 56.779 173.706 56.912 A 1.311 1.311 0 0 1 173.4 57.2 A 4.572 4.572 0 0 0 173.358 57.228 Q 173.223 57.32 173.109 57.413 A 2.696 2.696 0 0 0 172.9 57.6 A 0.138 0.138 0 0 1 172.885 57.655 Q 172.845 57.74 172.702 57.895 A 3.984 3.984 0 0 1 172.6 58 Q 172.3 58.3 172 58.3 A 0.733 0.733 0 0 1 171.97 58.299 Q 171.878 58.296 171.822 58.268 A 0.151 0.151 0 0 1 171.75 58.2 Q 171.724 58.148 171.685 58.123 A 0.155 0.155 0 0 0 171.6 58.1 A 0.508 0.508 0 0 0 171.481 58.115 Q 171.223 58.177 170.9 58.5 L 170.7 58.3 L 170.1 58.9 Q 170.029 59.824 169.503 60.091 A 1.097 1.097 0 0 1 169 60.2 Q 168.8 60.2 168.8 60 L 168 60 A 0.364 0.364 0 0 1 167.873 60.276 Q 167.761 60.38 167.55 60.45 A 2.838 2.838 0 0 1 167.536 60.455 A 2.988 2.988 0 0 1 166.6 60.6 A 2.271 2.271 0 0 1 166.576 60.658 Q 166.464 60.916 166.323 61.057 A 0.574 0.574 0 0 1 166.1 61.2 L 166.2 61.6 A 12.544 12.544 0 0 1 166.184 61.595 Q 165.719 61.439 165.561 61.345 A 0.322 0.322 0 0 1 165.5 61.3 Z M 169.8 39.4 L 169.9 39.4 A 5.562 5.562 0 0 1 169.434 40.386 A 4.291 4.291 0 0 1 168.8 41.2 L 169 41.9 L 169 42.5 L 168.5 43.1 A 5.406 5.406 0 0 1 168.466 43.74 Q 168.388 44.386 168.136 44.7 A 0.774 0.774 0 0 1 167.5 45 A 1.665 1.665 0 0 1 166.987 44.908 Q 166.295 44.682 165.3 43.9 Q 164.1 42.7 164.1 42 Q 165.3 41.5 166.75 40.85 Q 168.2 40.2 169.8 39.4 Z M 180.3 52.7 L 181.7 51.2 A 1.201 1.201 0 0 1 181.833 51.207 Q 182.1 51.237 182.1 51.4 A 0.646 0.646 0 0 1 182.033 51.672 Q 181.93 51.893 181.669 52.151 A 3.889 3.889 0 0 1 181.45 52.35 Q 180.8 52.9 180.6 53 Q 180.52 53 180.472 52.905 A 0.411 0.411 0 0 1 180.45 52.85 A 0.403 0.403 0 0 0 180.426 52.792 Q 180.41 52.762 180.392 52.742 A 0.121 0.121 0 0 0 180.3 52.7 Z" id="3" vector-effect="non-scaling-stroke"/>
		<path d="M 180.3 63 L 180.2 63 A 0.144 0.144 0 0 1 180.195 63.04 Q 180.182 63.084 180.137 63.096 A 0.147 0.147 0 0 1 180.1 63.1 Q 178.129 62.936 177.709 60.545 A 7.963 7.963 0 0 1 177.6 59.4 A 0.902 0.902 0 0 1 177.497 59.278 Q 177.446 59.205 177.422 59.133 A 0.419 0.419 0 0 1 177.4 59 A 0.795 0.795 0 0 1 177.412 58.874 Q 177.433 58.74 177.496 58.551 A 4.376 4.376 0 0 1 177.55 58.4 A 8.495 8.495 0 0 0 177.649 58.121 Q 177.763 57.781 177.9 57.3 L 177.7 57.1 A 1.999 1.999 0 0 0 178.289 56.313 A 2.599 2.599 0 0 0 178.4 56 Q 178.4 55.8 178.2 55.6 Q 179 55.4 178.8 54.6 Q 178.885 54.515 179.258 54.502 A 4.146 4.146 0 0 1 179.4 54.5 L 179.4 54.1 A 1.034 1.034 0 0 1 179.412 53.951 Q 179.434 53.797 179.5 53.6 L 179.7 53.6 A 1.077 1.077 0 0 0 180.205 53.487 Q 180.625 53.268 180.774 52.624 A 2.62 2.62 0 0 0 180.8 52.5 Q 181.132 52.389 181.311 52.217 A 0.656 0.656 0 0 0 181.5 51.9 L 182 51.8 Q 182.193 51.221 183.132 50.081 A 20.507 20.507 0 0 1 183.2 50 L 183.7 50 A 45.909 45.909 0 0 1 183.984 49.765 Q 184.737 49.148 184.999 48.997 A 0.441 0.441 0 0 1 185.1 48.95 A 0.328 0.328 0 0 0 185.192 48.913 Q 185.284 48.856 185.298 48.741 A 0.356 0.356 0 0 0 185.3 48.7 Q 185.738 48.525 186.098 48.044 A 3.173 3.173 0 0 0 186.2 47.9 Q 186.281 47.819 186.494 47.804 A 1.484 1.484 0 0 1 186.6 47.8 L 186.6 47.5 A 0.513 0.513 0 0 1 186.387 47.375 Q 186.071 47.091 185.7 46.2 Q 185.3 45.6 184.75 44.55 A 116.477 116.477 0 0 1 184.24 43.564 Q 183.98 43.057 183.694 42.487 A 208.16 208.16 0 0 1 183.5 42.1 A 7.075 7.075 0 0 0 183.439 41.925 Q 183.326 41.615 183.1 41.05 A 29.005 29.005 0 0 0 183.037 40.895 Q 182.813 40.342 182.801 40.392 A 0.034 0.034 0 0 0 182.8 40.4 Q 182.8 40.3 182.85 40.15 Q 182.897 40.009 182.9 39.825 A 1.564 1.564 0 0 0 182.9 39.8 L 182.9 39.7 L 182.3 38.5 L 182.3 37.8 L 181.6 36.8 A 85.268 85.268 0 0 0 181.503 36.052 Q 181.452 35.669 181.391 35.24 A 151.135 151.135 0 0 0 181.35 34.95 A 20.2 20.2 0 0 0 181.134 33.721 A 25.429 25.429 0 0 0 180.9 32.7 L 181 32.5 Q 181 31.9 180.7 30.4 L 180.7 29.9 L 180.6 30 A 0.451 0.451 0 0 1 180.548 29.939 Q 180.5 29.87 180.5 29.8 L 180.7 26.4 A 0.902 0.902 0 0 0 180.803 26.278 Q 180.854 26.205 180.878 26.133 A 0.419 0.419 0 0 0 180.9 26 L 180.8 25.7 Q 180.8 25.353 181.177 24.402 A 19.001 19.001 0 0 1 181.3 24.1 L 181.2 23.8 L 181.6 23.2 A 0.675 0.675 0 0 1 181.4 22.719 A 0.886 0.886 0 0 1 181.4 22.7 L 181.4 22.6 L 181.7 22.2 L 181.7 21.9 Q 182.2 21.1 182.5 20.25 A 4.834 4.834 0 0 1 182.769 19.639 Q 183.081 19.038 183.624 18.302 A 16.214 16.214 0 0 1 183.7 18.2 Q 183.834 18.2 183.923 18.155 A 0.296 0.296 0 0 0 184 18.1 A 0.654 0.654 0 0 1 184.085 17.83 Q 184.422 17.157 186.1 15.4 L 187 14.95 A 8.36 8.36 0 0 0 187.457 14.703 Q 187.686 14.569 187.933 14.41 A 14.281 14.281 0 0 0 188.1 14.3 A 1.232 1.232 0 0 0 188.373 14.26 Q 189.001 14.11 190.5 13.4 L 190.7 13.7 A 0.75 0.75 0 0 1 190.97 13.55 Q 191.709 13.28 194.1 13.2 L 194.3 13.4 Q 196.782 13.565 197.963 14.415 A 2.835 2.835 0 0 1 198.4 14.8 L 199.1 14.8 A 2.85 2.85 0 0 0 199.448 15.143 Q 199.853 15.485 200.531 15.882 A 16.396 16.396 0 0 0 201.1 16.2 A 1.666 1.666 0 0 0 201.377 16.567 A 1.133 1.133 0 0 0 202.2 16.9 A 1.515 1.515 0 0 0 202.253 17.318 Q 202.39 17.793 202.875 17.963 A 1.427 1.427 0 0 0 203 18 L 202.9 18.2 A 0.135 0.135 0 0 0 202.926 18.259 Q 203.04 18.438 203.662 19.062 A 35.021 35.021 0 0 0 203.7 19.1 A 0.322 0.322 0 0 1 203.745 19.161 Q 203.839 19.319 203.995 19.784 A 12.544 12.544 0 0 1 204 19.8 Q 204.083 19.883 204.234 19.897 A 0.703 0.703 0 0 0 204.3 19.9 Q 204.4 20.4 205.1 21.4 A 22.813 22.813 0 0 1 205.541 22.736 A 18.842 18.842 0 0 1 205.75 23.5 Q 206 24.5 206.2 25.5 L 206.2 27.4 Q 206.2 27.565 206.302 28.002 A 13.078 13.078 0 0 0 206.35 28.2 Q 206.468 28.674 206.493 28.961 A 1.622 1.622 0 0 1 206.5 29.1 L 206.4 32.8 L 206.2 32.9 A 5.375 5.375 0 0 0 206.08 33.324 Q 205.971 33.771 205.879 34.392 A 19.737 19.737 0 0 0 205.85 34.6 Q 205.735 35.442 205.474 36.871 A 131.212 131.212 0 0 1 205.3 37.8 L 204.7 39.5 Q 204.7 40.3 204.3 41 Q 204.213 41.087 204.164 41.439 A 3.987 3.987 0 0 0 204.15 41.55 A 4.392 4.392 0 0 1 204.104 41.856 Q 204.04 42.207 203.909 42.669 A 13.871 13.871 0 0 1 203.9 42.7 A 0.645 0.645 0 0 0 203.791 42.852 Q 203.671 43.076 203.6 43.5 Q 203.5 44.1 202.9 44.4 Q 202.8 45.1 202.75 45.4 A 9.26 9.26 0 0 1 202.741 45.453 Q 202.703 45.674 202.7 45.611 A 0.269 0.269 0 0 1 202.7 45.6 L 201.9 47.4 Q 201.525 47.588 201.15 47.951 A 4.421 4.421 0 0 0 201.1 48 Q 201.1 48.683 200.61 49.453 A 5.411 5.411 0 0 1 200.25 49.95 A 59.219 59.219 0 0 1 199.207 51.204 A 49.794 49.794 0 0 1 198.6 51.9 Q 198 52.4 197.1 54.1 L 196.9 54.3 A 0.731 0.731 0 0 0 196.831 54.381 Q 196.798 54.425 196.766 54.48 A 1.826 1.826 0 0 0 196.7 54.6 L 196.9 55.3 L 196.3 55.3 L 196.2 55.4 L 196.2 55.6 A 4.155 4.155 0 0 0 196.535 55.825 Q 196.723 55.939 196.948 56.054 A 8.693 8.693 0 0 0 197.25 56.2 A 43.699 43.699 0 0 1 197.915 56.514 Q 198.264 56.683 198.649 56.874 A 71.868 71.868 0 0 1 198.7 56.9 L 198.5 57.1 Q 198.806 57.33 199.288 57.677 A 109.395 109.395 0 0 0 199.6 57.9 L 199.7 57.9 A 0.144 0.144 0 0 1 199.705 57.86 Q 199.718 57.816 199.763 57.804 A 0.147 0.147 0 0 1 199.8 57.8 A 0.101 0.101 0 0 1 199.862 57.824 Q 199.925 57.873 199.987 58.018 A 1.433 1.433 0 0 1 200 58.05 Q 200.1 58.3 200.2 58.3 A 0.144 0.144 0 0 0 200.24 58.295 Q 200.284 58.282 200.296 58.237 A 0.147 0.147 0 0 0 200.3 58.2 L 200.4 58.2 L 201 58.7 A 0.851 0.851 0 0 1 201.306 58.759 A 1.045 1.045 0 0 1 201.4 58.8 L 201.8 58.8 Q 202.08 58.8 202.011 58.625 A 0.318 0.318 0 0 0 202 58.6 A 1.537 1.537 0 0 0 202.164 58.827 Q 202.265 58.942 202.377 59.009 A 0.62 0.62 0 0 0 202.7 59.1 Q 202.783 59.017 202.934 59.003 A 0.703 0.703 0 0 1 203 59 A 0.851 0.851 0 0 0 203.306 58.941 A 1.045 1.045 0 0 0 203.4 58.9 L 204.2 59.3 A 0.539 0.539 0 0 0 204.314 59.285 Q 204.501 59.244 204.828 59.085 A 6.477 6.477 0 0 0 204.9 59.05 Q 205.377 58.811 205.49 58.801 A 0.104 0.104 0 0 1 205.5 58.8 L 205.8 59 A 0.739 0.739 0 0 0 206.063 58.955 A 0.664 0.664 0 0 0 206.3 58.8 L 206.4 58.8 Q 206.6 58.8 206.8 58.6 Q 206.713 58.687 207.155 58.698 A 5.668 5.668 0 0 0 207.3 58.7 A 1.289 1.289 0 0 0 207.908 58.535 Q 208.34 58.305 208.8 57.754 A 6.262 6.262 0 0 0 209 57.5 A 0.451 0.451 0 0 0 209.061 57.552 Q 209.13 57.6 209.2 57.6 Q 209.334 57.6 209.423 57.555 A 0.296 0.296 0 0 0 209.5 57.5 L 209.9 57.5 L 209.9 58 A 4.447 4.447 0 0 0 209.502 58.277 Q 209.108 58.588 208.946 58.899 A 1.112 1.112 0 0 0 208.9 59 L 208.5 59.1 Q 206.422 60.706 203.988 60.706 A 7.484 7.484 0 0 1 203.7 60.7 L 203.1 60.5 L 201.8 60.8 Q 201.495 60.8 200.959 60.539 A 6.823 6.823 0 0 1 200.6 60.35 Q 199.8 59.9 199.2 60 A 0.371 0.371 0 0 0 199.097 59.749 Q 198.973 59.609 198.7 59.5 Q 198.3 59.1 197.95 58.8 A 8.43 8.43 0 0 0 197.653 58.557 Q 197.503 58.44 197.364 58.343 A 4.891 4.891 0 0 0 197.3 58.3 A 0.322 0.322 0 0 0 197.239 58.255 Q 197.081 58.161 196.616 58.005 A 12.544 12.544 0 0 0 196.6 58 L 194.9 56.7 A 0.042 0.042 0 0 1 194.936 56.743 Q 194.936 57.041 192.117 59.262 A 132.396 132.396 0 0 1 191.3 59.9 A 1.404 1.404 0 0 0 190.917 60.03 Q 190.433 60.267 189.8 60.9 A 0.252 0.252 0 0 0 189.713 60.93 Q 189.338 61.108 187.618 62.35 A 145.857 145.857 0 0 0 187 62.8 Q 186.8 62.8 185.95 63 Q 185.296 63.154 184.909 63.189 A 2.31 2.31 0 0 1 184.7 63.2 L 184.5 63.2 L 184.4 63.1 Q 184.1 63.4 182.4 63.7 Q 182.145 63.7 180.802 63.193 A 56.269 56.269 0 0 1 180.3 63 Z M 195.3 54.3 L 195.3 54.7 L 196.5 53.7 L 196.5 53.25 Q 196.5 53.011 196.591 52.636 A 5.454 5.454 0 0 1 196.6 52.6 A 2.635 2.635 0 0 1 196.821 51.956 Q 197.297 50.95 198.7 49.4 Q 198.8 49.2 198.9 48.95 A 2.387 2.387 0 0 1 199.007 48.722 Q 199.087 48.569 199.2 48.4 L 199 47.2 L 200.5 45.8 Q 200.5 45.607 200.219 45.226 A 4.025 4.025 0 0 0 200.2 45.2 A 5.638 5.638 0 0 1 200.409 44.908 Q 200.541 44.736 200.7 44.55 Q 201 44.2 201.4 43.8 L 201.9 41.9 Q 201.817 41.817 201.803 41.666 A 0.703 0.703 0 0 1 201.8 41.6 A 1.034 1.034 0 0 0 201.788 41.451 Q 201.766 41.297 201.7 41.1 L 201.9 40.7 L 201.9 40.5 Q 202.149 39.835 202.399 38.616 A 31.727 31.727 0 0 0 202.5 38.1 L 202.3 37.5 Q 202.4 37.2 202.5 36.75 Q 202.6 36.3 202.7 35.8 L 202.7 33.8 A 0.812 0.812 0 0 1 202.639 33.63 Q 202.6 33.469 202.6 33.25 A 2.785 2.785 0 0 0 202.568 32.84 A 3.572 3.572 0 0 0 202.5 32.5 L 202.7 31.4 Q 202.7 31.014 202.467 30.114 A 18.36 18.36 0 0 0 202.45 30.05 Q 202.22 29.175 202.117 28.767 A 32.918 32.918 0 0 1 202.1 28.7 A 0.451 0.451 0 0 0 202.039 28.648 Q 201.97 28.6 201.9 28.6 L 201.9 28.3 L 201.9 27.9 A 1.034 1.034 0 0 0 201.888 27.751 Q 201.866 27.597 201.8 27.4 Q 201.8 27.3 202 27.1 L 202 26.8 Q 202 26 201.2 24.6 L 200.7 23.7 L 200.7 23.6 A 0.579 0.579 0 0 0 200.669 23.433 Q 200.588 23.172 200.291 22.696 A 11.404 11.404 0 0 0 200.1 22.4 A 2.748 2.748 0 0 0 199.885 21.35 A 3.66 3.66 0 0 0 199.6 20.8 A 15.679 15.679 0 0 0 199.259 19.78 Q 198.513 17.8 197.7 17.8 A 0.601 0.601 0 0 0 197.633 17.803 Q 197.566 17.811 197.533 17.835 A 0.076 0.076 0 0 0 197.5 17.9 L 197.9 19 Q 197.817 19.083 197.666 19.097 A 0.703 0.703 0 0 1 197.6 19.1 A 43.878 43.878 0 0 1 196.614 18.228 A 51.445 51.445 0 0 1 196.15 17.8 Q 195.4 17.1 194.6 16.3 L 193.3 15.6 Q 193.1 15.6 192.9 15.8 A 1.246 1.246 0 0 0 192.762 15.519 Q 192.685 15.4 192.577 15.28 A 2.381 2.381 0 0 0 192.5 15.2 L 192.5 15.3 Q 192.5 15.389 192.342 15.399 A 0.673 0.673 0 0 1 192.3 15.4 A 0.526 0.526 0 0 1 192.158 15.378 Q 192.024 15.341 191.858 15.237 A 2.165 2.165 0 0 1 191.8 15.2 Q 191.5 15 191.3 15 Q 191.3 14.904 191.023 15.085 A 2.914 2.914 0 0 0 191 15.1 L 190.6 15.1 Q 189.971 15.1 189.713 14.853 A 0.552 0.552 0 0 1 189.6 14.7 A 2.762 2.762 0 0 0 189.398 14.777 Q 189.175 14.872 188.89 15.028 A 8.876 8.876 0 0 0 188.85 15.05 Q 188.4 15.3 187.8 15.5 A 0.163 0.163 0 0 1 187.752 15.604 Q 187.603 15.774 187 16 L 184.8 18.1 A 5.401 5.401 0 0 1 184.497 18.838 Q 184.056 19.705 183.406 19.997 A 1.637 1.637 0 0 1 183.4 20 Q 183.481 20.081 183.496 20.294 A 1.484 1.484 0 0 1 183.5 20.4 A 0.494 0.494 0 0 0 183.327 20.508 Q 183.118 20.698 182.909 21.179 A 4.828 4.828 0 0 0 182.9 21.2 L 183.1 21.4 A 3.637 3.637 0 0 0 182.834 21.694 Q 182.422 22.209 182.5 22.6 A 59.964 59.964 0 0 0 182.26 23.226 Q 181.803 24.443 181.752 24.783 A 0.771 0.771 0 0 0 181.75 24.8 A 1.507 1.507 0 0 1 181.702 25.038 Q 181.635 25.265 181.5 25.4 L 181.4 28.1 Q 181.5 28.1 181.7 28.3 Q 181.603 28.59 181.6 29.346 A 12.398 12.398 0 0 0 181.6 29.4 L 181.6 30.3 L 181.6 31.3 Q 181.6 31.8 181.7 32.3 A 0.245 0.245 0 0 0 181.716 32.365 Q 181.788 32.573 182.175 33.351 A 53.984 53.984 0 0 0 182.2 33.4 A 7.428 7.428 0 0 1 182.441 33.93 Q 182.7 34.568 182.7 35 A 0.881 0.881 0 0 0 182.628 35.209 Q 182.607 35.308 182.602 35.421 A 1.684 1.684 0 0 0 182.6 35.5 A 2.427 2.427 0 0 1 182.59 35.707 Q 182.569 35.956 182.5 36.3 Q 182.7 36.7 182.8 37.15 Q 182.9 37.6 183 38.1 A 0.183 0.183 0 0 1 183.029 37.995 Q 183.077 37.923 183.207 37.906 A 0.693 0.693 0 0 1 183.3 37.9 A 0.826 0.826 0 0 1 183.667 38.049 Q 183.835 38.176 183.923 38.398 A 1.33 1.33 0 0 1 184 38.7 L 184.3 39.1 Q 184.4 40.1 185.05 40.9 Q 185.7 41.7 186.3 42.5 L 186.3 42.6 A 2.554 2.554 0 0 0 186.309 42.8 Q 186.33 43.063 186.4 43.45 Q 186.477 43.875 186.734 44.39 A 6.202 6.202 0 0 0 186.9 44.7 Q 186.983 44.617 187.134 44.603 A 0.703 0.703 0 0 1 187.2 44.6 A 0.626 0.626 0 0 1 187.238 44.601 Q 187.381 44.61 187.309 44.69 A 0.242 0.242 0 0 1 187.3 44.7 L 187.3 44.8 L 187.2 44.9 Q 187.2 45.1 187.4 45.3 L 187.3 45.5 Q 187.48 45.68 187.702 46.065 A 6.362 6.362 0 0 1 187.75 46.15 Q 188 46.6 188.3 47.1 L 188.7 47.2 L 189 47 Q 189 47.089 189.158 47.099 A 0.673 0.673 0 0 0 189.2 47.1 A 6.147 6.147 0 0 1 189.425 46.994 Q 189.8 46.825 190.4 46.6 A 4.078 4.078 0 0 1 191.07 46.417 Q 191.688 46.3 192.5 46.3 L 193.3 46.3 L 193.5 46.5 A 0.666 0.666 0 0 0 193.606 46.492 Q 193.791 46.462 193.8 46.315 A 0.253 0.253 0 0 0 193.8 46.3 L 194.4 46.3 A 0.23 0.23 0 0 1 194.519 46.338 Q 194.658 46.423 194.834 46.694 A 3.442 3.442 0 0 1 194.9 46.8 L 195 46.5 A 36.443 36.443 0 0 1 195.442 47.16 Q 196.239 48.382 196.296 48.749 A 0.338 0.338 0 0 1 196.3 48.8 L 195.7 50.4 L 195.3 50.4 A 0.803 0.803 0 0 0 195.096 50.261 Q 194.749 50.084 193.994 49.949 A 12.05 12.05 0 0 0 193.7 49.9 L 192.2 49.9 A 5.962 5.962 0 0 0 191.786 49.913 Q 191.453 49.937 191.2 50 L 191.1 49.9 L 191.1 50.5 L 191.4 50.3 Q 191.6 50.5 191.5 50.9 A 6.092 6.092 0 0 0 191.898 51.347 Q 192.113 51.567 192.372 51.796 A 11.122 11.122 0 0 0 192.55 51.95 Q 193.2 52.5 194 53.1 L 194.1 53.6 Q 194.472 54.065 195.191 54.271 A 3.368 3.368 0 0 0 195.3 54.3 Z M 192.2 57.7 L 192.5 57.9 A 1.305 1.305 0 0 1 192.692 57.547 Q 192.924 57.23 193.39 56.866 A 8.425 8.425 0 0 1 193.9 56.5 L 193.9 55.9 Q 193.207 55.467 192.739 55.334 A 1.803 1.803 0 0 0 192.6 55.3 Q 192.517 55.217 192.503 55.066 A 0.703 0.703 0 0 1 192.5 55 A 0.851 0.851 0 0 0 192.441 54.694 A 1.045 1.045 0 0 0 192.4 54.6 Q 192.2 54.5 191.9 54.3 Q 191.6 54.1 191.2 53.9 A 10.034 10.034 0 0 0 190.52 52.976 Q 189.644 51.906 188.2 50.6 A 4.826 4.826 0 0 1 188.095 50.735 Q 187.893 50.985 187.81 50.999 A 0.058 0.058 0 0 1 187.8 51 A 0.144 0.144 0 0 1 187.76 50.995 Q 187.716 50.982 187.704 50.937 A 0.147 0.147 0 0 1 187.7 50.9 L 187.6 50.9 A 0.698 0.698 0 0 0 187.451 50.918 Q 187.307 50.949 187.126 51.037 A 2.44 2.44 0 0 0 187.1 51.05 Q 186.853 51.173 186.742 51.195 A 0.221 0.221 0 0 1 186.7 51.2 A 0.532 0.532 0 0 1 186.628 51.345 Q 186.516 51.5 186.3 51.5 Q 185.6 51.7 184.6 52.4 A 5.229 5.229 0 0 1 184.422 52.569 Q 184.113 52.85 183.55 53.3 Q 182.828 53.878 181.226 55.011 A 145.632 145.632 0 0 1 181.1 55.1 L 180.8 56.1 L 180.5 56.3 Q 180.252 56.383 180.072 56.671 A 1.573 1.573 0 0 0 180 56.8 Q 179.8 57.2 179.4 57.7 L 179 57.4 L 179 57.8 Q 178.532 58.081 178.677 59.063 A 4.236 4.236 0 0 0 178.7 59.2 Q 178.7 59.334 178.655 59.423 A 0.296 0.296 0 0 1 178.6 59.5 L 179.4 61.8 L 179.8 61.8 A 1.887 1.887 0 0 1 180.398 61.899 A 2.009 2.009 0 0 1 180.4 61.9 L 181 61.9 A 2.701 2.701 0 0 0 181.407 62.231 Q 181.622 62.375 181.886 62.503 A 5.128 5.128 0 0 0 182.1 62.6 A 0.193 0.193 0 0 0 182.156 62.59 Q 182.243 62.563 182.401 62.464 A 3.801 3.801 0 0 0 182.5 62.4 Q 182.8 62.2 183 62.2 Q 183.092 62.2 183.313 62.328 A 3.044 3.044 0 0 1 183.35 62.35 Q 183.576 62.486 183.679 62.499 A 0.165 0.165 0 0 0 183.7 62.5 Q 183.861 62.258 184.348 62.016 A 4.919 4.919 0 0 1 184.6 61.9 Q 184.683 61.983 184.834 61.997 A 0.703 0.703 0 0 0 184.9 62 A 0.851 0.851 0 0 1 185.206 62.059 A 1.045 1.045 0 0 1 185.3 62.1 A 0.362 0.362 0 0 0 185.475 62.052 Q 185.534 62.02 185.594 61.965 A 1.026 1.026 0 0 0 185.7 61.85 A 2.031 2.031 0 0 1 185.777 61.759 Q 185.891 61.633 185.964 61.607 A 0.108 0.108 0 0 1 186 61.6 Q 186 61.689 186.237 61.699 A 1.514 1.514 0 0 0 186.3 61.7 A 0.36 0.36 0 0 0 186.435 61.671 Q 186.55 61.624 186.691 61.502 A 2.098 2.098 0 0 0 186.8 61.4 A 3.14 3.14 0 0 0 187.233 61.236 Q 187.69 61.028 188.294 60.628 A 15.515 15.515 0 0 0 188.7 60.35 Q 189.9 59.5 190.9 59.3 A 3 3 0 0 1 191.122 58.934 Q 191.389 58.551 191.857 58.053 A 16.145 16.145 0 0 1 192.2 57.7 Z" id="4" vector-effect="non-scaling-stroke"/>
		<path d="M 215.6 66.3 A 0.121 0.121 0 0 0 215.692 66.258 Q 215.71 66.238 215.726 66.208 A 0.403 0.403 0 0 0 215.75 66.15 A 0.411 0.411 0 0 1 215.772 66.095 Q 215.82 66 215.9 66 Q 215.97 66 216.039 66.048 A 0.451 0.451 0 0 1 216.1 66.1 Q 216.2 66.2 216.3 66.2 Q 217.3 66.2 220.5 63.9 A 0.612 0.612 0 0 0 220.566 63.848 Q 220.853 63.593 221.3 62.7 L 220.6 63.3 L 220.4 63.1 A 37.551 37.551 0 0 1 220.438 63.057 Q 221.062 62.358 221.241 62.229 A 0.127 0.127 0 0 1 221.3 62.2 A 1.663 1.663 0 0 1 221.323 62.2 Q 221.596 62.204 221.5 62.3 L 221.5 62.9 A 13.59 13.59 0 0 0 221.759 62.634 A 11.704 11.704 0 0 0 222.4 61.9 Q 222.8 61.4 223 61 A 1.758 1.758 0 0 0 223.234 60.884 Q 223.675 60.625 224.3 60 Q 224.497 59.934 224.651 59.912 A 1.034 1.034 0 0 1 224.8 59.9 Q 225.4 59.3 225.7 59.1 A 9.13 9.13 0 0 0 225.72 59.086 Q 226.003 58.897 226.1 58.8 L 227.6 57 Q 227.9 56.3 228.15 56.1 A 3.888 3.888 0 0 1 228.269 56.008 Q 228.36 55.941 228.443 55.889 A 1.858 1.858 0 0 1 228.6 55.8 A 12.632 12.632 0 0 1 228.714 55.631 Q 229.242 54.867 229.631 54.563 A 1.125 1.125 0 0 1 229.9 54.4 L 229.9 54.5 L 230 54.6 A 79.539 79.539 0 0 1 229.948 54.766 Q 229.577 55.944 229.446 56.221 A 0.322 0.322 0 0 1 229.4 56.3 L 229.2 57.8 A 1.484 1.484 0 0 0 229.204 57.906 Q 229.219 58.119 229.3 58.2 L 228.5 61.4 L 228.2 62.5 A 3.822 3.822 0 0 0 228.162 62.645 Q 228.05 63.104 227.993 63.781 A 15.849 15.849 0 0 0 227.95 64.5 A 55.216 55.216 0 0 0 227.937 64.874 Q 227.919 65.446 227.91 66.089 A 98.588 98.588 0 0 0 227.9 67.5 L 227.9 68.4 A 0.293 0.293 0 0 1 227.904 68.409 Q 228.002 68.622 228.1 69.65 Q 228.159 70.273 228.36 70.562 A 0.538 0.538 0 0 0 228.7 70.8 A 0.493 0.493 0 0 1 228.691 70.77 Q 228.626 70.522 228.736 69.982 A 6.579 6.579 0 0 1 228.8 69.7 L 228.8 68.4 L 228.7 68 Q 228.9 67.6 228.95 67.15 A 9.937 9.937 0 0 1 228.995 66.805 A 11.884 11.884 0 0 1 229.1 66.2 A 180.66 180.66 0 0 1 229.345 64.879 Q 229.465 64.245 229.58 63.665 A 104.12 104.12 0 0 1 229.85 62.35 Q 230.2 60.7 230.5 59.6 L 231 59 Q 231 58.705 230.945 58.573 A 0.222 0.222 0 0 0 230.9 58.5 Q 231.244 58.019 231.446 57.656 A 3.861 3.861 0 0 0 231.6 57.35 Q 231.756 56.998 231.851 56.86 A 0.442 0.442 0 0 1 231.9 56.8 A 21.742 21.742 0 0 1 231.904 56.785 Q 232.138 55.85 232.311 55.529 A 0.561 0.561 0 0 1 232.4 55.4 L 232.4 55.2 A 9.032 9.032 0 0 0 232.578 55.017 Q 232.872 54.706 233.046 54.455 A 2.103 2.103 0 0 0 233.2 54.2 Q 233.4 53.7 233.6 53.25 A 23.035 23.035 0 0 1 233.703 53.021 A 19.96 19.96 0 0 1 234 52.4 L 234.3 52.6 L 234.2 52.2 L 235.2 50.9 A 26.89 26.89 0 0 0 235.288 50.677 Q 235.423 50.33 235.5 50.1 A 5.681 5.681 0 0 1 235.547 49.965 Q 235.623 49.753 235.7 49.6 A 27.48 27.48 0 0 1 235.928 49.251 Q 236.47 48.435 236.801 48.084 A 1.624 1.624 0 0 1 237 47.9 Q 237.1 47.3 237.4 47 L 236.2 45.9 Q 236.7 45.4 236.7 45.1 L 237 44.95 L 237.1 44.9 A 11.798 11.798 0 0 1 237.265 44.493 Q 237.534 43.864 237.803 43.467 A 2.514 2.514 0 0 1 238.1 43.1 L 238.5 42.7 A 3.404 3.404 0 0 0 238.505 42.677 Q 238.693 41.8 238.2 41.8 A 0.419 0.419 0 0 0 238.067 41.822 Q 237.995 41.846 237.922 41.897 A 0.902 0.902 0 0 0 237.8 42 Q 237.6 42.3 237.2 42.5 L 236.5 43.6 L 236.3 44.4 A 4.338 4.338 0 0 1 236.288 44.42 Q 236.097 44.734 235.906 44.927 A 1.335 1.335 0 0 1 235.7 45.1 L 235.5 45.6 A 0.995 0.995 0 0 0 235.471 45.489 Q 235.389 45.234 235.179 45.105 A 0.847 0.847 0 0 0 234.9 45 A 5.758 5.758 0 0 1 234.877 45.055 Q 234.738 45.394 234.65 45.475 A 0.078 0.078 0 0 1 234.6 45.5 A 0.22 0.22 0 0 1 234.575 45.499 Q 234.511 45.491 234.429 45.448 A 0.931 0.931 0 0 1 234.35 45.4 Q 234.2 45.3 234.1 45.3 Q 233.813 45.3 233.551 45.532 A 1.621 1.621 0 0 0 233.35 45.75 A 7.35 7.35 0 0 1 233.294 45.821 Q 233.059 46.116 232.951 46.181 A 0.105 0.105 0 0 1 232.9 46.2 L 232.6 46.2 Q 232.9 48.1 231.7 48.6 L 231.3 48.9 Q 231.1 49.7 230.8 50.45 Q 230.5 51.2 230.5 51.6 A 1.045 1.045 0 0 1 230.541 51.694 A 0.851 0.851 0 0 1 230.6 52 A 3.853 3.853 0 0 1 230.451 52.422 Q 230.226 52.961 229.8 53.6 Q 229.7 53.5 229.7 53.4 A 45.644 45.644 0 0 1 229.049 54.179 Q 227.775 55.667 227.25 55.95 A 2.082 2.082 0 0 0 227.049 56.073 Q 226.899 56.177 226.799 56.292 A 0.76 0.76 0 0 0 226.6 56.8 L 225.9 57.5 Q 224.8 58.6 224.4 58.8 L 224.1 59.4 L 223.9 59.4 Q 223.8 59.3 223.8 59.2 A 11.189 11.189 0 0 1 223.261 59.804 Q 222.919 60.158 222.589 60.427 A 4.778 4.778 0 0 1 221.9 60.9 Q 221.675 61.275 221 61.706 A 8.422 8.422 0 0 1 220.5 62 A 1.765 1.765 0 0 1 220.474 62.072 Q 220.416 62.224 220.358 62.275 A 0.089 0.089 0 0 1 220.3 62.3 A 0.106 0.106 0 0 1 220.256 62.287 Q 220.139 62.228 219.819 61.917 A 11.877 11.877 0 0 1 219.7 61.8 Q 219.25 62.138 218.847 62.412 A 15.416 15.416 0 0 1 218.25 62.8 Q 217.803 63.075 217.474 63.255 A 8.127 8.127 0 0 1 217.2 63.4 L 216.9 63.1 A 0.821 0.821 0 0 0 216.921 63.055 Q 217.077 62.689 216.7 62.5 A 0.667 0.667 0 0 0 216.759 62.392 Q 216.837 62.209 216.767 62.027 A 0.651 0.651 0 0 0 216.7 61.9 A 0.103 0.103 0 0 1 216.687 61.899 Q 216.527 61.878 216.305 61.362 A 6.015 6.015 0 0 1 216.2 61.1 L 216 60.9 A 6.671 6.671 0 0 1 215.956 60.656 Q 215.928 60.484 215.914 60.334 A 3.098 3.098 0 0 1 215.9 60.05 L 215.9 59.6 L 215.8 59.5 L 215.9 59.5 L 215.9 59 Q 215.9 58.859 215.974 58.669 A 2.032 2.032 0 0 1 216.05 58.5 A 4.126 4.126 0 0 0 216.098 58.402 Q 216.172 58.243 216.192 58.156 A 0.251 0.251 0 0 0 216.2 58.1 A 0.112 0.112 0 0 0 216.2 58.095 Q 216.196 57.99 216 57.55 A 5.765 5.765 0 0 1 215.987 57.519 Q 215.8 57.093 215.8 56.9 A 4.066 4.066 0 0 1 215.831 56.38 Q 215.875 56.039 215.982 55.774 A 1.358 1.358 0 0 1 216.7 55 A 0.197 0.197 0 0 1 216.701 54.978 Q 216.722 54.793 217.063 54.114 A 23.557 23.557 0 0 1 217.25 53.75 A 8.351 8.351 0 0 0 217.303 53.648 Q 217.62 53.021 217.735 52.523 A 2.337 2.337 0 0 0 217.8 52 A 21.237 21.237 0 0 0 217.891 51.882 Q 218.848 50.634 219.159 49.833 A 2.159 2.159 0 0 0 219.3 49.3 L 220.6 47.9 Q 220.663 47.775 220.686 47.611 A 1.494 1.494 0 0 0 220.7 47.4 A 17.743 17.743 0 0 1 220.915 47.106 Q 221.139 46.804 221.315 46.6 A 3.774 3.774 0 0 1 221.5 46.4 L 221.9 46 A 15.927 15.927 0 0 1 221.748 45.748 Q 221.269 44.936 221.144 44.478 A 1.082 1.082 0 0 1 221.1 44.2 A 2.051 2.051 0 0 1 220.94 44.094 Q 220.583 43.831 220.5 43.5 L 219.9 43.3 A 0.421 0.421 0 0 1 219.899 43.327 Q 219.882 43.6 219.5 43.6 A 4.17 4.17 0 0 0 219.444 43.545 Q 219.187 43.297 219.018 43.227 A 0.314 0.314 0 0 0 218.9 43.2 Q 218.7 43.4 218.6 43.4 L 218 43.2 A 3.521 3.521 0 0 1 217.871 43.305 Q 217.618 43.502 217.366 43.621 A 1.79 1.79 0 0 1 216.6 43.8 Q 216.53 43.8 216.461 43.848 A 0.451 0.451 0 0 0 216.4 43.9 A 0.476 0.476 0 0 1 216.386 43.914 Q 216.309 43.984 216.301 43.918 A 0.145 0.145 0 0 1 216.3 43.9 Q 216.3 43.8 216.2 43.9 L 216 43.9 A 1.68 1.68 0 0 1 215.895 44.055 Q 215.805 44.173 215.708 44.25 A 0.644 0.644 0 0 1 215.3 44.4 L 215.2 44.4 A 0.06 0.06 0 0 1 215.18 44.445 Q 215.136 44.487 214.994 44.497 A 1.374 1.374 0 0 1 214.9 44.5 Q 214.988 44.5 214.765 44.734 A 4.111 4.111 0 0 1 214.7 44.8 L 213.8 45.1 Q 213.7 45 213.6 45 A 1.596 1.596 0 0 0 213.595 45 Q 213.457 45 213.416 45.025 A 0.029 0.029 0 0 0 213.4 45.05 Q 213.4 45.089 213.338 45.159 A 0.879 0.879 0 0 1 213.3 45.2 Q 213.1 45.4 213 45.4 A 0.75 0.75 0 0 0 212.858 45.413 A 0.485 0.485 0 0 0 212.55 45.6 A 0.558 0.558 0 0 1 212.471 45.682 Q 212.301 45.83 211.877 46.057 A 11.486 11.486 0 0 1 211.6 46.2 Q 211.685 46.285 211.552 46.553 A 1.94 1.94 0 0 1 211.5 46.65 Q 211.394 46.836 211.344 47.008 A 1.048 1.048 0 0 0 211.3 47.3 A 208.721 208.721 0 0 1 211.497 47.192 Q 214.607 45.485 215.44 45.171 A 0.907 0.907 0 0 1 215.7 45.1 A 0.177 0.177 0 0 1 215.842 45.176 Q 215.963 45.328 215.991 45.786 A 5.088 5.088 0 0 1 216 46.1 Q 216 46.463 216.053 46.668 A 0.67 0.67 0 0 0 216.1 46.8 Q 216.016 46.884 215.86 46.826 A 0.616 0.616 0 0 1 215.8 46.8 L 215.5 47.1 A 0.817 0.817 0 0 0 215.519 47.275 A 0.963 0.963 0 0 0 215.6 47.5 L 215.6 47.9 Q 216 47.9 216 48 A 0.533 0.533 0 0 1 215.975 48.044 Q 215.879 48.197 215.6 48.465 A 8.734 8.734 0 0 1 215.4 48.65 A 2.405 2.405 0 0 0 215.369 48.678 Q 214.903 49.113 215 49.5 A 0.147 0.147 0 0 1 215.037 49.504 Q 215.082 49.516 215.095 49.56 A 0.144 0.144 0 0 1 215.1 49.6 A 1.636 1.636 0 0 1 214.946 49.736 A 1.191 1.191 0 0 1 214.2 50 Q 214.2 50.1 214.05 50.25 A 1.049 1.049 0 0 0 213.999 50.305 Q 213.938 50.375 213.915 50.433 A 0.18 0.18 0 0 0 213.9 50.5 A 0.341 0.341 0 0 0 213.921 50.612 Q 213.96 50.726 214.076 50.865 A 1.997 1.997 0 0 0 214.2 51 A 0.734 0.734 0 0 0 214.13 51.082 Q 214.096 51.128 214.063 51.185 A 1.844 1.844 0 0 0 214 51.3 L 213.9 51.5 A 1.464 1.464 0 0 0 213.9 51.491 Q 213.899 51.321 213.857 51.558 A 4.641 4.641 0 0 0 213.85 51.6 A 5.472 5.472 0 0 0 213.835 51.694 Q 213.786 52.024 213.7 52.8 A 1.99 1.99 0 0 0 213.574 52.937 Q 213.3 53.269 213.3 53.6 Q 213.3 53.681 213.432 53.961 A 7.069 7.069 0 0 0 213.5 54.1 A 0.332 0.332 0 0 1 213.382 54.177 A 0.37 0.37 0 0 1 213.25 54.2 A 0.346 0.346 0 0 0 213.203 54.203 Q 213.139 54.212 213.114 54.248 A 0.092 0.092 0 0 0 213.1 54.3 Q 212.871 54.7 212.871 55.035 A 0.888 0.888 0 0 0 213 55.5 A 0.204 0.204 0 0 0 212.95 55.494 Q 212.645 55.494 212.399 56.458 A 8.794 8.794 0 0 0 212.3 56.9 Q 212.248 57.416 212.21 57.878 A 41.009 41.009 0 0 0 212.15 58.7 A 38.806 38.806 0 0 0 212.14 58.865 Q 212.1 59.553 212.1 60 A 0.497 0.497 0 0 1 212.131 60.034 Q 212.2 60.117 212.2 60.2 Q 212.26 60.622 212.139 61.044 A 2.535 2.535 0 0 1 211.9 61.6 L 211.9 61.9 L 212.6 64.2 Q 213.5 65 213.95 65.2 A 5.765 5.765 0 0 0 213.981 65.213 Q 214.407 65.4 214.6 65.4 Q 215.42 65.974 215.568 66.145 A 0.108 0.108 0 0 1 215.6 66.2 L 215.6 66.3 L 215.5 66.3 L 215.6 66.3 L 215.6 66.2" id="5" vector-effect="non-scaling-stroke"/>
		<path d="M 238.9 65.2 L 237.7 63.7 L 237.7 61.2 L 237.9 61 L 237.9 60.8 A 0.698 0.698 0 0 1 237.918 60.651 Q 237.949 60.507 238.037 60.326 A 2.44 2.44 0 0 1 238.05 60.3 Q 238.199 60.002 238.298 59.606 A 4.54 4.54 0 0 0 238.3 59.6 Q 238.219 59.519 238.204 59.306 A 1.484 1.484 0 0 1 238.2 59.2 A 0.753 0.753 0 0 1 238.359 58.746 Q 238.532 58.511 238.895 58.303 A 2.915 2.915 0 0 1 238.9 58.3 A 0.846 0.846 0 0 1 238.869 58.168 Q 238.829 57.924 238.873 57.514 A 6.099 6.099 0 0 1 238.9 57.3 L 239.2 56.7 A 0.517 0.517 0 0 0 239.255 56.595 Q 239.336 56.379 239.158 56.163 A 0.893 0.893 0 0 0 239.1 56.1 L 239.5 53.9 A 0.322 0.322 0 0 0 239.545 53.839 Q 239.639 53.681 239.795 53.216 A 12.544 12.544 0 0 0 239.8 53.2 L 240.2 49.6 Q 240.119 49.519 240.104 49.306 A 1.484 1.484 0 0 1 240.1 49.2 A 7.069 7.069 0 0 0 240.168 49.061 Q 240.3 48.781 240.3 48.7 A 7.668 7.668 0 0 0 240.295 48.418 Q 240.281 48.028 240.223 47.856 A 0.44 0.44 0 0 0 240.2 47.8 L 240 47.4 A 2.935 2.935 0 0 0 240.061 47.072 Q 240.084 46.896 240.094 46.692 A 6.327 6.327 0 0 0 240.1 46.4 Q 240.1 45.5 239.4 45.5 L 239.25 45.55 L 238.8 45.7 L 238.7 45.3 L 238.7 45.2 A 0.66 0.66 0 0 1 238.819 44.837 Q 238.971 44.603 239.32 44.37 A 3.972 3.972 0 0 1 239.6 44.2 A 0.144 0.144 0 0 1 239.64 44.205 Q 239.684 44.218 239.696 44.263 A 0.147 0.147 0 0 1 239.7 44.3 L 239.9 44.3 Q 240.231 44.3 240.563 44.026 A 1.99 1.99 0 0 0 240.7 43.9 L 242.2 45.1 Q 242.3 45.1 242.1 45.6 L 242.6 46.3 L 242.6 48.7 L 242.75 49 A 0.482 0.482 0 0 1 242.79 49.113 A 0.408 0.408 0 0 1 242.8 49.2 Q 242.8 49.283 242.731 49.366 A 0.497 0.497 0 0 1 242.7 49.4 Q 242.617 49.483 242.603 49.634 A 0.703 0.703 0 0 0 242.6 49.7 L 242.6 53.2 Q 242.5 53.2 242.4 53.3 Q 242.487 53.387 242.498 55.225 A 95.233 95.233 0 0 1 242.5 55.8 Q 242.5 55.953 242.382 56.225 A 3.598 3.598 0 0 1 242.3 56.4 A 7.069 7.069 0 0 0 242.232 56.539 Q 242.1 56.819 242.1 56.9 Q 242.1 57 242.3 57.4 L 242.5 57.4 L 243 55.9 L 243.3 55.9 L 243.3 55.45 Q 243.3 55.211 243.391 54.836 A 5.454 5.454 0 0 1 243.4 54.8 L 244.7 53.3 Q 244.777 53.147 244.912 52.906 A 22.29 22.29 0 0 1 245 52.75 Q 245.2 52.4 245.4 52 A 0.783 0.783 0 0 1 245.466 51.896 Q 245.629 51.671 246.1 51.2 Q 246.2 51 246.3 50.75 A 5.222 5.222 0 0 1 246.372 50.579 Q 246.457 50.389 246.582 50.136 A 17.439 17.439 0 0 1 246.6 50.1 L 247.3 49.5 Q 247.3 49.3 247.55 49.05 A 1.523 1.523 0 0 0 247.784 48.753 A 1.291 1.291 0 0 0 247.9 48.5 Q 248.4 48.4 248.6 47.5 A 3 3 0 0 0 248.966 47.278 Q 249.349 47.011 249.847 46.543 A 16.145 16.145 0 0 0 250.2 46.2 L 250.2 45.8 A 28.524 28.524 0 0 0 250.367 45.653 Q 250.911 45.169 250.911 45.109 A 0.009 0.009 0 0 0 250.901 45.1 L 251 45.1 A 0.144 0.144 0 0 0 251.005 45.14 Q 251.018 45.184 251.063 45.196 A 0.147 0.147 0 0 0 251.1 45.2 A 0.007 0.007 0 0 1 251.093 45.192 Q 251.093 45.106 252.006 44.041 A 85.848 85.848 0 0 1 252.3 43.7 Q 252.8 43.5 254 42.1 A 5.143 5.143 0 0 0 254.552 41.819 Q 254.825 41.661 255.122 41.453 A 11.616 11.616 0 0 0 255.6 41.1 L 256.5 41.1 L 257.6 41.3 A 2.555 2.555 0 0 1 257.989 41.499 Q 258.178 41.616 258.379 41.775 A 5.934 5.934 0 0 1 258.7 42.05 A 2.069 2.069 0 0 1 259.077 42.529 Q 259.403 43.081 259.6 44 L 259.6 45 Q 259.6 45.151 259.572 45.444 A 14.96 14.96 0 0 1 259.55 45.65 Q 259.505 46.053 259.421 46.655 A 66.822 66.822 0 0 1 259.4 46.8 Q 259.321 47.983 257.749 49.664 A 17.829 17.829 0 0 1 256.8 50.6 Q 256.477 50.6 255.96 50.925 A 5.287 5.287 0 0 0 255.7 51.1 L 255.7 50 A 1.861 1.861 0 0 0 255.85 49.829 Q 255.926 49.731 256.002 49.612 A 3.873 3.873 0 0 0 256.1 49.45 Q 256.3 49.1 256.5 48.7 Q 256.5 48.501 255.709 48.302 A 6.917 6.917 0 0 0 255.7 48.3 A 21.205 21.205 0 0 0 255.904 47.882 Q 256.293 47.059 256.3 46.809 A 0.321 0.321 0 0 0 256.3 46.8 Q 256.3 46.512 256.024 46.132 A 2.693 2.693 0 0 0 256 46.1 L 255.7 46.25 L 255.6 46.3 Q 254.8 46.3 254.9 46.2 A 0.222 0.222 0 0 1 254.855 46.127 Q 254.8 45.995 254.8 45.7 L 254.6 45.7 A 0.354 0.354 0 0 0 254.48 45.725 Q 254.294 45.793 254 46.05 Q 253.6 46.4 253.5 46.4 A 0.144 0.144 0 0 1 253.46 46.395 Q 253.416 46.382 253.404 46.337 A 0.147 0.147 0 0 1 253.4 46.3 L 253.2 46.3 Q 253.1 46.3 252.9 46.5 Q 252.766 46.634 252.633 46.678 A 0.419 0.419 0 0 1 252.5 46.7 A 0.308 0.308 0 0 1 252.341 46.652 Q 252.239 46.592 252.138 46.454 A 1.414 1.414 0 0 1 252.1 46.4 Q 251.966 46.4 251.877 46.445 A 0.296 0.296 0 0 0 251.8 46.5 Q 251.956 46.813 251.868 47.186 A 1.505 1.505 0 0 1 251.8 47.4 Q 251.478 47.883 251.156 47.977 A 0.553 0.553 0 0 1 251 48 Q 250.9 48 250.75 47.9 A 0.931 0.931 0 0 0 250.671 47.852 Q 250.589 47.809 250.525 47.801 A 0.22 0.22 0 0 0 250.5 47.8 A 3.956 3.956 0 0 0 250.506 48.031 Q 250.519 48.252 250.559 48.391 A 0.63 0.63 0 0 0 250.6 48.5 L 249.8 49.5 A 0.675 0.675 0 0 1 249.319 49.7 A 0.886 0.886 0 0 1 249.3 49.7 Q 249.2 49.7 249 49.5 L 248.5 50.9 L 248.4 50.9 A 0.621 0.621 0 0 0 248.119 50.981 Q 247.65 51.225 246.9 52.2 L 246.5 52.4 Q 245.2 54.7 244.25 56.2 Q 243.534 57.331 243.073 57.95 A 8.119 8.119 0 0 1 242.8 58.3 L 242.8 59.1 Q 242.178 59.544 242.03 60.855 A 6.881 6.881 0 0 0 242 61.2 A 1.059 1.059 0 0 0 241.878 61.35 Q 241.77 61.507 241.662 61.752 A 4.605 4.605 0 0 0 241.6 61.9 Q 241.8 62.3 241.6 63.1 Q 241.507 63.193 241.415 63.501 A 3.588 3.588 0 0 0 241.4 63.55 A 12.541 12.541 0 0 1 241.344 63.741 Q 241.279 63.953 241.188 64.232 A 43.375 43.375 0 0 1 241.1 64.5 Q 240.6 65.3 239.9 65.3 A 0.18 0.18 0 0 1 239.833 65.285 Q 239.775 65.262 239.705 65.201 A 1.049 1.049 0 0 1 239.65 65.15 A 0.523 0.523 0 0 0 239.496 65.041 A 0.47 0.47 0 0 0 239.3 65 A 0.055 0.055 0 0 1 239.31 65.001 Q 239.37 65.012 238.9 65.2 Z" id="6" vector-effect="non-scaling-stroke"/>
	</g>
</svg>