<?xml version="1.0" encoding="utf-8"?>
<!-- Generator: Adobe Illustrator 28.0.0, SVG Export Plug-In . SVG Version: 6.00 Build 0)  -->
<svg version="1.1" id="Layer_1" xmlns="http://www.w3.org/2000/svg" xmlns:xlink="http://www.w3.org/1999/xlink" x="0px" y="0px"
	 viewBox="0 0 70 70" style="enable-background:new 0 0 70 70;" xml:space="preserve">
<style type="text/css">
	.st0{clip-path:url(#SVGID_00000172439176124077005610000013570603296190579092_);fill:#000002;}
	
		.st1{clip-path:url(#SVGID_00000172439176124077005610000013570603296190579092_);fill:none;stroke:#FFFFFF;stroke-width:2;stroke-miterlimit:10;stroke-opacity:0.2;}
	.st2{display:none;clip-path:url(#SVGID_00000172439176124077005610000013570603296190579092_);}
	.st3{display:inline;fill:#E44D26;}
	.st4{display:inline;fill:#F16529;}
	.st5{display:inline;fill:#EBEBEB;}
	.st6{display:inline;fill:#FFFFFF;}
	.st7{fill:#00979C;}
</style>
<g>
	<defs>
		<path id="SVGID_1_" d="M10,0h50c5.5,0,10,4.5,10,10v50c0,5.5-4.5,10-10,10H10C4.5,70,0,65.5,0,60V10C0,4.5,4.5,0,10,0z"/>
	</defs>
	<clipPath id="SVGID_00000154424889106049834690000010831540799938286766_">
		<use xlink:href="#SVGID_1_"  style="overflow:visible;"/>
	</clipPath>
	<path style="clip-path:url(#SVGID_00000154424889106049834690000010831540799938286766_);fill:#000002;" d="M10,0h50
		c5.5,0,10,4.5,10,10v50c0,5.5-4.5,10-10,10H10C4.5,70,0,65.5,0,60V10C0,4.5,4.5,0,10,0z"/>
	
		<path style="clip-path:url(#SVGID_00000154424889106049834690000010831540799938286766_);fill:none;stroke:#FFFFFF;stroke-width:2;stroke-miterlimit:10;stroke-opacity:0.2;" d="
		M94.9-15.5c0,0-26.4,12.6-21.7,43.6C78.4,63,48,77.9,27.1,69.3C6.3,60.7,7.8,28.7-31.8,27.7c-40.4-1-48.9-41.2-48.9-41.2"/>
	
		<path style="clip-path:url(#SVGID_00000154424889106049834690000010831540799938286766_);fill:none;stroke:#FFFFFF;stroke-width:2;stroke-miterlimit:10;stroke-opacity:0.2;" d="
		M64.4-24.9c0,0-11.4,26.6-7.3,53c4.1,26.4-14.4,29.5-21.7,26.4C20.1,48.1,17.1,13.8-7.5,11.6C-26,9.9-50.9,23.2-64-6.9"/>
	
		<path style="clip-path:url(#SVGID_00000154424889106049834690000010831540799938286766_);fill:none;stroke:#FFFFFF;stroke-width:2;stroke-miterlimit:10;stroke-opacity:0.2;" d="
		M52.1-13c0,0,4.1,27.1-14.1,22.3C17.1,3.7,17.5-9.4-8.9,3c-9.4,4.4-47.2,5.7-39.6-18.5"/>
	
		<path style="clip-path:url(#SVGID_00000154424889106049834690000010831540799938286766_);fill:none;stroke:#FFFFFF;stroke-width:2;stroke-miterlimit:10;stroke-opacity:0.2;" d="
		M38.9,45.1c4.4,0,7.9-5.5,7.9-12.2s-3.5-12.2-7.9-12.2S31,26.2,31,32.9S34.5,45.1,38.9,45.1z"/>
	<g style="display:none;clip-path:url(#SVGID_00000154424889106049834690000010831540799938286766_);">
		<path class="st3" d="M17.7,55l-4-45h43.6l-4,45l-17.8,5L17.7,55z"/>
		<path class="st4" d="M35.5,56.2l14.4-4l3.4-38.4H35.5V56.2z"/>
		<path class="st5" d="M35.5,30.4h-7.2l-0.5-5.7h7.7v-5.5H21.8l0.1,1.5l1.3,15.2h12.2V30.4z M35.5,44.7L35.5,44.7l-6.1-1.7L29,38.6
			h-5.5l0.8,8.7l11.2,3.1l0,0V44.7z"/>
		<path class="st6" d="M35.5,30.4v5.5h6.7L41.6,43l-6.1,1.7v5.7l11.2-3.1l0.1-0.9L48,31.9l0.1-1.5h-1.5H35.5z M35.5,19.2v5.5h13.2
			l0.1-1.2l0.2-2.8l0.1-1.5H35.5z"/>
	</g>
</g>
<g>
	<path class="st7" d="M10.3,44.4l-2.8,9.3h2.2l0.5-1.7h2.8l0.5,1.7h2.4L13,44.4H10.3z M10.7,50.1l0.8-2.9l0.8,2.9H10.7z M21.2,49.4
		c0,0-0.1-0.1-0.1-0.1c0.1,0,0.1-0.1,0.2-0.1c0.3-0.1,0.5-0.3,0.7-0.5c0.2-0.2,0.4-0.5,0.5-0.7c0.1-0.3,0.2-0.6,0.2-1
		c0-0.5-0.1-0.9-0.3-1.2c-0.2-0.3-0.4-0.6-0.7-0.8c-0.3-0.2-0.7-0.4-1.1-0.5c-0.4-0.1-0.9-0.1-1.4-0.1h-2.9v9.3h2.2v-3.6h0.1
		c0.2,0,0.4,0.1,0.6,0.2c0.2,0.1,0.3,0.3,0.4,0.5l1.3,3h2.6l-1.6-3.3C21.6,50,21.4,49.7,21.2,49.4L21.2,49.4z M20.3,47.7
		c-0.1,0.1-0.2,0.2-0.3,0.3c-0.1,0.1-0.3,0.2-0.5,0.2c-0.2,0-0.4,0.1-0.7,0.1h-0.4v-2h0.5c0.5,0,0.9,0.1,1.1,0.2
		c0.2,0.1,0.3,0.4,0.3,0.7C20.4,47.4,20.3,47.5,20.3,47.7L20.3,47.7z M30,45.5c-0.4-0.4-0.8-0.7-1.4-0.8c-0.5-0.2-1.2-0.3-1.9-0.3
		h-2.9v9.3h2.6c0.8,0,1.5-0.1,2.1-0.3c0.6-0.2,1.1-0.6,1.5-1c0.4-0.4,0.7-0.9,0.9-1.5c0.2-0.6,0.3-1.2,0.3-1.9c0-0.8-0.1-1.4-0.3-2
		C30.6,46.4,30.3,45.9,30,45.5z M28.2,51.1c-0.4,0.4-0.9,0.6-1.7,0.6H26v-5.5h0.6c0.4,0,0.8,0.1,1.1,0.2c0.3,0.1,0.5,0.3,0.6,0.5
		c0.2,0.2,0.3,0.5,0.4,0.8c0.1,0.4,0.1,0.8,0.1,1.2C28.7,50,28.5,50.7,28.2,51.1L28.2,51.1z M36.4,50.3c0,0.3,0,0.6-0.1,0.8
		c-0.1,0.2-0.1,0.4-0.2,0.5c-0.1,0.1-0.2,0.2-0.4,0.3c-0.2,0.1-0.4,0.1-0.6,0.1c-0.3,0-0.5,0-0.7-0.1c-0.2-0.1-0.3-0.2-0.4-0.3
		c-0.1-0.1-0.2-0.3-0.2-0.5c0-0.2-0.1-0.5-0.1-0.7v-6h-2.2v6.1c0,0.5,0.1,1,0.2,1.4c0.1,0.4,0.3,0.8,0.6,1.1
		c0.3,0.3,0.7,0.5,1.1,0.7c0.4,0.2,1,0.2,1.6,0.2c0.5,0,1-0.1,1.5-0.2c0.5-0.2,0.8-0.4,1.2-0.7c0.3-0.3,0.6-0.7,0.7-1.2
		c0.2-0.4,0.2-1,0.2-1.6v-5.8h-2.2L36.4,50.3 M39.8,46.3h2v5.5h-2v1.9h6.2v-1.9h-2v-5.5h2v-1.9h-6.2V46.3 M52.3,49.7l-2.5-5.3h-2.5
		v9.3h2.1v-5.4l2.5,5.4h2.5v-9.3h-2.1L52.3,49.7 M61.5,45.5c-0.6-0.8-1.6-1.2-2.9-1.2c-0.5,0-1.1,0.1-1.5,0.3
		c-0.5,0.2-0.9,0.5-1.3,0.9c-0.4,0.4-0.6,0.9-0.8,1.5c-0.2,0.6-0.3,1.3-0.3,2.1c0,1.5,0.3,2.7,1,3.5c0.6,0.8,1.6,1.2,2.9,1.2
		c0.5,0,1.1-0.1,1.5-0.3c0.5-0.2,0.9-0.5,1.3-0.9c0.4-0.4,0.6-0.9,0.8-1.5c0.2-0.6,0.3-1.3,0.3-2.1C62.5,47.5,62.2,46.3,61.5,45.5
		L61.5,45.5z M60.1,50.3c-0.1,0.3-0.2,0.6-0.3,0.9c-0.1,0.2-0.3,0.4-0.5,0.5c-0.2,0.1-0.4,0.2-0.7,0.2c-0.6,0-0.9-0.2-1.2-0.6
		C57.1,50.7,57,50,57,49c0-0.5,0-0.9,0.1-1.2c0.1-0.3,0.2-0.6,0.3-0.9c0.1-0.2,0.3-0.4,0.5-0.5c0.2-0.1,0.4-0.2,0.7-0.2
		c0.6,0,0.9,0.2,1.2,0.6c0.3,0.5,0.4,1.2,0.4,2.2C60.2,49.6,60.1,50,60.1,50.3L60.1,50.3z M59.3,17.4h0.4v1h0.3v-1h0.4v-0.3h-1.1
		V17.4 M61.3,17.1L61,18l-0.3-0.9h-0.4v1.3h0.3v-0.8l0.3,0.8h0.2l0.2-0.8v0.8h0.3v-1.3H61.3 M48.4,42.2c-3.5,0-6.5-1.2-9.2-3.6
		c-1.6-1.5-3-3.3-4.2-5.3c-1.2,1.9-2.6,3.8-4.2,5.3c-2.9,2.6-6.1,3.8-10,3.6c-7.4,0-13.4-5.9-13.4-13c0-7.2,6-13,13.4-13
		c4.1,0,7.5,1.3,10.4,4.1c1.4,1.3,2.6,2.9,3.7,4.5c1.1-1.6,2.3-3.1,3.7-4.5c3-2.8,6.4-4.1,10.4-4.1c7.4,0,13.4,5.8,13.4,13
		c0,7.2-6,13-13.4,13C49,42.2,48.7,42.2,48.4,42.2L48.4,42.2z M37.7,29c1.5,2.4,2.9,4.6,4.6,6.2c2,1.8,4,2.5,6.7,2.4l0.1,0
		c4.9,0,8.8-3.8,8.8-8.4c0-4.6-4-8.4-8.8-8.4c-2.9,0-5.2,0.9-7.3,2.9C40.3,25.1,39,27,37.7,29L37.7,29z M20.8,20.8
		c-4.9,0-8.8,3.8-8.8,8.4c0,4.6,4,8.4,8.8,8.4l0.1,0c2.7,0.1,4.7-0.6,6.7-2.4c1.7-1.6,3.2-3.8,4.6-6.2c-1.3-2-2.6-3.9-4.2-5.4
		C26,21.7,23.7,20.8,20.8,20.8L20.8,20.8z"/>
	<path class="st7" d="M49.8,27.5V25h-2.6v2.5h-2.5v2.6h2.5v2.5h2.6v-2.5h2.5v-2.6H49.8 M17.1,27.5h8.2v2.7h-8.2V27.5z"/>
</g>
</svg>
