<?xml version="1.0" encoding="utf-8"?>
<!-- Generator: Adobe Illustrator 28.0.0, SVG Export Plug-In . SVG Version: 6.00 Build 0)  -->
<svg version="1.1" id="Layer_1" xmlns="http://www.w3.org/2000/svg" xmlns:xlink="http://www.w3.org/1999/xlink" x="0px" y="0px"
	 viewBox="0 0 70 70" style="enable-background:new 0 0 70 70;" xml:space="preserve">
<style type="text/css">
	.st0{clip-path:url(#SVGID_00000079486251888131151860000014802291293692552064_);fill:#000006;}
	
		.st1{clip-path:url(#SVGID_00000079486251888131151860000014802291293692552064_);fill:none;stroke:#FFFFFF;stroke-width:2;stroke-miterlimit:10;stroke-opacity:0.2;}
	.st2{display:none;clip-path:url(#SVGID_00000079486251888131151860000014802291293692552064_);}
	.st3{display:inline;fill:#E44D26;}
	.st4{display:inline;fill:#F16529;}
	.st5{display:inline;fill:#EBEBEB;}
	.st6{display:inline;fill:#FFFFFF;}
	.st7{fill:#FFFFFF;}
	.st8{fill:#005385;}
	.st9{fill:#FF7021;}
</style>
<g>
	<defs>
		<path id="SVGID_1_" d="M10,0h50c5.5,0,10,4.5,10,10v50c0,5.5-4.5,10-10,10H10C4.5,70,0,65.5,0,60V10C0,4.5,4.5,0,10,0z"/>
	</defs>
	<clipPath id="SVGID_00000066482043340904763690000017521493823488288142_">
		<use xlink:href="#SVGID_1_"  style="overflow:visible;"/>
	</clipPath>
	<path style="clip-path:url(#SVGID_00000066482043340904763690000017521493823488288142_);fill:#000006;" d="M10,0h50
		c5.5,0,10,4.5,10,10.1v50.3c0,5.6-4.5,10.1-10,10.1H10c-5.5,0-10-4.5-10-10.1V10.1C0,4.5,4.5,0,10,0z"/>
	
		<path style="clip-path:url(#SVGID_00000066482043340904763690000017521493823488288142_);fill:none;stroke:#FFFFFF;stroke-width:2;stroke-miterlimit:10;stroke-opacity:0.2;" d="
		M94.9-15.5c0,0-26.4,12.6-21.7,43.6C78.4,63,48,77.9,27.1,69.3C6.3,60.7,7.8,28.7-31.8,27.7c-40.4-1-48.9-41.2-48.9-41.2"/>
	
		<path style="clip-path:url(#SVGID_00000066482043340904763690000017521493823488288142_);fill:none;stroke:#FFFFFF;stroke-width:2;stroke-miterlimit:10;stroke-opacity:0.2;" d="
		M64.4-24.9c0,0-11.4,26.6-7.3,53c4.1,26.4-14.4,29.5-21.7,26.4C20.1,48.1,17.1,13.8-7.5,11.6C-26,9.9-50.9,23.2-64-6.9"/>
	
		<path style="clip-path:url(#SVGID_00000066482043340904763690000017521493823488288142_);fill:none;stroke:#FFFFFF;stroke-width:2;stroke-miterlimit:10;stroke-opacity:0.2;" d="
		M52.1-13c0,0,4.1,27.1-14.1,22.3C17.1,3.7,17.5-9.4-8.9,3c-9.4,4.4-47.2,5.7-39.6-18.5"/>
	
		<path style="clip-path:url(#SVGID_00000066482043340904763690000017521493823488288142_);fill:none;stroke:#FFFFFF;stroke-width:2;stroke-miterlimit:10;stroke-opacity:0.2;" d="
		M38.9,45.1c4.4,0,7.9-5.5,7.9-12.2s-3.5-12.2-7.9-12.2S31,26.2,31,32.9S34.5,45.1,38.9,45.1z"/>
	<g style="display:none;clip-path:url(#SVGID_00000066482043340904763690000017521493823488288142_);">
		<path class="st3" d="M17.7,55l-4-45h43.6l-4,45l-17.8,5L17.7,55z"/>
		<path class="st4" d="M35.5,56.2l14.4-4l3.4-38.4H35.5V56.2z"/>
		<path class="st5" d="M35.5,30.4h-7.2l-0.5-5.7h7.7v-5.5H21.8l0.1,1.5l1.3,15.2h12.2V30.4z M35.5,44.7L35.5,44.7l-6.1-1.7L29,38.6
			h-5.5l0.8,8.7l11.2,3.1l0,0V44.7z"/>
		<path class="st6" d="M35.5,30.4v5.5h6.7L41.6,43l-6.1,1.7v5.7l11.2-3.1l0.1-0.9L48,31.9l0.1-1.5h-1.5H35.5z M35.5,19.2v5.5h13.2
			l0.1-1.2l0.2-2.8l0.1-1.5H35.5z"/>
	</g>
</g>
<g>
	<path class="st7" d="M51.2,45c-2.1,2.2-5.1,3.4-8.3,3.4c-3.2,0-6.2-1.2-8.3-3.4c-1-1-1.8-2.2-2.3-3.5c-0.5-1.3-0.6-2.6-0.5-3.9
		c0.1-1.3,0.5-2.6,1.1-3.7c0.6-1.1,1.5-2.1,2.5-3c2.1-1.7,4.7-2.6,7.4-2.6s5.3,0.9,7.4,2.6c1,0.9,1.9,1.9,2.5,3
		c0.6,1.1,1,2.4,1.1,3.7c0.1,1.3-0.1,2.7-0.5,3.9C53,42.7,52.2,43.9,51.2,45L51.2,45z"/>
	<path class="st8" d="M36.1,37.6c0.1-1.7,1-3.3,2.2-4.4c1.3-1.1,3-1.7,4.8-1.7c1.9,0,3.6,0.7,4.8,1.7c1.3,1.1,2.1,2.6,2.2,4.4
		c0.1,1.8-0.6,3.5-1.9,4.7c-1.3,1.3-3.1,2-5.2,2c-2.1,0-3.9-0.8-5.2-2C36.7,41.1,36,39.4,36.1,37.6L36.1,37.6z"/>
	<path class="st9" d="M24.9,41.2c0,0.7,0.2,2,0.6,3c0.7,2.2,1.8,4.2,3.5,6c1.7,1.8,3.7,3.3,6.1,4.4c2.5,1.1,5.2,1.7,8,1.7
		c2.8,0,5.5-0.6,8-1.7c2.4-1.1,4.4-2.5,6.1-4.4c1.6-1.8,2.8-3.8,3.5-6c0.3-1.1,0.6-2.2,0.7-3.4c0.1-1.1,0-2.2-0.1-3.3
		c-0.3-2.2-1.1-4.2-2.2-6.1c-1.1-1.7-2.4-3.2-4-4.5l0,0L38.4,14.4c0,0,0,0,0,0c-1.1-0.8-2.9-0.8-4.1,0c-1.2,0.8-1.3,2.2-0.3,3.1l0,0
		l6.8,5.5l-20.8,0h0c-1.7,0-3.4,1.1-3.7,2.6C16,27,17.2,28.2,19,28.2l0,0l10.5,0L10.7,42.6c0,0,0,0-0.1,0.1c-1.8,1.4-2.3,3.6-1.2,5
		c1.1,1.5,3.5,1.5,5.3,0L25,39.4C25,39.4,24.9,40.5,24.9,41.2L24.9,41.2z M51.2,45c-2.1,2.2-5.1,3.4-8.3,3.4c-3.2,0-6.2-1.2-8.3-3.4
		c-1-1-1.8-2.2-2.3-3.5c-0.5-1.3-0.6-2.6-0.5-3.9c0.1-1.3,0.5-2.6,1.1-3.7c0.6-1.1,1.5-2.1,2.5-3c2.1-1.7,4.7-2.6,7.4-2.6
		s5.3,0.9,7.4,2.6c1,0.9,1.9,1.9,2.5,3c0.6,1.1,1,2.4,1.1,3.7c0.1,1.3-0.1,2.7-0.5,3.9C53,42.7,52.2,43.9,51.2,45L51.2,45z"/>
</g>
</svg>
