<?xml version="1.0" encoding="utf-8"?>
<!-- Generator: Adobe Illustrator 28.0.0, SVG Export Plug-In . SVG Version: 6.00 Build 0)  -->
<svg version="1.1" id="Layer_1" xmlns="http://www.w3.org/2000/svg" xmlns:xlink="http://www.w3.org/1999/xlink" x="0px" y="0px"
	 viewBox="0 0 70 70" style="enable-background:new 0 0 70 70;" xml:space="preserve">
<style type="text/css">
	.st0{clip-path:url(#SVGID_00000002368681646344359090000017124567921426450619_);fill:#00062F;}
	
		.st1{clip-path:url(#SVGID_00000002368681646344359090000017124567921426450619_);fill:none;stroke:#FFFFFF;stroke-width:2;stroke-miterlimit:10;stroke-opacity:0.2;}
	.st2{display:none;clip-path:url(#SVGID_00000002368681646344359090000017124567921426450619_);}
	.st3{display:inline;fill:#E44D26;}
	.st4{display:inline;fill:#F16529;}
	.st5{display:inline;fill:#EBEBEB;}
	.st6{display:inline;fill:#FFFFFF;}
	.st7{fill:#5C8DBC;}
	.st8{fill:#1A4674;}
	.st9{fill:#1B598E;}
	.st10{fill:#FFFFFF;}
	.st11{fill:#004482;}
	.st12{fill:#00599C;}
	.st13{fill:#659AD2;}
</style>
<g>
	<defs>
		<path id="SVGID_1_" d="M10,0h50c5.5,0,10,4.5,10,10v50c0,5.5-4.5,10-10,10H10C4.5,70,0,65.5,0,60V10C0,4.5,4.5,0,10,0z"/>
	</defs>
	<clipPath id="SVGID_00000070098873820566589030000014037405188240103836_">
		<use xlink:href="#SVGID_1_"  style="overflow:visible;"/>
	</clipPath>
	<path style="clip-path:url(#SVGID_00000070098873820566589030000014037405188240103836_);fill:#00062F;" d="M10,0h50
		c5.5,0,10,4.5,10,10v50c0,5.5-4.5,10-10,10H10C4.5,70,0,65.5,0,60V10C0,4.5,4.5,0,10,0z"/>
	
		<path style="clip-path:url(#SVGID_00000070098873820566589030000014037405188240103836_);fill:none;stroke:#FFFFFF;stroke-width:2;stroke-miterlimit:10;stroke-opacity:0.2;" d="
		M94.9-15.5c0,0-26.4,12.6-21.7,43.6C78.4,63,48,77.9,27.1,69.3C6.3,60.7,7.8,28.7-31.8,27.7c-40.4-1-48.9-41.2-48.9-41.2"/>
	
		<path style="clip-path:url(#SVGID_00000070098873820566589030000014037405188240103836_);fill:none;stroke:#FFFFFF;stroke-width:2;stroke-miterlimit:10;stroke-opacity:0.2;" d="
		M64.4-24.9c0,0-11.4,26.6-7.3,53c4.1,26.4-14.4,29.5-21.7,26.4C20.1,48.1,17.1,13.8-7.5,11.6C-26,9.9-50.9,23.2-64-6.9"/>
	
		<path style="clip-path:url(#SVGID_00000070098873820566589030000014037405188240103836_);fill:none;stroke:#FFFFFF;stroke-width:2;stroke-miterlimit:10;stroke-opacity:0.2;" d="
		M52.1-13c0,0,4.1,27.1-14.1,22.3C17.1,3.7,17.5-9.4-8.9,3c-9.4,4.4-47.2,5.7-39.6-18.5"/>
	
		<path style="clip-path:url(#SVGID_00000070098873820566589030000014037405188240103836_);fill:none;stroke:#FFFFFF;stroke-width:2;stroke-miterlimit:10;stroke-opacity:0.2;" d="
		M38.9,45.1c4.4,0,7.9-5.5,7.9-12.2s-3.5-12.2-7.9-12.2S31,26.2,31,32.9S34.5,45.1,38.9,45.1z"/>
	<g style="display:none;clip-path:url(#SVGID_00000070098873820566589030000014037405188240103836_);">
		<path class="st3" d="M17.7,55l-4-45h43.6l-4,45l-17.8,5L17.7,55z"/>
		<path class="st4" d="M35.5,56.2l14.4-4l3.4-38.4H35.5V56.2z"/>
		<path class="st5" d="M35.5,30.4h-7.2l-0.5-5.7h7.7v-5.5H21.8l0.1,1.5l1.3,15.2h12.2V30.4z M35.5,44.7L35.5,44.7l-6.1-1.7L29,38.6
			h-5.5l0.8,8.7l11.2,3.1l0,0V44.7z"/>
		<path class="st6" d="M35.5,30.4v5.5h6.7L41.6,43l-6.1,1.7v5.7l11.2-3.1l0.1-0.9L48,31.9l0.1-1.5h-1.5H35.5z M35.5,19.2v5.5h13.2
			l0.1-1.2l0.2-2.8l0.1-1.5H35.5z"/>
	</g>
</g>
<g>
	<path class="st7" d="M59.2,23.8c0-0.9-0.2-1.7-0.6-2.4c-0.4-0.7-1-1.3-1.7-1.7C50.4,16,44,12.3,37.5,8.6c-1.7-1-3.4-1-5.1,0.1
		c-2.6,1.5-15.4,8.9-19.2,11.1c-1.6,0.9-2.3,2.3-2.3,4.1c0,7.5,0,14.9,0,22.4c0,0.9,0.2,1.7,0.6,2.4c0.4,0.7,1,1.3,1.8,1.8
		c3.8,2.2,16.7,9.6,19.2,11.1c1.7,1,3.4,1.1,5.1,0.1C44,57.7,50.4,54,56.8,50.3c0.8-0.5,1.4-1,1.8-1.8c0.4-0.7,0.6-1.5,0.6-2.4
		C59.2,46.2,59.2,31.3,59.2,23.8"/>
	<path class="st8" d="M35.1,34.9L11.4,48.6c0.4,0.7,1,1.3,1.8,1.8c3.8,2.2,16.7,9.6,19.2,11.1c1.7,1,3.4,1.1,5.1,0.1
		C44,57.7,50.4,54,56.8,50.3c0.8-0.5,1.4-1,1.8-1.8L35.1,34.9"/>
	<path class="st8" d="M28.1,39c1.4,2.4,4,4,6.9,4c3,0,5.6-1.6,7-4.1l-6.9-4L28.1,39"/>
	<path class="st9" d="M59.2,23.8c0-0.9-0.2-1.7-0.6-2.4L35.1,34.9l23.5,13.6c0.4-0.7,0.6-1.5,0.6-2.4C59.2,46.2,59.2,31.3,59.2,23.8
		"/>
	<path class="st10" d="M57.9,35.9H56v1.8h-1.8v-1.8h-1.8v-1.8h1.8v-1.8H56v1.8h1.8V35.9 M51.2,35.9h-1.8v1.8h-1.8v-1.8h-1.8v-1.8
		h1.8v-1.8h1.8v1.8h1.8V35.9"/>
	<path class="st10" d="M42,38.9c-1.4,2.4-4,4.1-7,4.1c-3,0-5.6-1.6-6.9-4c-0.7-1.2-1.1-2.6-1.1-4c0-4.4,3.6-8,8-8c3,0,5.5,1.6,6.9,4
		l7-4c-2.8-4.8-8-8-13.9-8c-8.9,0-16.1,7.2-16.1,16.1c0,2.9,0.8,5.6,2.1,8c2.8,4.8,8,8.1,13.9,8.1c6,0,11.2-3.3,13.9-8.1L42,38.9"/>
</g>
<g>
	<path class="st11" d="M59.2,23.8c0-0.8-0.2-1.7-0.6-2.4c-0.4-0.7-1-1.3-1.7-1.7C50.4,16,43.9,12.3,37.5,8.5c-1.7-1-3.4-1-5.1,0.1
		c-2.6,1.5-15.4,8.9-19.2,11.1c-1.6,0.9-2.3,2.3-2.3,4.1v22.4c0,0.8,0.2,1.6,0.6,2.4c0.4,0.7,1,1.3,1.8,1.8
		c3.8,2.2,16.6,9.6,19.2,11.1c1.7,1,3.4,1.1,5.1,0.1C44,57.7,50.4,54,56.8,50.3c0.7-0.4,1.4-1,1.8-1.8c0.4-0.7,0.6-1.5,0.6-2.4
		L59.2,23.8L59.2,23.8z"/>
	<path class="st12" d="M59.2,46.2c0,0.8-0.2,1.6-0.6,2.4c-0.1,0.2-0.2,0.3-0.3,0.5L35,35l21.8-15.3c0.7,0.4,1.3,1,1.7,1.7
		c0.4,0.7,0.6,1.6,0.6,2.4C59.2,31.3,59.2,46.2,59.2,46.2L59.2,46.2z"/>
	<path class="st13" d="M58.6,21.4L11.4,48.6c-0.4-0.7-0.6-1.5-0.6-2.4V23.8c0-1.8,0.8-3.2,2.3-4.1c3.8-2.2,16.6-9.6,19.2-11.1
		c1.7-1,3.4-1.1,5.1-0.1c6.4,3.7,12.9,7.4,19.3,11.1C57.5,20.1,58.1,20.7,58.6,21.4z"/>
	<path class="st10" d="M35.9,44.1c-3.2,0-6.2-1.8-7.8-4.6c-0.1-0.1-0.2-0.3-0.2-0.4c-2.1-4.4-0.3-9.7,4.1-11.9
		c3.7-1.8,8.1-0.8,10.7,2.4c0.1,0.1,0.2,0.3,0.3,0.4c0.1,0.1,0.1,0.1,0.2,0.2l7.8-4.5c-0.2-0.3-0.4-0.6-0.6-0.9
		c-0.1-0.2-0.2-0.3-0.3-0.4c-6-7.8-17.1-9.2-24.9-3.2c-6.8,5.3-8.9,14.7-4.9,22.3c0.1,0.1,0.2,0.3,0.2,0.4
		c4.8,8.5,15.7,11.5,24.2,6.7c2.5-1.4,4.7-3.4,6.2-5.9L43.3,40C41.7,42.5,38.9,44.1,35.9,44.1L35.9,44.1z"/>
</g>
</svg>
