<?xml version="1.0" encoding="utf-8"?>
<!-- Generator: Adobe Illustrator 28.0.0, SVG Export Plug-In . SVG Version: 6.00 Build 0)  -->
<svg version="1.1" id="Layer_1" xmlns="http://www.w3.org/2000/svg" xmlns:xlink="http://www.w3.org/1999/xlink" x="0px" y="0px"
	 viewBox="0 0 70 70" style="enable-background:new 0 0 70 70;" xml:space="preserve">
<style type="text/css">
	.st0{clip-path:url(#SVGID_00000080195869901191077800000012783541286940601533_);fill:#3B0000;}
	
		.st1{clip-path:url(#SVGID_00000080195869901191077800000012783541286940601533_);fill:none;stroke:#FFFFFF;stroke-width:2;stroke-miterlimit:10;stroke-opacity:0.2;}
	.st2{display:none;clip-path:url(#SVGID_00000080195869901191077800000012783541286940601533_);}
	.st3{display:inline;fill:#E44D26;}
	.st4{display:inline;fill:#F16529;}
	.st5{display:inline;fill:#EBEBEB;}
	.st6{display:inline;fill:#FFFFFF;}
	.st7{fill:#E7352C;}
</style>
<g>
	<defs>
		<path id="SVGID_1_" d="M10,0h50c5.5,0,10,4.5,10,10v50c0,5.5-4.5,10-10,10H10C4.5,70,0,65.5,0,60V10C0,4.5,4.5,0,10,0z"/>
	</defs>
	<clipPath id="SVGID_00000174565288327508760900000010139418938151465602_">
		<use xlink:href="#SVGID_1_"  style="overflow:visible;"/>
	</clipPath>
	<path style="clip-path:url(#SVGID_00000174565288327508760900000010139418938151465602_);fill:#3B0000;" d="M10,0h50
		c5.5,0,10,4.5,10,10v50c0,5.5-4.5,10-10,10H10C4.5,70,0,65.5,0,60V10C0,4.5,4.5,0,10,0z"/>
	
		<path style="clip-path:url(#SVGID_00000174565288327508760900000010139418938151465602_);fill:none;stroke:#FFFFFF;stroke-width:2;stroke-miterlimit:10;stroke-opacity:0.2;" d="
		M94.9-15.5c0,0-26.4,12.6-21.7,43.6C78.4,63,48,77.9,27.1,69.3C6.3,60.7,7.8,28.7-31.8,27.7c-40.4-1-48.9-41.2-48.9-41.2"/>
	
		<path style="clip-path:url(#SVGID_00000174565288327508760900000010139418938151465602_);fill:none;stroke:#FFFFFF;stroke-width:2;stroke-miterlimit:10;stroke-opacity:0.2;" d="
		M64.4-24.9c0,0-11.4,26.6-7.3,53c4.1,26.4-14.4,29.5-21.7,26.4C20.1,48.1,17.1,13.8-7.5,11.6C-26,9.9-50.9,23.2-64-6.9"/>
	
		<path style="clip-path:url(#SVGID_00000174565288327508760900000010139418938151465602_);fill:none;stroke:#FFFFFF;stroke-width:2;stroke-miterlimit:10;stroke-opacity:0.2;" d="
		M52.1-13c0,0,4.1,27.1-14.1,22.3C17.1,3.7,17.5-9.4-8.9,3c-9.4,4.4-47.2,5.7-39.6-18.5"/>
	
		<path style="clip-path:url(#SVGID_00000174565288327508760900000010139418938151465602_);fill:none;stroke:#FFFFFF;stroke-width:2;stroke-miterlimit:10;stroke-opacity:0.2;" d="
		M38.9,45.1c4.4,0,7.9-5.5,7.9-12.2s-3.5-12.2-7.9-12.2S31,26.2,31,32.9S34.5,45.1,38.9,45.1z"/>
	<g style="display:none;clip-path:url(#SVGID_00000174565288327508760900000010139418938151465602_);">
		<path class="st3" d="M17.7,55l-4-45h43.6l-4,45l-17.8,5L17.7,55z"/>
		<path class="st4" d="M35.5,56.2l14.4-4l3.4-38.4H35.5V56.2z"/>
		<path class="st5" d="M35.5,30.4h-7.2l-0.5-5.7h7.7v-5.5H21.8l0.1,1.5l1.3,15.2h12.2V30.4z M35.5,44.7L35.5,44.7l-6.1-1.7L29,38.6
			h-5.5l0.8,8.7l11.2,3.1l0,0V44.7z"/>
		<path class="st6" d="M35.5,30.4v5.5h6.7L41.6,43l-6.1,1.7v5.7l11.2-3.1l0.1-0.9L48,31.9l0.1-1.5h-1.5H35.5z M35.5,19.2v5.5h13.2
			l0.1-1.2l0.2-2.8l0.1-1.5H35.5z"/>
	</g>
</g>
<g>
	<path class="st7" d="M26,48c0,2.1-1.7,3.7-3.7,3.7c-0.2,0-0.5,0-0.7-0.1c-1.5-0.3-2.6-1.5-2.9-2.9c-0.4-2,0.9-4,2.9-4.4
		c1.2-0.2,2.5,0.1,3.4,1C25.6,46.1,26,47,26,48L26,48z M58.6,44.1c-2.4-17-15.8-30.4-32.8-32.8c-2,1.1-3.8,2.4-5.4,3.9v3.6
		c17,0,30.7,13.8,30.7,30.7h3.6C56.2,47.9,57.5,46.1,58.6,44.1L58.6,44.1z"/>
	<path class="st7" d="M61.5,32.8c0-9.9-6-18.7-15.1-22.5c-3-1.2-6.1-1.8-9.3-1.8c-0.9,0-1.7,0-2.5,0.1L34,10.2
		c12,4.2,21.4,13.6,25.6,25.6l1.6-0.6c0-0.8,0.2-1.6,0.2-2.5 M37.4,61.5c-15.9,0-28.8-12.9-28.9-28.8c0-7.7,3-15,8.5-20.4l1.6,1.5
		C8.1,24.2,8,41.1,18.4,51.6c0.1,0.1,0.1,0.1,0.2,0.2C29,62.2,45.8,62.3,56.3,51.9c0.1-0.1,0.1-0.1,0.2-0.2l1.5,1.5
		C52.5,58.7,45.1,61.7,37.4,61.5z"/>
	<path class="st7" d="M37.1,51.2c0.5-5.8-2-11.4-6.6-14.9c-2.4-1.9-5.4-3.1-8.5-3.4c-0.8-0.1-1.4-0.8-1.3-1.6c0-0.6,0.5-1.1,1.1-1.3
		c0.2-0.1,0.4-0.1,0.6-0.1C33.2,31,41.1,40.7,40,51.5c-0.1,1.2-0.3,2.3-0.7,3.4l4.4,1.2c1.3-0.4,2.6-0.9,3.8-1.4
		c0.3-1.7,0.5-3.4,0.5-5.2c0-13.7-10-25.4-23.6-27.4c-1.5-0.3-3-0.3-4.4,0c-1.8,0.5-3.5,1.5-4.8,3c-3.4,3.9-3,9.9,1,13.3
		c0.9,0.8,2.1,1.4,3.2,1.8c0.8,0.2,1.6,0.3,2.4,0.4c4.3,0.7,7.4,4.4,7.4,8.7c0,1.7-0.5,3.4-1.4,4.8l3,1.9c1.5,0.4,3,0.7,4.5,0.8
		c0.9-1.8,1.5-3.8,1.7-5.8"/>
</g>
</svg>
