<?xml version="1.0" encoding="utf-8"?>
<!-- Generator: Adobe Illustrator 28.0.0, SVG Export Plug-In . SVG Version: 6.00 Build 0)  -->
<svg version="1.1" id="Layer_1" xmlns="http://www.w3.org/2000/svg" xmlns:xlink="http://www.w3.org/1999/xlink" x="0px" y="0px"
	 viewBox="0 0 70 70" style="enable-background:new 0 0 70 70;" xml:space="preserve">
<style type="text/css">
	.st0{clip-path:url(#SVGID_00000019659233844367613340000000275905222502480811_);fill:#020E18;}
	
		.st1{clip-path:url(#SVGID_00000019659233844367613340000000275905222502480811_);fill:none;stroke:#FFFFFF;stroke-width:2;stroke-miterlimit:10;stroke-opacity:0.2;}
	.st2{display:none;clip-path:url(#SVGID_00000019659233844367613340000000275905222502480811_);}
	.st3{display:inline;fill:#E44D26;}
	.st4{display:inline;fill:#F16529;}
	.st5{display:inline;fill:#EBEBEB;}
	.st6{display:inline;fill:#FFFFFF;}
	.st7{fill:#FFFFFF;}
</style>
<g>
	<defs>
		<path id="SVGID_1_" d="M10,0h50c5.5,0,10,4.5,10,10v50c0,5.5-4.5,10-10,10H10C4.5,70,0,65.5,0,60V10C0,4.5,4.5,0,10,0z"/>
	</defs>
	<clipPath id="SVGID_00000066474791840832534190000016402684288780574368_">
		<use xlink:href="#SVGID_1_"  style="overflow:visible;"/>
	</clipPath>
	<path style="clip-path:url(#SVGID_00000066474791840832534190000016402684288780574368_);fill:#020E18;" d="M10,0h50
		c5.5,0,10,4.5,10,10v50c0,5.5-4.5,10-10,10H10C4.5,70,0,65.5,0,60V10C0,4.5,4.5,0,10,0z"/>
	
		<path style="clip-path:url(#SVGID_00000066474791840832534190000016402684288780574368_);fill:none;stroke:#FFFFFF;stroke-width:2;stroke-miterlimit:10;stroke-opacity:0.2;" d="
		M94.9-15.5c0,0-26.4,12.6-21.7,43.6C78.4,63,48,77.9,27.1,69.3C6.3,60.7,7.8,28.7-31.8,27.7c-40.4-1-48.9-41.2-48.9-41.2"/>
	
		<path style="clip-path:url(#SVGID_00000066474791840832534190000016402684288780574368_);fill:none;stroke:#FFFFFF;stroke-width:2;stroke-miterlimit:10;stroke-opacity:0.2;" d="
		M64.4-24.9c0,0-11.4,26.6-7.3,53c4.1,26.4-14.4,29.5-21.7,26.4C20.1,48.1,17.1,13.8-7.5,11.6C-26,9.9-50.9,23.2-64-6.9"/>
	
		<path style="clip-path:url(#SVGID_00000066474791840832534190000016402684288780574368_);fill:none;stroke:#FFFFFF;stroke-width:2;stroke-miterlimit:10;stroke-opacity:0.2;" d="
		M52.1-13c0,0,4.1,27.1-14.1,22.3C17.1,3.7,17.5-9.4-8.9,3c-9.4,4.4-47.2,5.7-39.6-18.5"/>
	
		<path style="clip-path:url(#SVGID_00000066474791840832534190000016402684288780574368_);fill:none;stroke:#FFFFFF;stroke-width:2;stroke-miterlimit:10;stroke-opacity:0.2;" d="
		M38.9,45.1c4.4,0,7.9-5.5,7.9-12.2s-3.5-12.2-7.9-12.2S31,26.2,31,32.9S34.5,45.1,38.9,45.1z"/>
	<g style="display:none;clip-path:url(#SVGID_00000066474791840832534190000016402684288780574368_);">
		<path class="st3" d="M17.7,55l-4-45h43.6l-4,45l-17.8,5L17.7,55z"/>
		<path class="st4" d="M35.5,56.2l14.4-4l3.4-38.4H35.5V56.2z"/>
		<path class="st5" d="M35.5,30.4h-7.2l-0.5-5.7h7.7v-5.5H21.8l0.1,1.5l1.3,15.2h12.2V30.4z M35.5,44.7L35.5,44.7l-6.1-1.7L29,38.6
			h-5.5l0.8,8.7l11.2,3.1l0,0V44.7z"/>
		<path class="st6" d="M35.5,30.4v5.5h6.7L41.6,43l-6.1,1.7v5.7l11.2-3.1l0.1-0.9L48,31.9l0.1-1.5h-1.5H35.5z M35.5,19.2v5.5h13.2
			l0.1-1.2l0.2-2.8l0.1-1.5H35.5z"/>
	</g>
</g>
<g>
	<path class="st7" d="M26.3,41.6c-1.6-1.3-3.4-2.5-4.6-4.3c-2.5-3.1-4.5-6.6-5.8-10.4c-0.8-2.4-1.1-5-2.1-7.4
		c-1.1-1.7,0.2-3.6,2-4.1c0.8-0.2,2.3-0.9,0.5-0.4c-1.6,1.2-1.7-1.1-0.1-1.2c1.1-0.1,1.5-1,1.1-1.9c-1.2-0.8,2.9-1.6,0.8-2.8
		c-2.1-2.3,3-2.7,1.7-0.1c-0.3,2,3.6-0.4,2.7,1.9c0.9,1.1,3.4,0.3,3.4,1.8c1.3,0.1,1.8,1.2,3,1.3c1.3,0.6,3.6,1,4.1,2.5
		c-1.3,1-4.3-2.1-4.4,0.7c0.4,4.2,0.3,8.4,1.8,12.4c0.7,2.4,2.5,4.3,4,6.1c1.5,1.8,3.5,3.1,5.6,4.2c1.8,0.9,3.8,1.4,5.8,1.8
		c0.8-0.6,2.2-2.9,3.5-1.9c0.1,1.1-2.5,2.3-0.1,2.2c1.4-0.4,2.4,1.1,3.5-0.3c1.1,1.3,4.4-0.8,3.6,1.8c-1,0.7-2.5,0.3-3.5,1.2
		c-1.7-0.8-3,0.8-4.9,0.5c-2.1,0.4-4.2,0.5-6.3,0.5c-3.4-0.3-6.9-0.4-10.2-1.6C29.7,43.7,27.9,42.6,26.3,41.6L26.3,41.6z M29.2,42.8
		c1.8,0.8,3.6,1.6,5.5,1.8c3.1,0.4,6.4,1.1,9.5,0.5c-1.4-0.6-2.9,0.2-4.3-0.5c-1.7,0.4-3.5-0.1-5.2-0.3c-2-0.9-4.1-1.5-5.9-2.6
		c-2.3-0.8,1.2,1.1,1.8,1.2c1.4,0.8-1.6-0.4-2-0.8c-1.2-0.7-1.4-0.5-0.1,0.2C28.7,42.5,29,42.7,29.2,42.8L29.2,42.8z M25.8,40.4
		c1.7,0.6,0-1.2-0.8-1.1c-0.4-0.6-1.4-1-0.6-1.3c-1.3,0.4-1.3-1.7-1.9-1.4c-1.3-0.4-0.5-1.9-2.1-2.8c-0.1-1-1.6-1.8-2-3.3
		c-0.2-0.7-1.6-2.9-0.8-0.9c0.7,1.9,2.1,3.6,3.1,5.2c0.8,1.6,1.8,3.2,3.4,4.2C24.6,39.5,25.1,40.2,25.8,40.4L25.8,40.4z M20.8,34.9
		C20.8,34.6,21.1,35.5,20.8,34.9z M27.9,41.2C28.3,41,27.3,41,27.9,41.2z M28.8,41.5C28.7,41,28.4,41.8,28.8,41.5z M30,42
		C30.6,41.5,29.1,41.7,30,42z M32,43.1C32.4,42.6,31,43,32,43.1z M28.2,40.4C29,39.9,27,40.4,28.2,40.4z M29,40.9
		C29,40.6,28.7,41,29,40.9z M33.5,43.6c0.7,0.5,4.2,1,2,0.2C35.1,43.9,31.5,42.8,33.5,43.6z M26.4,38.2
		C26.4,37.9,25.3,37.8,26.4,38.2z M28.5,39.4C29,39,27.4,39.1,28.5,39.4z M30.2,40.4C31,40.1,29,40.1,30.2,40.4z M25.6,37.2
		c0.8,0.6,3.4,0.1,1.3-0.4c-1-0.5-3.1-0.9-1.6,0.3L25.6,37.2z M31.4,40.8C31.8,40.2,30,40.5,31.4,40.8z M29.6,39.4
		c2,0.6-1.7-1.3-0.5-0.2l0.3,0.1L29.6,39.4z M33.2,41.4C35.1,41.5,31.4,41.2,33.2,41.4z M24.8,36.1C24.8,35.8,24.4,36.1,24.8,36.1z
		 M36.5,43.3C36.5,42.6,35.8,43.8,36.5,43.3z M28.2,38.1C28,37.8,27.5,38.1,28.2,38.1z M25,35.9C26.1,35.8,23.5,35.4,25,35.9z
		 M21.3,33.5C21.2,33,20.1,32.5,21.3,33.5z M31,39.7C30.8,39.4,31,39.7,31,39.7z M37.1,43.4C37.1,43,36.8,43.5,37.1,43.4z
		 M30.5,39.1C30.6,38.7,29.6,39,30.5,39.1z M26,36.3C26.8,36.2,24.7,35.7,26,36.3z M33.6,41C34.9,40.5,32.4,40.7,33.6,41z
		 M29.7,38.3c1.5,0.2-1.8-1-0.3-0.1L29.7,38.3z M34.8,41.5c1.4-0.8,0.9,1.9,2.4,0.2c1.4-1-1.2,1.3,0.5,0.2c1.3-0.8,3.1,0.4,4.3,0.8
		c0.8,0,1.7,0.7,2.5,0.3c1.7-0.4-3.2-0.7-2-1.5C41,41.9,39.9,41,39.2,40c-1.7-0.4-3.7-1.3-4.5-2.8c-0.3-0.6,0.5,0.1-0.3-0.8
		c-1-0.9-1.5-1.9-2.2-3.1c-0.8-0.4-0.9-1.7-1,0c0-1.1-1-1.8-1.2-1.5c0-1,1.1-0.5,0.3-1.3c-0.2-1.1-0.7-2.2-0.9-3.4
		c-0.2-0.6,0-1.8-0.9-0.5c-0.3,1.4-0.1-1.7,0.4-0.7c0.6-1-0.2-0.9-0.3-0.8c0.4-0.9,0.3-2.1-0.1-1.6c0.2-0.9,0.3-3.4-0.3-3
		c0.4-1,0.7-4.4-1-3.1c-0.7,0-1.9,0.3-2.4,0.5c1.8,1-0.2,0.4-0.9,0.2c-0.1,0.9-0.8,0.5-1.7,0.5c1.4,0.2-0.7,1.5-1.5,1
		c-1.1,0.5,0.9,1.8,0,2.2c0.1,0.6-1.6-0.2-1.5,1.2c-1-0.4-0.1,1.6,0.4,0.9c1.8,0.5,1.2,1.6,1.3,2.6c-0.3,0.6-1.4-1.4-0.3-1.3
		c-0.9-1.5-1-0.5-1.8,0.2c-0.2,0,1.9,1,0.6,1.4c1.2,0.2,1.2,1.2,1.4,1.9c0.7,0.7,0.6-0.8,1.4,0.1c-0.5-0.8-2.8-2.2-1-1.8
		c0-0.8-0.3-1.4,0.2-1.4c0.6-1-0.6,2.5,0.7,1.2c0.3-0.2,0.4-1,1.1,0.1c0.9,0.9,0.3,1.5-1,0.7c0.2,0.8,1.7,1.1,1.4,2.3
		c0.3,1.1,0.7,0.7,1.1,0.6c0.3,1,0.4,0.3,0.5-0.2c1.3,0.3,1,1,1.4,1.6c0.9,0.4-1.3-2.7,0.3-0.9c1.6,1.5,0.6,2.1-0.8,1.8
		c0.9-0.1,1.2,1.2,2.4,1.2c1,0.5,1.8,2.4,0,1.6c-0.6-0.6-2.8-1.3-1-0.2c1.7,0.8,3,1.2,4.6,2.2c1.2,0.8,1.6,1.8,2.1,2
		c-1,0.5-2.9-0.4-1.5-0.6c-0.9-0.2-1.9-0.6-1.1,0.5c0.7,0.6,2.6,0.5,2.9,0.6c-0.3,0.6-0.8,0.7,0,0.7C33.6,41.1,34.8,41.2,34.8,41.5
		L34.8,41.5z M33,36.4c-0.5-0.6-0.7-1.6-0.1-0.7C33.2,35.9,33.9,37.4,33,36.4z M38.9,40.1C39.2,40.1,38.9,40.4,38.9,40.1z
		 M32.2,35.1C32.2,34.2,32.4,35.7,32.2,35.1z M31.6,34.3C31,33,32.5,34.7,31.6,34.3z M24.6,29.4C25,29.3,24.8,30.1,24.6,29.4z
		 M30.2,32.5C30.4,31.6,30.5,33.2,30.2,32.5z M26.3,29.7C26,29.2,26.8,30.2,26.3,29.7z M29.6,30.8C29,29.4,30.1,30,29.8,31
		L29.6,30.8z M23.8,26.9c-0.3-0.5-0.8-1.8-0.6-2.2c0.1,0.7,1.4,2.9,0.6,0.9c-0.9-1.7,1.1,0.5,1.3,1c0.1,0.4-0.5-0.1-0.1,0.9
		C24.2,26.3,24.5,28,23.8,26.9z M22,25.7C22.1,24.6,22.4,26.4,22,25.7z M22.8,26C23.2,25.1,23.5,27.1,22.8,26z M20.9,24.5
		c-0.7-0.7-1.2-1.3,0-0.4c0.5,0-1-1.4,0.1-0.4C22.2,23.8,21.6,25.5,20.9,24.5L20.9,24.5z M21.9,24.4C22.3,24,22.1,24.8,21.9,24.4z
		 M22.5,24.6C21.9,23.5,23.2,25.1,22.5,24.6z M21.3,23.4c-2-1.7,2.5,0.9,0.3,0.3L21.3,23.4z M26.9,26.7c-0.8-0.5-0.2-3.6,0.1-1.5
		c0.8-0.3,0,1.1,0.6,1.1C27.4,27.1,27.1,27.4,26.9,26.7z M28.9,27.9C29,27,29.1,28.5,28.9,27.9z M28.6,27.5
		C28.7,27.2,28.6,28,28.6,27.5z M21.6,22.9c-1.3-1.7,3.6,1.7,0.8,0.4C22.1,23.2,21.8,23.2,21.6,22.9z M25.6,25
		C25.5,23.5,25.9,25.2,25.6,25z M28.6,26.9C28.9,26.1,28.7,27.5,28.6,26.9z M21.8,22.2c0.7-0.2,3.1,1.3,0.9,0.4
		C22.5,22.4,22,22.5,21.8,22.2L21.8,22.2z M28.2,25.4c0.1-1.5,0.4-0.9,0,0.2L28.2,25.4L28.2,25.4z M22.4,21.7c0.3-0.4-0.8-2,0.2-0.6
		c0.4,0.3,1.2,0.6,0.5,0.7C24.2,22.8,22.8,22.1,22.4,21.7z M27.9,24.9C28.1,23.2,28.1,25.9,27.9,24.9z M21.8,20.1
		C22,20,21.9,20.4,21.8,20.1z M23.2,21C23.6,20.2,23.9,21.8,23.2,21z M27.3,23.2C27.3,22.9,27.3,23.7,27.3,23.2z M27,22.7
		C26.5,21.3,27.6,23.4,27,22.7z M26.7,21.8C26.6,21.2,27,22.5,26.7,21.8z M27.2,20.9c-0.4-0.7,0.5-3,0.6-1.6
		c-0.4,1.1-0.1,1.8,0.2,0.2C28.5,18.4,27.9,21.9,27.2,20.9L27.2,20.9z M27.8,17.4C28,17.2,27.9,17.7,27.8,17.4z M26.9,36.5
		C26.6,36.3,26.9,36.6,26.9,36.5z M28.9,37.5c1.1,0.3,1.1-0.2,0.1-0.3c-0.5-0.5-2.2-1-0.7-0.1C28.3,37.4,28.7,37.4,28.9,37.5z
		 M24.9,34.9c0.6,0.5,2.3,1.3,0.9,0.2c0.5-0.6-0.9-0.9-0.5-1.2c-1.2-0.7-0.9-0.7-0.1-0.6c-1.4-0.6,0.2-0.6,0.1-0.9
		c-0.5-0.1-2.7-1-1.4,0.1c-1.3-0.7-0.3,0.2-0.7,0.2c-1.3-0.4,1.2,1-0.2,0.7c0.8,0.6,2.1,1.6,0.3,0.6C23.1,34.1,24.6,34.6,24.9,34.9
		L24.9,34.9z M27,36.1C29.5,36.9,25.8,35.1,27,36.1z M37.7,42.6C37.7,42.1,37.3,43,37.7,42.6z M38.8,43c0.6-0.6,0,0.9,1-0.1
		c0-0.7,0-1.2-1.1-0.3C38.4,42.8,38.2,43.5,38.8,43L38.8,43z M21.4,32.1C21.2,31.4,20.1,31.4,21.4,32.1z M22.5,32.8
		C22.1,32.1,21,32.2,22.5,32.8z M29.2,36.9c0.7,0.6,3,0.4,0.8,0.1C29.7,36.5,27.9,36.6,29.2,36.9z M38.4,42.5
		C39.4,41.7,37.4,42.9,38.4,42.5z M40.4,44C40.4,43.7,40,44.1,40.4,44z M40.4,43.6C41.6,42.4,39.4,43.7,40.4,43.6z M18.5,29.7
		c-0.9-1.3-0.6-2-1.5-3.1c-0.2-0.8-1.6-2.8-0.7-0.7C17,27.1,17.3,28.9,18.5,29.7L18.5,29.7z M40.1,43.2
		C42.1,41.9,39.3,42.6,40.1,43.2z M41.7,43.8C42.7,42.9,41,43.6,41.7,43.8z M21,30.6C21.3,30.2,20.3,30.5,21,30.6z M41.3,43.4
		c1-0.6-0.2-0.5-0.2,0.1L41.3,43.4z M27.9,34.9C27.9,34.5,27.4,35,27.9,34.9z M28.7,35.4C28.5,34.9,28.3,35.5,28.7,35.4z M42.9,43.8
		c1.3-0.9-0.8-0.2-0.3,0.2L42.9,43.8z M42.4,43.6C43.5,42.7,41.3,44,42.4,43.6z M44.9,45.3C45.6,44.8,44.1,45.1,44.9,45.3z
		 M21.6,30.3c0.9,0.2,3.7,2.3,2.1,0.1c-0.8-0.2-0.3-2.3-1.2-1.9c0.6,1,0.5,1.4-0.7,0.8c-1.5-0.7-0.9,0.4-0.6,0.7
		C20.8,30,21.8,30.3,21.6,30.3L21.6,30.3z M17.4,26.9c0.2-0.7-1.5-3.8-0.8-1.6C16.9,25.8,16.8,26.7,17.4,26.9z M25.2,31.7
		C24.7,31.3,25.2,31.7,25.2,31.7z M26.4,32C26.4,31.3,25.1,31.7,26.4,32z M36.6,38.4C36.4,37.9,35.8,38.4,36.6,38.4z M37.1,38.8
		C37,38.5,36.8,38.9,37.1,38.8z M41.1,41.3C41.5,41.1,40.6,41.3,41.1,41.3z M19.5,27.5C20.6,27,18.3,27.2,19.5,27.5z M35.7,37.6
		C35.7,36.9,35,37.8,35.7,37.6z M19.1,26.4C19.8,26.2,18.4,26.3,19.1,26.4z M21.2,27.5C21.1,27.2,20.9,27.5,21.2,27.5z M46.5,43
		c0.9-0.2,3,0.5,3.4-0.2c-1.1,0-3.9-0.8-4,0.2l0.2,0L46.5,43L46.5,43z M21.8,27.6C21.8,26.9,21.2,27.6,21.8,27.6z M16.4,23.8
		C16.1,22.4,15.4,23.6,16.4,23.8z M17.7,24.2C17.7,23.7,16.5,23.8,17.7,24.2z M18.4,24.5C18.2,24.3,18.2,24.7,18.4,24.5z M23.1,27.5
		C23.3,27.3,22.6,27.4,23.1,27.5z M17.9,23.7C17.8,22.6,16.4,23.5,17.9,23.7z M15.2,22C15.2,21.5,15,22.2,15.2,22z M15.6,21.7
		C15.6,21.1,15.3,21.7,15.6,21.7z M17.8,23c0.9-0.4-1.7-0.8-0.2-0.1L17.8,23z M47.2,41.1C47.8,40.6,46.4,40.9,47.2,41.1z M50.7,43
		C51,42.2,50.1,43,50.7,43z M18.1,21.8C18.2,21.1,17.3,22,18.1,21.8z M14.9,19.7c-0.2-1-0.1-2.6,1.5-2.1c-2.1,0.4,1.5,2.7,1,0.9
		c0.9,0,1.8-0.5,1.3,0.3c1.8-0.2,3-1.7,4.7-1.5c1.3-0.2,2.8-0.3,4.2-0.8c1.2-0.1,2.3-1.4,1.7-2.1c-1.6-0.1-3.3,0.1-5.1,0.4
		c-2,0.4-3.8,1.2-5.8,1.5c-1.9,0.3,0.4,0.7-0.2,0.8c-1,0.4,1.2,0.6-0.1,1c-0.8-0.2-1.7-0.4-1.3-1.3c-1.9,0.2-3.5,1-2,2.9L14.9,19.7
		L14.9,19.7z M19.4,17.5c0.4-1.6,2.3,1.3,0.7,0.2C19.9,17.5,19.6,17.4,19.4,17.5z M19.5,16.7C20.1,16.2,19.8,16.9,19.5,16.7z
		 M20.3,16.7c0.1-0.7,1.8,0.4,0.3,0.3L20.3,16.7L20.3,16.7z M21.4,16.2C21.8,15.8,21.5,16.7,21.4,16.2z M21.7,16.1
		c0.7-0.8,3.8-0.5,1.5-0.1C22.6,15.5,22.1,16.3,21.7,16.1L21.7,16.1z M25.7,15.4C25.6,13.3,27.7,16.2,25.7,15.4z M26.9,15.4
		c0.4-1.1,1.6-0.4,0.2-0.2C27.1,15.3,27,15.8,26.9,15.4z M17.6,21.3C18.9,20.5,16.3,20.6,17.6,21.3z M18.5,21.5
		C19,21.1,17.6,21.3,18.5,21.5z M15.8,19.6C16.5,19,14.9,19.4,15.8,19.6z M52.8,42.8C52.9,42.1,52.3,43,52.8,42.8z M49.1,40.2
		C49.2,39.4,48.6,40.2,49.1,40.2z M53.9,43c1,0,3-0.3,0.9-0.3C54.4,42.7,52.7,42.7,53.9,43z M19.3,21.1c0.8-0.1,1.3-0.9-0.2-0.8
		C17,20,21.1,21,18.9,20.7C18.6,20.9,19.3,21.1,19.3,21.1z M20.1,21.4C20,20.9,19.8,21.7,20.1,21.4z M20.9,19.2
		C21.3,18.7,20.4,19.1,20.9,19.2z M18.2,14.7c1.4-0.5,3.4-1,4.1,0.2c-0.7-0.8-0.3-1.7,0.4-0.4c0.9,1.2,1.4-0.6,0.8-1
		c0.7,0.9,1.5,1.3,0.5,0.1c1.1-1.3-2.2,0.2-2.9,0.2C20.6,13.9,17.3,14.6,18.2,14.7L18.2,14.7z M19.1,13c0.8-0.6,2.9,0.4,1.6-0.6
		C20.5,12.3,17.8,13.2,19.1,13z M22.1,13.2c1,0-0.4-1.3,0.7-0.7c-0.2-0.6-1.3-0.7-1.9-1C20.6,12,21.5,13.2,22.1,13.2z M19.6,10.4
		C19.9,10,19,10.7,19.6,10.4z M20.8,10.7c1.6-0.2-0.4-0.7-0.3,0L20.8,10.7L20.8,10.7z M18.5,8.9c-1.1-1.4,2.1,0.2,0.9-1.3
		C18.5,6.9,17.6,8.5,18.5,8.9L18.5,8.9z M32.6,16.5c0.5-0.9-2.1-1.2-0.3-0.3C32.4,16.2,32.4,16.6,32.6,16.5L32.6,16.5z M22.4,49.7
		c-0.1,0.4-0.2,1.2-0.2,2.2c0,0.2-0.1,0.3-0.3,0.3c-0.2,0-0.3-0.1-0.4-0.3c-0.2-0.5-0.4-0.8-0.6-1c-0.2-0.2-0.5-0.4-0.8-0.4
		c-0.4-0.1-1.3-0.1-2.8-0.1c-0.3,0-0.6,0-0.7,0.1c-0.1,0-0.1,0.1-0.1,0.3v4.5c0,0.2,0.1,0.2,0.3,0.2c0.6,0,1.4,0,2.5-0.1
		c0.2,0,0.4-0.1,0.4-0.2c0.1-0.1,0.1-0.4,0.2-0.9c0-0.3,0.2-0.4,0.5-0.3c0.2,0,0.3,0.1,0.3,0.3c-0.2,0.9-0.2,2.1-0.2,3.5
		c0,0.2-0.1,0.3-0.3,0.3c-0.2,0-0.3-0.1-0.3-0.3c-0.2-0.8-0.5-1.3-0.9-1.3c-0.5-0.1-1.2-0.1-2.3-0.1c-0.1,0-0.2,0-0.2,0.1v4.4
		c0,0.3,0.1,0.6,0.4,0.7c0.2,0.1,0.6,0.2,1.2,0.3c0.3,0,0.5,0.2,0.4,0.4c0,0.2-0.3,0.3-0.9,0.3c-1.6-0.1-2.8-0.1-3.8,0
		c-0.3,0-0.4-0.1-0.4-0.3c0-0.2,0.1-0.3,0.4-0.3c0.6-0.1,1-0.6,1-1.7v-8.4c0-0.4-0.1-0.8-0.2-1c-0.2-0.2-0.4-0.4-0.9-0.6
		c-0.3-0.1-0.4-0.3-0.3-0.5c0-0.1,0.1-0.2,0.2-0.2c0.1,0,0.2,0,0.5,0c0.4,0.1,1.4,0.1,2.9,0.1c1.8,0,3.4,0,4.7-0.1
		C22.2,49.5,22.4,49.5,22.4,49.7C22.4,49.6,22.4,49.6,22.4,49.7L22.4,49.7z M28.8,62.1c0,0.3-0.1,0.4-0.4,0.3c-0.9-0.1-2-0.1-3.4,0
		c-0.3,0-0.4,0-0.5,0c-0.1,0-0.1-0.1-0.1-0.3c0-0.2,0.2-0.3,0.5-0.4c0.4-0.1,0.5-0.4,0.5-1v-8.9c0-0.5-0.1-0.9-0.2-1.2
		c-0.2-0.2-0.4-0.4-0.8-0.6c-0.2-0.1-0.3-0.2-0.3-0.3c0-0.2,0.1-0.3,0.4-0.4c0.4-0.1,0.9-0.4,1.4-0.7c0.4-0.2,0.6-0.4,0.7-0.4
		c0.2,0,0.4,0.2,0.4,0.5c0,0,0,0.3,0,1c0,0.6,0,1.3,0,1.9l0,8.8c0,0.4,0.1,0.7,0.3,0.9c0.2,0.2,0.5,0.3,1,0.4
		C28.6,61.8,28.8,62,28.8,62.1L28.8,62.1z M37.6,61.6c0,0.1-0.3,0.3-0.8,0.6c-0.5,0.3-0.9,0.4-1.2,0.4c-0.3,0-0.5-0.1-0.7-0.4
		c-0.2-0.2-0.3-0.4-0.4-0.4c-0.1,0-0.4,0.1-0.9,0.4c-0.6,0.3-1.1,0.4-1.7,0.4c-0.5,0-1-0.2-1.3-0.5c-0.4-0.3-0.6-0.8-0.6-1.4
		c0-1.1,1.3-1.9,3.9-2.4c0.4-0.1,0.7-0.3,0.7-0.5l0-0.6c0-1.1-0.4-1.6-1.4-1.6c-0.3,0-0.5,0.3-0.8,0.8c-0.3,0.5-0.6,0.8-1.1,0.8
		c-0.5,0.1-0.8-0.2-0.8-0.7c0-0.3,0.4-0.7,1.2-1.1c0.8-0.4,1.6-0.7,2.4-0.7c1.3,0,2,0.6,2,1.9l0,4c0,0.4,0.2,0.6,0.5,0.6
		c0.1,0,0.2,0,0.4,0c0.2,0,0.3,0,0.4,0C37.5,61.2,37.6,61.3,37.6,61.6L37.6,61.6z M34.6,59.3c0-0.2,0-0.3-0.1-0.3
		c-0.1-0.1-0.2-0.1-0.4,0c-1.6,0.3-2.4,0.8-2.4,1.5c0,0.8,0.4,1.1,1.2,1.1c0.3,0,0.7-0.1,1-0.2c0.4-0.1,0.6-0.3,0.6-0.5L34.6,59.3
		L34.6,59.3z M44.9,60.4c0,0.7-0.3,1.2-0.8,1.7c-0.5,0.4-1.3,0.6-2.2,0.6c-0.6,0-1.2-0.1-1.8-0.2c-0.5-0.1-0.8-0.2-0.9-0.3
		c-0.1-0.1-0.1-0.5-0.1-1.3c0-0.3,0.1-0.5,0.2-0.5c0.2,0,0.3,0.1,0.4,0.3c0.5,0.9,1.3,1.3,2.4,1.3c0.9,0,1.4-0.3,1.4-1
		c0-0.3-0.1-0.5-0.3-0.7c-0.2-0.2-0.7-0.5-1.3-0.8c-1-0.4-1.6-0.8-1.9-1.1c-0.3-0.3-0.5-0.8-0.5-1.4c0-0.7,0.3-1.3,0.8-1.7
		c0.5-0.4,1.2-0.6,2-0.6c0.5,0,1,0,1.5,0.1c0.5,0.1,0.7,0.2,0.7,0.3c0.1,0.4,0.2,0.9,0.3,1.6c0,0.1-0.1,0.2-0.3,0.2
		c-0.2,0-0.4,0-0.4-0.1c-0.5-0.8-1.2-1.3-2-1.3c-0.9,0-1.3,0.3-1.3,0.9c0,0.3,0.1,0.6,0.4,0.8c0.2,0.2,0.7,0.4,1.5,0.8
		c0.8,0.4,1.4,0.7,1.7,1C44.7,59.3,44.9,59.8,44.9,60.4L44.9,60.4z M56.5,62.2c0,0.2-0.2,0.4-0.5,0.4c-0.5,0-1.1,0-1.8,0.1
		c-0.4,0.1-0.6,0-0.8-0.1c-1-1.1-1.9-2.3-2.6-3.5c-0.1-0.1-0.1-0.2-0.2-0.2c-0.1,0-0.3,0.1-0.6,0.3c-0.3,0.2-0.5,0.4-0.5,0.7
		c0,0.2,0,0.5,0,1c0,0.4,0.1,0.7,0.3,0.8c0.1,0.1,0.5,0.2,1,0.2c0.3,0,0.5,0.2,0.5,0.3c0,0.2,0,0.2-0.1,0.3c0,0-0.2,0-0.4,0
		c-0.7-0.1-1.8,0-3.3,0.1c-0.4,0-0.6,0-0.6-0.1c0,0,0-0.1,0-0.2c0-0.2,0.2-0.4,0.6-0.5c0.4-0.1,0.5-0.5,0.5-1.3v-8.6
		c0-0.5-0.1-0.9-0.2-1.1c-0.1-0.3-0.4-0.5-0.9-0.6c-0.2-0.1-0.3-0.2-0.3-0.3c0-0.2,0.2-0.3,0.5-0.4c0.5-0.2,1-0.4,1.4-0.7
		c0.4-0.2,0.6-0.4,0.7-0.4c0.3,0,0.4,0.2,0.4,0.5c0,0,0,0.3,0,1c0,0.6,0,1.3,0,1.9l0,6.2c0,0.2,0,0.3,0.1,0.3c0.1,0,0.2-0.1,0.5-0.3
		c0.5-0.4,1.2-1,2-1.7c0.2-0.2,0.2-0.3,0.2-0.4c0-0.2-0.3-0.3-0.8-0.4c-0.2,0-0.3-0.2-0.3-0.4c0-0.2,0.1-0.3,0.3-0.3
		c0.5,0.1,1.2,0.1,2.1,0.1c0.6,0,1.3,0,1.9,0c0.2,0,0.3,0.1,0.3,0.4c0,0.2-0.2,0.3-0.5,0.4c-0.5,0-1,0.1-1.4,0.3
		c-0.6,0.3-1.3,0.8-2,1.5c-0.1,0-0.1,0.1-0.1,0.1c0,0.1,0.1,0.3,0.3,0.7c0.8,1.2,1.6,2.2,2.3,2.8c0.5,0.4,0.9,0.6,1.3,0.6
		c0.3,0,0.5,0,0.6,0.1C56.5,61.9,56.5,62,56.5,62.2L56.5,62.2z"/>
</g>
</svg>
