<?xml version="1.0" encoding="utf-8"?>
<!-- Generator: Adobe Illustrator 28.0.0, SVG Export Plug-In . SVG Version: 6.00 Build 0)  -->
<svg version="1.1" id="Layer_1" xmlns="http://www.w3.org/2000/svg" xmlns:xlink="http://www.w3.org/1999/xlink" x="0px" y="0px"
	 viewBox="0 0 70 70" style="enable-background:new 0 0 70 70;" xml:space="preserve">
<style type="text/css">
	.st0{clip-path:url(#SVGID_00000163795169669088384390000000318970069266490548_);fill:#74CFEC;}
	
		.st1{clip-path:url(#SVGID_00000163795169669088384390000000318970069266490548_);fill:none;stroke:#FFFFFF;stroke-width:2;stroke-miterlimit:10;stroke-opacity:0.2;}
	.st2{display:none;clip-path:url(#SVGID_00000163795169669088384390000000318970069266490548_);}
	.st3{display:inline;fill:#E44D26;}
	.st4{display:inline;fill:#F16529;}
	.st5{display:inline;fill:#EBEBEB;}
	.st6{display:inline;fill:#FFFFFF;}
	.st7{fill:#0B3C84;}
	.st8{fill:#013A44;}
</style>
<g>
	<defs>
		<path id="SVGID_1_" d="M10,0h50c5.5,0,10,4.5,10,10v50c0,5.5-4.5,10-10,10H10C4.5,70,0,65.5,0,60V10C0,4.5,4.5,0,10,0z"/>
	</defs>
	<clipPath id="SVGID_00000172438930175352393430000015398410019461181095_">
		<use xlink:href="#SVGID_1_"  style="overflow:visible;"/>
	</clipPath>
	<path style="clip-path:url(#SVGID_00000172438930175352393430000015398410019461181095_);fill:#74CFEC;" d="M10,0h50
		c5.5,0,10,4.5,10,10.1v50.3c0,5.6-4.5,10.1-10,10.1H10c-5.5,0-10-4.5-10-10.1V10.1C0,4.5,4.5,0,10,0z"/>
	
		<path style="clip-path:url(#SVGID_00000172438930175352393430000015398410019461181095_);fill:none;stroke:#FFFFFF;stroke-width:2;stroke-miterlimit:10;stroke-opacity:0.2;" d="
		M94.9-15.5c0,0-26.4,12.6-21.7,43.6C78.4,63,48,77.9,27.1,69.3C6.3,60.7,7.8,28.7-31.8,27.7c-40.4-1-48.9-41.2-48.9-41.2"/>
	
		<path style="clip-path:url(#SVGID_00000172438930175352393430000015398410019461181095_);fill:none;stroke:#FFFFFF;stroke-width:2;stroke-miterlimit:10;stroke-opacity:0.2;" d="
		M64.4-24.9c0,0-11.4,26.6-7.3,53c4.1,26.4-14.4,29.5-21.7,26.4C20.1,48.1,17.1,13.8-7.5,11.6C-26,9.9-50.9,23.2-64-6.9"/>
	
		<path style="clip-path:url(#SVGID_00000172438930175352393430000015398410019461181095_);fill:none;stroke:#FFFFFF;stroke-width:2;stroke-miterlimit:10;stroke-opacity:0.2;" d="
		M52.1-13c0,0,4.1,27.1-14.1,22.3C17.1,3.7,17.5-9.4-8.9,3c-9.4,4.4-47.2,5.7-39.6-18.5"/>
	
		<path style="clip-path:url(#SVGID_00000172438930175352393430000015398410019461181095_);fill:none;stroke:#FFFFFF;stroke-width:2;stroke-miterlimit:10;stroke-opacity:0.2;" d="
		M38.9,45.1c4.4,0,7.9-5.5,7.9-12.2s-3.5-12.2-7.9-12.2S31,26.2,31,32.9S34.5,45.1,38.9,45.1z"/>
	<g style="display:none;clip-path:url(#SVGID_00000172438930175352393430000015398410019461181095_);">
		<path class="st3" d="M17.7,55l-4-45h43.6l-4,45l-17.8,5L17.7,55z"/>
		<path class="st4" d="M35.5,56.2l14.4-4l3.4-38.4H35.5V56.2z"/>
		<path class="st5" d="M35.5,30.4h-7.2l-0.5-5.7h7.7v-5.5H21.8l0.1,1.5l1.3,15.2h12.2V30.4z M35.5,44.7L35.5,44.7l-6.1-1.7L29,38.6
			h-5.5l0.8,8.7l11.2,3.1l0,0V44.7z"/>
		<path class="st6" d="M35.5,30.4v5.5h6.7L41.6,43l-6.1,1.7v5.7l11.2-3.1l0.1-0.9L48,31.9l0.1-1.5h-1.5H35.5z M35.5,19.2v5.5h13.2
			l0.1-1.2l0.2-2.8l0.1-1.5H35.5z"/>
	</g>
</g>
<g>
	<path class="st7" d="M4.6,32.1C4.3,32,3.9,31.2,4.3,31c0.1-0.1,0.2,0,0.3,0c0.9,0.5,1.8,0.9,2.7,1.4c1.6,0.9,3.3,1.7,4.9,2.6
		c0.5,0.3,0.9,0.3,1.4,0c2.4-1.3,4.8-2.6,7.3-3.9c0.2-0.1,0.3-0.2,0.5-0.1c0.2,0.2,0,1-0.2,1.1c-0.3,0.2-0.5,0.2-0.8,0.4
		c-0.5,0.3-1,0.5-1.5,0.8c-0.9,0.5-0.8,0.4-1.1,0.6c-0.7,0.4-1.2,0.7-1.9,1.1c-0.4,0.2-0.6,0.3-1,0.6c-0.4,0.2-0.4,0.6-0.3,1
		c-0.4,0.2-0.9,0.5-1.3,0.7c-0.2,0.1-0.5,0.1-0.7,0c-0.5-0.3-0.9-0.5-1.4-0.7c0-0.4,0.1-0.9-0.4-1.1"/>
	<path class="st7" d="M14.9,38.8c-0.4,0.2-0.5,0.7-0.4,1.1c0,0,0,0-0.1,0c-1.7,0.9-1.7,0.9-3.3,0c0-0.4,0-0.8-0.4-1.1
		c-0.3-0.2-0.8-0.4-1.1-0.6c-0.6-0.4-0.9-0.6-1.6-0.9C8,37.1,7.7,37,7.5,36.9c-0.3-0.2-0.3-0.2-0.6-0.3c-0.8-0.4-1.5-0.8-2.3-1.2
		c-0.4-0.2-0.6-0.8-0.4-1.2c0.1-0.2,0.3,0,0.4,0C6,35,7.4,35.7,8.8,36.5c1.2,0.6,2.3,1.2,3.5,1.8c0.4,0.2,0.8,0.2,1.3,0
		c2.5-1.3,5-2.7,7.5-4c0.4-0.2,0.4-0.2,0.5,0.3c0,0.5-0.1,0.7-0.6,1c-0.7,0.3-1.4,0.7-2.1,1.1"/>
	<path class="st7" d="M19.1,30.4c-1.9-1-3.9-2.1-5.8-3.1c-0.4-0.2-0.6-0.2-1,0c-1.9,1-3.8,2-5.7,3c-0.1,0.1-0.3,0.1-0.3,0.3
		c0,0.2,0.1,0.3,0.3,0.3c1.9,1,3.8,2,5.8,3c0.1,0.1,0.3,0.1,0.5,0.1c0.1,0,0.2-0.1,0.3-0.1c2-1,3.9-2.1,5.9-3.1
		C19.6,30.7,19.4,30.6,19.1,30.4z M16.2,30.8c-1.1,0.6-2.1,1.1-3.2,1.7c0,0,0,0,0,0c-0.1,0.1-0.3,0.1-0.4,0c0,0-0.1,0-0.1-0.1
		c-1-0.5-2-1-2.9-1.6c-0.1-0.1-0.3-0.1-0.3-0.2c0-0.2,0.1-0.2,0.3-0.3c1-0.5,1.9-1,2.9-1.5c0.2-0.1,0.5-0.2,0.7,0c1,0.5,2,1.1,3,1.6
		C16.4,30.6,16.5,30.7,16.2,30.8z"/>
	<path class="st7" d="M13.6,41.4c3.9-2,6.4-3.4,7.2-3.8c0.2-0.1,0.5-0.3,0.5-0.2c0.2,0.3,0,1-0.2,1.1c-0.1,0.1-0.2,0.1-0.4,0.2
		c-2.4,1.3-4.9,2.6-7.3,3.9c-0.4,0.2-0.8,0.2-1.3,0c-2.5-1.4-4.9-2.6-7.4-3.9c-0.3-0.2-0.5-0.3-0.6-0.7c-0.2-0.7,0-0.7,0.5-0.5
		c2.5,1.3,4.9,2.6,7.4,3.9c0.1,0.1,0.4,0.2,0.8,0.2C13.2,41.6,13.5,41.4,13.6,41.4z"/>
	<g>
		<path class="st8" d="M50,31.2C50,31.1,50,31.1,50,31.2C50,31.1,50,31.1,50,31.2l-0.6-0.1l0,0c0,0.1-0.1,0.2-0.2,0.3
			c0,0-0.1,0-0.1,0c-0.5,0-1.1,0-1.6,0c0,0-0.1,0-0.1,0c-0.1,0-0.2-0.1-0.2-0.2c0,0,0-0.1,0-0.1c0-0.1,0-0.1,0-0.2v-0.1v-0.1l3,0
			v-0.2c0-0.2,0-0.3,0-0.5c0-0.1,0-0.1,0-0.2c0-0.2-0.1-0.3-0.2-0.4c-0.2-0.1-0.4-0.2-0.6-0.2c-0.3,0-0.5,0-0.8,0
			c-0.3,0-0.6,0-0.9,0h-0.2c-0.1,0-0.1,0-0.2,0c-0.1,0-0.2,0.1-0.3,0.1c-0.1,0.1-0.2,0.2-0.3,0.3c-0.1,0.1-0.1,0.2-0.1,0.4v0.4
			c0,0.2,0,0.4,0,0.6c0,0,0,0.1,0,0.1c0,0.2,0.2,0.4,0.4,0.5c0.2,0.1,0.3,0.1,0.5,0.1c0.5,0,1.1,0,1.6,0h0.2c0.2,0,0.3,0,0.4-0.1
			C49.8,31.6,49.9,31.4,50,31.2z M47,30c0-0.1,0.1-0.2,0.2-0.3c0,0,0.1,0,0.1,0c0.4,0,0.8,0,1.3,0H49c0,0,0.1,0,0.2,0
			c0.1,0,0.2,0.1,0.2,0.2c0,0.1,0,0.1,0,0.2c0,0,0,0.1,0,0.1v0H47v-0.1c0,0,0,0,0-0.1C47,30.1,47,30,47,30z"/>
		<path class="st8" d="M62.6,29.9c0-0.2-0.1-0.3-0.2-0.4c-0.2-0.1-0.4-0.2-0.6-0.2c-0.3,0-0.5,0-0.8,0c-0.3,0-0.6,0-0.9,0h-0.2
			c-0.1,0-0.1,0-0.2,0c-0.1,0-0.2,0.1-0.3,0.1c-0.1,0.1-0.2,0.2-0.3,0.3C59.1,29.7,59,29.9,59,30v0.4c0,0.2,0,0.4,0,0.6
			c0,0,0,0.1,0,0.1c0,0.2,0.2,0.4,0.4,0.5c0.2,0.1,0.3,0.1,0.5,0.1c0.5,0,1.1,0,1.6,0h0.2c0.2,0,0.3,0,0.4-0.1
			c0.3-0.1,0.4-0.3,0.4-0.6c0,0,0,0,0-0.1c0,0,0,0,0,0H62l0,0c0,0.1-0.1,0.2-0.2,0.3c0,0-0.1,0-0.1,0c-0.5,0-1.1,0-1.6,0
			c0,0-0.1,0-0.1,0c-0.1,0-0.2-0.1-0.2-0.2c0,0,0-0.1,0-0.1c0-0.1,0-0.1,0-0.2v-0.1v-0.1l3,0v-0.2c0-0.2,0-0.3,0-0.5
			C62.6,30,62.6,29.9,62.6,29.9z M62,30.1C62,30.2,62,30.2,62,30.1v0.1h-2.4v-0.1c0,0,0,0,0-0.1c0-0.1,0-0.1,0-0.2
			c0-0.1,0.1-0.2,0.2-0.3c0,0,0.1,0,0.1,0c0.4,0,0.8,0,1.3,0h0.4c0,0,0.1,0,0.2,0c0.1,0,0.2,0.1,0.2,0.2C62,30,62,30.1,62,30.1z"/>
		<path class="st8" d="M41.2,29.9c0-0.2-0.1-0.3-0.2-0.4c-0.2-0.1-0.4-0.2-0.6-0.2c-0.3,0-0.5,0-0.8,0c-0.3,0-0.6,0-0.9,0h-0.2
			c-0.1,0-0.1,0-0.2,0c-0.1,0-0.2,0.1-0.3,0.1c-0.1,0.1-0.2,0.2-0.3,0.3c-0.1,0.1-0.1,0.2-0.1,0.4v0.4c0,0.2,0,0.4,0,0.6
			c0,0,0,0.1,0,0.1c0,0.2,0.2,0.4,0.4,0.5c0.2,0.1,0.3,0.1,0.5,0.1c0.5,0,1.1,0,1.6,0h0.2c0.2,0,0.3,0,0.4-0.1
			c0.3-0.1,0.4-0.3,0.4-0.6c0,0,0,0,0-0.1c0,0,0,0,0,0h-0.6l0,0c0,0.1-0.1,0.2-0.2,0.3c0,0-0.1,0-0.1,0c-0.5,0-1.1,0-1.6,0
			c0,0-0.1,0-0.1,0c-0.1,0-0.2-0.1-0.2-0.2c0,0,0-0.1,0-0.1c0-0.1,0-0.1,0-0.2v-0.1c0,0,0,0,0,0l0,0h3v-0.2c0-0.2,0-0.3,0-0.5
			C41.2,30,41.2,29.9,41.2,29.9z M40.6,30.1C40.6,30.2,40.6,30.2,40.6,30.1c0,0.1,0,0.1,0,0.1l0,0l0,0h-2.4l0,0c0,0,0,0,0,0
			c0,0,0,0,0-0.1c0-0.1,0-0.1,0-0.2c0-0.1,0.1-0.2,0.2-0.3c0,0,0.1,0,0.1,0c0.4,0,0.8,0,1.3,0h0.4c0,0,0.1,0,0.2,0
			c0.1,0,0.2,0.1,0.2,0.2C40.6,30,40.6,30.1,40.6,30.1z"/>
		<path class="st8" d="M25.3,29.9v-2h-0.6v4c0.1,0,0.1,0,0.2,0c0.1,0,0.2,0,0.4,0v-0.4c0-0.4,0-0.3,0-0.7L25.3,29.9L25.3,29.9z"/>
		<path class="st8" d="M65.8,29.6c-0.1-0.1-0.2-0.2-0.3-0.3s-0.3-0.1-0.4-0.1c-0.2,0-0.4,0-0.6,0c-0.1,0-0.3,0-0.4,0.1
			c-0.1,0-0.1,0.1-0.2,0.1l0,0v-0.2h-0.6c0,0,0,2.6,0,2.6h0.6l0-1.8c0-0.1,0-0.1,0-0.1c0-0.1,0.1-0.2,0.2-0.2c0.1,0,0.1,0,0.2,0
			c0.3,0,0.5,0,0.8,0c0,0,0.1,0,0.1,0c0.1,0,0.2,0.1,0.2,0.3l0,0h0.6C65.9,29.8,65.9,29.7,65.8,29.6z"/>
		<path class="st8" d="M44.5,29.6c-0.1-0.1-0.2-0.2-0.3-0.3s-0.3-0.1-0.4-0.1c-0.2,0-0.4,0-0.6,0c-0.1,0-0.3,0-0.4,0.1
			c-0.1,0-0.1,0.1-0.2,0.1l0,0v-0.2h-0.6c0,0,0,2.6,0,2.6h0.6l0-1.8c0-0.1,0-0.1,0-0.1c0-0.1,0.1-0.2,0.2-0.2c0.1,0,0.1,0,0.2,0
			c0.3,0,0.5,0,0.8,0c0,0,0.1,0,0.1,0c0.1,0,0.2,0.1,0.2,0.3l0,0h0.6C44.6,29.8,44.5,29.7,44.5,29.6z"/>
		<path class="st8" d="M36.1,31.8C36.1,31.8,36.2,31.8,36.1,31.8L36.1,31.8c0.3,0,0.4-0.1,0.5-0.2c0.1-0.1,0.2-0.2,0.2-0.3
			c0-0.1,0.1-0.2,0.1-0.3c0-0.3,0-0.7,0-1v0c0-0.1,0-0.1,0-0.2c0-0.2-0.1-0.3-0.3-0.4c-0.2-0.1-0.4-0.2-0.6-0.2c-0.5,0-0.9,0-1.4,0
			c-0.1,0-0.1,0-0.2,0c-0.1,0-0.2,0.1-0.4,0.1c0,0,0,0-0.1,0.1l0,0v-0.2h-0.6v3.3c0.1,0,0.2,0,0.3,0c0.1,0,0.2,0,0.3,0V31
			c0-0.3,0-0.6,0-0.9v0c0,0,0-0.1,0-0.1c0-0.1,0.1-0.2,0.2-0.2c0,0,0.1,0,0.2,0c0.2,0,0.4,0,0.6,0h0.2h0.2c0.2,0,0.4,0,0.6,0
			c0,0,0.1,0,0.2,0c0.1,0,0.2,0.1,0.2,0.3c0,0.4,0,0.8,0,1.1c0,0.1-0.1,0.3-0.2,0.3c0,0-0.1,0-0.1,0c-0.4,0-0.7,0-1,0h-0.3l-0.4,0.5
			C34.7,31.8,35.6,31.8,36.1,31.8L36.1,31.8z"/>
		<path class="st8" d="M54.2,31.8V28l-0.6,0V31c0,0,0,0.1,0,0.1c0,0.1-0.1,0.2-0.2,0.2c0,0-0.1,0-0.2,0h-1.6c0,0-0.1,0-0.2,0
			c-0.1,0-0.2-0.1-0.2-0.3c0-0.4,0-0.8,0-1.1c0-0.1,0.1-0.3,0.2-0.3c0,0,0.1,0,0.1,0H53l0.4-0.5c-0.4,0-1.4,0-1.8,0h0
			c0,0-0.1,0-0.1,0h0c-0.2,0-0.3,0.1-0.4,0.2c-0.1,0.1-0.2,0.2-0.2,0.3c0,0.1-0.1,0.2-0.1,0.3c0,0.4,0,0.7,0,1.1c0,0.1,0,0.1,0,0.2
			c0,0.2,0.1,0.3,0.3,0.4c0.2,0.1,0.4,0.2,0.6,0.2c0.5,0,0.9,0,1.4,0c0.1,0,0.1,0,0.2,0c0.1,0,0.2-0.1,0.4-0.1c0,0,0,0,0.1,0l0,0
			l0,0l0,0v0.2H54.2L54.2,31.8z"/>
		<polygon class="st8" points="45.1,27.9 45.1,31.8 45.7,31.8 45.7,27.9 		"/>
		<path class="st8" d="M28.1,27.9v1.8c-0.5,0-2.1,0-2.4,0l-0.4,0.5c0.5,0,2.1,0,2.8,0v1.7h0.6v-3.9L28.1,27.9L28.1,27.9z"/>
		<path class="st8" d="M58.4,29.2C58.4,29.2,58.4,29.2,58.4,29.2c-0.1,0-0.1,0-0.2,0c-0.1,0-0.2,0-0.4,0l0,0.2c0,0-0.2-0.2-0.6-0.2
			c-0.2,0-0.4,0-0.6,0c-0.2,0-0.5,0-0.7,0c-0.1,0-0.1,0-0.2,0c-0.1,0-0.3,0.1-0.4,0.1c-0.2,0.1-0.3,0.2-0.3,0.4c0,0.1,0,0.2,0,0.3
			c0,0.2,0,0.5,0,0.7V31c0,0.1,0,0.1,0,0.2c0,0.1,0.1,0.3,0.2,0.4c0.2,0.2,0.4,0.3,0.6,0.3c0.4,0,0.9,0,1.4,0h0.1l0.4-0.5
			c-0.5,0-1.3,0-1.8,0c0,0-0.1,0-0.2,0c-0.1,0-0.2-0.1-0.2-0.3c0,0,0,0,0,0v-0.4V30c0,0,0-0.1,0-0.1c0-0.1,0.1-0.1,0.2-0.2
			c0.1,0,0.1,0,0.2,0c0.2,0,0.4,0,0.6,0h0.2h0.2c0.2,0,0.4,0,0.6,0c0,0,0.1,0,0.1,0c0.1,0,0.1,0.1,0.2,0.2c0,0,0,0.1,0,0.1l0,2.1
			l0,0v0c0,0,0,0.1,0,0.1c0,0,0,0.1,0,0.1c0,0.1-0.1,0.1-0.2,0.1c-0.1,0-0.1,0-0.2,0h-0.7c-0.3,0-0.6,0-0.9,0l-0.4,0.5
			c0.4,0,1.1,0,1.7,0h0.4c0,0,0.1,0,0.1,0c0.1,0,0.3-0.1,0.4-0.1c0.1-0.1,0.2-0.2,0.3-0.3c0-0.1,0.1-0.2,0.1-0.3c0-0.7,0-1.3,0-2
			L58.4,29.2z"/>
		<path class="st8" d="M32.8,29.2C32.8,29.2,32.8,29.2,32.8,29.2l-0.6,0v0.3c0,0.5,0,1,0,1.5c0,0,0,0.1,0,0.1c0,0.1-0.1,0.2-0.2,0.2
			c-0.1,0-0.1,0-0.2,0h-0.4c-0.4,0-0.8,0-1.2,0c0,0-0.1,0-0.1,0c-0.1,0-0.2-0.1-0.2-0.2c0,0,0-0.1,0-0.1v-1.8c0,0,0,0,0,0h-0.6v0.4
			c0,0.5,0,0.9,0,1.4c0,0.1,0,0.1,0,0.2c0,0.1,0.1,0.3,0.2,0.4c0.2,0.2,0.4,0.3,0.6,0.3l1.5,0c0.2,0,0.3,0,0.5-0.1c0,0,0,0,0.1-0.1
			l0,0v0.6c0,0.1,0,0.2-0.1,0.2c-0.1,0-0.1,0.1-0.2,0.1l0,0h-0.5c-0.4,0-0.8,0-1.1,0l-0.4,0.5c0.5,0,1.6,0,2.1,0c0,0,0.1,0,0.1,0
			c0.2,0,0.3-0.1,0.4-0.2c0.2-0.1,0.3-0.3,0.3-0.6c0-0.7,0-1.5,0-2.2L32.8,29.2L32.8,29.2z"/>
	</g>
	<g>
		<path class="st7" d="M24.7,42.6v-7.9h4.8v0.9h-3.8v2.7h3.5v0.9h-3.5v3.5H24.7z"/>
		<path class="st7" d="M29.7,42.6l2.4-7.9h1.7l2.4,7.9h-1l-0.6-2h-3.4l-0.6,2H29.7z M31.6,39.8h2.9l-1.4-4.5h-0.2L31.6,39.8z"/>
		<path class="st7" d="M37.1,42.6v-0.9h1.1v-6.2h-1.1v-0.9h4c0.5,0,0.9,0.1,1.2,0.2c0.4,0.2,0.6,0.4,0.8,0.7c0.2,0.3,0.3,0.6,0.3,1
			v0.1c0,0.4-0.1,0.7-0.2,0.9c-0.1,0.2-0.3,0.4-0.5,0.6c-0.2,0.1-0.4,0.2-0.6,0.3v0.2c0.2,0,0.4,0.1,0.6,0.3
			c0.2,0.1,0.4,0.3,0.5,0.6c0.1,0.2,0.2,0.5,0.2,0.9v0.1c0,0.4-0.1,0.8-0.3,1.1s-0.5,0.6-0.9,0.7c-0.4,0.2-0.8,0.2-1.2,0.2H37.1
			L37.1,42.6z M39.2,38.2H41c0.5,0,0.8-0.1,1.1-0.3c0.3-0.2,0.4-0.5,0.4-0.9v-0.1c0-0.4-0.1-0.7-0.4-0.9c-0.3-0.2-0.6-0.3-1.1-0.3
			h-1.8L39.2,38.2L39.2,38.2z M39.2,41.8H41c0.5,0,0.9-0.1,1.1-0.4c0.3-0.2,0.4-0.6,0.4-1v-0.1c0-0.4-0.1-0.7-0.4-1
			c-0.3-0.2-0.6-0.4-1.1-0.4h-1.8V41.8z"/>
		<path class="st7" d="M45,42.6v-7.9h3.2c0.5,0,0.9,0.1,1.3,0.3c0.4,0.2,0.7,0.4,0.9,0.7c0.2,0.3,0.3,0.7,0.3,1.1v0.1
			c0,0.5-0.1,0.9-0.4,1.2c-0.2,0.3-0.5,0.5-0.9,0.6v0.2c0.3,0,0.5,0.1,0.7,0.3c0.2,0.2,0.3,0.4,0.3,0.8v2.7h-0.9v-2.5
			c0-0.2-0.1-0.4-0.2-0.5c-0.1-0.1-0.3-0.2-0.6-0.2h-2.7v3.3L45,42.6L45,42.6z M45.9,38.5h2.2c0.5,0,0.9-0.1,1.2-0.4
			c0.3-0.3,0.4-0.6,0.4-1.1V37c0-0.5-0.1-0.8-0.4-1.1c-0.3-0.3-0.7-0.4-1.2-0.4h-2.2V38.5z"/>
		<path class="st7" d="M52.1,42.6v-7.9h1v7.9H52.1z"/>
		<path class="st7" d="M57.8,42.8c-0.9,0-1.7-0.3-2.3-0.8c-0.6-0.5-0.8-1.3-0.8-2.4v-1.8c0-1,0.3-1.9,0.8-2.4
			c0.6-0.5,1.3-0.8,2.3-0.8c0.9,0,1.7,0.3,2.2,0.8s0.8,1.2,0.8,2.1v0.1h-0.9v-0.1c0-0.6-0.2-1.1-0.5-1.5c-0.3-0.4-0.8-0.6-1.5-0.6
			c-0.7,0-1.2,0.2-1.6,0.6c-0.4,0.4-0.6,1-0.6,1.7v1.9c0,0.7,0.2,1.3,0.6,1.7c0.4,0.4,0.9,0.6,1.6,0.6c0.7,0,1.2-0.2,1.5-0.6
			s0.5-0.9,0.5-1.5v-0.2h0.9v0.1c0,0.9-0.3,1.6-0.8,2.1C59.4,42.5,58.7,42.8,57.8,42.8z"/>
	</g>
</g>
</svg>
