<?xml version="1.0" encoding="utf-8"?>
<!-- Generator: Adobe Illustrator 28.0.0, SVG Export Plug-In . SVG Version: 6.00 Build 0)  -->
<svg version="1.1" id="Layer_1" xmlns="http://www.w3.org/2000/svg" xmlns:xlink="http://www.w3.org/1999/xlink" x="0px" y="0px"
	 viewBox="0 0 70 70" style="enable-background:new 0 0 70 70;" xml:space="preserve">
<style type="text/css">
	.st0{clip-path:url(#SVGID_00000041256729466516714330000000626967187426858143_);fill:#151514;}
	
		.st1{clip-path:url(#SVGID_00000041256729466516714330000000626967187426858143_);fill:none;stroke:#FFFFFF;stroke-width:2;stroke-miterlimit:10;stroke-opacity:0.2;}
	.st2{display:none;clip-path:url(#SVGID_00000041256729466516714330000000626967187426858143_);}
	.st3{display:inline;fill:#E44D26;}
	.st4{display:inline;fill:#F16529;}
	.st5{display:inline;fill:#EBEBEB;}
	.st6{display:inline;fill:#FFFFFF;}
	.st7{fill:#E76F00;}
	.st8{fill:#5382A1;}
</style>
<g>
	<defs>
		<path id="SVGID_1_" d="M10,0h50c5.5,0,10,4.5,10,10v50c0,5.5-4.5,10-10,10H10C4.5,70,0,65.5,0,60V10C0,4.5,4.5,0,10,0z"/>
	</defs>
	<clipPath id="SVGID_00000090995695832160246200000013271292201929708434_">
		<use xlink:href="#SVGID_1_"  style="overflow:visible;"/>
	</clipPath>
	<path style="clip-path:url(#SVGID_00000090995695832160246200000013271292201929708434_);fill:#151514;" d="M10,0h50
		c5.5,0,10,4.5,10,10v50c0,5.5-4.5,10-10,10H10C4.5,70,0,65.5,0,60V10C0,4.5,4.5,0,10,0z"/>
	
		<path style="clip-path:url(#SVGID_00000090995695832160246200000013271292201929708434_);fill:none;stroke:#FFFFFF;stroke-width:2;stroke-miterlimit:10;stroke-opacity:0.2;" d="
		M94.9-15.5c0,0-26.4,12.6-21.7,43.6C78.4,63,48,77.9,27.1,69.3C6.3,60.7,7.8,28.7-31.8,27.7c-40.4-1-48.9-41.2-48.9-41.2"/>
	
		<path style="clip-path:url(#SVGID_00000090995695832160246200000013271292201929708434_);fill:none;stroke:#FFFFFF;stroke-width:2;stroke-miterlimit:10;stroke-opacity:0.2;" d="
		M64.4-24.9c0,0-11.4,26.6-7.3,53c4.1,26.4-14.4,29.5-21.7,26.4C20.1,48.1,17.1,13.8-7.5,11.6C-26,9.9-50.9,23.2-64-6.9"/>
	
		<path style="clip-path:url(#SVGID_00000090995695832160246200000013271292201929708434_);fill:none;stroke:#FFFFFF;stroke-width:2;stroke-miterlimit:10;stroke-opacity:0.2;" d="
		M52.1-13c0,0,4.1,27.1-14.1,22.3C17.1,3.7,17.5-9.4-8.9,3c-9.4,4.4-47.2,5.7-39.6-18.5"/>
	
		<path style="clip-path:url(#SVGID_00000090995695832160246200000013271292201929708434_);fill:none;stroke:#FFFFFF;stroke-width:2;stroke-miterlimit:10;stroke-opacity:0.2;" d="
		M38.9,45.1c4.4,0,7.9-5.5,7.9-12.2s-3.5-12.2-7.9-12.2S31,26.2,31,32.9S34.5,45.1,38.9,45.1z"/>
	<g style="display:none;clip-path:url(#SVGID_00000090995695832160246200000013271292201929708434_);">
		<path class="st3" d="M17.7,55l-4-45h43.6l-4,45l-17.8,5L17.7,55z"/>
		<path class="st4" d="M35.5,56.2l14.4-4l3.4-38.4H35.5V56.2z"/>
		<path class="st5" d="M35.5,30.4h-7.2l-0.5-5.7h7.7v-5.5H21.8l0.1,1.5l1.3,15.2h12.2V30.4z M35.5,44.7L35.5,44.7l-6.1-1.7L29,38.6
			h-5.5l0.8,8.7l11.2,3.1l0,0V44.7z"/>
		<path class="st6" d="M35.5,30.4v5.5h6.7L41.6,43l-6.1,1.7v5.7l11.2-3.1l0.1-0.9L48,31.9l0.1-1.5h-1.5H35.5z M35.5,19.2v5.5h13.2
			l0.1-1.2l0.2-2.8l0.1-1.5H35.5z"/>
	</g>
</g>
<g>
	<path class="st7" d="M48.4,50.7h-0.2v-0.1h0.6v0.1h-0.2v0.6h-0.1V50.7z M49.5,50.7L49.5,50.7l-0.2,0.5h-0.1L49,50.7h0v0.5h-0.1
		v-0.7H49l0.2,0.5l0.2-0.5h0.2v0.7h-0.1L49.5,50.7z"/>
	<path class="st8" d="M30.1,36.7c0,0-1.4,0.8,1,1.1c3,0.3,4.5,0.3,7.7-0.3c0,0,0.9,0.5,2.1,1C33.5,41.6,24.3,38.3,30.1,36.7
		 M29.2,32.6c0,0-1.6,1.2,0.8,1.4c3.2,0.3,5.6,0.4,10-0.5c0,0,0.6,0.6,1.5,0.9C32.7,37,22.8,34.7,29.2,32.6"/>
	<path class="st7" d="M36.7,25.7c1.8,2.1-0.5,3.9-0.5,3.9s4.6-2.4,2.5-5.3c-2-2.8-3.5-4.1,4.7-8.8C43.3,15.4,30.6,18.6,36.7,25.7"/>
	<path class="st8" d="M46.3,39.7c0,0,1.1,0.9-1.2,1.5c-4.2,1.3-17.5,1.7-21.2,0.1c-1.3-0.6,1.2-1.4,1.9-1.6c0.8-0.2,1.3-0.1,1.3-0.1
		c-1.5-1-9.6,2-4.1,2.9C37.9,44.9,50.2,41.4,46.3,39.7 M30.7,28.3c0,0-6.8,1.6-2.4,2.2c1.8,0.2,5.5,0.2,9-0.1
		c2.8-0.2,5.6-0.7,5.6-0.7s-1,0.4-1.7,0.9c-6.9,1.8-20.2,1-16.3-0.9C28.1,28.2,30.7,28.3,30.7,28.3 M42.9,35.1
		c7-3.6,3.8-7.1,1.5-6.7c-0.6,0.1-0.8,0.2-0.8,0.2s0.2-0.3,0.6-0.5c4.5-1.6,7.9,4.6-1.4,7.1C42.7,35.3,42.9,35.2,42.9,35.1"/>
	<path class="st7" d="M38.7,7.8c0,0,3.9,3.9-3.7,9.8c-6.1,4.8-1.4,7.5,0,10.6c-3.5-3.2-6.1-6-4.4-8.6C33.2,15.8,40.2,14,38.7,7.8"/>
	<path class="st8" d="M31.4,45c6.7,0.4,17-0.2,17.3-3.4c0,0-0.5,1.2-5.5,2.2c-5.7,1.1-12.8,1-17,0.3C26.2,44,27,44.7,31.4,45"/>
	<path class="st7" d="M30.3,57.1C29.7,57.7,29,58,28.4,58c-0.9,0-1.3-0.5-1.3-1.3c0-0.9,0.5-1.5,2.5-1.5h0.7L30.3,57.1 M32.1,59.1
		V53c0-1.6-0.9-2.6-3-2.6c-1.3,0-2.3,0.3-3.2,0.7l0.3,1.1c0.7-0.3,1.6-0.5,2.5-0.5c1.2,0,1.8,0.5,1.8,1.5V54h-0.6
		c-3,0-4.4,1.2-4.4,2.9c0,1.5,0.9,2.4,2.6,2.4c1.1,0,1.9-0.4,2.6-1.1l0.1,0.9L32.1,59.1L32.1,59.1z M37.9,59.1h-2.2l-2.6-8.5H35
		l1.6,5.2l0.4,1.6c0.8-2.3,1.4-4.6,1.7-6.8h1.9C40,53.4,39.2,56.5,37.9,59.1 M46.3,57.1C45.6,57.7,45,58,44.4,58
		c-0.9,0-1.3-0.5-1.3-1.3c0-0.9,0.5-1.5,2.5-1.5h0.7V57.1 M48,59.1V53c0-1.6-0.9-2.6-3-2.6c-1.3,0-2.3,0.3-3.2,0.7l0.3,1.1
		c0.7-0.3,1.6-0.5,2.5-0.5c1.2,0,1.8,0.5,1.8,1.5V54h-0.6c-3,0-4.4,1.2-4.4,2.9c0,1.5,0.9,2.4,2.6,2.4c1.1,0,1.9-0.4,2.6-1.1
		l0.1,0.9L48,59.1L48,59.1z M23.4,60.5c-0.5,0.7-1.3,1.3-2.2,1.6l-0.9-1c0.7-0.3,1.2-0.9,1.5-1.4c0.2-0.5,0.3-1.1,0.3-2.5v-9.7h1.9
		v9.6C24.1,59,23.9,59.8,23.4,60.5"/>
</g>
</svg>
