<?xml version="1.0" encoding="utf-8"?>
<!-- Generator: Adobe Illustrator 28.0.0, SVG Export Plug-In . SVG Version: 6.00 Build 0)  -->
<svg version="1.1" id="Layer_1" xmlns="http://www.w3.org/2000/svg" xmlns:xlink="http://www.w3.org/1999/xlink" x="0px" y="0px"
	 viewBox="0 0 70 70" style="enable-background:new 0 0 70 70;" xml:space="preserve">
<style type="text/css">
	.st0{clip-path:url(#SVGID_00000158725119071609784070000003718847546927275942_);fill:#180000;}
	
		.st1{clip-path:url(#SVGID_00000158725119071609784070000003718847546927275942_);fill:none;stroke:#FFFFFF;stroke-width:2;stroke-miterlimit:10;stroke-opacity:0.2;}
	.st2{display:none;clip-path:url(#SVGID_00000158725119071609784070000003718847546927275942_);}
	.st3{display:inline;fill:#E44D26;}
	.st4{display:inline;fill:#F16529;}
	.st5{display:inline;fill:#EBEBEB;}
	.st6{display:inline;fill:#FFFFFF;}
	.st7{fill:#FF2D20;}
</style>
<g>
	<defs>
		<path id="SVGID_1_" d="M10,0h50c5.5,0,10,4.5,10,10v50c0,5.5-4.5,10-10,10H10C4.5,70,0,65.5,0,60V10C0,4.5,4.5,0,10,0z"/>
	</defs>
	<clipPath id="SVGID_00000026131494672394659520000013337545981984663709_">
		<use xlink:href="#SVGID_1_"  style="overflow:visible;"/>
	</clipPath>
	<path style="clip-path:url(#SVGID_00000026131494672394659520000013337545981984663709_);fill:#180000;" d="M10,0h50
		c5.5,0,10,4.5,10,10v50c0,5.5-4.5,10-10,10H10C4.5,70,0,65.5,0,60V10C0,4.5,4.5,0,10,0z"/>
	
		<path style="clip-path:url(#SVGID_00000026131494672394659520000013337545981984663709_);fill:none;stroke:#FFFFFF;stroke-width:2;stroke-miterlimit:10;stroke-opacity:0.2;" d="
		M94.9-15.5c0,0-26.4,12.6-21.7,43.6C78.4,63,48,77.9,27.1,69.3C6.3,60.7,7.8,28.7-31.8,27.7c-40.4-1-48.9-41.2-48.9-41.2"/>
	
		<path style="clip-path:url(#SVGID_00000026131494672394659520000013337545981984663709_);fill:none;stroke:#FFFFFF;stroke-width:2;stroke-miterlimit:10;stroke-opacity:0.2;" d="
		M64.4-24.9c0,0-11.4,26.6-7.3,53c4.1,26.4-14.4,29.5-21.7,26.4C20.1,48.1,17.1,13.8-7.5,11.6C-26,9.9-50.9,23.2-64-6.9"/>
	
		<path style="clip-path:url(#SVGID_00000026131494672394659520000013337545981984663709_);fill:none;stroke:#FFFFFF;stroke-width:2;stroke-miterlimit:10;stroke-opacity:0.2;" d="
		M52.1-13c0,0,4.1,27.1-14.1,22.3C17.1,3.7,17.5-9.4-8.9,3c-9.4,4.4-47.2,5.7-39.6-18.5"/>
	
		<path style="clip-path:url(#SVGID_00000026131494672394659520000013337545981984663709_);fill:none;stroke:#FFFFFF;stroke-width:2;stroke-miterlimit:10;stroke-opacity:0.2;" d="
		M38.9,45.1c4.4,0,7.9-5.5,7.9-12.2s-3.5-12.2-7.9-12.2S31,26.2,31,32.9S34.5,45.1,38.9,45.1z"/>
	<g style="display:none;clip-path:url(#SVGID_00000026131494672394659520000013337545981984663709_);">
		<path class="st3" d="M17.7,55l-4-45h43.6l-4,45l-17.8,5L17.7,55z"/>
		<path class="st4" d="M35.5,56.2l14.4-4l3.4-38.4H35.5V56.2z"/>
		<path class="st5" d="M35.5,30.4h-7.2l-0.5-5.7h7.7v-5.5H21.8l0.1,1.5l1.3,15.2h12.2V30.4z M35.5,44.7L35.5,44.7l-6.1-1.7L29,38.6
			h-5.5l0.8,8.7l11.2,3.1l0,0V44.7z"/>
		<path class="st6" d="M35.5,30.4v5.5h6.7L41.6,43l-6.1,1.7v5.7l11.2-3.1l0.1-0.9L48,31.9l0.1-1.5h-1.5H35.5z M35.5,19.2v5.5h13.2
			l0.1-1.2l0.2-2.8l0.1-1.5H35.5z"/>
	</g>
</g>
<g>
	<path class="st7" d="M60.4,20.6c0,0.1,0,0.1,0,0.2v11.3c0,0.3-0.2,0.6-0.4,0.7l-9.4,5.4V49c0,0.3-0.2,0.6-0.4,0.7L30.5,61.1
		c0,0-0.1,0-0.1,0.1c0,0,0,0-0.1,0c-0.1,0-0.3,0-0.4,0c0,0,0,0-0.1,0c0,0-0.1,0-0.1-0.1L9.9,49.8c-0.3-0.1-0.4-0.4-0.4-0.7V15.3
		c0-0.1,0-0.1,0-0.2c0,0,0,0,0-0.1c0,0,0-0.1,0.1-0.1c0,0,0,0,0.1-0.1c0,0,0-0.1,0.1-0.1c0,0,0.1,0,0.1-0.1c0,0,0.1-0.1,0.1-0.1h0
		l9.9-5.7c0.3-0.1,0.6-0.1,0.8,0l9.9,5.7h0c0,0,0.1,0,0.1,0.1c0,0,0.1,0,0.1,0.1c0,0,0,0.1,0.1,0.1c0,0,0,0,0.1,0.1
		c0,0,0,0.1,0.1,0.1c0,0,0,0,0,0.1c0,0.1,0,0.1,0,0.2v21.1l8.2-4.7V20.9c0-0.1,0-0.1,0-0.2c0,0,0,0,0-0.1c0,0,0-0.1,0.1-0.1
		c0,0,0,0,0.1-0.1c0,0,0-0.1,0.1-0.1c0,0,0.1,0,0.1-0.1c0,0,0.1-0.1,0.1-0.1h0l9.9-5.7c0.3-0.1,0.6-0.1,0.8,0l9.9,5.7
		c0,0,0.1,0,0.1,0.1c0,0,0.1,0,0.1,0.1c0,0,0,0.1,0.1,0.1c0,0,0,0,0.1,0.1C60.4,20.5,60.4,20.5,60.4,20.6
		C60.4,20.6,60.4,20.6,60.4,20.6L60.4,20.6z M58.8,31.6v-9.4l-3.5,2L50.6,27v9.4L58.8,31.6L58.8,31.6z M49,48.6v-9.4l-4.7,2.7
		l-13.4,7.6V59L49,48.6z M11.2,16.7v31.9L29.2,59v-9.5l-9.4-5.3l0,0l0,0c0,0-0.1,0-0.1-0.1c0,0-0.1,0-0.1-0.1l0,0c0,0,0-0.1-0.1-0.1
		c0,0,0-0.1-0.1-0.1l0,0c0,0,0-0.1,0-0.1c0,0,0-0.1,0-0.1v0c0,0,0-0.1,0-0.1c0,0,0-0.1,0-0.1v-22l-4.8-2.7L11.2,16.7L11.2,16.7z
		 M20.2,10.5L12,15.3l8.2,4.7l8.2-4.7L20.2,10.5L20.2,10.5z M24.5,40.1l4.8-2.7V16.7l-3.5,2L21,21.4V42L24.5,40.1z M49.8,16.1
		l-8.2,4.7l8.2,4.7l8.2-4.7L49.8,16.1z M49,27l-4.8-2.7l-3.5-2v9.4l4.8,2.7l3.5,2V27z M30.1,48.1l12.1-6.9l6-3.4l-8.2-4.7l-9.5,5.4
		l-8.6,5L30.1,48.1z"/>
</g>
</svg>
