<?xml version="1.0" encoding="utf-8"?>
<!-- Generator: Adobe Illustrator 28.0.0, SVG Export Plug-In . SVG Version: 6.00 Build 0)  -->
<svg version="1.1" id="Layer_1" xmlns="http://www.w3.org/2000/svg" xmlns:xlink="http://www.w3.org/1999/xlink" x="0px" y="0px"
	 viewBox="0 0 70 70" style="enable-background:new 0 0 70 70;" xml:space="preserve">
<style type="text/css">
	.st0{clip-path:url(#SVGID_00000064354755679519657300000016640683564335179198_);fill:#6CAC48;}
	
		.st1{clip-path:url(#SVGID_00000064354755679519657300000016640683564335179198_);fill:none;stroke:#FFFFFF;stroke-width:2;stroke-miterlimit:10;stroke-opacity:0.2;}
	.st2{display:none;clip-path:url(#SVGID_00000064354755679519657300000016640683564335179198_);}
	.st3{display:inline;fill:#E44D26;}
	.st4{display:inline;fill:#F16529;}
	.st5{display:inline;fill:#EBEBEB;}
	.st6{display:inline;fill:#FFFFFF;}
	.st7{fill:#FFFFFF;}
	.st8{fill:#599636;}
	.st9{fill:#6CAC48;}
	.st10{fill:#C2BFBF;}
	.st11{fill:#47474A;}
</style>
<g>
	<defs>
		<path id="SVGID_1_" d="M10,0h50c5.5,0,10,4.5,10,10v50c0,5.5-4.5,10-10,10H10C4.5,70,0,65.5,0,60V10C0,4.5,4.5,0,10,0z"/>
	</defs>
	<clipPath id="SVGID_00000133498456182714363860000009743864727000225672_">
		<use xlink:href="#SVGID_1_"  style="overflow:visible;"/>
	</clipPath>
	<path style="clip-path:url(#SVGID_00000133498456182714363860000009743864727000225672_);fill:#6CAC48;" d="M10,0h50
		c5.5,0,10,4.5,10,10.1v50.3c0,5.6-4.5,10.1-10,10.1H10c-5.5,0-10-4.5-10-10.1V10.1C0,4.5,4.5,0,10,0z"/>
	
		<path style="clip-path:url(#SVGID_00000133498456182714363860000009743864727000225672_);fill:none;stroke:#FFFFFF;stroke-width:2;stroke-miterlimit:10;stroke-opacity:0.2;" d="
		M94.9-15.5c0,0-26.4,12.6-21.7,43.6C78.4,63,48,77.9,27.1,69.3C6.3,60.7,7.8,28.7-31.8,27.7c-40.4-1-48.9-41.2-48.9-41.2"/>
	
		<path style="clip-path:url(#SVGID_00000133498456182714363860000009743864727000225672_);fill:none;stroke:#FFFFFF;stroke-width:2;stroke-miterlimit:10;stroke-opacity:0.2;" d="
		M64.4-24.9c0,0-11.4,26.6-7.3,53c4.1,26.4-14.4,29.5-21.7,26.4C20.1,48.1,17.1,13.8-7.5,11.6C-26,9.9-50.9,23.2-64-6.9"/>
	
		<path style="clip-path:url(#SVGID_00000133498456182714363860000009743864727000225672_);fill:none;stroke:#FFFFFF;stroke-width:2;stroke-miterlimit:10;stroke-opacity:0.2;" d="
		M52.1-13c0,0,4.1,27.1-14.1,22.3C17.1,3.7,17.5-9.4-8.9,3c-9.4,4.4-47.2,5.7-39.6-18.5"/>
	
		<path style="clip-path:url(#SVGID_00000133498456182714363860000009743864727000225672_);fill:none;stroke:#FFFFFF;stroke-width:2;stroke-miterlimit:10;stroke-opacity:0.2;" d="
		M38.9,45.1c4.4,0,7.9-5.5,7.9-12.2s-3.5-12.2-7.9-12.2S31,26.2,31,32.9S34.5,45.1,38.9,45.1z"/>
	<g style="display:none;clip-path:url(#SVGID_00000133498456182714363860000009743864727000225672_);">
		<path class="st3" d="M17.7,55l-4-45h43.6l-4,45l-17.8,5L17.7,55z"/>
		<path class="st4" d="M35.5,56.2l14.4-4l3.4-38.4H35.5V56.2z"/>
		<path class="st5" d="M35.5,30.4h-7.2l-0.5-5.7h7.7v-5.5H21.8l0.1,1.5l1.3,15.2h12.2V30.4z M35.5,44.7L35.5,44.7l-6.1-1.7L29,38.6
			h-5.5l0.8,8.7l11.2,3.1l0,0V44.7z"/>
		<path class="st6" d="M35.5,30.4v5.5h6.7L41.6,43l-6.1,1.7v5.7l11.2-3.1l0.1-0.9L48,31.9l0.1-1.5h-1.5H35.5z M35.5,19.2v5.5h13.2
			l0.1-1.2l0.2-2.8l0.1-1.5H35.5z"/>
	</g>
</g>
<g>
	<path class="st7" d="M57.4,64H12.6C9,64,6,61,6,57.4V12.6C6,9,9,6,12.6,6h44.8C61,6,64,9,64,12.6v44.8C64,61,61,64,57.4,64L57.4,64
		z"/>
	<path class="st8" d="M35.2,10.4l1.1,2.1c0.2,0.4,0.5,0.7,0.8,1c0.9,0.9,1.8,1.9,2.6,2.9c1.9,2.5,3.1,5.2,4,8.1
		c0.5,1.8,0.8,3.7,0.9,5.5c0.1,5.6-1.8,10.4-5.7,14.4c-0.6,0.6-1.3,1.2-2,1.7c-0.4,0-0.6-0.3-0.7-0.6c-0.3-0.5-0.5-1.1-0.6-1.6
		c-0.1-0.7-0.2-1.4-0.2-2v-0.3C35.4,41.6,35.1,10.6,35.2,10.4L35.2,10.4z"/>
	<path class="st9" d="M35.2,10.4c0-0.1-0.1,0-0.1,0c0,0.5-0.1,0.9-0.4,1.2c-0.3,0.4-0.6,0.7-1,1c-2,1.7-3.6,3.8-4.8,6.2
		c-1.7,3.2-2.5,6.5-2.8,10.1c-0.1,1.3,0.4,5.8,0.8,7.1c1.1,3.5,3.1,6.4,5.7,8.9c0.6,0.6,1.3,1.2,2,1.7c0.2,0,0.2-0.2,0.3-0.3
		c0.1-0.3,0.2-0.6,0.2-0.9l0.5-3.4L35.2,10.4z"/>
	<path class="st10" d="M36.3,47.6c0-0.5,0.3-0.9,0.6-1.4c-0.3-0.1-0.5-0.3-0.6-0.6c-0.1-0.2-0.2-0.5-0.3-0.7
		c-0.3-0.9-0.4-1.9-0.5-2.9v-0.6c-0.1,0.1-0.1,0.9-0.1,1c-0.1,1-0.2,2-0.4,3c-0.1,0.4-0.1,0.8-0.4,1.2c0,0,0,0.1,0,0.2
		c0.4,1.2,0.5,2.4,0.6,3.7v0.5c0,0.5,0,0.4,0.4,0.6c0.2,0.1,0.4,0.1,0.6,0.2c0.1,0,0.2-0.1,0.2-0.2l-0.1-0.7v-2.1
		C36.2,48.3,36.3,47.9,36.3,47.6L36.3,47.6z"/>
	<path class="st11" d="M17.1,57.7v1c0,0,0,0.1,0,0.1c0,0.1,0.1,0.2,0.2,0.2c0.1,0,0.2,0,0.3,0.1c0.1,0,0.1,0,0.1,0.1
		c0,0.2,0,0.3-0.2,0.2c-0.5,0-1,0-1.5,0h0c-0.2,0-0.2,0-0.2-0.2c0,0,0-0.1,0-0.1c0,0,0-0.1,0.1-0.1c0.1,0,0.2,0,0.3-0.1
		c0.1,0,0.2-0.1,0.2-0.3c0-0.2,0-0.3,0-0.5l0-1.8c0-0.1-0.1-0.2-0.1-0.3c-0.1-0.1-0.2-0.1-0.4-0.2c0,0-0.1,0-0.1,0
		c-0.1,0-0.1-0.1,0-0.2c0,0,0.1,0,0.1,0c0.4-0.1,0.8-0.2,1.2-0.3c0.1,0,0.1,0,0.1,0.1c0,0,0,0.1,0,0.2c0,0.1,0,0.2,0,0.3
		c0,0,0,0.1,0,0.1s0.1,0,0.1,0c0.1-0.1,0.3-0.2,0.4-0.3c0.2-0.1,0.4-0.2,0.7-0.3c0.3,0,0.6,0,0.8,0.2c0.1,0.1,0.2,0.2,0.3,0.3
		c0.1,0.1,0.1,0.1,0.2,0c0.3-0.2,0.5-0.3,0.8-0.5c0.3-0.1,0.6-0.1,0.9,0c0.3,0.1,0.5,0.3,0.6,0.6c0.1,0.2,0.2,0.5,0.2,0.7v1.8
		c0,0.1,0,0.2,0.2,0.3c0.1,0,0.3,0.1,0.4,0.1c0.1,0,0.1,0,0.1,0.1c0,0.2,0,0.2-0.2,0.2c-0.5,0-1.1,0-1.6,0c-0.1,0-0.1,0-0.1-0.1v0
		c0-0.2,0-0.2,0.2-0.2l0.2,0c0.1,0,0.2-0.1,0.2-0.3l0-0.5l0-1.3c0-0.1,0-0.2-0.1-0.3c-0.2-0.4-0.5-0.5-0.9-0.5
		c-0.3,0-0.5,0.1-0.7,0.3c0,0-0.1,0.1-0.1,0.1c0.1,0.4,0,0.8,0,1.3v0.9c0,0.2,0.1,0.2,0.2,0.3l0.3,0.1c0,0,0.1,0,0.1,0.1v0
		c0,0.2,0,0.2-0.2,0.2c-0.5,0-1.1,0-1.6,0c-0.2,0-0.2,0-0.2-0.2c0-0.1,0-0.1,0.1-0.1l0.2,0c0.2,0,0.3-0.1,0.3-0.3l0-0.4l0-1.3
		c0-0.2,0-0.3-0.1-0.5c-0.1-0.2-0.3-0.4-0.6-0.4c-0.3,0-0.5,0.1-0.8,0.2c-0.2,0.1-0.2,0.2-0.2,0.4L17.1,57.7L17.1,57.7z M29.5,57.7
		v0.9c0,0.1,0,0.1,0,0.2c0,0.1,0.1,0.2,0.2,0.2c0.1,0,0.2,0.1,0.3,0.1c0.1,0,0.1,0,0.1,0.1v0c0,0.2,0,0.3-0.3,0.2c-0.5,0-1,0-1.5,0
		l-0.2,0c0,0,0,0-0.1,0c0-0.1,0-0.2,0-0.3c0,0,0,0,0.1-0.1c0.1,0,0.2,0,0.3,0c0.2,0,0.2-0.1,0.2-0.3l0-0.6v-1.6c0-0.1,0-0.2-0.2-0.2
		c-0.1-0.1-0.2-0.1-0.4-0.2c0,0-0.1,0-0.1,0c-0.1-0.1-0.1-0.1,0-0.2c0,0,0.1,0,0.1-0.1c0.4-0.1,0.8-0.2,1.2-0.3c0,0,0.1,0,0.1,0
		c0,0,0,0.1,0,0.1l0,0.3c0,0,0,0.1,0,0.1c0,0,0.1,0,0.1,0c0.2-0.2,0.4-0.3,0.6-0.4c0.2-0.1,0.4-0.2,0.7-0.1c0.4,0,0.8,0.3,1,0.6
		c0.1,0.2,0.2,0.4,0.2,0.7l0,0.5l0,1.5c0,0.1,0,0.2,0.2,0.2c0.1,0,0.2,0.1,0.4,0.1c0.1,0,0.1,0,0.1,0.1v0c0,0.2,0,0.2-0.3,0.2
		c-0.5,0-1,0-1.5,0c-0.1,0-0.1,0-0.2,0c0,0-0.1,0-0.1,0c0-0.1,0-0.2,0-0.3c0,0,0-0.1,0.1-0.1l0.3,0c0.1,0,0.2-0.1,0.2-0.2l0-0.2
		l0-1.4c0-0.2,0-0.3,0-0.5c-0.1-0.3-0.3-0.6-0.7-0.6c-0.3,0-0.6,0-0.8,0.2c-0.1,0.1-0.2,0.2-0.2,0.3L29.5,57.7
		C29.5,57.7,29.5,57.7,29.5,57.7L29.5,57.7z"/>
	<path class="st10" d="M48.8,55.8c-0.1-0.5-0.3-0.9-0.6-1.3c-0.3-0.3-0.6-0.6-1-0.8c-0.4-0.2-0.9-0.2-1.3-0.2c-0.2,0-2.7,0-2.9,0
		c0,0-0.1,0-0.1,0c0,0-0.1,0.1-0.1,0.2c-0.1,0.2-0.1,0.2,0.1,0.2c0.2,0,0.3,0,0.5,0.1c0.1,0,0.2,0.1,0.3,0.3c0,0.1,0,2.4,0,3.5
		l0,0.8c0,0.1,0,0.1,0,0.2c0,0.1-0.1,0.1-0.2,0.2c-0.1,0-0.2,0.1-0.3,0.1c-0.2,0-0.2,0-0.3,0.2l0,0.1c0,0.1,0,0.1,0.1,0.1l2,0l0.8,0
		l0.5-0.1c0.6-0.1,1.1-0.4,1.6-0.8c0.3-0.2,0.5-0.5,0.6-0.8c0.2-0.4,0.3-0.8,0.3-1.2C48.9,56.3,48.9,56.1,48.8,55.8L48.8,55.8z
		 M47.9,56.8c0,0.4-0.1,0.8-0.3,1.2c-0.3,0.5-0.7,0.8-1.2,0.9c-0.2,0-0.5,0.1-0.7,0c-0.2,0-0.3,0-0.5-0.1c-0.3-0.1-0.4-0.3-0.4-0.6
		l0-4c0-0.2,0.1-0.3,0.3-0.3c0.3,0,0.5,0,0.8,0c0.3,0,0.5,0.1,0.8,0.2c0.2,0.1,0.4,0.2,0.5,0.3c0.4,0.3,0.6,0.7,0.7,1.1
		C47.9,56,47.9,56.4,47.9,56.8L47.9,56.8z M54.3,57.4c0,0,0-0.1,0-0.1c-0.1-0.4-0.3-0.6-0.5-0.9c-0.2-0.1-0.4-0.2-0.6-0.3
		c0,0-0.1,0-0.1,0c0,0,0,0,0,0c0.1-0.1,0.3-0.1,0.4-0.2c0.2-0.2,0.3-0.4,0.4-0.6c0-0.1,0-0.3,0-0.4c0-0.3-0.2-0.7-0.5-0.9
		c-0.3-0.2-0.7-0.3-1-0.3c-0.7,0-1.4,0-2.1,0c-0.2,0-0.4,0-0.6,0c0,0-0.1,0-0.1,0c0,0.1-0.1,0.2-0.1,0.3c0,0,0,0.1,0.1,0.1l0.5,0.1
		c0.2,0,0.3,0.1,0.3,0.3c0,0.1,0,0.2,0,0.3l0,1.2l0,2.4c0,0.1,0,0.3,0,0.4c0,0.1-0.1,0.2-0.2,0.2c-0.1,0-0.3,0.1-0.4,0.1
		c-0.1,0-0.1,0-0.2,0.1c0,0.1,0,0.1-0.1,0.2c0,0.1,0,0.1,0.1,0.1c0.1,0,2.2,0,2.6,0c0.2,0,0.5-0.1,0.7-0.1c0.4-0.1,0.8-0.3,1.1-0.6
		c0.3-0.3,0.4-0.6,0.4-0.9C54.3,57.6,54.3,57.5,54.3,57.4L54.3,57.4z M51.1,54.7l0-0.5c0-0.1,0-0.1,0.1-0.2c0.2,0,0.3,0,0.5,0
		c0.2,0,0.3,0,0.5,0.1c0.3,0.1,0.5,0.3,0.6,0.5c0.1,0.1,0.1,0.3,0.1,0.4c0,0.2,0,0.4-0.1,0.5c-0.1,0.2-0.3,0.4-0.5,0.4
		c-0.3,0-1,0-1.1,0c-0.1,0-0.1,0-0.1-0.1v-0.6C51.1,55.1,51.1,54.9,51.1,54.7L51.1,54.7z M53.3,58.3c-0.1,0.3-0.3,0.5-0.6,0.6
		c-0.2,0.1-0.3,0.1-0.5,0.1c-0.2,0-0.4,0-0.6,0c-0.3-0.1-0.4-0.3-0.4-0.5c0-0.3,0-0.7,0-0.9v-0.9c0-0.1,0-0.1,0.1-0.1l0.6,0l0.4,0
		c0.3,0.1,0.6,0.2,0.8,0.4c0.2,0.2,0.3,0.4,0.3,0.7C53.4,57.8,53.4,58,53.3,58.3L53.3,58.3z"/>
	<path class="st11" d="M36.5,56.3l0.2,0c0.2,0,0.4-0.1,0.5-0.3c0-0.1,0-0.3,0-0.4c0,0-0.1,0-0.1,0c-0.1,0.1-0.2,0.1-0.3,0.1
		c-0.2,0-0.5,0-0.7-0.1l-0.3-0.1c-0.2-0.1-0.5-0.1-0.7-0.1c-0.3,0-0.7,0.1-0.9,0.3c-0.3,0.2-0.5,0.4-0.6,0.8c-0.1,0.2-0.1,0.4,0,0.6
		c0.1,0.5,0.3,0.8,0.8,1c0,0,0,0,0.1,0c0.1,0,0.1,0.1,0,0.1l-0.2,0.1l-0.4,0.2c-0.1,0.1-0.1,0.1-0.1,0.2c0,0.1,0.1,0.2,0.2,0.3
		c0.1,0.1,0.2,0.1,0.3,0.2c0.1,0,0.1,0,0,0.1l-0.4,0.3c-0.1,0.1-0.3,0.2-0.4,0.3c-0.1,0.2-0.2,0.4-0.2,0.6c0,0.2,0.2,0.4,0.3,0.6
		c0.2,0.2,0.4,0.3,0.6,0.3c0.4,0.1,0.8,0.1,1.1,0c0.5-0.1,1-0.3,1.4-0.7c0.3-0.3,0.4-0.6,0.4-1c0-0.5-0.3-0.9-0.7-1L36,58.9L35,58.8
		c-0.1,0-0.2,0-0.3-0.1c-0.1-0.1-0.2-0.2-0.1-0.3c0.1-0.1,0.1-0.1,0.2-0.1l0.2,0c0.4,0,0.8-0.2,1.1-0.5c0.2-0.2,0.3-0.3,0.3-0.6
		C36.5,56.9,36.5,56.6,36.5,56.3C36.4,56.3,36.4,56.3,36.5,56.3L36.5,56.3z M34.9,59.6c0,0,0.1,0,0.1,0c0.3,0,0.6,0,0.8,0.1
		c0.1,0,0.2,0.1,0.3,0.1c0.3,0.1,0.4,0.4,0.3,0.7c0,0.3-0.2,0.5-0.5,0.6c-0.2,0.1-0.4,0.1-0.6,0.2c-0.1,0-0.1,0-0.2,0
		c-0.2,0-0.5,0-0.7-0.1c-0.2-0.1-0.3-0.1-0.4-0.3c-0.2-0.2-0.3-0.7,0-1C34.4,59.7,34.6,59.5,34.9,59.6L34.9,59.6z M35.7,57.5
		c-0.1,0.3-0.4,0.5-0.7,0.4c-0.3,0-0.5-0.2-0.6-0.4c-0.2-0.3-0.2-0.7-0.1-1c0.1-0.3,0.2-0.5,0.5-0.5c0.4-0.1,0.7,0.1,0.9,0.4
		c0.1,0.2,0.1,0.4,0.1,0.7C35.7,57.2,35.7,57.3,35.7,57.5L35.7,57.5z M27.4,57c-0.1-0.4-0.2-0.7-0.4-0.9c-0.4-0.4-0.8-0.6-1.3-0.6
		c-0.5,0-0.9,0.1-1.3,0.4c-0.4,0.2-0.7,0.6-0.8,1c-0.1,0.4-0.1,0.8,0,1.2c0.2,1,1,1.5,2,1.4c0.3,0,0.6-0.1,0.8-0.2
		c0.4-0.2,0.7-0.5,0.9-0.8c0.2-0.3,0.2-0.6,0.2-1L27.4,57z M26.4,58.5c-0.1,0.3-0.4,0.5-0.7,0.6c-0.3,0-0.6,0-0.8-0.2
		c-0.2-0.1-0.3-0.3-0.4-0.5c-0.3-0.6-0.3-1.1-0.2-1.7c0-0.2,0.1-0.4,0.3-0.5c0.2-0.2,0.5-0.3,0.8-0.2c0.3,0.1,0.5,0.2,0.7,0.5
		c0.2,0.3,0.3,0.5,0.3,0.8c0,0.2,0,0.3,0,0.4C26.5,58,26.5,58.3,26.4,58.5L26.4,58.5z M41.8,57.1c0-0.4-0.2-0.7-0.5-1
		c-0.4-0.4-0.8-0.6-1.3-0.6c-0.4,0-0.9,0.1-1.2,0.3c-0.4,0.3-0.7,0.6-0.8,1.1c-0.1,0.5-0.1,1.1,0.2,1.6c0.2,0.5,0.6,0.8,1.1,0.9
		c0.5,0.1,1.1,0.1,1.6-0.2c0.4-0.2,0.7-0.5,0.9-1c0.1-0.3,0.1-0.5,0.2-0.9C41.8,57.3,41.8,57.2,41.8,57.1L41.8,57.1z M40.8,58.4
		c-0.1,0.4-0.3,0.6-0.7,0.6c-0.3,0-0.5,0-0.8-0.2c-0.2-0.1-0.3-0.3-0.5-0.5c-0.1-0.2-0.2-0.5-0.2-0.7c0-0.3,0-0.6,0-0.9
		c0-0.1,0-0.1,0.1-0.2c0.2-0.5,0.6-0.7,1.1-0.6c0.3,0.1,0.6,0.3,0.8,0.5c0.2,0.3,0.3,0.6,0.3,0.9c0,0.1,0,0.3,0,0.4
		C40.9,58,40.9,58.2,40.8,58.4L40.8,58.4z"/>
</g>
</svg>
