<?xml version="1.0" encoding="utf-8"?>
<!-- Generator: Adobe Illustrator 28.0.0, SVG Export Plug-In . SVG Version: 6.00 Build 0)  -->
<svg version="1.1" id="Layer_1" xmlns="http://www.w3.org/2000/svg" xmlns:xlink="http://www.w3.org/1999/xlink" x="0px" y="0px"
	 viewBox="0 0 70 70" style="enable-background:new 0 0 70 70;" xml:space="preserve">
<style type="text/css">
	.st0{clip-path:url(#SVGID_00000172403775509751316680000006338563018314207367_);fill:#57CBF5;}
	
		.st1{clip-path:url(#SVGID_00000172403775509751316680000006338563018314207367_);fill:none;stroke:#FFFFFF;stroke-width:2;stroke-miterlimit:10;stroke-opacity:0.2;}
	.st2{display:none;clip-path:url(#SVGID_00000172403775509751316680000006338563018314207367_);}
	.st3{display:inline;fill:#E44D26;}
	.st4{display:inline;fill:#F16529;}
	.st5{display:inline;fill:#EBEBEB;}
	.st6{display:inline;fill:#FFFFFF;}
	.st7{fill-rule:evenodd;clip-rule:evenodd;fill:#00678C;}
	.st8{fill-rule:evenodd;clip-rule:evenodd;fill:#CE8B2C;}
</style>
<g>
	<defs>
		<path id="SVGID_1_" d="M10,0h50c5.5,0,10,4.5,10,10v50c0,5.5-4.5,10-10,10H10C4.5,70,0,65.5,0,60V10C0,4.5,4.5,0,10,0z"/>
	</defs>
	<clipPath id="SVGID_00000177446676190539079890000013272856096992612994_">
		<use xlink:href="#SVGID_1_"  style="overflow:visible;"/>
	</clipPath>
	<path style="clip-path:url(#SVGID_00000177446676190539079890000013272856096992612994_);fill:#57CBF5;" d="M10,0h50
		c5.5,0,10,4.5,10,10.1v50.3c0,5.6-4.5,10.1-10,10.1H10c-5.5,0-10-4.5-10-10.1V10.1C0,4.5,4.5,0,10,0z"/>
	
		<path style="clip-path:url(#SVGID_00000177446676190539079890000013272856096992612994_);fill:none;stroke:#FFFFFF;stroke-width:2;stroke-miterlimit:10;stroke-opacity:0.2;" d="
		M94.9-15.5c0,0-26.4,12.6-21.7,43.6C78.4,63,48,77.9,27.1,69.3C6.3,60.7,7.8,28.7-31.8,27.7c-40.4-1-48.9-41.2-48.9-41.2"/>
	
		<path style="clip-path:url(#SVGID_00000177446676190539079890000013272856096992612994_);fill:none;stroke:#FFFFFF;stroke-width:2;stroke-miterlimit:10;stroke-opacity:0.2;" d="
		M64.4-24.9c0,0-11.4,26.6-7.3,53c4.1,26.4-14.4,29.5-21.7,26.4C20.1,48.1,17.1,13.8-7.5,11.6C-26,9.9-50.9,23.2-64-6.9"/>
	
		<path style="clip-path:url(#SVGID_00000177446676190539079890000013272856096992612994_);fill:none;stroke:#FFFFFF;stroke-width:2;stroke-miterlimit:10;stroke-opacity:0.2;" d="
		M52.1-13c0,0,4.1,27.1-14.1,22.3C17.1,3.7,17.5-9.4-8.9,3c-9.4,4.4-47.2,5.7-39.6-18.5"/>
	
		<path style="clip-path:url(#SVGID_00000177446676190539079890000013272856096992612994_);fill:none;stroke:#FFFFFF;stroke-width:2;stroke-miterlimit:10;stroke-opacity:0.2;" d="
		M38.9,45.1c4.4,0,7.9-5.5,7.9-12.2s-3.5-12.2-7.9-12.2S31,26.2,31,32.9S34.5,45.1,38.9,45.1z"/>
	<g style="display:none;clip-path:url(#SVGID_00000177446676190539079890000013272856096992612994_);">
		<path class="st3" d="M17.7,55l-4-45h43.6l-4,45l-17.8,5L17.7,55z"/>
		<path class="st4" d="M35.5,56.2l14.4-4l3.4-38.4H35.5V56.2z"/>
		<path class="st5" d="M35.5,30.4h-7.2l-0.5-5.7h7.7v-5.5H21.8l0.1,1.5l1.3,15.2h12.2V30.4z M35.5,44.7L35.5,44.7l-6.1-1.7L29,38.6
			h-5.5l0.8,8.7l11.2,3.1l0,0V44.7z"/>
		<path class="st6" d="M35.5,30.4v5.5h6.7L41.6,43l-6.1,1.7v5.7l11.2-3.1l0.1-0.9L48,31.9l0.1-1.5h-1.5H35.5z M35.5,19.2v5.5h13.2
			l0.1-1.2l0.2-2.8l0.1-1.5H35.5z"/>
	</g>
</g>
<g>
	<path class="st7" d="M6,47.4h1.9v-7.6l3,6.6c0.4,0.8,0.8,1.1,1.8,1.1c0.9,0,1.4-0.3,1.8-1.1l3-6.6v7.6h1.9v-7.6
		c0-0.7-0.3-1.1-0.9-1.3c-1.5-0.5-2.4-0.1-2.9,0.9L12.6,46l-2.8-6.5c-0.4-1-1.4-1.4-2.9-0.9C6.3,38.7,6,39.1,6,39.8L6,47.4L6,47.4
		L6,47.4z M20.9,41.2h1.9v4.2c0,0.2,0.1,0.8,1.1,0.8c0.5,0,4.1,0,4.2,0v-5h1.9c0,0,0,6.8,0,6.8c0,1.7-2.1,2-3,2.1H21v-1.3
		c0,0,6.1,0,6.1,0c1.2-0.1,1.1-0.7,1.1-0.9v-0.5h-4.1c-1.9,0-3.1-0.9-3.1-1.8C20.9,45.4,21,41.2,20.9,41.2L20.9,41.2z M62.3,36.4
		c-1.2,0-2.1,0.1-2.9,0.4c-0.2,0.1-0.6,0.1-0.6,0.4c0.1,0.1,0.1,0.3,0.2,0.5c0.2,0.3,0.5,0.7,0.8,0.9c0.3,0.2,0.6,0.5,0.9,0.7
		c0.6,0.4,1.2,0.5,1.8,0.9c0.3,0.2,0.7,0.5,1,0.7c0.1,0.1,0.3,0.3,0.5,0.4v0c-0.1-0.1-0.1-0.3-0.2-0.5l-0.4-0.4
		c-0.4-0.6-1-1.1-1.5-1.5c-0.5-0.3-1.5-0.8-1.7-1.3c0,0,0,0,0,0c0.3,0,0.7-0.2,1-0.2c0.5-0.1,1-0.1,1.5-0.2c0.2-0.1,0.5-0.1,0.7-0.2
		v-0.1c-0.3-0.3-0.4-0.6-0.7-0.9c-0.8-0.6-1.6-1.3-2.4-1.8c-0.5-0.3-1-0.5-1.5-0.8c-0.2-0.1-0.5-0.1-0.6-0.3
		c-0.3-0.3-0.4-0.8-0.6-1.1c-0.4-0.8-0.8-1.7-1.2-2.6c-0.3-0.6-0.4-1.1-0.7-1.7c-1.5-2.5-3.2-4-5.7-5.5c-0.5-0.3-1.2-0.4-1.9-0.6
		c-0.4,0-0.7,0-1.1-0.1c-0.2-0.1-0.5-0.4-0.7-0.5c-0.8-0.5-3-1.7-3.6-0.2c-0.4,1,0.6,1.9,0.9,2.4c0.3,0.3,0.6,0.7,0.7,1.1
		c0.1,0.3,0.1,0.5,0.2,0.8c0.3,0.7,0.5,1.4,0.8,2c0.2,0.3,0.3,0.6,0.5,0.9c0.1,0.2,0.3,0.2,0.4,0.5c-0.2,0.3-0.2,0.7-0.3,1.1
		c-0.5,1.7-0.3,3.7,0.4,4.9c0.2,0.4,0.8,1.2,1.5,0.9c0.7-0.3,0.5-1.1,0.7-1.9c0-0.2,0-0.3,0.1-0.4v0c0.2,0.4,0.4,0.8,0.6,1.2
		c0.4,0.7,1.2,1.5,1.9,2c0.3,0.3,0.6,0.7,1.1,0.9v0h0c-0.1-0.1-0.2-0.2-0.3-0.3c-0.3-0.3-0.6-0.6-0.8-0.9c-0.6-0.8-1.1-1.7-1.6-2.7
		c-0.2-0.5-0.4-1-0.6-1.4c-0.1-0.2-0.1-0.4-0.2-0.5c-0.2,0.3-0.5,0.6-0.7,1c-0.3,0.6-0.3,1.4-0.4,2.2c-0.1,0,0,0-0.1,0
		c-0.5-0.1-0.6-0.6-0.8-1c-0.4-1-0.5-2.7-0.1-3.9c0.1-0.3,0.6-1.3,0.4-1.6c-0.1-0.3-0.4-0.5-0.5-0.7c-0.2-0.3-0.4-0.6-0.5-0.9
		c-0.4-0.8-0.5-1.7-0.9-2.6c-0.2-0.4-0.5-0.8-0.7-1.1c-0.3-0.4-0.6-0.7-0.8-1.1c-0.1-0.2-0.2-0.4-0.1-0.6c0-0.1,0.1-0.2,0.2-0.2
		c0.2-0.1,0.7,0.1,0.9,0.1c0.5,0.2,1,0.4,1.4,0.8c0.2,0.1,0.4,0.4,0.7,0.5h0.3c0.5,0.1,1,0,1.4,0.2c0.8,0.2,1.5,0.6,2.1,1
		c1.9,1.2,3.5,3,4.6,5c0.2,0.3,0.3,0.6,0.4,1c0.3,0.7,0.7,1.5,1,2.1c0.3,0.7,0.6,1.4,1,2c0.2,0.3,1.1,0.5,1.5,0.6
		c0.3,0.1,0.7,0.3,1,0.4c0.5,0.3,1,0.7,1.5,1C61.5,35.7,62.3,36.1,62.3,36.4L62.3,36.4z"/>
	<path class="st7" d="M47.3,23.6c-0.2,0-0.4,0-0.6,0.1v0h0c0.1,0.2,0.3,0.4,0.5,0.6c0.1,0.2,0.2,0.5,0.3,0.7l0,0
		c0.2-0.1,0.3-0.4,0.3-0.7c-0.1-0.1-0.1-0.2-0.2-0.3C47.6,23.8,47.4,23.7,47.3,23.6L47.3,23.6z"/>
	<path class="st8" d="M31.6,47.4h5.5c0.6,0,1.3-0.1,1.8-0.4c0.8-0.4,1.2-0.9,1.2-1.6V44c0-0.5-0.5-1.1-1.4-1.4
		c-0.5-0.2-1.1-0.3-1.6-0.3h-2.3c-0.8,0-1.1-0.2-1.2-0.8c0-0.1,0-0.1,0-0.2v-0.9c0-0.1,0-0.1,0-0.2c0.1-0.4,0.3-0.5,1-0.6
		c0.1,0,0.1,0,0.2,0h5.5v-1.3h-5.4c-0.8,0-1.2,0.1-1.5,0.2c-1.1,0.4-1.6,0.9-1.6,1.9v1.1c0,0.9,1,1.6,2.6,1.8c0.2,0,0.4,0,0.6,0h2
		c0.1,0,0.1,0,0.2,0c0.6,0.1,0.9,0.2,1.1,0.4c0.1,0.1,0.1,0.2,0.1,0.4v1.1c0,0.1-0.1,0.3-0.3,0.5c-0.2,0.1-0.4,0.2-0.8,0.3
		c-0.1,0-0.1,0-0.2,0h-5.3V47.4z M52.1,45.1c0,1.3,1,2.1,3,2.2c0.2,0,0.4,0,0.5,0h5v-1.3h-5c-1.1,0-1.6-0.3-1.6-1v-6.6h-1.9
		L52.1,45.1L52.1,45.1L52.1,45.1z M41.3,45.2v-4.6c0-1.2,0.8-1.9,2.4-2.1c0.2,0,0.4,0,0.5,0h3.7c0.2,0,0.3,0,0.5,0
		c1.6,0.2,2.4,0.9,2.4,2.1v4.6c0,0.9-0.4,1.4-1.1,1.8l1.9,1.7h-2.2l-1.5-1.4l-1.5,0.1h-2c-0.4,0-0.7,0-1.1-0.2
		C41.9,46.9,41.3,46.3,41.3,45.2L41.3,45.2z M43.4,45.1c0,0.1,0,0.1,0,0.2c0.1,0.5,0.6,0.8,1.4,0.8h1.8l-1.6-1.4h2.2l1.4,1.3
		c0.3-0.1,0.4-0.3,0.5-0.6c0-0.1,0-0.1,0-0.2v-4.4c0,0,0-0.1,0-0.2c-0.1-0.5-0.6-0.8-1.4-0.8h-2.9c-0.9,0-1.4,0.4-1.4,0.9L43.4,45.1
		L43.4,45.1L43.4,45.1z M61.5,47.4h0.3v-1.1h0.4v-0.2h-1v0.2h0.4L61.5,47.4L61.5,47.4z M63.6,47.4h0.3v-1.3h-0.4L63.2,47l-0.3-0.9
		h-0.4v1.3h0.3v-1l0.4,1h0.2l0.4-1h0L63.6,47.4L63.6,47.4z"/>
</g>
</svg>
