<?xml version="1.0" encoding="utf-8"?>
<!-- Generator: Adobe Illustrator 28.0.0, SVG Export Plug-In . SVG Version: 6.00 Build 0)  -->
<svg version="1.1" id="Layer_1" xmlns="http://www.w3.org/2000/svg" xmlns:xlink="http://www.w3.org/1999/xlink" x="0px" y="0px"
	 viewBox="0 0 70 70" style="enable-background:new 0 0 70 70;" xml:space="preserve">
<style type="text/css">
	.st0{clip-path:url(#SVGID_00000029752323818680368920000007282956916983481018_);fill:#010428;}
	
		.st1{clip-path:url(#SVGID_00000029752323818680368920000007282956916983481018_);fill:none;stroke:#FFFFFF;stroke-width:2;stroke-miterlimit:10;stroke-opacity:0.2;}
	.st2{display:none;clip-path:url(#SVGID_00000029752323818680368920000007282956916983481018_);}
	.st3{display:inline;fill:#E44D26;}
	.st4{display:inline;fill:#F16529;}
	.st5{display:inline;fill:#EBEBEB;}
	.st6{display:inline;fill:#FFFFFF;}
	.st7{fill:#4DABCF;}
	.st8{fill:#4D77CF;}
</style>
<g>
	<defs>
		<path id="SVGID_1_" d="M10,0h50c5.5,0,10,4.5,10,10v50c0,5.5-4.5,10-10,10H10C4.5,70,0,65.5,0,60V10C0,4.5,4.5,0,10,0z"/>
	</defs>
	<clipPath id="SVGID_00000084511867075647199280000012705286065802826175_">
		<use xlink:href="#SVGID_1_"  style="overflow:visible;"/>
	</clipPath>
	<path style="clip-path:url(#SVGID_00000084511867075647199280000012705286065802826175_);fill:#010428;" d="M10,0h50
		c5.5,0,10,4.5,10,10.1v50.3c0,5.6-4.5,10.1-10,10.1H10c-5.5,0-10-4.5-10-10.1V10.1C0,4.5,4.5,0,10,0z"/>
	
		<path style="clip-path:url(#SVGID_00000084511867075647199280000012705286065802826175_);fill:none;stroke:#FFFFFF;stroke-width:2;stroke-miterlimit:10;stroke-opacity:0.2;" d="
		M94.9-15.5c0,0-26.4,12.6-21.7,43.6C78.4,63,48,77.9,27.1,69.3C6.3,60.7,7.8,28.7-31.8,27.7c-40.4-1-48.9-41.2-48.9-41.2"/>
	
		<path style="clip-path:url(#SVGID_00000084511867075647199280000012705286065802826175_);fill:none;stroke:#FFFFFF;stroke-width:2;stroke-miterlimit:10;stroke-opacity:0.2;" d="
		M64.4-24.9c0,0-11.4,26.6-7.3,53c4.1,26.4-14.4,29.5-21.7,26.4C20.1,48.1,17.1,13.8-7.5,11.6C-26,9.9-50.9,23.2-64-6.9"/>
	
		<path style="clip-path:url(#SVGID_00000084511867075647199280000012705286065802826175_);fill:none;stroke:#FFFFFF;stroke-width:2;stroke-miterlimit:10;stroke-opacity:0.2;" d="
		M52.1-13c0,0,4.1,27.1-14.1,22.3C17.1,3.7,17.5-9.4-8.9,3c-9.4,4.4-47.2,5.7-39.6-18.5"/>
	
		<path style="clip-path:url(#SVGID_00000084511867075647199280000012705286065802826175_);fill:none;stroke:#FFFFFF;stroke-width:2;stroke-miterlimit:10;stroke-opacity:0.2;" d="
		M38.9,45.1c4.4,0,7.9-5.5,7.9-12.2s-3.5-12.2-7.9-12.2S31,26.2,31,32.9S34.5,45.1,38.9,45.1z"/>
	<g style="display:none;clip-path:url(#SVGID_00000084511867075647199280000012705286065802826175_);">
		<path class="st3" d="M17.7,55l-4-45h43.6l-4,45l-17.8,5L17.7,55z"/>
		<path class="st4" d="M35.5,56.2l14.4-4l3.4-38.4H35.5V56.2z"/>
		<path class="st5" d="M35.5,30.4h-7.2l-0.5-5.7h7.7v-5.5H21.8l0.1,1.5l1.3,15.2h12.2V30.4z M35.5,44.7L35.5,44.7l-6.1-1.7L29,38.6
			h-5.5l0.8,8.7l11.2,3.1l0,0V44.7z"/>
		<path class="st6" d="M35.5,30.4v5.5h6.7L41.6,43l-6.1,1.7v5.7l11.2-3.1l0.1-0.9L48,31.9l0.1-1.5h-1.5H35.5z M35.5,19.2v5.5h13.2
			l0.1-1.2l0.2-2.8l0.1-1.5H35.5z"/>
	</g>
</g>
<g>
	<path class="st7" d="M48.1,45.2l0,12.5l-11,5.5V50.7L48.1,45.2z M61.3,38.5V51l-9.4,4.7l0-12.4L61.3,38.5z M48.1,28.5l0,12.3
		l-11,5.5V34L48.1,28.5z M61.3,21.9v12.2L51.9,39l0-12.3L61.3,21.9z M35.4,20.5l9.9,5L35,30.6l-9.7-4.9L35.4,20.5z M21.6,13.5
		l9.4,4.7L21,23.5l-9.7-4.9L21.6,13.5z M48.5,13.6l10.1,5.1l-9.1,4.6l-9.9-5L48.5,13.6z M35,6.9l9.1,4.6l-8.7,4.7L26,11.4L35,6.9z"
		/>
	<path class="st8" d="M33.1,34l-7.4-3.7v16.2c0,0-9.1-19.4-9.9-21.1c-0.1-0.2-0.6-0.5-0.7-0.5c-1.6-0.9-6.4-3.3-6.4-3.3v28.6
		l6.6,3.5V38.7c0,0,9,17.3,9.1,17.5c0.1,0.2,1,2,2,2.7c1.3,0.9,6.8,4.2,6.8,4.2L33.1,34z"/>
</g>
</svg>
