<?xml version="1.0" encoding="utf-8"?>
<!-- Generator: Adobe Illustrator 28.0.0, SVG Export Plug-In . SVG Version: 6.00 Build 0)  -->
<svg version="1.1" id="Layer_1" xmlns="http://www.w3.org/2000/svg" xmlns:xlink="http://www.w3.org/1999/xlink" x="0px" y="0px"
	 viewBox="0 0 70 70" style="enable-background:new 0 0 70 70;" xml:space="preserve">
<style type="text/css">
	.st0{clip-path:url(#SVGID_00000137821572191609473940000016084151627224409267_);fill:#69778F;}
	
		.st1{clip-path:url(#SVGID_00000137821572191609473940000016084151627224409267_);fill:none;stroke:#FFFFFF;stroke-width:2;stroke-miterlimit:10;stroke-opacity:0.2;}
	.st2{display:none;clip-path:url(#SVGID_00000137821572191609473940000016084151627224409267_);}
	.st3{display:inline;fill:#E44D26;}
	.st4{display:inline;fill:#F16529;}
	.st5{display:inline;fill:#EBEBEB;}
	.st6{display:inline;fill:#FFFFFF;}
	.st7{fill:#336791;}
	.st8{fill:#FFFFFF;}
</style>
<g>
	<defs>
		<path id="SVGID_1_" d="M10,0h50c5.5,0,10,4.5,10,10v50c0,5.5-4.5,10-10,10H10C4.5,70,0,65.5,0,60V10C0,4.5,4.5,0,10,0z"/>
	</defs>
	<clipPath id="SVGID_00000031182600003737366910000011443420124015384753_">
		<use xlink:href="#SVGID_1_"  style="overflow:visible;"/>
	</clipPath>
	<path style="clip-path:url(#SVGID_00000031182600003737366910000011443420124015384753_);fill:#69778F;" d="M10,0h50
		c5.5,0,10,4.5,10,10.1v50.3c0,5.6-4.5,10.1-10,10.1H10c-5.5,0-10-4.5-10-10.1V10.1C0,4.5,4.5,0,10,0z"/>
	
		<path style="clip-path:url(#SVGID_00000031182600003737366910000011443420124015384753_);fill:none;stroke:#FFFFFF;stroke-width:2;stroke-miterlimit:10;stroke-opacity:0.2;" d="
		M94.9-15.5c0,0-26.4,12.6-21.7,43.6C78.4,63,48,77.9,27.1,69.3C6.3,60.7,7.8,28.7-31.8,27.7c-40.4-1-48.9-41.2-48.9-41.2"/>
	
		<path style="clip-path:url(#SVGID_00000031182600003737366910000011443420124015384753_);fill:none;stroke:#FFFFFF;stroke-width:2;stroke-miterlimit:10;stroke-opacity:0.2;" d="
		M64.4-24.9c0,0-11.4,26.6-7.3,53c4.1,26.4-14.4,29.5-21.7,26.4C20.1,48.1,17.1,13.8-7.5,11.6C-26,9.9-50.9,23.2-64-6.9"/>
	
		<path style="clip-path:url(#SVGID_00000031182600003737366910000011443420124015384753_);fill:none;stroke:#FFFFFF;stroke-width:2;stroke-miterlimit:10;stroke-opacity:0.2;" d="
		M52.1-13c0,0,4.1,27.1-14.1,22.3C17.1,3.7,17.5-9.4-8.9,3c-9.4,4.4-47.2,5.7-39.6-18.5"/>
	
		<path style="clip-path:url(#SVGID_00000031182600003737366910000011443420124015384753_);fill:none;stroke:#FFFFFF;stroke-width:2;stroke-miterlimit:10;stroke-opacity:0.2;" d="
		M38.9,45.1c4.4,0,7.9-5.5,7.9-12.2s-3.5-12.2-7.9-12.2S31,26.2,31,32.9S34.5,45.1,38.9,45.1z"/>
	<g style="display:none;clip-path:url(#SVGID_00000031182600003737366910000011443420124015384753_);">
		<path class="st3" d="M17.7,55l-4-45h43.6l-4,45l-17.8,5L17.7,55z"/>
		<path class="st4" d="M35.5,56.2l14.4-4l3.4-38.4H35.5V56.2z"/>
		<path class="st5" d="M35.5,30.4h-7.2l-0.5-5.7h7.7v-5.5H21.8l0.1,1.5l1.3,15.2h12.2V30.4z M35.5,44.7L35.5,44.7l-6.1-1.7L29,38.6
			h-5.5l0.8,8.7l11.2,3.1l0,0V44.7z"/>
		<path class="st6" d="M35.5,30.4v5.5h6.7L41.6,43l-6.1,1.7v5.7l11.2-3.1l0.1-0.9L48,31.9l0.1-1.5h-1.5H35.5z M35.5,19.2v5.5h13.2
			l0.1-1.2l0.2-2.8l0.1-1.5H35.5z"/>
	</g>
</g>
<g>
	<path d="M63,40.7c-0.3-1-1.2-1.7-2.4-1.9c-0.5-0.1-1.2,0-1.9,0.1c-1.3,0.3-2.2,0.4-2.9,0.4c2.6-4.4,4.7-9.4,6-14.2
		c2-7.6,0.9-11.1-0.3-12.7c-3.3-4.2-8-6.4-13.8-6.5c-3.1,0-5.8,0.6-7.2,1c-1.3-0.2-2.7-0.4-4.2-0.4c-2.8,0-5.2,0.6-7.3,1.8
		c-1.2-0.4-3-0.9-5.1-1.3c-5-0.8-9.1-0.2-12.1,1.9c-3.6,2.5-5.3,6.9-5,13.1c0.1,2,1.2,7.9,2.9,13.5c1,3.2,2,5.9,3.1,8
		c1.5,2.9,3.2,4.7,5.1,5.3c1,0.3,2.9,0.6,4.9-1.1c0.3,0.3,0.6,0.6,1,0.9c0.6,0.4,1.3,0.7,2,0.8c2.5,0.6,4.8,0.5,6.8-0.4
		c0,0.4,0,0.7,0,1c0,0.5,0,0.9,0,1.4c0.1,2.9,0.3,5.2,0.9,6.8c0,0.1,0.1,0.2,0.1,0.4c0.3,0.9,0.8,2.4,2.1,3.6
		c1.3,1.2,2.9,1.6,4.3,1.6c0.7,0,1.4-0.1,2-0.2c2.2-0.5,4.6-1.2,6.4-3.7c1.7-2.4,2.5-6,2.6-11.7c0-0.2,0-0.3,0.1-0.5l0-0.3l0.4,0
		l0.1,0c2.2,0.1,4.9-0.4,6.6-1.1C59.8,45.9,64,43.7,63,40.7"/>
	<path class="st7" d="M59.2,41.3c-6.6,1.4-7-0.9-7-0.9C59.1,30.2,62,17.2,59.5,14c-6.8-8.7-18.6-4.6-18.8-4.5l-0.1,0
		c-1.3-0.3-2.7-0.4-4.4-0.5c-3,0-5.2,0.8-6.9,2.1c0,0-21-8.7-20.1,10.9c0.2,4.2,6,31.5,12.8,23.2c2.5-3,4.9-5.6,4.9-5.6
		c1.2,0.8,2.6,1.2,4.2,1.1l0.1-0.1c0,0.4,0,0.7,0,1.2c-1.8,2-1.2,2.3-4.8,3.1c-3.6,0.7-1.5,2.1-0.1,2.4c1.7,0.4,5.5,1,8.1-2.6
		L34.5,45c0.7,0.6,1.2,3.6,1.1,6.4c-0.1,2.8-0.1,4.7,0.4,6.2c0.5,1.5,1.1,4.8,5.7,3.8c3.9-0.8,5.9-3,6.2-6.6
		c0.2-2.6,0.6-2.2,0.7-4.5l0.4-1.1c0.4-3.5,0.1-4.6,2.5-4.1l0.6,0.1c1.8,0.1,4.1-0.3,5.4-0.9C60.4,43,62.1,40.7,59.2,41.3L59.2,41.3
		"/>
	<path class="st8" d="M30.6,23.9c-0.6-0.1-1.1,0-1.4,0.2c-0.2,0.1-0.2,0.2-0.2,0.3c0,0.2,0.1,0.5,0.2,0.7c0.3,0.4,0.7,0.7,1.2,0.7
		c0.1,0,0.1,0,0.2,0c0.7,0,1.4-0.6,1.4-1C32.1,24.3,31.3,24,30.6,23.9 M50.2,23.9c-0.1-0.4-0.8-0.5-1.5-0.4
		c-0.7,0.1-1.3,0.4-1.3,0.8c0,0.3,0.6,0.9,1.3,0.9c0.1,0,0.1,0,0.2,0c0.4-0.1,0.8-0.3,0.9-0.5C50.1,24.3,50.2,24.1,50.2,23.9"/>
	<path class="st8" d="M61.4,41.2c-0.2-0.8-1.1-1-2.4-0.7c-4,0.8-5.4,0.3-5.9-0.1c3.1-4.7,5.6-10.4,7-15.7c0.6-2.5,1-4.8,1-6.7
		c0-2.1-0.3-3.6-1.1-4.6c-3-3.8-7.3-5.8-12.5-5.9c-3.6,0-6.7,0.9-7.2,1.1c-1.2-0.3-2.6-0.5-4.1-0.5c-2.7,0-5,0.6-7,1.9
		c-0.8-0.3-3-1.1-5.7-1.5c-4.6-0.7-8.3-0.2-10.9,1.7C9.6,12.5,8.2,16.4,8.5,22c0.1,1.9,1.2,7.6,2.8,13.2c2.2,7.3,4.6,11.4,7.2,12.2
		c0.3,0.1,0.6,0.2,1,0.2c0.9,0,2.1-0.4,3.2-1.8c1.4-1.7,2.9-3.4,4.5-5.1c1,0.5,2.1,0.8,3.2,0.9c0,0,0,0.1,0,0.1
		c-0.2,0.2-0.4,0.5-0.6,0.7c-0.8,1-0.9,1.2-3.4,1.7c-0.7,0.1-2.6,0.5-2.6,1.9c0,1.4,2.2,2.1,2.5,2.1c0.9,0.2,1.8,0.3,2.6,0.3
		c2,0,3.8-0.7,5.2-1.9c0,5.2,0.2,10.2,0.8,11.8c0.5,1.3,1.7,4.4,5.7,4.4c0.6,0,1.2-0.1,1.9-0.2c4.1-0.9,5.9-2.7,6.5-6.7
		c0.4-2.1,1-7.2,1.3-9.9c0.6,0.2,1.4,0.3,2.3,0.3c1.8,0,3.9-0.4,5.2-1C59.2,44.3,61.9,42.6,61.4,41.2L61.4,41.2z M51.7,22.8
		c0,0.8-0.1,1.5-0.2,2.3c-0.1,0.8-0.3,1.7-0.3,2.7c0,1,0.1,2,0.2,3c0.2,2,0.5,4.1-0.5,6.2c-0.2-0.3-0.3-0.6-0.4-0.9
		c-0.1-0.3-0.4-0.8-0.7-1.4c-1.4-2.5-4.7-8.5-3-10.9C47.2,23.1,48.5,22.4,51.7,22.8L51.7,22.8z M47.8,9.2c4.7,0.1,8.4,1.9,11.1,5.2
		c2,2.6-0.2,14.3-6.6,24.5c-0.1-0.1-0.1-0.2-0.2-0.2l-0.1-0.1c1.7-2.7,1.3-5.5,1-7.9c-0.1-1-0.2-1.9-0.2-2.8c0-0.9,0.2-1.7,0.3-2.5
		c0.1-1,0.3-1.9,0.3-3.1c0-0.1,0-0.3,0-0.4c-0.1-1.1-1.4-4.4-4-7.5c-1.4-1.6-3.5-3.5-6.3-4.7C44.3,9.4,45.9,9.1,47.8,9.2L47.8,9.2z
		 M21.5,44.6c-1.3,1.6-2.2,1.3-2.5,1.2c-1.9-0.6-4.2-4.7-6.1-11.2c-1.7-5.6-2.7-11.2-2.8-12.8c-0.2-5,1-8.4,3.6-10.3
		c4.3-3,11.3-1.2,14.1-0.3c0,0-0.1,0.1-0.1,0.1c-4.6,4.7-4.5,12.7-4.5,13.2c0,0.2,0,0.5,0,0.8c0.1,1.3,0.2,3.8-0.2,6.7
		c-0.4,2.6,0.4,5.2,2.2,7.1c0.2,0.2,0.4,0.4,0.6,0.5C25.1,40.6,23.3,42.4,21.5,44.6L21.5,44.6z M26.4,38c-1.4-1.5-2.1-3.6-1.8-5.7
		c0.4-3,0.3-5.6,0.2-7c0-0.2,0-0.4,0-0.5c0.7-0.6,3.8-2.3,6.1-1.8c1,0.2,1.6,0.9,1.9,2.1c1.3,6.2,0.2,8.8-0.8,10.8
		c-0.2,0.4-0.4,0.8-0.5,1.2l-0.1,0.3c-0.3,0.8-0.6,1.6-0.8,2.3C29.1,39.9,27.6,39.2,26.4,38L26.4,38z M26.7,46.4
		c-0.4-0.1-0.8-0.3-1.1-0.5c0.2-0.1,0.5-0.2,1.2-0.3c2.9-0.6,3.4-1,4.4-2.3c0.2-0.3,0.5-0.6,0.8-1l0,0c0.5-0.6,0.8-0.5,1.2-0.3
		c0.4,0.1,0.7,0.6,0.8,1.1c0.1,0.2,0.1,0.7-0.1,1C31.9,47,28.8,46.9,26.7,46.4z M42.1,60.7c-3.6,0.8-4.9-1.1-5.7-3.2
		c-0.5-1.4-0.8-7.5-0.6-14.2c0-0.1,0-0.2,0-0.3c0-0.2-0.1-0.3-0.1-0.5c-0.3-1-1-1.8-1.8-2.1c-0.3-0.1-0.9-0.4-1.6-0.2
		c0.2-0.6,0.4-1.3,0.7-2.1l0.1-0.3c0.1-0.4,0.3-0.7,0.5-1.1c1-2.2,2.3-5.1,0.9-11.9c-0.5-2.5-2.4-3.7-5.1-3.5
		c-1.7,0.2-3.2,0.8-3.9,1.2c-0.2,0.1-0.3,0.2-0.4,0.2c0.2-2.5,1-7.3,4-10.3c1.9-1.9,4.4-2.8,7.4-2.8c6,0.1,9.8,3.2,12,5.7
		c1.9,2.2,2.9,4.4,3.3,5.6c-3-0.3-5.1,0.3-6.1,1.8c-2.3,3.3,1.2,9.6,2.9,12.6c0.3,0.6,0.6,1,0.7,1.2c0.6,1.3,1.3,2.2,1.8,2.9
		c0.2,0.2,0.3,0.4,0.4,0.6c-0.9,0.3-2.6,0.9-2.4,3.9c-0.1,1.5-1,8.7-1.4,11.3C46.8,58.7,45.5,60,42.1,60.7L42.1,60.7z M57.1,43.5
		c-0.9,0.4-2.5,0.8-4,0.8c-1.6,0.1-2.5-0.2-2.7-0.3c-0.1-1.9,0.6-2.1,1.4-2.3c0.1,0,0.2-0.1,0.3-0.1c0.1,0.1,0.1,0.1,0.2,0.2
		c1.3,0.9,3.7,1,7,0.3l0,0C58.9,42.5,58.2,43,57.1,43.5L57.1,43.5z"/>
</g>
</svg>
