<?xml version="1.0" encoding="utf-8"?>
<!-- Generator: Adobe Illustrator 28.0.0, SVG Export Plug-In . SVG Version: 6.00 Build 0)  -->
<svg version="1.1" id="Layer_1" xmlns="http://www.w3.org/2000/svg" xmlns:xlink="http://www.w3.org/1999/xlink" x="0px" y="0px"
	 viewBox="0 0 70 70" style="enable-background:new 0 0 70 70;" xml:space="preserve">
<style type="text/css">
	.st0{clip-path:url(#SVGID_00000121962455266987042700000004690341488644820118_);fill:#0B1334;}
	
		.st1{clip-path:url(#SVGID_00000121962455266987042700000004690341488644820118_);fill:none;stroke:#FFFFFF;stroke-width:2;stroke-miterlimit:10;stroke-opacity:0.2;}
	.st2{display:none;clip-path:url(#SVGID_00000121962455266987042700000004690341488644820118_);}
	.st3{display:inline;fill:#E44D26;}
	.st4{display:inline;fill:#F16529;}
	.st5{display:inline;fill:#EBEBEB;}
	.st6{display:inline;fill:#FFFFFF;}
	.st7{fill:url(#SVGID_00000005984869129357284850000015525716440707596733_);}
	.st8{fill:url(#SVGID_00000092448589978128327160000006676827366703894940_);}
</style>
<g>
	<defs>
		<path id="SVGID_1_" d="M10,0h50c5.5,0,10,4.5,10,10v50c0,5.5-4.5,10-10,10H10C4.5,70,0,65.5,0,60V10C0,4.5,4.5,0,10,0z"/>
	</defs>
	<clipPath id="SVGID_00000021085268636957226650000015002958132275209643_">
		<use xlink:href="#SVGID_1_"  style="overflow:visible;"/>
	</clipPath>
	<path style="clip-path:url(#SVGID_00000021085268636957226650000015002958132275209643_);fill:#0B1334;" d="M10,0h50
		c5.5,0,10,4.5,10,10v50c0,5.5-4.5,10-10,10H10C4.5,70,0,65.5,0,60V10C0,4.5,4.5,0,10,0z"/>
	
		<path style="clip-path:url(#SVGID_00000021085268636957226650000015002958132275209643_);fill:none;stroke:#FFFFFF;stroke-width:2;stroke-miterlimit:10;stroke-opacity:0.2;" d="
		M94.9-15.5c0,0-26.4,12.6-21.7,43.6C78.4,63,48,77.9,27.1,69.3C6.3,60.7,7.8,28.7-31.8,27.7c-40.4-1-48.9-41.2-48.9-41.2"/>
	
		<path style="clip-path:url(#SVGID_00000021085268636957226650000015002958132275209643_);fill:none;stroke:#FFFFFF;stroke-width:2;stroke-miterlimit:10;stroke-opacity:0.2;" d="
		M64.4-24.9c0,0-11.4,26.6-7.3,53c4.1,26.4-14.4,29.5-21.7,26.4C20.1,48.1,17.1,13.8-7.5,11.6C-26,9.9-50.9,23.2-64-6.9"/>
	
		<path style="clip-path:url(#SVGID_00000021085268636957226650000015002958132275209643_);fill:none;stroke:#FFFFFF;stroke-width:2;stroke-miterlimit:10;stroke-opacity:0.2;" d="
		M52.1-13c0,0,4.1,27.1-14.1,22.3C17.1,3.7,17.5-9.4-8.9,3c-9.4,4.4-47.2,5.7-39.6-18.5"/>
	
		<path style="clip-path:url(#SVGID_00000021085268636957226650000015002958132275209643_);fill:none;stroke:#FFFFFF;stroke-width:2;stroke-miterlimit:10;stroke-opacity:0.2;" d="
		M38.9,45.1c4.4,0,7.9-5.5,7.9-12.2s-3.5-12.2-7.9-12.2S31,26.2,31,32.9S34.5,45.1,38.9,45.1z"/>
	<g style="display:none;clip-path:url(#SVGID_00000021085268636957226650000015002958132275209643_);">
		<path class="st3" d="M17.7,55l-4-45h43.6l-4,45l-17.8,5L17.7,55z"/>
		<path class="st4" d="M35.5,56.2l14.4-4l3.4-38.4H35.5V56.2z"/>
		<path class="st5" d="M35.5,30.4h-7.2l-0.5-5.7h7.7v-5.5H21.8l0.1,1.5l1.3,15.2h12.2V30.4z M35.5,44.7L35.5,44.7l-6.1-1.7L29,38.6
			h-5.5l0.8,8.7l11.2,3.1l0,0V44.7z"/>
		<path class="st6" d="M35.5,30.4v5.5h6.7L41.6,43l-6.1,1.7v5.7l11.2-3.1l0.1-0.9L48,31.9l0.1-1.5h-1.5H35.5z M35.5,19.2v5.5h13.2
			l0.1-1.2l0.2-2.8l0.1-1.5H35.5z"/>
	</g>
</g>
<g>
	
		<linearGradient id="SVGID_00000155827431430103631050000015094017013270173068_" gradientUnits="userSpaceOnUse" x1="-923.4932" y1="575.7209" x2="-923.4793" y2="575.7072" gradientTransform="matrix(1849.2675 0 0 -1853.3917 1707800.5 1067050.25)">
		<stop  offset="0" style="stop-color:#387EB8"/>
		<stop  offset="1" style="stop-color:#366994"/>
	</linearGradient>
	<path style="fill:url(#SVGID_00000155827431430103631050000015094017013270173068_);" d="M35.6,9.2c-13.1,0-12.3,5.7-12.3,5.7
		l0,5.9h12.5v1.8H18.3c0,0-8.4-1-8.4,12.3c0,13.3,7.3,12.8,7.3,12.8h4.4v-6.2c0,0-0.2-7.3,7.2-7.3h12.4c0,0,7,0.1,7-6.8V16.1
		C48.2,16.1,49.3,9.2,35.6,9.2z M28.6,13.2c1.2,0,2.3,1,2.3,2.3c0,0,0,0,0,0c0,1.2-1,2.3-2.3,2.3c0,0,0,0,0,0c-1.2,0-2.3-1-2.3-2.3
		c0,0,0,0,0,0C26.4,14.2,27.4,13.2,28.6,13.2C28.6,13.2,28.6,13.2,28.6,13.2z"/>
	
		<linearGradient id="SVGID_00000166664939114226043710000004197050805042661521_" gradientUnits="userSpaceOnUse" x1="-923.8331" y1="576.0506" x2="-923.8182" y2="576.0365" gradientTransform="matrix(1849.2671 0 0 -1853.3918 1708444.75 1067677.75)">
		<stop  offset="0" style="stop-color:#FFE052"/>
		<stop  offset="1" style="stop-color:#FFC331"/>
	</linearGradient>
	<path style="fill:url(#SVGID_00000166664939114226043710000004197050805042661521_);" d="M35.9,60.8c13.1,0,12.3-5.7,12.3-5.7
		l0-5.9H35.7v-1.8h17.5c0,0,8.4,1,8.4-12.3c0-13.3-7.3-12.8-7.3-12.8h-4.4v6.2c0,0,0.2,7.3-7.2,7.3H30.2c0,0-7-0.1-7,6.8v11.4
		C23.2,53.9,22.2,60.8,35.9,60.8L35.9,60.8z M42.8,56.8c-1.2,0-2.3-1-2.3-2.3c0,0,0,0,0,0c0-1.2,1-2.3,2.3-2.3c0,0,0,0,0,0
		c1.2,0,2.3,1,2.3,2.3c0,0,0,0,0,0C45.1,55.8,44.1,56.8,42.8,56.8C42.8,56.8,42.8,56.8,42.8,56.8L42.8,56.8z"/>
</g>
</svg>
