<?xml version="1.0" encoding="utf-8"?>
<!-- Generator: Adobe Illustrator 28.0.0, SVG Export Plug-In . SVG Version: 6.00 Build 0)  -->
<svg version="1.1" id="Layer_1" xmlns="http://www.w3.org/2000/svg" xmlns:xlink="http://www.w3.org/1999/xlink" x="0px" y="0px"
	 viewBox="0 0 70 70" style="enable-background:new 0 0 70 70;" xml:space="preserve">
<style type="text/css">
	.st0{clip-path:url(#SVGID_00000151520378280932236370000010694892844174741649_);fill:#10102C;}
	
		.st1{clip-path:url(#SVGID_00000151520378280932236370000010694892844174741649_);fill:none;stroke:#FFFFFF;stroke-width:2;stroke-miterlimit:10;stroke-opacity:0.2;}
	.st2{display:none;clip-path:url(#SVGID_00000151520378280932236370000010694892844174741649_);}
	.st3{display:inline;fill:#E44D26;}
	.st4{display:inline;fill:#F16529;}
	.st5{display:inline;fill:#EBEBEB;}
	.st6{display:inline;fill:#FFFFFF;}
	.st7{fill:url(#SVGID_00000054981435245372215460000013078023972039751297_);}
	.st8{fill:#2165B6;}
</style>
<g>
	<defs>
		<path id="SVGID_1_" d="M10,0h50c5.5,0,10,4.5,10,10v50c0,5.5-4.5,10-10,10H10C4.5,70,0,65.5,0,60V10C0,4.5,4.5,0,10,0z"/>
	</defs>
	<clipPath id="SVGID_00000155832236350017222450000010740122599013826461_">
		<use xlink:href="#SVGID_1_"  style="overflow:visible;"/>
	</clipPath>
	<path style="clip-path:url(#SVGID_00000155832236350017222450000010740122599013826461_);fill:#10102C;" d="M10,0h50
		c5.5,0,10,4.5,10,10v50c0,5.5-4.5,10-10,10H10C4.5,70,0,65.5,0,60V10C0,4.5,4.5,0,10,0z"/>
	
		<path style="clip-path:url(#SVGID_00000155832236350017222450000010740122599013826461_);fill:none;stroke:#FFFFFF;stroke-width:2;stroke-miterlimit:10;stroke-opacity:0.2;" d="
		M94.9-15.5c0,0-26.4,12.6-21.7,43.6C78.4,63,48,77.9,27.1,69.3C6.3,60.7,7.8,28.7-31.8,27.7c-40.4-1-48.9-41.2-48.9-41.2"/>
	
		<path style="clip-path:url(#SVGID_00000155832236350017222450000010740122599013826461_);fill:none;stroke:#FFFFFF;stroke-width:2;stroke-miterlimit:10;stroke-opacity:0.2;" d="
		M64.4-24.9c0,0-11.4,26.6-7.3,53c4.1,26.4-14.4,29.5-21.7,26.4C20.1,48.1,17.1,13.8-7.5,11.6C-26,9.9-50.9,23.2-64-6.9"/>
	
		<path style="clip-path:url(#SVGID_00000155832236350017222450000010740122599013826461_);fill:none;stroke:#FFFFFF;stroke-width:2;stroke-miterlimit:10;stroke-opacity:0.2;" d="
		M52.1-13c0,0,4.1,27.1-14.1,22.3C17.1,3.7,17.5-9.4-8.9,3c-9.4,4.4-47.2,5.7-39.6-18.5"/>
	
		<path style="clip-path:url(#SVGID_00000155832236350017222450000010740122599013826461_);fill:none;stroke:#FFFFFF;stroke-width:2;stroke-miterlimit:10;stroke-opacity:0.2;" d="
		M38.9,45.1c4.4,0,7.9-5.5,7.9-12.2s-3.5-12.2-7.9-12.2S31,26.2,31,32.9S34.5,45.1,38.9,45.1z"/>
	<g style="display:none;clip-path:url(#SVGID_00000155832236350017222450000010740122599013826461_);">
		<path class="st3" d="M17.7,55l-4-45h43.6l-4,45l-17.8,5L17.7,55z"/>
		<path class="st4" d="M35.5,56.2l14.4-4l3.4-38.4H35.5V56.2z"/>
		<path class="st5" d="M35.5,30.4h-7.2l-0.5-5.7h7.7v-5.5H21.8l0.1,1.5l1.3,15.2h12.2V30.4z M35.5,44.7L35.5,44.7l-6.1-1.7L29,38.6
			h-5.5l0.8,8.7l11.2,3.1l0,0V44.7z"/>
		<path class="st6" d="M35.5,30.4v5.5h6.7L41.6,43l-6.1,1.7v5.7l11.2-3.1l0.1-0.9L48,31.9l0.1-1.5h-1.5H35.5z M35.5,19.2v5.5h13.2
			l0.1-1.2l0.2-2.8l0.1-1.5H35.5z"/>
	</g>
</g>
<g>
	
		<linearGradient id="SVGID_00000049215963312217043300000008259742836078161792_" gradientUnits="userSpaceOnUse" x1="-923.621" y1="575.6788" x2="-923.6098" y2="575.6663" gradientTransform="matrix(2500 0 0 -1643.5742 2309076 946194.875)">
		<stop  offset="0" style="stop-color:#C9CBCE"/>
		<stop  offset="1" style="stop-color:#7B7A81"/>
	</linearGradient>
	<path style="fill:url(#SVGID_00000049215963312217043300000008259742836078161792_);" d="M39.4,45.9c-11,0-20.3-5.5-20.3-12.1
		s8.2-12,19.2-12c13.8,0,20.2,5.3,20.2,11.9S51.5,45.9,39.4,45.9 M35,15.2c-14.2,0-26.3,7.7-26.3,17.5c0,9.3,12,17,26.2,17
		c14.2,0,26.4-7.2,26.4-17S49.2,15.2,35,15.2"/>
	<path class="st8" d="M30.5,25.8v29h8.8V43.5c2.2,0,3.5-0.5,4.9,2.1c2.2,3.8,4.9,9.1,4.9,9.1h10.4c0,0-6.6-10.7-7.1-11.3
		c-1-1.1-2.2-1.1-3.8-1.6c3.3-0.5,6.3-1.9,7.4-4.8c0.9-2.7,0.8-6.1-1.2-8.4c-1.7-1.8-3.5-2.9-7.9-2.9L30.5,25.8L30.5,25.8z
		 M39.2,31.9H45c1.4,0,2.5,1.3,2.5,2.7c0,1.3-1.1,2.7-2.5,2.7h-5.7V31.9L39.2,31.9z"/>
</g>
</svg>
