<?xml version="1.0" encoding="utf-8"?>
<!-- Generator: Adobe Illustrator 28.0.0, SVG Export Plug-In . SVG Version: 6.00 Build 0)  -->
<svg version="1.1" id="Layer_1" xmlns="http://www.w3.org/2000/svg" xmlns:xlink="http://www.w3.org/1999/xlink" x="0px" y="0px"
	 viewBox="0 0 70 70" style="enable-background:new 0 0 70 70;" xml:space="preserve">
<style type="text/css">
	.st0{clip-path:url(#SVGID_00000145049232595324064170000016410075373058890372_);fill:#4C001C;}
	
		.st1{clip-path:url(#SVGID_00000145049232595324064170000016410075373058890372_);fill:none;stroke:#FFFFFF;stroke-width:2;stroke-miterlimit:10;stroke-opacity:0.2;}
	.st2{display:none;clip-path:url(#SVGID_00000145049232595324064170000016410075373058890372_);}
	.st3{display:inline;fill:#E44D26;}
	.st4{display:inline;fill:#F16529;}
	.st5{display:inline;fill:#EBEBEB;}
	.st6{display:inline;fill:#FFFFFF;}
	.st7{fill:#75A928;}
	.st8{fill:#BC1142;}
</style>
<g>
	<defs>
		<path id="SVGID_1_" d="M10,0h50c5.5,0,10,4.5,10,10v50c0,5.5-4.5,10-10,10H10C4.5,70,0,65.5,0,60V10C0,4.5,4.5,0,10,0z"/>
	</defs>
	<clipPath id="SVGID_00000033331365761563870110000000630428849602479491_">
		<use xlink:href="#SVGID_1_"  style="overflow:visible;"/>
	</clipPath>
	<path style="clip-path:url(#SVGID_00000033331365761563870110000000630428849602479491_);fill:#4C001C;" d="M10,0h50
		c5.5,0,10,4.5,10,10v50c0,5.5-4.5,10-10,10H10C4.5,70,0,65.5,0,60V10C0,4.5,4.5,0,10,0z"/>
	
		<path style="clip-path:url(#SVGID_00000033331365761563870110000000630428849602479491_);fill:none;stroke:#FFFFFF;stroke-width:2;stroke-miterlimit:10;stroke-opacity:0.2;" d="
		M94.9-15.5c0,0-26.4,12.6-21.7,43.6C78.4,63,48,77.9,27.1,69.3C6.3,60.7,7.8,28.7-31.8,27.7c-40.4-1-48.9-41.2-48.9-41.2"/>
	
		<path style="clip-path:url(#SVGID_00000033331365761563870110000000630428849602479491_);fill:none;stroke:#FFFFFF;stroke-width:2;stroke-miterlimit:10;stroke-opacity:0.2;" d="
		M64.4-24.9c0,0-11.4,26.6-7.3,53c4.1,26.4-14.4,29.5-21.7,26.4C20.1,48.1,17.1,13.8-7.5,11.6C-26,9.9-50.9,23.2-64-6.9"/>
	
		<path style="clip-path:url(#SVGID_00000033331365761563870110000000630428849602479491_);fill:none;stroke:#FFFFFF;stroke-width:2;stroke-miterlimit:10;stroke-opacity:0.2;" d="
		M52.1-13c0,0,4.1,27.1-14.1,22.3C17.1,3.7,17.5-9.4-8.9,3c-9.4,4.4-47.2,5.7-39.6-18.5"/>
	
		<path style="clip-path:url(#SVGID_00000033331365761563870110000000630428849602479491_);fill:none;stroke:#FFFFFF;stroke-width:2;stroke-miterlimit:10;stroke-opacity:0.2;" d="
		M38.9,45.1c4.4,0,7.9-5.5,7.9-12.2s-3.5-12.2-7.9-12.2S31,26.2,31,32.9S34.5,45.1,38.9,45.1z"/>
	<g style="display:none;clip-path:url(#SVGID_00000033331365761563870110000000630428849602479491_);">
		<path class="st3" d="M17.7,55l-4-45h43.6l-4,45l-17.8,5L17.7,55z"/>
		<path class="st4" d="M35.5,56.2l14.4-4l3.4-38.4H35.5V56.2z"/>
		<path class="st5" d="M35.5,30.4h-7.2l-0.5-5.7h7.7v-5.5H21.8l0.1,1.5l1.3,15.2h12.2V30.4z M35.5,44.7L35.5,44.7l-6.1-1.7L29,38.6
			h-5.5l0.8,8.7l11.2,3.1l0,0V44.7z"/>
		<path class="st6" d="M35.5,30.4v5.5h6.7L41.6,43l-6.1,1.7v5.7l11.2-3.1l0.1-0.9L48,31.9l0.1-1.5h-1.5H35.5z M35.5,19.2v5.5h13.2
			l0.1-1.2l0.2-2.8l0.1-1.5H35.5z"/>
	</g>
</g>
<g>
	<path d="M25.7,6.5c-0.3,0-0.6,0.1-1,0.4c-0.9-0.3-1.7-0.4-2.4,0.2c-1.2-0.1-1.5,0.2-1.8,0.5c-0.3,0-1.9-0.3-2.7,0.9
		C16,8.3,15.4,9.6,16,10.9c-0.4,0.6-0.8,1.2,0.1,2.3c-0.3,0.6-0.1,1.3,0.6,2.2c-0.2,0.9,0.2,1.5,0.9,2c-0.1,1.2,1.1,1.9,1.5,2.2
		c0.1,0.7,0.4,1.4,1.9,1.8c0.2,1.1,1.1,1.2,1.9,1.5c-2.8,1.6-5.1,3.7-5.1,8.9l-0.4,0.7c-3.2,1.9-6,8.1-1.6,13.1
		c0.3,1.6,0.8,2.7,1.2,3.9c0.6,5,4.9,7.4,6,7.7c1.6,1.2,3.4,2.4,5.7,3.3c2.2,2.3,4.6,3.2,7,3.2c0,0,4.9-0.9,7.2-3.2
		c2.4-0.8,4.1-2,5.7-3.3c1.1-0.3,5.3-2.6,6-7.7c0.4-1.2,0.9-2.4,1.2-3.9c4.4-5,1.6-11.2-1.6-13.1L54,31.7c0-5.2-2.3-7.3-5.1-8.9
		c0.8-0.2,1.7-0.4,1.9-1.5c1.4-0.4,1.7-1,1.9-1.8c0.4-0.3,1.6-1,1.5-2.2c0.7-0.5,1.1-1.1,0.9-2c0.8-0.8,1-1.5,0.6-2.2
		c0.9-1.1,0.5-1.7,0.1-2.3c0.7-1.2,0.1-2.6-1.8-2.4c-0.8-1.1-2.4-0.9-2.7-0.9c-0.3-0.4-0.7-0.7-1.8-0.5c-0.7-0.7-1.6-0.6-2.4-0.2
		c-1-0.8-1.7-0.2-2.5,0.1c-1.2-0.4-1.5,0.1-2.1,0.4c-1.4-0.3-1.8,0.3-2.4,1l-0.8,0c-2,1.2-3.1,3.7-3.4,4.9c-0.4-1.3-1.4-3.7-3.4-4.9
		l-0.8,0c-0.6-0.7-1.1-1.3-2.4-1c-0.6-0.2-0.9-0.8-2.1-0.4C26.7,6.8,26.3,6.5,25.7,6.5l-14,24.6"/>
	<path class="st7" d="M21.7,11.8c5.4,2.8,8.6,5,10.3,7c-0.9,3.5-5.5,3.7-7.2,3.6c0.3-0.2,0.6-0.4,0.7-0.6c-0.4-0.3-1.9,0-3-0.6
		c0.4-0.1,0.6-0.2,0.8-0.5c-1-0.3-2.1-0.6-2.7-1.1c0.3,0,0.7,0.1,1.1-0.2c-0.9-0.5-1.8-0.9-2.6-1.6c0.5,0,1,0,1.1-0.2
		c-0.8-0.5-1.5-1.1-2.1-1.7c0.6,0.1,0.9,0,1.1-0.1c-0.6-0.6-1.4-1.2-1.8-1.9c0.5,0.2,0.9,0.2,1.2,0c-0.2-0.5-1.1-0.7-1.6-1.8
		c0.5,0,1,0.1,1.1,0c-0.2-0.9-0.6-1.5-1-2c1.1,0,2.7,0,2.6-0.1l-0.7-0.7c1-0.3,2.1,0,2.9,0.3c0.3-0.3,0-0.6-0.4-1
		c0.9,0.1,1.7,0.3,2.4,0.6c0.4-0.4-0.3-0.7-0.6-1.1c1.4,0.3,2,0.6,2.5,1c0.4-0.4,0-0.7-0.3-1.1c1,0.4,1.6,0.9,2.1,1.4
		c0.2-0.3,0.5-0.4,0.1-1.1c0.7,0.4,1.3,0.9,1.7,1.5C30.2,9.4,30,9,30,8.7c0.8,0.6,1.2,1.3,1.8,1.9c0.1-0.1,0.2-0.4,0.3-0.8
		c1.8,1.8,4.4,6.2,0.7,8C29.7,15.1,25.9,13.2,21.7,11.8L21.7,11.8 M50.4,11.8c-5.4,2.8-8.6,5-10.3,7c0.9,3.5,5.5,3.7,7.2,3.6
		c-0.3-0.2-0.6-0.4-0.7-0.6c0.4-0.3,1.9,0,3-0.6c-0.4-0.1-0.6-0.2-0.8-0.5c1-0.3,2.1-0.6,2.7-1.1c-0.3,0-0.7,0.1-1.1-0.2
		c0.9-0.5,1.8-0.9,2.6-1.6c-0.5,0-1,0-1.1-0.2c0.8-0.5,1.5-1.1,2.1-1.7c-0.6,0.1-0.9,0-1.1-0.1c0.6-0.6,1.4-1.2,1.8-1.9
		c-0.5,0.2-0.9,0.2-1.2,0c0.2-0.5,1.1-0.7,1.6-1.8c-0.5,0-1,0.1-1.1,0c0.2-0.9,0.6-1.5,1-2c-1.1,0-2.7,0-2.6-0.1l0.7-0.7
		c-1-0.3-2.1,0-2.9,0.3c-0.3-0.3,0-0.6,0.4-1c-0.9,0.1-1.7,0.3-2.4,0.6c-0.4-0.4,0.3-0.7,0.6-1.1c-1.4,0.3-2,0.6-2.5,1
		c-0.4-0.4,0-0.7,0.3-1.1c-1,0.4-1.6,0.9-2.1,1.4C43.9,9,43.6,8.9,44,8.2c-0.7,0.4-1.3,0.9-1.7,1.5C41.8,9.4,42,9,42,8.7
		c-0.8,0.6-1.2,1.3-1.8,1.9c-0.1-0.1-0.2-0.4-0.3-0.8c-1.8,1.8-4.4,6.2-0.7,8C42.4,15.1,46.2,13.2,50.4,11.8L50.4,11.8"/>
	<path class="st8" d="M42.6,47.8c0,3.3-2.9,6-6.5,6c-3.6,0-6.5-2.6-6.5-5.9c0,0,0,0,0-0.1c0-3.3,2.9-6,6.5-6S42.6,44.5,42.6,47.8
		L42.6,47.8 M32.3,30.7c2.7,1.8,3.2,5.8,1.1,8.9c-2.1,3.2-6,4.3-8.6,2.5c-2.7-1.8-3.2-5.8-1.1-8.9C25.8,30.1,29.7,29,32.3,30.7
		 M39.6,30.4c-2.7,1.8-3.2,5.8-1.1,8.9c2.1,3.2,6,4.3,8.6,2.5c2.7-1.8,3.2-5.8,1.1-8.9C46.2,29.8,42.3,28.7,39.6,30.4 M18.9,33.6
		c2.9-0.8,1,12-1.4,11C14.9,42.5,14.1,36.4,18.9,33.6 M52.4,33.5c-2.9-0.8-1,12,1.4,11C56.4,42.3,57.2,36.2,52.4,33.5 M42.6,23.9
		c5-0.8,9.2,2.1,9,7.6C51.4,33.6,40.7,24.2,42.6,23.9 M28.7,23.8c-5-0.8-9.2,2.1-9,7.6C19.9,33.4,30.6,24.1,28.7,23.8 M35.9,22.5
		c-3-0.1-5.9,2.2-5.9,3.5c0,1.6,2.4,3.3,5.9,3.3c3.6,0,5.9-1.3,5.9-3C41.9,24.5,38.6,22.5,35.9,22.5L35.9,22.5 M36.1,55.7
		c2.6-0.1,6.1,0.8,6.1,2.1c0,1.2-3.2,4-6.3,3.9c-3.2,0.1-6.4-2.6-6.3-3.6C29.6,56.7,33.5,55.6,36.1,55.7 M26.5,48.2
		c1.9,2.2,2.7,6.2,1.2,7.3c-1.5,0.9-5,0.5-7.5-3.1c-1.7-3-1.5-6.1-0.3-7.1C21.6,44.3,24.4,45.7,26.5,48.2L26.5,48.2 M45.4,47.5
		c-2,2.4-3.1,6.6-1.7,8c1.4,1.1,5.2,0.9,7.9-2.9c2-2.6,1.3-6.9,0.2-8.1C50.1,43.2,47.7,44.9,45.4,47.5L45.4,47.5"/>
</g>
</svg>
