<?xml version="1.0" encoding="utf-8"?>
<!-- Generator: Adobe Illustrator 28.0.0, SVG Export Plug-In . SVG Version: 6.00 Build 0)  -->
<svg version="1.1" id="Layer_1" xmlns="http://www.w3.org/2000/svg" xmlns:xlink="http://www.w3.org/1999/xlink" x="0px" y="0px"
	 viewBox="0 0 70 70" style="enable-background:new 0 0 70 70;" xml:space="preserve">
<style type="text/css">
	.st0{clip-path:url(#SVGID_00000149339902394496906690000013258513574853501833_);fill:#002100;}
	
		.st1{clip-path:url(#SVGID_00000149339902394496906690000013258513574853501833_);fill:none;stroke:#FFFFFF;stroke-width:2;stroke-miterlimit:10;stroke-opacity:0.2;}
	.st2{display:none;clip-path:url(#SVGID_00000149339902394496906690000013258513574853501833_);}
	.st3{display:inline;fill:#E44D26;}
	.st4{display:inline;fill:#F16529;}
	.st5{display:inline;fill:#EBEBEB;}
	.st6{display:inline;fill:#FFFFFF;}
	.st7{fill:#01A71C;}
</style>
<g>
	<defs>
		<path id="SVGID_1_" d="M10,0h50c5.5,0,10,4.5,10,10v50c0,5.5-4.5,10-10,10H10C4.5,70,0,65.5,0,60V10C0,4.5,4.5,0,10,0z"/>
	</defs>
	<clipPath id="SVGID_00000034800369037941715890000003948458663689059774_">
		<use xlink:href="#SVGID_1_"  style="overflow:visible;"/>
	</clipPath>
	<path style="clip-path:url(#SVGID_00000034800369037941715890000003948458663689059774_);fill:#002100;" d="M10,0h50
		c5.5,0,10,4.5,10,10.1v50.3c0,5.6-4.5,10.1-10,10.1H10c-5.5,0-10-4.5-10-10.1V10.1C0,4.5,4.5,0,10,0z"/>
	
		<path style="clip-path:url(#SVGID_00000034800369037941715890000003948458663689059774_);fill:none;stroke:#FFFFFF;stroke-width:2;stroke-miterlimit:10;stroke-opacity:0.2;" d="
		M94.9-15.5c0,0-26.4,12.6-21.7,43.6C78.4,63,48,77.9,27.1,69.3C6.3,60.7,7.8,28.7-31.8,27.7c-40.4-1-48.9-41.2-48.9-41.2"/>
	
		<path style="clip-path:url(#SVGID_00000034800369037941715890000003948458663689059774_);fill:none;stroke:#FFFFFF;stroke-width:2;stroke-miterlimit:10;stroke-opacity:0.2;" d="
		M64.4-24.9c0,0-11.4,26.6-7.3,53c4.1,26.4-14.4,29.5-21.7,26.4C20.1,48.1,17.1,13.8-7.5,11.6C-26,9.9-50.9,23.2-64-6.9"/>
	
		<path style="clip-path:url(#SVGID_00000034800369037941715890000003948458663689059774_);fill:none;stroke:#FFFFFF;stroke-width:2;stroke-miterlimit:10;stroke-opacity:0.2;" d="
		M52.1-13c0,0,4.1,27.1-14.1,22.3C17.1,3.7,17.5-9.4-8.9,3c-9.4,4.4-47.2,5.7-39.6-18.5"/>
	
		<path style="clip-path:url(#SVGID_00000034800369037941715890000003948458663689059774_);fill:none;stroke:#FFFFFF;stroke-width:2;stroke-miterlimit:10;stroke-opacity:0.2;" d="
		M38.9,45.1c4.4,0,7.9-5.5,7.9-12.2s-3.5-12.2-7.9-12.2S31,26.2,31,32.9S34.5,45.1,38.9,45.1z"/>
	<g style="display:none;clip-path:url(#SVGID_00000034800369037941715890000003948458663689059774_);">
		<path class="st3" d="M17.7,55l-4-45h43.6l-4,45l-17.8,5L17.7,55z"/>
		<path class="st4" d="M35.5,56.2l14.4-4l3.4-38.4H35.5V56.2z"/>
		<path class="st5" d="M35.5,30.4h-7.2l-0.5-5.7h7.7v-5.5H21.8l0.1,1.5l1.3,15.2h12.2V30.4z M35.5,44.7L35.5,44.7l-6.1-1.7L29,38.6
			h-5.5l0.8,8.7l11.2,3.1l0,0V44.7z"/>
		<path class="st6" d="M35.5,30.4v5.5h6.7L41.6,43l-6.1,1.7v5.7l11.2-3.1l0.1-0.9L48,31.9l0.1-1.5h-1.5H35.5z M35.5,19.2v5.5h13.2
			l0.1-1.2l0.2-2.8l0.1-1.5H35.5z"/>
	</g>
</g>
<g>
	<path class="st7" d="M43.2,42.2c-2.1-0.1-3.8,1.5-4,3.5c0,0.1,0,0.1,0.1,0.2c0,0,0,0,0,0h7.9c0.1,0,0.1-0.1,0.1-0.1c0,0,0,0,0,0
		C47.1,43.6,45.3,42,43.2,42.2z"/>
	<path class="st7" d="M60.1,15.8L43.4,34.5c-0.2,0.2-0.5,0.2-0.7,0c0,0,0,0,0,0l-8.5-8.8c-0.1-0.2-0.1-0.4,0-0.6l2.8-3.6
		c0.2-0.2,0.5-0.3,0.7-0.1c0,0,0.1,0.1,0.1,0.1l4.8,5.3c0.2,0.2,0.5,0.2,0.7,0.1c0,0,0,0,0.1-0.1L56.6,8.6c0.1-0.2,0.1-0.4-0.1-0.5
		C56.5,8,56.4,8,56.3,8H9.6C9.4,8,9.2,8.2,9.2,8.4v53.2c0,0.2,0.2,0.4,0.4,0.4h50.8c0.2,0,0.4-0.2,0.4-0.4V16.1
		c0.1-0.2,0-0.4-0.2-0.5S60.1,15.6,60.1,15.8z M23.6,56.1c-3.3,0.2-6.6-1-9.1-3.2c-0.2-0.2-0.2-0.5,0-0.7l2-2.8
		c0.1-0.2,0.4-0.3,0.7-0.2c0,0,0,0,0,0c1.8,1.7,4.2,2.6,6.7,2.6c2.6,0,3.9-1.2,3.9-2.5c0-3.9-12.8-1.2-12.8-9.6
		c0-3.7,3.2-6.8,8.4-6.8c3-0.1,6,0.9,8.3,2.8c0.2,0.2,0.2,0.5,0,0.7l-2,2.7c-0.2,0.2-0.5,0.3-0.7,0.1c0,0,0,0,0,0
		c-1.7-1.4-3.9-2.1-6.1-2.1c-2,0-3.2,0.9-3.2,2.2c0,3.5,12.8,1.2,12.8,9.5C32.5,53,29.6,56.1,23.6,56.1L23.6,56.1z M51.5,48.3
		c0,0.2-0.2,0.4-0.4,0.4c0,0,0,0,0,0H39.4c-0.1,0-0.1,0.1-0.1,0.2c0,0,0,0,0,0c0.4,2.3,2.5,3.9,4.8,3.7c1.5,0,2.9-0.5,4.1-1.3
		c0.2-0.2,0.5-0.1,0.6,0.1c0,0,0,0,0,0l1.4,2.1c0.1,0.2,0.1,0.4-0.1,0.6c-1.9,1.4-4.2,2.1-6.5,2c-4.6,0.3-8.6-3.3-8.8-7.9
		c0-0.3,0-0.5,0-0.8c-0.1-4.7,3.5-8.5,8.2-8.7c0.1,0,0.3,0,0.4,0c4.9,0,8.3,3.7,8.3,9.1L51.5,48.3z"/>
</g>
</svg>
