<?xml version="1.0" encoding="utf-8"?>
<!-- Generator: Adobe Illustrator 28.0.0, SVG Export Plug-In . SVG Version: 6.00 Build 0)  -->
<svg version="1.1" id="Layer_1" xmlns="http://www.w3.org/2000/svg" xmlns:xlink="http://www.w3.org/1999/xlink" x="0px" y="0px"
	 viewBox="0 0 70 70" style="enable-background:new 0 0 70 70;" xml:space="preserve">
<style type="text/css">
	.st0{clip-path:url(#SVGID_00000174576043652473619140000010041350452759780745_);fill:#19618C;}
	
		.st1{clip-path:url(#SVGID_00000174576043652473619140000010041350452759780745_);fill:none;stroke:#FFFFFF;stroke-width:2;stroke-miterlimit:10;stroke-opacity:0.2;}
	.st2{display:none;clip-path:url(#SVGID_00000174576043652473619140000010041350452759780745_);}
	.st3{display:inline;fill:#E44D26;}
	.st4{display:inline;fill:#F16529;}
	.st5{display:inline;fill:#EBEBEB;}
	.st6{display:inline;fill:#FFFFFF;}
	.st7{fill:#FFFFFF;}
	.st8{fill:none;}
	.st9{font-family:'MyriadPro-Regular';}
	.st10{font-size:17px;}
</style>
<g>
	<defs>
		<path id="SVGID_1_" d="M10,0h50c5.5,0,10,4.5,10,10v50c0,5.5-4.5,10-10,10H10C4.5,70,0,65.5,0,60V10C0,4.5,4.5,0,10,0z"/>
	</defs>
	<clipPath id="SVGID_00000124879193227479464660000012378629711521280169_">
		<use xlink:href="#SVGID_1_"  style="overflow:visible;"/>
	</clipPath>
	<path style="clip-path:url(#SVGID_00000124879193227479464660000012378629711521280169_);fill:#19618C;" d="M10,0h50
		c5.5,0,10,4.5,10,10v50c0,5.5-4.5,10-10,10H10C4.5,70,0,65.5,0,60V10C0,4.5,4.5,0,10,0z"/>
	
		<path style="clip-path:url(#SVGID_00000124879193227479464660000012378629711521280169_);fill:none;stroke:#FFFFFF;stroke-width:2;stroke-miterlimit:10;stroke-opacity:0.2;" d="
		M94.9-15.5c0,0-26.4,12.6-21.7,43.6C78.4,63,48,77.9,27.1,69.3C6.3,60.7,7.8,28.7-31.8,27.7c-40.4-1-48.9-41.2-48.9-41.2"/>
	
		<path style="clip-path:url(#SVGID_00000124879193227479464660000012378629711521280169_);fill:none;stroke:#FFFFFF;stroke-width:2;stroke-miterlimit:10;stroke-opacity:0.2;" d="
		M64.4-24.9c0,0-11.4,26.6-7.3,53c4.1,26.4-14.4,29.5-21.7,26.4C20.1,48.1,17.1,13.8-7.5,11.6C-26,9.9-50.9,23.2-64-6.9"/>
	
		<path style="clip-path:url(#SVGID_00000124879193227479464660000012378629711521280169_);fill:none;stroke:#FFFFFF;stroke-width:2;stroke-miterlimit:10;stroke-opacity:0.2;" d="
		M52.1-13c0,0,4.1,27.1-14.1,22.3C17.1,3.7,17.5-9.4-8.9,3c-9.4,4.4-47.2,5.7-39.6-18.5"/>
	
		<path style="clip-path:url(#SVGID_00000124879193227479464660000012378629711521280169_);fill:none;stroke:#FFFFFF;stroke-width:2;stroke-miterlimit:10;stroke-opacity:0.2;" d="
		M38.9,45.1c4.4,0,7.9-5.5,7.9-12.2s-3.5-12.2-7.9-12.2S31,26.2,31,32.9S34.5,45.1,38.9,45.1z"/>
	<g style="display:none;clip-path:url(#SVGID_00000124879193227479464660000012378629711521280169_);">
		<path class="st3" d="M17.7,55l-4-45h43.6l-4,45l-17.8,5L17.7,55z"/>
		<path class="st4" d="M35.5,56.2l14.4-4l3.4-38.4H35.5V56.2z"/>
		<path class="st5" d="M35.5,30.4h-7.2l-0.5-5.7h7.7v-5.5H21.8l0.1,1.5l1.3,15.2h12.2V30.4z M35.5,44.7L35.5,44.7l-6.1-1.7L29,38.6
			h-5.5l0.8,8.7l11.2,3.1l0,0V44.7z"/>
		<path class="st6" d="M35.5,30.4v5.5h6.7L41.6,43l-6.1,1.7v5.7l11.2-3.1l0.1-0.9L48,31.9l0.1-1.5h-1.5H35.5z M35.5,19.2v5.5h13.2
			l0.1-1.2l0.2-2.8l0.1-1.5H35.5z"/>
	</g>
</g>
<g>
	<path class="st7" d="M51.4,13.3c0.2-3.2-7.5-5.4-16.4-5.4S18.6,10,18.6,13.3v27.1c0,0,0-3,0,0s7.8,5.1,16.4,5.1s16.4-2,16.4-5.1
		V13.3L51.4,13.3z M35,8.8c9.2,0,15.4,2.3,15.4,4.4c0,2.3-6.2,4.4-15.4,4.4s-15.4-2.1-15.4-4.2S25.8,8.8,35,8.8L35,8.8z M50.4,40.5
		c-0.5,2.1-6.6,4.1-15.4,4.1s-14.9-2.1-15.4-4.1v-8.1c1.8,2.3,7.8,3.8,15.4,3.8c7.4,0,13.6-1.5,15.4-3.6V40.5L50.4,40.5z M50.4,31.3
		c-0.6,2.1-6.6,4.1-15.4,4.1s-14.9-2.1-15.4-4.1v0.2v-7.5c1.8,2.3,7.8,3.6,15.4,3.6c7.4,0,13.6-1.5,15.4-3.6V31.3z M50.4,22.7
		c-0.6,2.1-6.6,4.1-15.4,4.1s-14.9-2.1-15.4-4.1V23v-8.1c1.8,2,8,3.8,15.4,3.8s13.6-1.5,15.4-3.6V22.7L50.4,22.7z"/>
	<rect x="19.3" y="50.1" class="st8" width="33.1" height="14.8"/>
	<text transform="matrix(1 0 0 1 21.8462 62.166)" class="st7 st9 st10">SQL</text>
</g>
</svg>
