<?xml version="1.0" encoding="utf-8"?>
<!-- Generator: Adobe Illustrator 28.0.0, SVG Export Plug-In . SVG Version: 6.00 Build 0)  -->
<svg version="1.1" id="Layer_1" xmlns="http://www.w3.org/2000/svg" xmlns:xlink="http://www.w3.org/1999/xlink" x="0px" y="0px"
	 viewBox="0 0 70 70" style="enable-background:new 0 0 70 70;" xml:space="preserve">
<style type="text/css">
	.st0{clip-path:url(#SVGID_00000141416029399843907640000003186605795875618703_);fill:#9ADBF9;}
	
		.st1{clip-path:url(#SVGID_00000141416029399843907640000003186605795875618703_);fill:none;stroke:#FFFFFF;stroke-width:2;stroke-miterlimit:10;stroke-opacity:0.2;}
	.st2{display:none;clip-path:url(#SVGID_00000141416029399843907640000003186605795875618703_);}
	.st3{display:inline;fill:#E44D26;}
	.st4{display:inline;fill:#F16529;}
	.st5{display:inline;fill:#EBEBEB;}
	.st6{display:inline;fill:#FFFFFF;}
	.st7{fill:#003B57;}
	.st8{fill:#0F80CC;}
	.st9{fill:url(#SVGID_00000064320727312108850390000009015533029273205936_);}
</style>
<g>
	<defs>
		<path id="SVGID_1_" d="M10,0h50c5.5,0,10,4.5,10,10v50c0,5.5-4.5,10-10,10H10C4.5,70,0,65.5,0,60V10C0,4.5,4.5,0,10,0z"/>
	</defs>
	<clipPath id="SVGID_00000061469550240101374970000003515196861296132502_">
		<use xlink:href="#SVGID_1_"  style="overflow:visible;"/>
	</clipPath>
	<path style="clip-path:url(#SVGID_00000061469550240101374970000003515196861296132502_);fill:#9ADBF9;" d="M10,0h50
		c5.5,0,10,4.5,10,10.1v50.3c0,5.6-4.5,10.1-10,10.1H10c-5.5,0-10-4.5-10-10.1V10.1C0,4.5,4.5,0,10,0z"/>
	
		<path style="clip-path:url(#SVGID_00000061469550240101374970000003515196861296132502_);fill:none;stroke:#FFFFFF;stroke-width:2;stroke-miterlimit:10;stroke-opacity:0.2;" d="
		M94.9-15.5c0,0-26.4,12.6-21.7,43.6C78.4,63,48,77.9,27.1,69.3C6.3,60.7,7.8,28.7-31.8,27.7c-40.4-1-48.9-41.2-48.9-41.2"/>
	
		<path style="clip-path:url(#SVGID_00000061469550240101374970000003515196861296132502_);fill:none;stroke:#FFFFFF;stroke-width:2;stroke-miterlimit:10;stroke-opacity:0.2;" d="
		M64.4-24.9c0,0-11.4,26.6-7.3,53c4.1,26.4-14.4,29.5-21.7,26.4C20.1,48.1,17.1,13.8-7.5,11.6C-26,9.9-50.9,23.2-64-6.9"/>
	
		<path style="clip-path:url(#SVGID_00000061469550240101374970000003515196861296132502_);fill:none;stroke:#FFFFFF;stroke-width:2;stroke-miterlimit:10;stroke-opacity:0.2;" d="
		M52.1-13c0,0,4.1,27.1-14.1,22.3C17.1,3.7,17.5-9.4-8.9,3c-9.4,4.4-47.2,5.7-39.6-18.5"/>
	
		<path style="clip-path:url(#SVGID_00000061469550240101374970000003515196861296132502_);fill:none;stroke:#FFFFFF;stroke-width:2;stroke-miterlimit:10;stroke-opacity:0.2;" d="
		M38.9,45.1c4.4,0,7.9-5.5,7.9-12.2s-3.5-12.2-7.9-12.2S31,26.2,31,32.9S34.5,45.1,38.9,45.1z"/>
	<g style="display:none;clip-path:url(#SVGID_00000061469550240101374970000003515196861296132502_);">
		<path class="st3" d="M17.7,55l-4-45h43.6l-4,45l-17.8,5L17.7,55z"/>
		<path class="st4" d="M35.5,56.2l14.4-4l3.4-38.4H35.5V56.2z"/>
		<path class="st5" d="M35.5,30.4h-7.2l-0.5-5.7h7.7v-5.5H21.8l0.1,1.5l1.3,15.2h12.2V30.4z M35.5,44.7L35.5,44.7l-6.1-1.7L29,38.6
			h-5.5l0.8,8.7l11.2,3.1l0,0V44.7z"/>
		<path class="st6" d="M35.5,30.4v5.5h6.7L41.6,43l-6.1,1.7v5.7l11.2-3.1l0.1-0.9L48,31.9l0.1-1.5h-1.5H35.5z M35.5,19.2v5.5h13.2
			l0.1-1.2l0.2-2.8l0.1-1.5H35.5z"/>
	</g>
</g>
<g>
	<path class="st7" d="M28.3,34.8c-0.8,0-1.4,0.2-1.8,0.7c-0.5,0.4-0.7,1-0.7,1.7c0,0.4,0.1,0.7,0.2,1c0.1,0.3,0.3,0.6,0.5,0.9
		c0.2,0.3,0.7,0.6,1.5,1.1c0.9,0.5,1.5,1,1.8,1.3c0.3,0.3,0.4,0.7,0.4,1.1c0,0.5-0.2,0.9-0.5,1.2c-0.3,0.3-0.8,0.5-1.4,0.5
		c-0.6,0-1.1-0.2-1.6-0.6c-0.4-0.4-0.7-1-0.7-1.7h-0.3v2.5H26c0.1-0.2,0.2-0.4,0.4-0.4c0.1,0,0.2,0.1,0.5,0.1
		c0.7,0.2,1.2,0.3,1.6,0.3c0.7,0,1.3-0.3,1.9-0.8c0.5-0.5,0.8-1.1,0.8-1.9c0-0.6-0.2-1.1-0.5-1.5c-0.3-0.4-1-0.9-2-1.5
		c-0.8-0.5-1.4-0.9-1.6-1.2c-0.3-0.3-0.4-0.7-0.4-1.1c0-0.4,0.2-0.8,0.5-1c0.3-0.3,0.7-0.4,1.2-0.4c0.6,0,1,0.2,1.4,0.5
		c0.4,0.3,0.6,0.8,0.7,1.4h0.3v-2.2h-0.3c0,0.1-0.1,0.2-0.1,0.2c0,0-0.1,0-0.2,0c-0.1,0-0.2,0-0.5-0.1
		C29.1,34.9,28.7,34.8,28.3,34.8L28.3,34.8z M37.3,34.8c-0.9,0-1.7,0.2-2.5,0.6c-0.8,0.4-1.3,1-1.8,1.8c-0.4,0.8-0.7,1.6-0.7,2.4
		c0,1.2,0.4,2.2,1.1,3.1c0.8,0.9,1.7,1.5,2.7,1.7c0.2,0.1,0.6,0.5,1,1c0.5,0.6,0.9,1,1.3,1.3c0.3,0.3,0.7,0.4,1.1,0.6
		c0.4,0.1,0.8,0.2,1.3,0.2c0.6,0,1.1-0.1,1.5-0.3l-0.1-0.3c-0.3,0.1-0.5,0.1-0.8,0.1c-0.4,0-0.8-0.1-1.2-0.4
		c-0.4-0.3-0.9-0.8-1.5-1.5c-0.3-0.4-0.5-0.6-0.6-0.7c1.2-0.2,2.1-0.8,2.9-1.7c0.7-0.9,1.1-1.9,1.1-3.1c0-1.4-0.5-2.5-1.5-3.5
		C39.9,35.3,38.7,34.8,37.3,34.8L37.3,34.8z M43,34.8l0,0.3c0.6,0,0.9,0.2,1,0.5c0,0.1,0,0.4,0,0.7l0,6.6c0,0.5-0.1,0.8-0.2,0.9
		c-0.1,0.1-0.4,0.2-0.7,0.3l0,0.3h6.1l0.2-1.5h-0.3c-0.1,0.4-0.3,0.7-0.5,0.9C48.2,44,47.7,44,47,44h-0.6c-0.7,0-1.1-0.2-1.2-0.7
		c0-0.1,0-0.2,0-0.3l0-6.6c0-0.5,0.1-0.8,0.2-1c0.1-0.2,0.4-0.2,0.7-0.3l0-0.3H43L43,34.8z M37.4,35.2c1,0,1.9,0.4,2.5,1.2
		c0.6,0.8,1,1.9,1,3.4c0,1.3-0.3,2.4-1,3.2c-0.7,0.8-1.5,1.2-2.6,1.2c-1,0-1.9-0.4-2.5-1.3c-0.6-0.8-1-1.9-1-3.3
		c0-1.4,0.3-2.5,1-3.3C35.4,35.6,36.3,35.2,37.4,35.2L37.4,35.2z M51.4,36.6c-0.1,0-0.3,0-0.3,0.2c-0.1,0.1-0.1,0.2-0.1,0.4
		c0,0.1,0.1,0.3,0.2,0.4c0.1,0.1,0.3,0.2,0.4,0.2c0.1,0,0.3-0.1,0.3-0.2c0.1-0.1,0.1-0.2,0.1-0.4c0-0.1-0.1-0.3-0.2-0.4
		C51.6,36.7,51.5,36.6,51.4,36.6L51.4,36.6z M55.4,37.6c-0.3,1-0.8,1.5-1.6,1.6l0,0.3h1l0,3.3c0,0.6,0,0.9,0.1,1.1
		c0.1,0.5,0.4,0.7,0.9,0.7c0.7,0,1.5-0.4,2.3-1.3L57.7,43c-0.6,0.6-1.1,0.9-1.5,0.9c-0.3,0-0.4-0.2-0.5-0.5c0-0.1,0-0.2,0-0.3l0-3.7
		h1.5l0-0.4h-1.5v-1.4H55.4L55.4,37.6z M61.1,38.8c-0.8,0-1.5,0.4-2,1.2c-0.5,0.8-0.7,1.7-0.5,2.7c0.1,0.6,0.4,1,0.7,1.3
		c0.4,0.3,0.8,0.5,1.4,0.5c0.5,0,1.2-0.1,1.6-0.4c0.3-0.3,0.6-0.7,0.9-1.3l-0.2-0.2c-0.4,0.8-1.3,1.2-1.9,1.2
		c-0.9,0-1.4-0.5-1.6-1.4c0-0.1,0-0.3-0.1-0.4c1-0.2,1.8-0.5,2.4-0.9c0.5-0.4,1.1-0.9,1-1.3c-0.1-0.3-0.2-0.5-0.4-0.7
		C62,38.9,61.5,38.8,61.1,38.8L61.1,38.8z M52,38.9l-1.8,0.4v0.3l0.6-0.1c0.3,0,0.5,0.1,0.5,0.4c0,0.1,0,0.2,0,0.4l0,2.9
		c0,0.4-0.1,0.6-0.1,0.7c-0.1,0.1-0.3,0.1-0.7,0.1l0,0.3h2.9l0-0.3c-0.4,0-0.7,0-0.8-0.1c-0.1-0.1-0.2-0.2-0.2-0.3
		c0-0.1,0-0.3,0-0.6l0-4.2L52,38.9L52,38.9z M60.7,39.4c0.2,0,0.3,0.1,0.5,0.2c0.2,0.1,0.3,0.3,0.3,0.4c0.2,0.8-0.5,1.3-2.1,1.6
		c0-0.6,0.1-1.1,0.3-1.6C59.9,39.7,60.3,39.4,60.7,39.4L60.7,39.4z"/>
	<path class="st8" d="M24.2,23.6H8.7c-1,0-1.9,0.8-1.9,1.9v17.1c0,1,0.8,1.9,1.9,1.9h10.2C18.8,39.4,20.6,29.5,24.2,23.6L24.2,23.6z
		"/>
	
		<linearGradient id="SVGID_00000036242471167715172040000005063482499041139328_" gradientUnits="userSpaceOnUse" x1="-922.7319" y1="575.402" x2="-922.7319" y2="575.3812" gradientTransform="matrix(721.3655 0 0 -761.6777 665642.5 438295.3438)">
		<stop  offset="0" style="stop-color:#97D9F6"/>
		<stop  offset="0.9202" style="stop-color:#0F80CC"/>
		<stop  offset="1" style="stop-color:#0F80CC"/>
	</linearGradient>
	<path style="fill:url(#SVGID_00000036242471167715172040000005063482499041139328_);" d="M23.7,24.2H8.7c-0.7,0-1.3,0.6-1.3,1.3
		v15.8c3.4-1.3,8.4-2.4,12-2.4C20.1,35.3,22.1,28,23.7,24.2L23.7,24.2z"/>
	<path class="st7" d="M27.8,23c-1.1-0.9-2.3-0.6-3.6,0.6c-0.2,0.2-0.4,0.4-0.6,0.6c-2.2,2.3-4.2,6.6-4.8,9.8
		c0.2,0.5,0.4,1.1,0.6,1.6c0,0.1,0.1,0.2,0.1,0.3c0.1,0.2,0.1,0.4,0.1,0.4s0-0.1-0.1-0.3c0,0,0-0.1-0.1-0.1c0,0,0-0.1,0-0.1
		c-0.1-0.3-0.5-1-0.7-1.3c-0.1,0.4-0.3,0.8-0.4,1.2c0.5,0.9,0.8,2.5,0.8,2.5s0-0.1-0.2-0.5c-0.1-0.3-0.7-1.3-0.8-1.5
		c-0.2,0.8-0.3,1.4-0.2,1.5c0.2,0.3,0.3,0.7,0.4,1.2c0.3,1.1,0.5,2.5,0.5,2.5s0,0.1,0,0.2c0,0.9,0,1.9,0.1,2.8
		c0.1,1.2,0.3,2.2,0.5,2.7l0.2-0.1c-0.3-1.1-0.5-2.5-0.4-4.1c0.1-2.5,0.7-5.4,1.7-8.5c1.8-4.7,4.2-8.4,6.5-10.2
		c-2,1.9-4.8,7.8-5.7,10.1c-0.9,2.5-1.6,4.8-2,7c0.7-2.1,2.9-3,2.9-3s1.1-1.3,2.4-3.3c-0.8,0.2-2,0.5-2.4,0.6
		c-0.6,0.3-0.8,0.3-0.8,0.3s2-1.2,3.7-1.8C27.9,30.6,30.4,25.4,27.8,23"/>
</g>
</svg>
