<?xml version="1.0" encoding="utf-8"?>
<!-- Generator: Adobe Illustrator 28.0.0, SVG Export Plug-In . SVG Version: 6.00 Build 0)  -->
<svg version="1.1" id="Layer_1" xmlns="http://www.w3.org/2000/svg" xmlns:xlink="http://www.w3.org/1999/xlink" x="0px" y="0px"
	 viewBox="0 0 70 70" style="enable-background:new 0 0 70 70;" xml:space="preserve">
<style type="text/css">
	.st0{clip-path:url(#SVGID_00000014596322415760679650000004957907343516005544_);fill:#003B50;}
	
		.st1{clip-path:url(#SVGID_00000014596322415760679650000004957907343516005544_);fill:none;stroke:#FFFFFF;stroke-width:2;stroke-miterlimit:10;stroke-opacity:0.2;}
	.st2{display:none;clip-path:url(#SVGID_00000014596322415760679650000004957907343516005544_);}
	.st3{display:inline;fill:#E44D26;}
	.st4{display:inline;fill:#F16529;}
	.st5{display:inline;fill:#EBEBEB;}
	.st6{display:inline;fill:#FFFFFF;}
	.st7{fill:#007ACC;}
	.st8{fill:#FFFFFF;}
</style>
<g>
	<defs>
		<path id="SVGID_1_" d="M10,0h50c5.5,0,10,4.5,10,10v50c0,5.5-4.5,10-10,10H10C4.5,70,0,65.5,0,60V10C0,4.5,4.5,0,10,0z"/>
	</defs>
	<clipPath id="SVGID_00000052794001321549725860000009120801358864104834_">
		<use xlink:href="#SVGID_1_"  style="overflow:visible;"/>
	</clipPath>
	<path style="clip-path:url(#SVGID_00000052794001321549725860000009120801358864104834_);fill:#003B50;" d="M10,0h50
		c5.5,0,10,4.5,10,10v50c0,5.5-4.5,10-10,10H10C4.5,70,0,65.5,0,60V10C0,4.5,4.5,0,10,0z"/>
	
		<path style="clip-path:url(#SVGID_00000052794001321549725860000009120801358864104834_);fill:none;stroke:#FFFFFF;stroke-width:2;stroke-miterlimit:10;stroke-opacity:0.2;" d="
		M94.9-15.5c0,0-26.4,12.6-21.7,43.6C78.4,63,48,77.9,27.1,69.3C6.3,60.7,7.8,28.7-31.8,27.7c-40.4-1-48.9-41.2-48.9-41.2"/>
	
		<path style="clip-path:url(#SVGID_00000052794001321549725860000009120801358864104834_);fill:none;stroke:#FFFFFF;stroke-width:2;stroke-miterlimit:10;stroke-opacity:0.2;" d="
		M64.4-24.9c0,0-11.4,26.6-7.3,53c4.1,26.4-14.4,29.5-21.7,26.4C20.1,48.1,17.1,13.8-7.5,11.6C-26,9.9-50.9,23.2-64-6.9"/>
	
		<path style="clip-path:url(#SVGID_00000052794001321549725860000009120801358864104834_);fill:none;stroke:#FFFFFF;stroke-width:2;stroke-miterlimit:10;stroke-opacity:0.2;" d="
		M52.1-13c0,0,4.1,27.1-14.1,22.3C17.1,3.7,17.5-9.4-8.9,3c-9.4,4.4-47.2,5.7-39.6-18.5"/>
	
		<path style="clip-path:url(#SVGID_00000052794001321549725860000009120801358864104834_);fill:none;stroke:#FFFFFF;stroke-width:2;stroke-miterlimit:10;stroke-opacity:0.2;" d="
		M38.9,45.1c4.4,0,7.9-5.5,7.9-12.2s-3.5-12.2-7.9-12.2S31,26.2,31,32.9S34.5,45.1,38.9,45.1z"/>
	<g style="display:none;clip-path:url(#SVGID_00000052794001321549725860000009120801358864104834_);">
		<path class="st3" d="M17.7,55l-4-45h43.6l-4,45l-17.8,5L17.7,55z"/>
		<path class="st4" d="M35.5,56.2l14.4-4l3.4-38.4H35.5V56.2z"/>
		<path class="st5" d="M35.5,30.4h-7.2l-0.5-5.7h7.7v-5.5H21.8l0.1,1.5l1.3,15.2h12.2V30.4z M35.5,44.7L35.5,44.7l-6.1-1.7L29,38.6
			h-5.5l0.8,8.7l11.2,3.1l0,0V44.7z"/>
		<path class="st6" d="M35.5,30.4v5.5h6.7L41.6,43l-6.1,1.7v5.7l11.2-3.1l0.1-0.9L48,31.9l0.1-1.5h-1.5H35.5z M35.5,19.2v5.5h13.2
			l0.1-1.2l0.2-2.8l0.1-1.5H35.5z"/>
	</g>
</g>
<g>
	<path class="st7" d="M10.8,35V10.8h48.5v48.5H10.8"/>
	<path class="st8" d="M21.4,35.1v2h6.3V55h4.5V37.1h6.3v-1.9c0-1.1,0-2,0-2c0,0-3.8,0-8.5,0l-8.5,0L21.4,35.1L21.4,35.1L21.4,35.1z
		 M49.7,33.1c1.2,0.3,2.2,0.8,3,1.7c0.4,0.5,1.1,1.3,1.2,1.6c0,0.1-2.1,1.5-3.4,2.3c0,0-0.2-0.2-0.4-0.5c-0.6-0.9-1.3-1.3-2.3-1.4
		c-1.5-0.1-2.4,0.7-2.4,1.9c0,0.4,0.1,0.6,0.2,0.9c0.3,0.7,0.9,1.1,2.8,1.9c3.5,1.5,5,2.5,5.9,3.9c1,1.6,1.3,4,0.6,5.9
		c-0.8,2-2.7,3.4-5.4,3.8c-0.8,0.1-2.8,0.1-3.7,0c-1.9-0.4-3.8-1.3-4.9-2.6c-0.4-0.5-1.3-1.8-1.3-1.9l0.5-0.3l1.8-1.1l1.4-0.8
		l0.3,0.4c0.4,0.6,1.3,1.5,1.8,1.8c1.6,0.8,3.7,0.7,4.7-0.2c0.4-0.4,0.6-0.8,0.6-1.5c0-0.6-0.1-0.8-0.4-1.2c-0.4-0.5-1.2-1-3.3-1.9
		c-2.5-1.1-3.6-1.7-4.6-2.8c-0.6-0.6-1.1-1.6-1.3-2.4c-0.2-0.7-0.2-2.4-0.1-3.1c0.5-2.4,2.4-4.1,5-4.6
		C46.9,32.7,48.9,32.8,49.7,33.1L49.7,33.1L49.7,33.1z"/>
</g>
</svg>
