<?xml version="1.0" encoding="utf-8"?>
<!-- Generator: Adobe Illustrator 28.0.0, SVG Export Plug-In . SVG Version: 6.00 Build 0)  -->
<svg version="1.1" id="Layer_1" xmlns="http://www.w3.org/2000/svg" xmlns:xlink="http://www.w3.org/1999/xlink" x="0px" y="0px"
	 viewBox="0 0 70 70" style="enable-background:new 0 0 70 70;" xml:space="preserve">
<style type="text/css">
	.st0{clip-path:url(#SVGID_00000155849620435704944280000006878863082711103926_);fill:#97DAF8;}
	
		.st1{clip-path:url(#SVGID_00000155849620435704944280000006878863082711103926_);fill:none;stroke:#FFFFFF;stroke-width:2;stroke-miterlimit:10;stroke-opacity:0.2;}
	.st2{display:none;clip-path:url(#SVGID_00000155849620435704944280000006878863082711103926_);}
	.st3{display:inline;fill:#E44D26;}
	.st4{display:inline;fill:#F16529;}
	.st5{display:inline;fill:#EBEBEB;}
	.st6{display:inline;fill:#FFFFFF;}
	.st7{fill:#21759B;}
</style>
<g>
	<defs>
		<path id="SVGID_1_" d="M10,0h50c5.5,0,10,4.5,10,10v50c0,5.5-4.5,10-10,10H10C4.5,70,0,65.5,0,60V10C0,4.5,4.5,0,10,0z"/>
	</defs>
	<clipPath id="SVGID_00000116935032271274688620000017286471668187642040_">
		<use xlink:href="#SVGID_1_"  style="overflow:visible;"/>
	</clipPath>
	<path style="clip-path:url(#SVGID_00000116935032271274688620000017286471668187642040_);fill:#97DAF8;" d="M10,0h50
		c5.5,0,10,4.5,10,10.1v50.3c0,5.6-4.5,10.1-10,10.1H10c-5.5,0-10-4.5-10-10.1V10.1C0,4.5,4.5,0,10,0z"/>
	
		<path style="clip-path:url(#SVGID_00000116935032271274688620000017286471668187642040_);fill:none;stroke:#FFFFFF;stroke-width:2;stroke-miterlimit:10;stroke-opacity:0.2;" d="
		M94.9-15.5c0,0-26.4,12.6-21.7,43.6C78.4,63,48,77.9,27.1,69.3C6.3,60.7,7.8,28.7-31.8,27.7c-40.4-1-48.9-41.2-48.9-41.2"/>
	
		<path style="clip-path:url(#SVGID_00000116935032271274688620000017286471668187642040_);fill:none;stroke:#FFFFFF;stroke-width:2;stroke-miterlimit:10;stroke-opacity:0.2;" d="
		M64.4-24.9c0,0-11.4,26.6-7.3,53c4.1,26.4-14.4,29.5-21.7,26.4C20.1,48.1,17.1,13.8-7.5,11.6C-26,9.9-50.9,23.2-64-6.9"/>
	
		<path style="clip-path:url(#SVGID_00000116935032271274688620000017286471668187642040_);fill:none;stroke:#FFFFFF;stroke-width:2;stroke-miterlimit:10;stroke-opacity:0.2;" d="
		M52.1-13c0,0,4.1,27.1-14.1,22.3C17.1,3.7,17.5-9.4-8.9,3c-9.4,4.4-47.2,5.7-39.6-18.5"/>
	
		<path style="clip-path:url(#SVGID_00000116935032271274688620000017286471668187642040_);fill:none;stroke:#FFFFFF;stroke-width:2;stroke-miterlimit:10;stroke-opacity:0.2;" d="
		M38.9,45.1c4.4,0,7.9-5.5,7.9-12.2s-3.5-12.2-7.9-12.2S31,26.2,31,32.9S34.5,45.1,38.9,45.1z"/>
	<g style="display:none;clip-path:url(#SVGID_00000116935032271274688620000017286471668187642040_);">
		<path class="st3" d="M17.7,55l-4-45h43.6l-4,45l-17.8,5L17.7,55z"/>
		<path class="st4" d="M35.5,56.2l14.4-4l3.4-38.4H35.5V56.2z"/>
		<path class="st5" d="M35.5,30.4h-7.2l-0.5-5.7h7.7v-5.5H21.8l0.1,1.5l1.3,15.2h12.2V30.4z M35.5,44.7L35.5,44.7l-6.1-1.7L29,38.6
			h-5.5l0.8,8.7l11.2,3.1l0,0V44.7z"/>
		<path class="st6" d="M35.5,30.4v5.5h6.7L41.6,43l-6.1,1.7v5.7l11.2-3.1l0.1-0.9L48,31.9l0.1-1.5h-1.5H35.5z M35.5,19.2v5.5h13.2
			l0.1-1.2l0.2-2.8l0.1-1.5H35.5z"/>
	</g>
</g>
<g>
	<path class="st7" d="M35,61.5C20.3,61.5,8.4,49.8,8.5,35C8.6,20.2,19.7,8.5,35,8.5c15.3,0,26.5,11.9,26.5,26.5S49.7,61.5,35,61.5z
		 M42.8,57.4l-7.5-20.2l-7.1,20.7C33.5,59.1,37,59.4,42.8,57.4L42.8,57.4z M24.5,56.3L13.2,25.5c-1.5,3.3-1.9,6.1-2.1,9.5
		C11.2,44.1,16.3,52.4,24.5,56.3z M58.8,35c0.1-5.9-2.5-10.5-2.8-11.2c0.2,4.5-0.4,6.9-1.2,9.4L47,55.4c9.7-5.9,11.6-14.6,11.8-20.4
		H58.8L58.8,35z M34.2,34l-3.8-10.3l-2.8-0.2c-1.1-0.8-0.4-2,0.3-2c5,0.3,7.7,0.3,12.7,0c1.2,0,1.5,1.8,0.1,2l-2.7,0.2l8.6,25.4
		l4.1-13.9c0.2-6.1-1.4-6.7-3.6-11.2c-1.8-3.4,0.1-6.7,3.5-6.9c-2.8-2.7-8.4-6-15.8-6.1s-15.3,3.6-19.9,10.7l8.2-0.2
		c1,0.4,0.6,1.9,0,2l-2.9,0.2L29,49.7L34.2,34L34.2,34z"/>
</g>
</svg>
