<?xml version="1.0" encoding="utf-8"?>
<!-- Generator: Adobe Illustrator 28.0.0, SVG Export Plug-In . SVG Version: 6.00 Build 0)  -->
<svg version="1.1" id="Layer_1" xmlns="http://www.w3.org/2000/svg" xmlns:xlink="http://www.w3.org/1999/xlink" x="0px" y="0px"
	 viewBox="0 0 70 70" style="enable-background:new 0 0 70 70;" xml:space="preserve">
<style type="text/css">
	.st0{clip-path:url(#SVGID_00000014606778503702503660000015154218894919030688_);fill:#2D6D85;}
	
		.st1{clip-path:url(#SVGID_00000014606778503702503660000015154218894919030688_);fill:none;stroke:#FFFFFF;stroke-width:2;stroke-miterlimit:10;stroke-opacity:0.2;}
	.st2{display:none;clip-path:url(#SVGID_00000014606778503702503660000015154218894919030688_);}
	.st3{display:inline;fill:#E44D26;}
	.st4{display:inline;fill:#F16529;}
	.st5{display:inline;fill:#EBEBEB;}
	.st6{display:inline;fill:#FFFFFF;}
	.st7{clip-path:url(#SVGID_00000060032071402051285620000002967748543773194650_);}
	.st8{fill:#FFFFFF;filter:url(#Adobe_OpacityMaskFilter);}
	.st9{mask:url(#mask0_1008_94177_00000071537127686039034340000007944323653677630384_);}
	.st10{fill:#0B23A9;}
	.st11{fill:url(#SVGID_00000022522270209759505800000010891122760415195306_);}
</style>
<g>
	<defs>
		<path id="SVGID_1_" d="M10,0h50c5.5,0,10,4.5,10,10v50c0,5.5-4.5,10-10,10H10C4.5,70,0,65.5,0,60V10C0,4.5,4.5,0,10,0z"/>
	</defs>
	<clipPath id="SVGID_00000121275675441591404600000010232089489243918222_">
		<use xlink:href="#SVGID_1_"  style="overflow:visible;"/>
	</clipPath>
	<path style="clip-path:url(#SVGID_00000121275675441591404600000010232089489243918222_);fill:#2D6D85;" d="M10,0h50
		c5.5,0,10,4.5,10,10v50c0,5.5-4.5,10-10,10H10C4.5,70,0,65.5,0,60V10C0,4.5,4.5,0,10,0z"/>
	
		<path style="clip-path:url(#SVGID_00000121275675441591404600000010232089489243918222_);fill:none;stroke:#FFFFFF;stroke-width:2;stroke-miterlimit:10;stroke-opacity:0.2;" d="
		M94.9-15.5c0,0-26.4,12.6-21.7,43.6C78.4,63,48,77.9,27.1,69.3C6.3,60.7,7.8,28.7-31.8,27.7c-40.4-1-48.9-41.2-48.9-41.2"/>
	
		<path style="clip-path:url(#SVGID_00000121275675441591404600000010232089489243918222_);fill:none;stroke:#FFFFFF;stroke-width:2;stroke-miterlimit:10;stroke-opacity:0.2;" d="
		M64.4-24.9c0,0-11.4,26.6-7.3,53c4.1,26.4-14.4,29.5-21.7,26.4C20.1,48.1,17.1,13.8-7.5,11.6C-26,9.9-50.9,23.2-64-6.9"/>
	
		<path style="clip-path:url(#SVGID_00000121275675441591404600000010232089489243918222_);fill:none;stroke:#FFFFFF;stroke-width:2;stroke-miterlimit:10;stroke-opacity:0.2;" d="
		M52.1-13c0,0,4.1,27.1-14.1,22.3C17.1,3.7,17.5-9.4-8.9,3c-9.4,4.4-47.2,5.7-39.6-18.5"/>
	
		<path style="clip-path:url(#SVGID_00000121275675441591404600000010232089489243918222_);fill:none;stroke:#FFFFFF;stroke-width:2;stroke-miterlimit:10;stroke-opacity:0.2;" d="
		M38.9,45.1c4.4,0,7.9-5.5,7.9-12.2s-3.5-12.2-7.9-12.2S31,26.2,31,32.9S34.5,45.1,38.9,45.1z"/>
	<g style="display:none;clip-path:url(#SVGID_00000121275675441591404600000010232089489243918222_);">
		<path class="st3" d="M17.7,55l-4-45h43.6l-4,45l-17.8,5L17.7,55z"/>
		<path class="st4" d="M35.5,56.2l14.4-4l3.4-38.4H35.5V56.2z"/>
		<path class="st5" d="M35.5,30.4h-7.2l-0.5-5.7h7.7v-5.5H21.8l0.1,1.5l1.3,15.2h12.2V30.4z M35.5,44.7L35.5,44.7l-6.1-1.7L29,38.6
			h-5.5l0.8,8.7l11.2,3.1l0,0V44.7z"/>
		<path class="st6" d="M35.5,30.4v5.5h6.7L41.6,43l-6.1,1.7v5.7l11.2-3.1l0.1-0.9L48,31.9l0.1-1.5h-1.5H35.5z M35.5,19.2v5.5h13.2
			l0.1-1.2l0.2-2.8l0.1-1.5H35.5z"/>
	</g>
</g>
<g>
	<g>
		<defs>
			<rect id="SVGID_00000103230710199779684200000008231596857753407384_" x="8.8" y="7.5" width="52.4" height="54.9"/>
		</defs>
		<clipPath id="SVGID_00000031203220940678463610000016783647771427820444_">
			<use xlink:href="#SVGID_00000103230710199779684200000008231596857753407384_"  style="overflow:visible;"/>
		</clipPath>
		<g style="clip-path:url(#SVGID_00000031203220940678463610000016783647771427820444_);">
			<defs>
				<filter id="Adobe_OpacityMaskFilter" filterUnits="userSpaceOnUse" x="8.7" y="8.8" width="52.5" height="53.5">
					<feColorMatrix  type="matrix" values="1 0 0 0 0  0 1 0 0 0  0 0 1 0 0  0 0 0 1 0"/>
				</filter>
			</defs>
			
				<mask maskUnits="userSpaceOnUse" x="8.7" y="8.8" width="52.5" height="53.5" id="mask0_1008_94177_00000071537127686039034340000007944323653677630384_">
				<path class="st8" d="M61.3,8.8H8.7v53.6h52.6V8.8z"/>
			</mask>
			<g class="st9">
				<path class="st10" d="M21,8.8c-6.8,0-12.3,5.5-12.3,12.3c0,6.8,5.5,12.3,12.3,12.3c6.8,0,12.3-5.5,12.3-12.3
					C33.3,14.3,27.8,8.8,21,8.8z"/>
				<path class="st10" d="M34.9,47.4c-4.4,0-8.6-1.1-12.3-3.1v5.6c0,6.8,5.4,12.4,12.2,12.5c6.8,0.1,12.4-5.5,12.4-12.3v-5.7
					C43.6,46.2,39.4,47.4,34.9,47.4z"/>
				
					<linearGradient id="SVGID_00000056389542106389798920000001092533523572387211_" gradientUnits="userSpaceOnUse" x1="23.5836" y1="25.085" x2="54.0646" y2="58.8362" gradientTransform="matrix(1 0 0 -1 0 72)">
					<stop  offset="0" style="stop-color:#09DBF0"/>
					<stop  offset="1" style="stop-color:#0B23A9"/>
				</linearGradient>
				<path style="fill:url(#SVGID_00000056389542106389798920000001092533523572387211_);" d="M36.6,21.1c0,8.6-7,15.5-15.6,15.5
					c-3.3,0-6.4-1-9-2.8c4.5,8,13.1,13.5,22.9,13.5c14.3,0,26-11.6,26.3-25.9l0,0c0-0.4,0-0.1,0-0.4c0-6.8-5.5-12.3-12.3-12.3
					C42.1,8.8,36.6,14.3,36.6,21.1z"/>
			</g>
		</g>
	</g>
</g>
</svg>
